<svg width="127" height="117" viewBox="0 0 127 117" fill="none" xmlns="http://www.w3.org/2000/svg">
<path d="M61.1776 26.1469L61.3001 27.0293L62.1907 27.0091C62.4597 27.0031 62.7295 27 63 27C63.5478 27 64.0925 27.0125 64.6336 27.0373L65.5455 27.0791L65.67 26.1748C67.5409 12.5873 79.9753 2 95.1386 2C111.612 2 124.851 14.4853 124.851 29.75C124.851 44.4543 112.569 56.5768 96.941 57.4498L96.0104 57.5018L95.9968 58.4336L95.9952 58.5337L95.9779 59.4964L96.9393 59.5501C112.569 60.4223 124.852 72.5451 124.852 87.25C124.852 102.515 111.612 115 95.1387 115C79.6198 115 66.9626 103.913 65.5561 89.8672L65.4621 88.9276L64.5186 88.9678C64.0153 88.9892 63.509 89 63 89C62.7685 89 62.5375 88.9978 62.3071 88.9933L61.3856 88.9755L61.2928 89.8925C59.8738 103.926 47.2224 115 31.7129 115C15.2397 115 2 102.515 2 87.25C2 72.8046 13.8518 60.8522 29.0875 59.6068L30.0245 59.5302L30.0059 58.5903C30.0044 58.5192 30.0033 58.4481 30.0024 58.3769L29.9909 57.4671L29.084 57.3929C13.85 56.146 2 44.1943 2 29.75C2 14.4853 15.2397 2 31.7129 2C46.8658 2 59.2936 12.5729 61.1776 26.1469Z" fill="#ED70AE" stroke="#D25493" stroke-width="2"/>
</svg>
