<svg width="124" height="115" viewBox="0 0 124 115" fill="none" xmlns="http://www.w3.org/2000/svg">
<path d="M0.5 31.6667C0.5 14.4538 14.4538 0.5 31.6667 0.5H92.3333C109.546 0.5 123.5 14.4538 123.5 31.6667C123.5 45.3817 112.382 56.5 98.6667 56.5H98.2222V57V57.5C112.183 57.5 123.5 68.8173 123.5 82.7778C123.5 100.297 109.297 114.5 91.7778 114.5H32.2222C14.7025 114.5 0.5 100.297 0.5 82.7778C0.5 68.8173 11.8172 57.5 25.7778 57.5V57V56.5H25.3333C11.6183 56.5 0.5 45.3817 0.5 31.6667Z" fill="#7BC1F4" stroke="#3C6D92"/>
</svg>
