<svg width="217" height="79" viewBox="0 0 217 79" fill="none" xmlns="http://www.w3.org/2000/svg">
<path d="M139.902 67.064C139.902 67.064 139.204 66.9517 138.93 66.7714C138.66 66.5912 137.801 67.2939 137.351 67.4506C137.351 67.4506 135.307 68.8821 133.187 70.5669C133.315 70.5068 133.438 70.4441 133.559 70.3684C134.539 70.3971 135.576 70.1202 136.452 70.6949C136.536 70.7524 136.635 70.8177 136.734 70.8255C137.821 70.9196 138.906 70.7733 139.973 71.2565C140.772 71.617 141.964 71.2382 142.761 71.8495C142.814 71.8913 142.978 71.8416 143.088 71.8469C143.504 71.8547 143.783 71.2382 144.202 71.6066C144.729 72.0689 145.098 71.2905 145.616 71.5987C145.736 71.6693 145.885 71.7215 146.049 71.7607C144.447 70.1908 141.844 67.8398 139.905 67.0666L139.902 67.064ZM40.4376 33.6623C39.9384 33.6702 39.6117 33.8321 39.5568 34.2422C39.5124 34.5609 39.6195 34.9553 39.1595 35.1356C38.71 35.3106 38.0983 35.6084 37.7403 35.4987C36.8176 35.2218 36.1825 35.9271 35.2938 35.7312C34.5463 35.5692 33.8276 35.8539 33.0957 36.1204C32.3456 36.3973 31.3236 36.0446 30.5735 36.567C30.435 36.6637 30.1605 36.6689 29.9462 36.6768C28.8328 36.7055 27.5756 36.4887 26.6399 36.8074C25.5447 37.1861 24.4757 37.0686 23.4198 37.254C20.6728 37.7373 17.9154 38.1735 15.4036 39.2523C14.0758 39.8218 13.723 40.7073 13.4224 41.6817C13.3388 41.9559 13.6446 42.2746 13.8432 42.1649C14.9174 41.5902 16.2295 41.457 17.3691 41.0051C17.4187 40.9868 17.4292 40.9111 17.4449 40.8353C17.8814 40.992 18.3152 41.1462 18.7517 41.3003C18.8014 41.6973 18.3806 41.9533 18.0565 42.0343C17.0215 42.2955 16.3707 42.9721 15.4428 43.3352C15.3644 43.6512 15.5578 44.1528 15.0743 44.2076C14.0157 44.3226 13.3309 44.8528 12.4789 45.2081C11.9561 45.4249 11.2896 46.0675 10.4532 45.5006C10.4036 45.4667 10.0586 45.6025 9.95925 45.7148C9.64299 46.0518 9.41821 46.4384 9.08889 46.7675C8.72558 47.1306 8.57399 47.5251 8.71251 47.9535C8.87718 48.468 9.33196 48.7815 10.0115 48.8938C10.0377 48.5125 9.94879 48.0606 10.6153 47.9404C11.7758 47.734 12.241 47.8881 12.7794 48.4994C13.0225 48.7684 13.2943 49.0271 13.5871 49.2674C13.8798 49.5103 14.4417 49.4398 14.69 49.1315C14.9148 48.8546 15.069 48.5464 15.3043 48.2774C15.6493 47.8829 16.1982 47.8881 16.734 47.8986C16.7313 47.9143 16.7235 47.9326 16.7183 47.9482H16.7862C16.7784 48.1023 16.7575 48.2591 16.8019 48.4054C16.8463 48.5542 16.9849 48.6875 17.0842 48.8259C17.1887 48.6875 17.3351 48.5595 17.3874 48.4106C17.437 48.2643 17.4109 48.0997 17.4057 47.943H17.4553C17.4553 47.943 17.4449 47.9195 17.437 47.909C18.4303 47.9012 19.1516 48.2382 19.3947 48.9748C19.5306 49.3875 19.6848 49.7611 19.9488 50.1398C20.2755 50.6022 19.9749 50.9992 19.2353 50.9418C18.1584 50.8634 17.3586 51.5373 16.3759 51.4433C15.2807 51.3414 14.5332 52.0023 13.5243 52.0284C12.7376 52.0519 12.7376 52.5169 12.7637 52.9427C12.7716 53.0968 12.9075 53.2457 13.0042 53.3894C13.012 53.3972 13.1924 53.3606 13.2708 53.3188C13.7125 53.0681 14.1673 52.5848 14.5907 52.6031C15.7564 52.6475 16.6921 52.1016 17.7768 52.0441C18.7753 51.9919 19.7841 52.0154 20.7852 52.0441C21.1354 52.0519 21.3707 52.2505 21.4334 52.5273C21.5118 52.8643 21.6033 53.311 21.1224 53.4155C20.3722 53.5722 19.8207 54.011 18.9791 54.079C18.2656 54.1364 17.5834 54.5074 16.9195 54.779C16.8019 54.8287 16.815 55.082 16.815 55.244C16.815 55.3067 16.9195 55.3981 17.0058 55.4242C17.2018 55.4869 17.4109 55.5522 17.6174 55.5548C19.1856 55.5653 20.7512 55.5444 22.3142 55.581C22.9258 55.5966 23.3336 55.291 23.838 55.1996C24.0968 55.1499 24.4862 55.6149 24.9175 55.2753C25.1318 55.1029 25.2938 55.1317 25.435 55.3537C25.5369 55.5104 25.3226 55.9989 25.1083 55.9832C23.953 55.8866 23.1245 56.6833 21.9561 56.6023C20.8453 56.5239 19.9384 57.1535 18.7674 57.1456C17.7246 57.1352 16.6738 57.5244 15.631 57.7569C15.218 57.8457 14.8129 58.0756 14.4078 58.073C12.1495 58.0494 10.2285 58.9402 8.13488 59.3555C7.02145 59.5776 6.11188 60.1104 5.53948 60.8366C5.19447 61.2755 4.94356 61.6647 4.27184 61.871C3.97649 61.9599 3.96342 62.302 4.19342 62.5162C4.48354 62.7905 4.85731 63.1562 4.60116 63.4122C4.01308 64.013 3.88501 64.875 2.88919 65.2355C2.30372 65.4445 1.68427 65.6116 1.08835 65.8023C0.991642 65.8363 0.918459 65.912 0.837434 65.9669C0.973346 66.0609 1.09619 66.2151 1.24517 66.2333C1.78098 66.3039 2.38474 66.2098 2.76896 66.6121C2.92317 66.7767 3.34658 66.8603 3.0434 67.1998C2.74282 67.5342 2.51804 67.9156 2.32986 68.2996C1.9953 68.9787 1.58234 69.4803 0.44015 69.4019C0.0115035 69.3732 -0.179297 70.0157 0.215372 70.1568C0.845274 70.371 1.31835 70.6061 1.517 71.1625C1.65552 71.5491 1.91428 71.9827 2.30895 72.2282C2.8343 72.5574 3.30215 72.0976 3.78307 71.9331C4.38422 71.7293 4.84162 72.5939 5.56039 72.0376C5.92108 71.7554 6.49871 71.5987 7.01622 71.4864C7.4135 71.3976 8.01465 71.3218 8.27341 71.4786C8.95559 71.8913 9.68742 71.9174 10.4768 71.9174C10.9498 71.9174 11.355 72.0219 11.3654 72.4712C11.3759 72.8943 11.436 73.3384 10.6676 73.4377C10.563 73.4533 10.4637 73.5004 10.367 73.5343C10.0925 73.6362 10.1318 73.8687 10.4193 73.8452C11.5301 73.7668 11.1276 74.8274 11.9953 74.9553C12.6252 75.052 13.2421 75.2923 13.7857 75.5588C14.1124 75.7129 14.2954 76.0394 14.5437 76.2902C14.2353 76.3659 13.9321 76.4443 13.621 76.507C13.5165 76.5305 13.3727 76.4835 13.2917 76.5226C13.1532 76.5853 13.0434 76.6924 12.9232 76.7812C13.012 76.8335 13.0983 76.9197 13.1924 76.9275C13.5217 76.951 13.8589 76.9458 14.1934 76.951C15.1997 76.9615 16.2086 77.0007 17.2149 76.9615C17.9284 76.9354 18.4825 77.0999 19.0654 77.4003C19.5646 77.6563 19.8469 77.45 19.7031 76.8936C19.6535 76.7029 19.5568 76.5749 19.8861 76.5462C20.4376 76.5017 20.9969 76.5122 21.551 76.4782C22.5311 76.4182 23.4825 76.4521 24.4731 76.1256C25.3356 75.8435 26.4386 75.9819 27.4397 75.9427C28.4982 75.8931 29.5489 76.0002 30.5683 75.5666C29.2667 74.7568 27.6827 73.1895 28.9922 70.0497C28.9922 70.0497 31.768 65.8676 34.9044 63.1667C34.9044 63.1667 37.6096 60.4291 38.5087 59.9615C38.5087 59.9615 37.8971 59.5305 37.7533 59.204C37.607 58.8827 36.091 58.1252 35.9107 56.571C35.9107 56.571 35.2285 56.5004 34.758 56.8609C34.2902 57.2214 33.5322 58.4125 32.3796 57.8692C31.2243 57.3285 30.9342 56.7904 31.1877 56.2862C31.4439 55.7795 32.343 53.7263 32.343 53.7263C32.343 53.7263 31.7654 53.405 32.2332 52.9688C32.2332 52.9688 32.4841 52.718 32.8108 52.8983L33.3519 52.1407C33.3519 52.1407 32.7403 51.7097 32.8448 51.7097C32.9494 51.7097 33.1715 51.6392 33.1715 51.6392C33.1715 51.6392 32.5233 50.9914 33.2813 50.8817C33.2813 50.8817 32.3822 50.0902 33.7831 49.9439C33.7831 49.9439 33.1349 49.4032 33.8197 49.0062C34.5071 48.6117 34.8652 48.3244 35.7669 48.2486C35.7669 48.2486 36.3446 46.1589 36.8124 44.9704C37.2803 43.7818 38.2918 42.0865 38.9034 42.2668L43.3597 33.6284C42.3796 33.6388 41.4021 33.6467 40.4245 33.6571L40.4376 33.6623ZM44.1072 78.0194C44.1072 78.0194 44.3242 77.8026 42.3404 77.6224C40.3566 77.4421 37.1862 77.1548 36.5693 77.0816C36.1198 77.0294 34.2196 76.8387 32.837 76.5279C32.4737 76.7029 32.1051 76.8962 31.7497 76.8883C30.0089 76.8544 28.2003 77.3533 26.5223 76.5879C26.3498 76.5096 25.9473 76.4652 25.908 76.5174C25.3409 77.2384 24.1856 76.7995 23.5061 77.241C23.2761 77.3899 23.1271 77.6119 22.9389 77.8026C23.1454 77.8548 23.3466 77.9515 23.5531 77.9567C26.0152 77.9802 28.4747 77.9855 30.9368 77.9985C31.159 77.9985 31.3942 77.9541 31.6059 77.9907C32.5547 78.1631 33.2107 77.2932 34.1464 77.5597C34.9645 77.7922 35.7146 78.1814 36.5484 78.3799C37.1626 78.5262 37.8605 78.5183 38.5244 78.5183C40.5212 78.5183 42.5129 78.5183 44.5098 78.5157C44.3948 78.3877 44.2615 78.2258 44.1072 78.022V78.0194ZM47.6645 33.2156C47.3535 33.2496 47.045 33.3175 46.7366 33.456C46.3498 33.631 45.7905 33.6049 45.2808 33.6101C44.17 35.8722 42.6122 39.0982 42.3796 39.8871C42.4658 39.7513 43.872 37.5884 44.3948 36.5801C44.3948 36.5801 44.6457 36.4338 45.0429 36.5801C45.0429 36.5801 46.8098 36.5435 47.0241 36.2536C47.2411 35.9636 47.3874 35.5326 48.3597 35.5718L48.9374 35.355C48.9374 35.355 48.1506 34.1351 47.6619 33.2183L47.6645 33.2156ZM47.8213 69.5482C46.9222 66.1628 45.4062 64.1776 45.4062 64.1776C45.4062 64.1776 42.6305 66.3796 41.8333 67.1685C41.0414 67.96 38.5923 69.6553 38.1951 69.7624C37.7978 69.8721 36.6451 70.9875 36.6451 70.9875C36.6451 70.9875 38.1951 71.1311 39.0236 71.4185C39.8521 71.7058 42.2306 72.6775 43.6002 73.0041C44.9724 73.3254 45.7643 73.8661 46.9536 73.9053C48.1428 73.9444 49.4784 74.015 50.3801 73.9418C50.3801 73.9418 48.723 72.9335 47.8213 69.543V69.5482ZM50.814 33.1425C51.0362 33.4612 51.2949 33.8112 51.606 34.1952L52.1313 33.1112C51.6922 33.119 51.2531 33.1294 50.814 33.1399V33.1425ZM216.381 62.2681C216.029 62.0983 215.548 62.08 215.441 61.6908C215.171 61.5706 214.907 61.44 214.628 61.3382C214.225 61.1945 214.06 60.4683 213.404 60.9698C212.869 61.3747 212.56 60.4108 212.087 60.9098C211.912 61.0978 211.76 61.0743 211.562 60.9516C210.793 60.4683 210.589 59.3843 209.123 59.6141C209.037 59.6298 208.807 59.3816 208.768 59.238C208.697 58.995 208.705 58.7364 208.705 58.4831C208.697 57.8091 208.765 57.7699 209.852 57.5819C210.148 57.5296 210.456 57.446 210.704 57.3207C210.914 57.2083 210.637 56.6337 210.265 56.4691C209.894 56.2993 209.447 56.2131 209.121 56.012C208.569 55.6698 209.233 55.6515 209.411 55.5914C209.727 55.4817 210.059 55.385 210.033 55.1003C210.009 54.8757 209.858 54.638 209.69 54.4394C209.541 54.2644 209.547 54.1208 209.863 54.1025C210.464 54.0659 211.196 53.8543 211.442 54.5439C211.622 54.6118 211.87 54.6589 211.93 54.7686C212.137 55.1369 212.155 55.5705 212.918 55.594C213.342 55.6045 213.778 55.7325 214.165 55.8761C214.599 56.0381 215.062 56.1713 215.299 55.7925C215.469 55.5235 215.461 55.1186 215.336 54.826C215.096 54.2749 214.175 54.0581 214.071 53.3737C214.013 53.0184 213.65 53.2196 213.376 53.3293C212.542 53.6715 211.653 53.6584 210.874 53.3005C210.357 53.0602 209.847 53.0341 209.298 52.9819C209.168 52.9714 209.063 52.8068 208.945 52.7128C209.144 52.6527 209.343 52.5822 209.547 52.5326C209.651 52.5091 209.771 52.53 209.881 52.5091C210.642 52.3732 210.642 52.078 210.853 51.7228C211.128 51.25 209.309 50.8294 210.921 50.3984C211.596 50.2182 212.069 50.1686 212.665 50.4141C212.801 50.4663 213.067 50.3436 213.266 50.2861C213.274 50.2861 213.25 50.1503 213.203 50.1033C213.067 49.9726 212.908 49.8551 212.764 49.7245C212.55 49.5286 212.291 49.3536 212.142 49.1315C211.648 48.4001 211.661 48.3766 210.532 48.4158C209.902 48.4393 209.497 48.1912 209.092 47.8829C208.87 47.7105 208.841 47.5982 209.084 47.5015C209.46 47.3474 209.876 47.2403 210.203 47.0392C210.373 46.9347 210.882 46.7283 210.375 46.4854C209.272 45.9578 208.143 45.451 207.022 44.9442C206.745 44.8162 206.24 44.7562 206.188 44.5968C205.731 43.2542 204.369 43.3038 203.007 43.3456C202.095 43.3717 201.502 42.5541 200.506 42.8101C200.461 42.8206 200.302 42.6142 200.239 42.4993C200.224 42.4757 200.388 42.3504 200.48 42.3451C201.034 42.3216 201.593 42.3373 202.15 42.2955C202.281 42.2877 202.398 42.1074 202.495 41.9951C202.495 41.9768 202.351 41.8514 202.262 41.8384C201.977 41.7809 201.627 41.7888 201.583 41.504C201.583 41.4518 201.943 41.329 202.134 41.3238C202.91 41.3003 203.674 41.282 204.356 41.6921C204.764 41.9324 205.203 41.7287 205.527 41.4701C205.812 41.235 206.154 41.282 206.431 41.4022C206.802 41.5641 207.051 41.7548 207.565 41.5328C207.814 41.4231 208.321 41.679 208.718 41.7391C209.094 41.7992 209.413 41.5589 209.319 41.3029C209.267 41.1566 209.165 40.9241 209.045 40.9085C207.746 40.7439 206.583 40.1483 205.208 40.2528C204.191 40.3312 203.441 39.5972 202.346 39.7434C201.478 39.8636 200.556 39.8192 199.672 39.746C198.598 39.6598 197.654 39.2053 196.499 39.2184C195.333 39.2262 194.236 38.7351 193.025 38.615C192.006 38.5131 191.055 37.9358 190.098 37.5309C188.938 37.0425 187.761 36.5906 186.392 36.7368C185.616 36.8204 185.229 36.2823 184.575 36.204C183.927 36.1256 183.24 36.2928 182.626 35.9871C182.359 35.8565 182.03 35.7625 181.719 35.7364C180.506 35.6267 179.186 35.9401 178.099 35.4856C177.03 35.0442 175.762 35.4856 174.899 35.0311C173.812 34.4564 172.435 34.9815 171.444 34.2736C171.193 34.0933 170.589 34.2057 170.15 34.1691C168.747 34.0411 167.283 34.365 165.937 33.7067C165.54 33.5108 164.845 33.6545 164.285 33.6545C162.72 33.6467 161.146 33.5448 159.596 33.6649C158.091 33.7799 156.841 33.1634 155.433 33.0694C155.338 33.0615 155.237 32.9753 155.182 32.9074C155.163 32.8891 155.268 32.7768 155.344 32.7507C155.94 32.5522 156.517 32.2674 157.142 32.1917C158.015 32.0872 158.94 32.0559 159.813 32.1473C160.796 32.2491 161.371 31.5073 162.322 31.5961C162.866 31.6536 163.433 31.5804 163.987 31.5517C164.081 31.5491 164.168 31.4577 164.256 31.408C164.134 31.3192 164.013 31.1573 163.88 31.152C163.365 31.1338 163.104 30.8569 162.801 30.6166C162.725 30.5565 162.602 30.4468 162.628 30.4102C162.706 30.2953 162.842 30.1255 162.963 30.1176C163.969 30.0758 164.973 30.0758 165.979 30.034C166.081 30.0262 166.185 29.8512 166.248 29.7389C166.259 29.7154 166.091 29.59 166.005 29.5847C164.886 29.5769 163.773 29.5821 162.654 29.5847C161.928 29.5874 161.724 29.906 161.766 30.405C161.8 30.7759 161.622 31.058 161.044 31.0658C159.588 31.0815 158.138 31.1024 156.685 31.1155C156.13 31.1233 156.141 31.1076 154.729 30.1751C154.494 30.021 154.107 30.0027 153.867 29.8486C153.744 29.7702 153.713 29.5325 153.755 29.3836C153.823 29.159 154.032 29.1093 154.217 29.2452C154.646 29.5612 155.163 29.6083 155.715 29.5534C155.921 28.8795 156.708 29.1381 157.275 29.0205C157.764 28.9186 157.552 28.6653 157.351 28.4955C157.116 28.2996 157.121 28.1507 157.461 28.1533C158.762 28.1611 160.106 27.8268 161.347 28.4145C161.517 28.4929 161.831 28.5529 161.962 28.4903C162.649 28.1611 163.305 27.8633 164.037 28.4119C164.659 28.0357 165.2 28.3884 165.785 28.4981C166.209 28.5738 166.768 28.6444 167.103 28.5007C168.295 27.9783 169.369 28.7593 170.501 28.5895C171.99 29.125 173.608 29.4254 175.195 29.5273C176.745 29.6239 178.114 30.1986 179.703 30.1882C180.72 30.1803 181.8 30.5774 182.746 30.9483C183.906 31.3976 185.158 31.6745 186.358 31.9879C187.432 32.2648 188.71 32.0924 189.902 32.1003C189.826 31.9618 189.764 31.7711 189.654 31.7528C189.118 31.6745 188.561 31.664 188.018 31.6144C187.369 31.5622 187.121 31.2696 187.5 30.7419C187.775 30.3632 187.646 30.2195 187.356 29.9296C186.962 29.5325 186.01 29.6997 185.908 29.0623C185.574 28.8821 185.234 28.7071 184.91 28.5112C184.56 28.3022 184.254 28.0801 183.755 28.0723C182.652 28.0566 181.533 28.0723 180.555 27.5812C178.425 27.7954 176.478 26.9412 174.353 26.9621C173.182 26.9778 172.009 26.5912 170.864 26.3613C170.004 26.1916 169.165 25.9565 168.297 26.0244C167.223 26.1106 166.418 25.6195 165.477 25.4366C165.383 25.4184 165.312 25.3243 165.229 25.2668C165.393 25.1806 165.55 25.0239 165.72 25.0161C167.058 24.9795 168.399 24.9795 169.737 24.9456C169.941 24.9429 170.135 24.8332 170.333 24.7731C170.072 24.6896 169.811 24.5407 169.549 24.5381C167.989 24.5119 166.423 24.4963 164.86 24.5224C163.773 24.5407 162.837 25.1075 161.666 25.0056C160.563 24.9168 159.437 24.9952 158.321 25.0161C157.999 25.0187 157.633 25.0265 157.356 25.1362C155.631 25.805 153.985 25.5594 152.291 25.0213C151.802 24.8646 151.266 24.7209 150.751 24.619C149.285 24.3186 147.855 23.8641 146.261 23.9582C145.176 24.0208 144.107 23.9843 143.054 23.5219C142.453 23.2633 141.528 23.4462 140.746 23.4122C140.657 23.4096 140.566 23.3182 140.48 23.2659C140.584 23.1693 140.683 22.9917 140.796 22.989C141.996 22.9446 143.224 23.057 144.303 22.4823C144.4 22.43 144.685 22.5789 144.881 22.639C145.064 22.6913 145.336 22.8349 145.414 22.7853C145.804 22.5528 145.576 21.9233 146.405 21.9311C146.946 21.939 147.49 21.8632 148.031 21.811C148.101 21.8031 148.159 21.7091 148.227 21.6542C148.14 21.602 148.062 21.5106 147.968 21.4975C147.646 21.4557 147.314 21.4453 146.993 21.4139C146.888 21.4035 146.784 21.3773 146.698 21.3355C146.601 21.2938 146.525 21.2258 146.441 21.171C146.517 21.1109 146.577 21.0273 146.671 20.9986C148.472 20.4239 150.255 19.8649 152.291 19.8806C157.649 19.9224 163.01 19.891 168.37 19.8884C168.922 19.8884 169.5 19.9459 169.91 19.5541C170.048 19.4234 170.187 19.2928 170.323 19.1596C170.179 19.0734 170.041 18.9271 169.886 18.9167C169.445 18.8749 168.992 18.8906 168.548 18.888C167.989 18.8801 167.429 18.9062 166.875 18.8723C166.11 18.8226 165.271 19.0368 164.599 18.6633C164.037 18.3472 162.973 18.4491 162.978 17.5949C162.978 17.5166 162.416 17.3781 162.116 17.3703C159.878 17.3363 157.636 17.2214 155.42 17.3598C154 17.4487 152.895 16.793 151.567 16.7982C151.455 16.7982 151.337 16.618 151.225 16.5213C151.311 16.4691 151.397 16.3724 151.483 16.3724C152.822 16.3463 154.162 16.3306 155.498 16.3202C155.809 16.3176 156.112 16.3019 156.188 16.0276C156.188 15.9989 155.825 15.884 155.621 15.8578C155.085 15.7873 154.544 15.7455 154.003 15.6828C153.943 15.675 153.841 15.5548 153.859 15.5339C153.911 15.4634 154.005 15.3798 154.102 15.3641C154.526 15.2962 154.97 15.2806 155.378 15.1813C155.521 15.1473 155.663 14.9227 155.663 14.7842C155.67 14.4917 155.506 14.3454 155.082 14.5361C154.317 14.8809 153.775 14.173 152.981 14.2801C152.246 14.382 151.439 14.2305 150.673 14.1521C150.568 14.1417 150.498 13.9431 150.414 13.8047C150.61 13.7969 150.804 13.7969 150.995 13.776C151.272 13.7472 151.752 13.8047 151.46 13.405C151.303 13.1882 150.992 13.0419 150.791 12.8382C150.636 12.6815 150.203 12.4072 150.757 12.3131C152.348 12.0441 153.979 11.4093 155.579 11.8247C158.287 12.5221 161.015 12.146 163.736 12.2217C163.721 11.9631 163.496 11.8325 163.177 11.7803C162.228 11.6183 161.256 11.8325 160.265 11.4511C159.445 11.1351 158.352 11.2291 157.385 11.1168C157.118 11.088 157.116 10.9183 157.369 10.7615C157.612 10.6126 157.984 10.307 158.117 10.3566C159.813 11.0018 161.606 10.5865 163.347 10.6779C163.676 10.6936 164.016 10.6936 164.345 10.6623C164.552 10.644 164.886 10.5917 164.923 10.4977C165.448 9.1446 166.92 9.87861 167.957 9.68009C168.096 9.65397 168.19 9.49201 168.302 9.39536C168.216 9.34312 168.122 9.23864 168.044 9.24647C166.907 9.33528 165.914 8.99048 164.918 8.66135C164.795 8.61955 164.743 8.46282 164.656 8.35834C164.855 8.29826 165.051 8.2225 165.257 8.18855C165.472 8.15459 165.715 8.20422 165.919 8.14675C166.062 8.11018 166.159 7.9639 166.274 7.86464C166.188 7.80717 166.112 7.71575 166.018 7.70791C165.691 7.67134 165.352 7.6844 165.027 7.63738C164.711 7.58775 164.51 7.42841 164.447 7.18025C163.713 7.1045 162.991 7.13846 162.257 6.83806C161.034 6.33914 159.698 5.98388 158.373 5.64953C157.863 5.51892 157.346 5.44578 156.847 5.24726C155.796 4.8267 154.73 4.34345 153.593 4.15537C152.429 3.96468 151.172 4.09268 149.954 4.07962C149.403 4.07178 148.849 4.09007 148.3 4.0535C147.965 4.02738 147.699 3.87848 147.68 3.5807C147.665 3.32993 147.623 3.07394 147.654 2.82317C147.74 2.18319 147.186 1.88279 146.465 2.27462C145.738 2.67167 145.02 2.68211 144.348 2.28507C143.744 1.92981 143.2 1.63986 142.385 1.48575C141.34 1.282 140.354 0.950253 139.241 1.02078C138.924 1.04429 138.606 1.01817 138.287 1.01294C138.227 0.751729 138.002 0.58455 137.672 0.57149C136.671 0.534919 135.665 0.534919 134.659 0.514022C134.217 0.506186 133.645 0.618509 133.349 0.453943C131.943 -0.340154 130.652 0.305049 129.283 0.464391C128.671 0.534919 128.237 1.08609 127.534 0.790911C126.828 0.495737 126.334 1.00772 125.845 1.17751C125.234 1.38648 124.933 1.282 124.431 1.09915C124.037 0.955477 123.611 1.1331 123.498 1.52754C123.281 1.54321 123.059 1.55366 122.842 1.56933C122.756 1.713 122.672 1.91414 122.576 1.91675C121.256 1.96899 119.931 1.98728 118.606 2.0134C117.597 1.29767 116.159 1.82271 115.166 1.40477C113.977 0.903234 112.806 1.05996 111.617 0.999884C110.84 0.958089 110.291 0.43827 109.434 0.524471C108.676 0.602836 107.889 0.490513 107.11 0.464391C106.617 -0.235668 105.665 0.738668 105.137 0.156156C103.812 0.11175 102.489 0.0255483 101.164 0.0412213C99.9751 0.0516699 98.7519 -0.193873 97.6149 0.404311C97.2333 0.60806 96.5381 0.482676 95.9866 0.490513C94.5412 0.506186 93.0932 0.506186 91.6505 0.516634C91.0911 0.519247 90.5318 0.516634 89.9803 0.545368C89.3269 0.581938 88.5663 0.357293 88.0566 0.743892C87.513 1.15139 87.0843 0.399087 86.6321 0.751729C86.193 1.09392 85.8376 0.57149 85.5292 0.665527C85.1345 0.788299 84.894 0.984211 84.4183 0.717771C84.1099 0.545368 83.5898 0.563653 83.1611 0.555817C81.7132 0.521859 80.2652 0.537532 78.8198 0.493125C78.0618 0.469615 77.2437 0.66814 76.5563 0.286764C75.8585 -0.107672 75.2626 0.785687 74.4706 0.294601C73.8485 -0.0919988 73.1245 0.524471 72.3509 0.503574C69.6823 0.435657 67.0085 0.506186 64.3373 0.527083C64.0027 0.527083 63.6629 0.498349 63.3388 0.542756C63.0383 0.587163 62.641 0.657691 62.5025 0.824869C62.3535 0.999884 62.4136 1.282 62.3979 1.52493C61.849 1.57717 61.3315 1.5406 60.9081 1.21669C60.7278 1.07825 60.469 1.13049 60.4507 1.35253C60.4063 1.9063 60.0012 2.02385 59.3582 2.03169C57.8239 2.04736 56.2662 1.93504 54.8339 2.53845C54.5751 2.64816 54.1726 2.57502 53.8433 2.54889C53.6394 2.53322 53.4486 2.44441 53.25 2.38694C53.3441 2.28245 53.4068 2.11266 53.5322 2.08654C54.353 1.90369 55.0168 1.35253 55.9734 1.47791C56.0492 1.48575 56.1459 1.38126 56.2322 1.32902C56.1015 1.23498 55.9734 1.0678 55.8297 1.05996C55.388 1.03123 54.8574 0.947641 54.5045 1.0887C52.952 1.72345 51.2897 1.52493 49.6535 1.57195C48.8877 1.59546 48.1376 1.53799 47.4031 1.87235C46.9719 2.06826 46.3289 2.02646 45.7852 2.02907C44.5699 2.03691 43.4251 2.20148 42.2332 2.44963C41.1041 2.68473 39.9044 2.80489 38.7361 3.02692C37.2959 3.3012 36.5589 4.11358 35.6859 4.85282C35.8349 4.94686 35.9786 5.10881 36.1433 5.12187C36.47 5.15061 36.9117 5.20024 37.1234 5.07224C38.4616 4.23635 40.1553 4.16582 41.7052 3.79489C42.8422 3.52062 44.021 3.35605 45.171 3.14185C46.4361 2.90676 47.8318 3.07133 49.17 3.07133C49.2562 3.07133 49.3503 3.16014 49.4287 3.21761C49.5777 3.32732 49.5254 3.46837 49.2406 3.55196C47.5103 4.04044 45.8427 4.71176 43.9086 4.62034C43.2186 4.5916 42.6253 5.14799 41.8176 4.76662C41.6112 4.66997 40.9996 4.95469 40.6624 5.15322C40.171 5.44317 39.7502 5.56594 39.2641 5.18718C38.8433 5.46406 38.4277 5.74095 38.0069 6.01523C37.2933 5.49019 36.6869 6.10927 36.0231 6.11972C35.1292 6.13017 34.1595 5.97344 33.3702 6.19808C32.6488 6.40183 31.9117 6.50632 31.2139 6.69178C29.2039 7.22727 26.9901 7.6191 26.0779 9.41365C25.8192 9.92041 25.1631 9.1446 25.09 9.36402C24.8077 10.2417 23.8223 10.085 23.0826 10.3357C21.9091 10.7406 20.5996 10.913 19.6613 11.7463C18.8667 12.4516 17.7063 12.7886 16.4072 12.7285C15.9655 12.705 15.5134 12.7729 15.0716 12.752C13.5034 12.6762 12.045 12.8748 10.678 13.52C10.15 13.7707 9.45742 13.8204 8.86672 14.0084C8.77001 14.0424 8.70467 14.4055 8.78831 14.4551C9.20389 14.6902 9.70833 14.8496 10.1161 15.0925C10.3304 15.2205 10.5787 15.513 10.5186 15.6619C10.4349 15.8683 10.103 16.1347 9.83118 16.1635C8.96343 16.2653 8.07216 16.3359 7.20179 16.2941C6.25563 16.2497 5.47152 16.4769 4.68741 16.8113C4.2457 16.9994 3.9216 17.3807 4.06797 17.5453C4.38684 17.9058 4.60378 17.5427 4.87037 17.5192C6.60326 17.3703 8.20545 16.6598 10.0115 16.8061C10.712 16.8661 11.2844 16.6415 11.8882 16.4038C12.0633 16.3333 12.6461 16.5187 12.6906 16.6519C12.8474 17.1326 12.7847 17.6341 13.2604 18.0703C13.3571 18.1644 12.9572 18.564 12.7507 18.8462C12.0371 18.8644 11.321 18.8644 10.6127 18.9167C10.3199 18.935 10.1448 19.1126 10.1135 19.3451C10.5003 19.3529 10.8871 19.3634 11.2739 19.3555C11.7627 19.3451 11.9744 19.5593 12.0868 19.8623C13.1872 19.8597 14.2849 19.8545 15.3853 19.8545C17.6932 18.9611 20.1684 19.5096 22.5651 19.3712C22.7638 19.3608 22.9807 19.4339 23.1793 19.4914C23.2578 19.5149 23.3074 19.5958 23.3701 19.6481C23.2839 19.7056 23.2003 19.8022 23.1114 19.8048C21.1485 19.8675 19.3294 20.6407 17.2959 20.4082C15.9577 20.2541 14.6508 20.5232 13.5583 21.1161C12.9624 21.4374 12.2593 21.2807 11.7 21.5576C11.6372 21.5863 11.5536 21.6856 11.5693 21.7039C11.632 21.7718 11.7261 21.858 11.8202 21.8606C12.3691 21.8972 12.9232 21.8972 13.4721 21.9494C13.6289 21.9651 13.9033 22.1453 13.885 22.1976C13.8275 22.3465 13.6812 22.5084 13.5087 22.5946C13.2421 22.7304 12.9336 22.8715 12.6304 22.8898C11.8568 22.9394 11.0596 22.848 10.3016 22.9525C8.60274 23.1876 6.88031 23.3992 5.28857 23.9529C5.11606 24.013 4.98015 24.1358 4.82594 24.2298C5.0089 24.3082 5.18663 24.444 5.37482 24.4545C5.81653 24.4806 6.34711 24.5642 6.69474 24.4179C8.47205 23.6917 10.3748 24.0574 12.2253 23.9529C12.8265 23.9164 13.2447 24.235 13.7334 24.3291C15.1265 24.5955 16.6033 24.5955 17.9467 24.2324C18.5949 24.0574 19.1935 23.9425 19.8495 23.9477C21.9405 23.9503 24.0288 23.966 26.1198 23.9764C26.0492 24.1149 25.9891 24.3134 25.8845 24.3291C24.826 24.4754 23.791 24.5851 22.7507 24.8959C21.8803 25.1545 20.7617 25.0788 19.7894 24.9717C18.608 24.8411 17.7585 25.5646 16.6163 25.4889C15.6414 25.4262 14.6848 25.4628 13.7282 25.8441C13.1009 26.0949 12.2201 25.9747 11.4517 26.0244C11.091 26.0479 10.874 26.1863 10.7826 26.4658C10.6806 26.8002 10.9655 26.9125 11.2766 26.9804C11.483 27.0248 11.7235 26.9804 11.9378 27.0092C12.6697 27.1189 12.8186 27.286 12.7559 27.8529C12.6958 28.3936 12.5468 28.5059 11.6974 28.5347C11.3759 28.5451 11.057 28.5529 10.7329 28.5634C10.6467 28.6992 10.5787 28.8847 10.4506 28.9108C9.49662 29.1093 8.51387 29.125 7.58078 28.8821C7.18611 28.7776 6.78099 28.4276 6.402 28.6339C5.80085 28.9683 5.26243 29.3941 4.81026 29.8486C4.75276 29.9087 4.72139 29.9269 4.70048 29.9374C4.74492 29.9191 4.84946 29.9087 4.9906 30.0314C5.26504 30.2822 5.60221 30.6766 6.04392 30.5042C7.81601 29.8172 9.69526 30.1673 11.5249 30.0915C11.8254 30.0811 12.0345 30.2979 12.0868 30.5539C12.6226 30.5617 13.114 30.6218 13.6027 30.8752C13.9216 31.0449 14.596 31.1651 14.8364 31.0293C15.8688 30.4363 16.5798 30.6348 17.3978 31.2879C17.8265 31.6327 18.5165 31.8155 19.1307 31.9775C19.5202 32.082 20.1239 32.1473 20.3984 31.9932C21.3132 31.4786 22.3142 31.6719 23.2917 31.6144C24.3764 31.5517 25.5055 31.779 26.5066 31.1912C27.1103 30.8386 27.8422 31.8547 28.5296 31.1912C29.0785 31.442 29.8417 31.5987 30.1161 31.967C30.4324 32.3876 30.6702 32.6227 31.3132 32.6201C33.8798 32.5966 36.4465 32.5626 39.0079 32.6044C39.7345 32.6149 40.239 32.1969 40.8767 32.2074C41.3916 32.2152 42.0633 32.654 42.3848 32.5182C42.9624 32.2753 43.5505 32.1656 44.1491 32.1238L45.4507 29.6004C45.4507 29.6004 44.366 28.6627 45.3043 27.7641C45.3043 27.7641 45.1945 26.1785 45.4507 25.818C45.7016 25.4575 45.9917 25.6012 45.9917 25.6012C45.9917 25.6012 45.9917 25.0239 46.8203 25.0239C46.8203 25.0239 46.93 24.5563 47.7926 24.7731L49.7058 21.1318C49.7058 21.1318 49.4496 20.881 49.8103 20.7008C49.8103 20.7008 49.1282 20.2332 50.5683 20.1601L52.7664 17.5662C52.7664 17.5662 52.5521 17.3154 52.9834 17.3154L53.6316 16.5579C53.6316 16.5579 53.4878 16.2314 53.8485 16.3411L54.5699 15.5836L54.3529 15.4399L54.5333 15.1891L54.7136 15.3328L55.401 14.5413L55.1841 14.395L55.3644 14.2148L55.6206 14.3611L56.3028 13.6741L55.9813 13.4233L56.1616 13.1673L56.4125 13.4573L57.8919 11.728L58.6133 12.7729L58.182 13.4547L58.6133 13.4912C58.6133 13.4912 58.5427 14.2122 58.2918 14.3924C58.2918 14.3924 57.6044 14.1756 58.0409 14.7529L57.4632 15.1891C57.4632 15.1891 56.9222 15.2597 56.9222 15.6541C56.9222 16.0485 57.3169 16.7381 56.4152 16.4116L56.0937 16.7381C56.0937 16.7381 56.2374 17.8562 55.516 17.4199L55.2991 17.7464C55.2991 17.7464 55.6598 18.8253 54.7215 18.248L54.4 18.645C54.4 18.645 55.158 19.5828 54.0733 19.366L53.3911 20.053C53.3911 20.053 53.0304 19.5854 52.8135 19.9824C52.8135 19.9824 51.768 20.6303 51.0126 22.0382C50.2808 23.3913 49.6143 24.5537 49.5725 24.6295C49.6169 24.606 49.9541 24.4727 49.7868 25.8938C49.6065 27.4088 49.677 28.7018 49.677 29.7859C49.677 30.4807 49.7058 31.1311 50.2259 32.129C50.5788 32.1264 50.9316 32.1212 51.2845 32.1264C51.01 31.8338 50.7434 31.4995 50.5788 31.1938C50.2024 30.4729 51.1564 31.711 51.4204 32.048C51.1512 31.6693 50.0482 30.0654 50.1109 29.2086C50.1109 29.2086 50.9395 31.7319 52.3143 31.7659C52.3143 31.7659 50.882 29.8616 50.7094 29.0336C50.7094 29.0336 51.5197 30.5774 52.3143 30.7968C52.3143 30.7968 51.7 29.859 51.6661 29.3914C51.6661 29.3914 51.951 29.6814 52.8187 29.5377C52.8187 29.5377 49.8992 28.8507 49.8992 27.3017C49.8992 27.3017 50.2599 28.2029 51.0884 28.4903L50.3671 27.5159C50.3671 27.5159 52.2045 29.031 53.1428 28.31C53.1428 28.31 51.8072 27.7327 52.675 25.643C52.675 25.643 52.4946 28.054 53.4669 28.0201C53.4669 28.0201 52.5286 26.4345 53.1768 25.677C53.1768 25.677 52.8553 26.7218 53.3231 27.192C53.3231 27.192 53.7544 25.643 53.825 25.0657V26.6147L54.6927 24.9586L54.5124 26.0374L55.5213 24.2377L55.4507 25.4628L55.7408 25.0657C55.7408 25.0657 56.1355 25.3557 56.1355 26.074C56.1355 26.074 56.7131 25.5672 57.3247 25.5672C57.3247 25.5672 57.2907 25.1362 56.6033 25.2068L57.181 25.0631L56.4936 24.9534L57.2176 24.8097L56.2427 24.6634C56.2427 24.6634 57.6122 23.7649 58.9112 24.5929L58.2291 23.9059L59.238 24.1959L58.987 23.6943L59.8156 23.9843L59.4523 23.4775L60.1005 23.6578L59.9201 23.2607L60.8585 23.5872L60.4272 22.8297L61.0388 23.2267L60.8245 22.6495L61.4727 22.9002L61.5066 22.2524L61.7628 22.7592L61.8673 21.6751L62.3352 22.6886L62.445 21.8554L63.1324 23.5872L63.1663 22.7592L63.4225 23.407L63.4931 22.686L64.0707 23.2973L63.9609 22.3961L64.251 23.2241L64.3216 22.3569L64.5725 23.4357L64.8992 23.0047C64.8992 23.0047 65.6546 23.6917 65.1893 24.8802C65.1893 24.8802 65.6546 25.6717 65.2599 26.8603L65.2233 27.5473L65.9447 25.9617C65.9447 25.9617 66.0545 27.4767 65.0822 28.485C65.0822 28.485 65.1528 29.6736 63.7466 30.3945C63.7466 30.3945 64.2536 30.465 64.1073 31.5491C63.9635 32.6279 64.5046 32.7376 64.8287 33.4586C65.1554 34.1795 65.009 34.3258 64.9045 35.2949C64.8156 36.089 64.7058 37.1443 64.664 37.5074C64.6875 37.1652 64.7241 36.2066 64.434 35.3315L64.2536 37.207L63.893 35.8017C63.893 35.8017 63.4591 37.5309 63.7832 38.8266C63.7832 38.8266 63.2056 38.325 63.3153 37.0607C63.3153 37.0607 62.5939 38.2493 62.6671 39.1165C62.6671 39.1165 62.1601 38.4687 62.8109 37.207C62.8109 37.207 62.3091 37.7086 61.8726 38.9702C61.4413 40.2345 60.8637 40.5219 60.8637 40.5219C60.8637 40.5219 61.5851 39.3673 61.6922 37.9619C61.6922 37.9619 60.2129 40.9163 59.4941 41.2062L60.286 39.9837L59.3843 40.8118L59.8835 39.7382C59.7973 39.8662 59.1073 40.8902 58.7021 41.0234C58.7021 41.0234 59.204 39.9446 59.204 38.6463L58.7727 40.0151L58.7361 38.6463C58.7361 38.6463 58.7361 39.6546 58.6656 39.7643C58.595 39.874 58.4486 39.2236 58.4486 39.2236L58.3441 40.0517L58.1611 39.1505L57.9808 39.6912L57.837 38.3929L57.3692 39.5109C57.3692 39.5109 57.3692 38.7169 57.5495 38.2127C57.5495 38.2127 57.1182 38.1761 57.0085 39.2915C56.8987 40.4095 56.8621 42.4627 56.2505 43.2934C55.6389 44.1214 54.63 44.6256 53.8354 43.5441C53.8354 43.5441 51.1669 46.859 51.1303 47.3997C51.0963 47.943 50.8793 48.408 51.0257 48.6248C51.1695 48.8416 51.6373 49.236 51.9588 50.0693C52.2855 50.8974 53.0043 52.4464 53.1141 53.0576C53.2238 53.6715 53.1846 54.463 53.2944 55.0742C53.4042 55.6881 53.6211 56.2993 53.6211 56.6258C53.6211 56.9523 54.2693 56.6964 53.906 57.4173C53.5453 58.1383 54.3739 57.7778 53.7623 58.4622C53.1507 59.1439 52.9703 59.507 52.9703 59.507L53.6917 65.2355C53.6917 65.2355 54.2693 65.2695 54.0524 65.9565C53.8354 66.6382 54.0524 66.4972 54.1229 66.9647C54.1229 66.9647 54.3739 67.4323 54.2327 67.7928C54.2327 67.7928 54.63 67.6465 54.7738 68.3335C54.7738 68.3335 55.1005 67.4323 55.5317 67.7562C55.963 68.0827 55.6023 68.0462 56.47 67.6517C57.3326 67.2547 58.5976 66.3509 64.5804 66.2804C70.5657 66.2098 69.4837 65.8128 69.63 66.6069C69.7738 67.3984 70.1319 66.5703 70.5631 66.2098C70.9996 65.8494 71.6478 65.7788 72.0085 66.2464C72.3692 66.714 72.7665 65.8494 73.4486 66.2098C73.4486 66.2098 73.595 65.9199 74.2066 65.5228C74.2066 65.5228 74.7477 64.5511 75.5056 64.6216C76.2636 64.6922 76.9118 65.4889 78.859 66.3169C80.8062 67.145 83.582 69.1616 84.3739 72.2988C84.3739 72.2988 84.4837 73.3071 83.6159 73.4873C82.7534 73.6675 82.5365 73.597 82.5365 73.597C82.5365 73.597 81.8543 73.0955 81.0571 73.0955C80.2599 73.0955 79.1805 72.6984 79.1805 72.6984C79.1805 72.6984 78.859 72.9884 78.2814 72.5548C77.7038 72.1185 77.9913 72.0872 76.8752 71.8678C75.7592 71.6484 75.0744 71.361 75.0744 71.361C75.0744 71.361 74.6771 71.6875 73.8485 71.4707C73.8485 71.4707 73.1611 71.907 72.0817 71.5413C72.0817 71.5413 70.3854 72.6253 67.6462 72.2648C64.9071 71.9043 58.9191 73.8138 56.1094 74.1012C53.2944 74.3911 52.3247 74.5322 52.3247 74.5322C52.3247 74.5322 52.5051 75.3994 51.998 76.3346C51.7628 76.7734 51.5563 77.6433 51.4047 78.4765C52.1548 78.4739 52.905 78.4739 53.6525 78.4609C54.434 78.453 55.2102 78.4373 55.9891 78.4269C56.457 77.719 57.2568 78.4687 57.9442 78.1526C58.9008 77.7112 60.1135 78.0037 61.2165 78.009C61.3812 78.009 61.6661 78.1814 61.6844 78.2937C61.7994 78.9232 62.1182 78.931 62.7246 78.5889C63.067 78.3929 63.4904 78.2362 63.9034 78.1814C64.2458 78.137 64.8574 78.3851 64.9489 78.2832C65.4769 77.7321 65.9891 78.568 66.6373 78.2127C67.1287 77.9437 67.9651 78.7221 68.6969 78.4269C69.2902 78.184 69.8025 77.9097 70.5396 77.9541C71.3159 78.0037 72.1235 77.8705 72.8815 77.9776C73.5375 78.0638 73.8877 77.3507 74.6588 77.7451C75.0613 77.9515 75.6729 77.6354 76.3289 77.8679C77.0294 78.1108 77.8214 77.2332 78.7754 77.4369C79.3974 77.0137 80.1293 76.9615 80.9395 76.9537C82.3326 76.938 83.7649 77.126 85.0901 76.6062C85.8846 77.1914 86.4283 76.7891 87.066 76.3816C87.7299 75.9584 88.4644 75.6162 89.2903 75.483C89.4785 75.1277 89.6536 74.7673 89.8261 74.4068C90.8402 72.27 91.0075 69.9008 91.3786 67.5943C91.4361 67.2416 91.4361 66.8812 91.457 66.5207C91.5015 65.8311 91.5145 65.1415 91.5956 64.4545C91.8439 62.336 92.9495 60.6407 94.3635 59.1257C94.8052 58.645 94.8993 58.3159 94.4759 57.8353C94.0995 57.4069 93.6761 57.0072 93.2108 56.6885C92.4712 56.1818 92.0634 55.5365 92.0373 54.638C92.0294 54.4473 91.8831 54.2618 91.8047 54.0764C91.6949 53.8099 91.5537 53.5513 91.4884 53.277C91.4361 53.0419 91.4806 52.7859 91.4806 52.5535C91.1042 52.5247 90.7853 52.5117 90.4664 52.4751C89.4314 52.3523 88.6238 51.9501 88.3389 50.8294C88.2866 50.6152 87.9834 50.469 87.7952 50.2887C87.7613 50.2548 87.709 50.213 87.709 50.179C87.7377 49.6853 87.3535 49.7245 87.0477 49.6618C86.444 49.5312 86.0075 49.2334 85.8219 48.596C85.6076 47.8568 85.2887 47.1829 84.7895 46.5559C84.3739 46.0387 84.2014 45.3308 83.9217 44.6987C83.9034 44.6543 83.9244 44.589 83.9139 44.5367C83.7858 43.8628 83.663 43.1784 83.5192 42.5045C83.4957 42.3922 83.399 42.2825 83.3101 42.2015C82.6123 41.5615 82.1653 40.7831 81.9458 39.8662C81.9275 39.7878 81.8674 39.7121 81.8151 39.6442C80.997 38.5836 81.2113 37.4996 82.1183 36.8518C82.3143 36.7081 82.4894 36.5435 82.8057 36.2823C82.3431 35.9819 81.9641 35.7416 81.5851 35.4961C81.1303 35.2009 80.5082 34.9971 80.2599 34.5766C79.9489 34.0489 79.5516 33.6493 79.1334 33.2444C78.9531 33.0694 78.7623 32.897 78.6264 32.6854C78.5323 32.5417 78.5323 32.338 78.4879 32.1603C78.6787 32.1499 78.8956 32.0715 79.0498 32.1368C79.319 32.2596 79.5595 32.466 79.8052 32.6462C79.996 32.7925 80.1737 32.9492 80.3567 33.1033C80.3148 32.9126 80.2024 32.8029 80.1084 32.6749C79.7973 32.2596 79.468 31.8547 79.2014 31.4106C79.1256 31.2826 79.2354 31.0476 79.2615 30.8621C79.7529 31.0371 80.3645 30.7654 80.7696 31.2591C80.882 31.3976 80.9787 31.5491 81.0702 31.6666C81.1381 31.3715 81.1904 31.1494 81.2401 30.9274C81.457 31.0763 81.7053 31.1964 81.8804 31.3845C82.0294 31.5413 82.1026 31.779 82.2411 32.048C82.3431 31.651 82.4737 31.3349 82.4999 31.0162C82.5626 30.2613 82.4842 29.4907 82.6358 28.7593C82.8527 27.6805 83.203 26.633 84.1753 25.9199C84.6588 25.5725 85.0012 25.0213 85.6755 24.9743C85.7461 24.9717 85.8193 24.8698 85.8742 24.8019C86.1904 24.4231 86.5877 24.4336 86.9275 24.6922C87.2438 24.9351 87.5051 24.9142 87.8162 24.7523C88.5114 24.3892 89.1517 24.5537 89.7111 25.0213C90.0221 25.2825 90.273 25.6221 90.5318 25.9408C90.7043 26.1471 90.801 26.4293 90.9996 26.5938C91.5956 27.0823 91.8778 27.6439 91.5851 28.4093C91.5694 28.4537 91.559 28.5373 91.5851 28.566C92.0425 29.0336 91.7498 29.6318 91.8334 30.1594C91.9275 30.7472 92.0059 31.3976 91.4204 31.8495C91.3577 31.8991 91.3185 31.9984 91.2976 32.082C91.1094 32.769 90.9082 33.4455 90.7461 34.1377C90.6494 34.5583 90.6755 34.9292 91.1617 35.1722C91.687 35.4386 92.1549 35.8121 92.6541 36.1308C92.7221 36.1752 92.8371 36.2275 92.8972 36.2013C93.4069 35.9689 93.8381 36.2458 94.2903 36.4051C94.6588 36.5331 94.996 36.4887 95.192 36.1465C95.5788 35.4752 96.1983 35.2923 96.904 35.1904C97.1601 35.1539 97.4398 34.9815 97.6201 34.7829C98.0357 34.3206 98.5323 34.0437 99.1439 33.9497C99.962 33.8217 100.6 33.3907 101.154 32.7873C101.42 32.5025 101.729 32.2439 102.053 32.0323C103.621 31.0188 105.205 30.0236 106.792 29.0362C107.301 28.7201 107.665 28.3361 107.816 27.7197C107.879 27.4532 108.169 27.2443 108.331 26.9935C108.556 26.6408 108.825 26.296 108.961 25.9068C109.235 25.0997 108.985 24.363 108.558 23.6578C108.297 23.2189 107.989 22.7644 108.355 22.2106C108.404 22.1349 108.321 21.9259 108.245 21.8162C108.046 21.5471 107.874 21.3068 108.117 20.9568C108.289 20.7139 108.386 20.4161 108.532 20.1549C108.556 20.1183 108.663 20.1052 108.731 20.1104C109.343 20.147 109.465 20.9542 110.101 20.9881C110.195 20.9907 110.31 21.171 110.362 21.2964C110.406 21.4009 110.362 21.5445 110.38 21.6673C110.459 22.1767 110.459 22.72 110.647 23.1902C110.908 23.8432 111.19 24.4649 111.172 25.1937C111.162 25.6012 111.23 26.0139 111.243 26.424C111.258 26.8655 111.355 27.2416 111.671 27.5969C111.92 27.8712 112.103 28.2656 112.16 28.6287C112.239 29.1198 111.818 29.3967 111.402 29.1459C111.039 28.9291 110.798 29.1015 110.602 29.2948C110.179 29.731 109.784 30.2012 109.413 30.6871C108.715 31.5987 108.07 32.5495 107.351 33.4455C106.376 34.6654 105.273 35.7808 104.638 37.2488C104.421 37.7556 103.99 38.0821 103.433 38.2571C103.237 38.3198 103.104 38.5732 102.926 38.7221C102.683 38.9311 102.419 39.3072 102.171 39.302C101.462 39.2915 101.196 39.6886 100.947 40.2319C100.61 40.9659 100.328 41.1018 99.57 41.0312C99.3792 41.4257 99.191 41.8123 99.008 42.1963C99.6301 43.1288 100.25 44.0927 100.903 45.0304C101.397 45.7357 101.98 46.3757 102.442 47.0967C103.302 48.4419 104.107 49.8185 104.918 51.1899C105.247 51.7437 105.553 52.3105 105.84 52.8852C106.002 53.2039 106.083 53.5591 106.248 53.8778C106.619 54.5909 107.09 54.766 107.858 54.5518C108.064 54.4943 108.279 54.4551 108.493 54.4473C109.993 54.3768 111.499 54.2409 112.999 54.2749C115.759 54.335 118.525 54.4055 121.277 54.6615C122.403 54.7712 123.577 54.8522 124.147 56.0198C124.51 56.7669 124.69 57.6028 124.931 58.4047C125.192 59.285 124.941 60.1 124.578 60.9045C123.692 62.8584 122.252 64.2141 120.336 65.1571C119.578 65.5333 118.846 66.0557 118.266 66.6643C116.747 68.2656 115.08 69.6683 113.279 70.9378C112.565 71.4394 111.959 72.0924 111.29 72.6619C111.028 72.8865 110.767 73.1268 110.508 73.3593C111.172 73.341 111.841 73.3227 112.492 73.3828C114.421 73.5578 116.146 72.8944 117.97 72.6619C118.472 72.5992 118.961 72.3458 119.536 72.3589C120.208 72.3745 120.882 72.2988 121.546 72.3484C122.262 72.4059 122.95 72.4007 123.642 72.3484C124.709 70.7968 126.452 68.5007 127.333 67.2521C128.532 65.5568 131.423 62.5998 132.124 62.2158C132.124 62.2158 131.988 61.1997 132.733 60.8627C132.733 60.8627 132.939 60.7504 132.709 60.5885C132.484 60.4317 131.718 59.5541 131.718 59.4835C131.718 59.4156 132.304 58.1748 132.461 57.2945C132.618 56.4168 132.848 54.429 132.868 53.4364C132.892 52.4438 133.25 49.6409 134.178 46.0988C134.178 46.0988 134.471 44.7222 136.031 42.8023C136.031 42.8023 136.235 38.8266 136.211 38.15C136.188 37.4761 135.736 36.6846 135.961 35.6005C136.191 34.5165 136.334 33.4978 136.334 33.4978C136.334 33.4978 135.124 33.9131 135.048 33.6205C134.886 32.9805 136.24 32.7742 136.264 32.7063C136.264 32.7063 135.801 29.347 135.801 29.0545C135.801 28.7619 135.553 28.3309 135.464 27.6335C135.375 26.9334 134.74 23.9059 134.74 18.6241C134.74 18.6241 134.695 17.9032 134.424 17.5401C134.154 17.1796 134.4 17.2919 133.862 16.9994C133.318 16.7042 132.845 16.1635 132.845 16.1635C132.845 16.1635 132.774 16.7486 132.526 16.5448C132.278 16.3411 132.165 16.1844 132.009 15.9597C131.852 15.7351 131.69 15.2806 131.69 15.2806C131.69 15.2806 131.373 15.0559 131.128 14.8522C130.879 14.6484 130.291 13.5879 131.533 13.9484C131.533 13.9484 131.376 13.3371 131.716 13.2483C132.053 13.1595 132.936 12.9557 132.936 12.9557C132.936 12.9557 133.025 12.3445 133.004 11.9161C132.981 11.4877 132.709 10.5186 132.709 9.81592C132.709 9.11325 133.185 8.95652 133.253 9.49985C133.321 10.0406 133.389 10.6518 133.59 10.9444C133.794 11.2369 133.794 12.2975 134.021 12.7076C134.246 13.1125 136.258 16.6337 136.279 16.8609C136.303 17.0856 136.977 19.8832 137.207 21.1292C137.432 22.37 138.786 26.0949 138.765 26.9517C138.741 27.8111 138.741 29.1407 138.833 29.5247C138.922 29.9113 139.17 32.1891 139.173 32.1943C139.183 32.2674 139.651 32.27 139.701 32.2648C139.959 32.2335 139.847 31.9827 139.868 31.7581C139.889 31.5151 140.038 31.4524 140.106 31.4368C140.772 31.2774 141.517 31.3088 142.231 31.1991C142.628 31.1364 142.892 31.3088 142.916 31.5517C142.973 32.1368 143.033 32.338 143.002 32.9257C142.999 32.9806 142.91 33.3881 142.568 33.4272C141.747 33.5213 141.175 33.5761 140.349 33.5866C140.291 33.5866 140.067 33.6049 139.949 33.422C139.912 33.3672 139.85 33.1086 139.808 33.0955C139.682 33.0537 139.35 33.0694 139.298 33.166C139.194 33.3515 139.374 34.1586 139.515 34.3624C139.719 34.6549 140.352 36.0342 140.352 36.0342C140.352 36.0342 140.981 36.776 140.981 36.9563C140.981 37.1365 141.117 37.4787 141.162 37.6119C141.206 37.7477 142.701 37.928 142.97 37.9045C143.24 37.881 143.308 37.3429 142.654 36.3946C141.998 35.4464 141.954 34.9031 142.223 34.7673C142.497 34.6314 142.654 34.5635 142.654 34.2736C142.654 33.9836 142.722 33.9366 143.172 33.8922C143.626 33.8426 144.1 33.1686 144.212 32.944C144.324 32.7141 144.437 31.8834 145.184 32.1081C145.184 32.1081 145.14 31.0031 145.728 31.0476C146.313 31.092 146.768 31.907 147.33 31.4289C147.33 31.4289 147.599 31.024 148.935 31.1364C148.935 31.1364 149.858 31.2487 150.2 31.4733C150.537 31.698 152.003 31.361 153.274 34.365L152.842 33.8217L153.112 34.4773L152.777 34.0359C152.827 34.2057 153.632 36.9354 153.632 38.2493C153.632 39.5632 153.857 45.2237 154.06 45.7906C154.233 46.2634 154.499 49.1211 155.464 51.0253C155.095 50.4324 154.669 49.6749 154.455 49.0819C154.635 49.6331 155.663 52.7076 156.826 54.126C156.651 53.9562 155.234 52.543 154.405 50.8112C154.447 51.0436 155.153 54.8051 156.049 55.722C156.049 55.722 154.808 54.6824 154.784 53.9823C154.784 53.9823 154.852 55.4295 155.284 55.8343C155.284 55.8343 154.852 55.7664 154.628 54.5256C154.628 54.5256 154.471 55.3171 154.583 56.1034C154.583 56.1034 154.29 55.722 154.379 54.5936L154.128 55.2936V53.5983C154.128 53.5983 153.859 54.5465 153.924 55.244C153.992 55.944 153.992 56.3045 153.992 56.3045C153.992 56.3045 153.768 55.7194 153.676 55.1317C153.676 55.1317 153.3 55.7325 153.488 56.2C153.436 56.1243 153.195 55.7272 153.305 55.2126L153.088 56.0329C153.088 56.0329 153.044 54.3872 152.908 54.1808C152.908 54.1808 152.686 55.5235 152.837 56.1347C152.785 56.0224 152.294 54.9358 152.476 53.7002C152.443 53.9066 152.087 55.9728 152.278 56.5762L151.959 56.1687L151.779 56.5318L151.598 55.6515L151.282 55.9885L151.258 54.7033L150.963 56.2366C150.963 56.2366 150.806 55.2649 150.895 54.5465C150.989 53.823 150.691 52.0154 150.691 52.0154C150.691 52.0154 150.443 53.055 150.535 53.6662L150.318 52.5822C150.37 52.9584 150.723 55.4765 150.514 55.8108C150.514 55.8108 150.333 53.5539 150.108 52.718C150.108 52.718 149.737 54.5962 149.834 55.2492C149.748 54.9149 149.499 53.6793 150.038 52.4307C149.967 52.4751 149.251 53.0001 149.677 55.4086C149.677 55.4086 148.843 54.0293 148.979 52.6971C148.979 52.6971 148.412 54.2122 149.068 55.453C149.068 55.453 148.3 55.3171 148.593 53.9614C148.593 53.9614 148.232 54.1181 148.119 54.7529C148.119 54.7529 148.051 53.7812 148.681 52.9688C148.681 52.9688 147.984 53.311 147.916 54.1208C147.916 54.1208 147.871 53.0001 148.585 52.146C148.506 52.2243 147.871 52.88 147.508 54.2383C147.508 54.2383 147.241 53.567 147.505 53.1621C147.456 53.23 147.082 53.7838 147.082 54.0999C147.082 54.0999 146.789 53.6715 147.463 52.5221C148.143 51.3702 147.827 49.9491 147.827 49.9491C147.827 49.9491 147.85 51.3022 147.372 51.9788C146.899 52.658 146.624 53.1307 146.624 53.1307C146.624 53.1307 146.512 52.8147 147.212 51.8665C147.913 50.9183 147.55 50.0641 147.55 50.0641C147.55 50.0641 147.639 51.216 146.92 51.9135C146.92 51.9135 147.414 50.8974 147.414 50.2678C147.414 50.2678 145.968 50.8765 146.081 52.0963C146.081 52.0963 145.746 51.7359 146.277 50.9757C146.183 51.0802 145.451 51.9344 145.156 51.9579C145.156 51.9579 146.24 50.8294 146.716 49.9753L145.968 50.6283L146.494 49.7663C146.405 49.8551 145.987 50.3018 145.132 51.3519C144.16 52.5482 144.026 52.8408 143.958 53.1334C143.89 53.4285 143.689 53.3841 143.459 53.7446C143.234 54.1051 143.37 54.1495 143.302 54.557C143.234 54.9619 143.234 55.0507 143.391 55.325C143.553 55.594 146.397 59.682 145.947 60.6982C145.947 60.6982 146.06 61.6438 146.601 62.3882C147.145 63.1353 147.077 63.2241 147.55 63.6969C148.025 64.1723 148.206 64.6451 148.41 65.2564C148.613 65.865 151.752 70.9901 151.752 70.9901C151.752 70.9901 152.275 71.2147 152.432 71.6013C152.44 71.617 152.443 71.6301 152.448 71.6431C152.586 71.7398 152.722 71.8521 152.897 71.8573C153.794 71.873 154.69 71.8573 155.584 71.8913C156.353 71.9174 156.922 72.4085 157.774 72.3745C159.008 72.3249 160.291 72.3667 160.548 73.6467C160.589 73.8504 160.804 73.8217 161.042 73.6649C161.392 73.4351 161.862 73.2496 162.22 73.5552C162.884 74.1299 163.906 73.772 164.677 74.2161C165.378 74.6184 166.376 74.5322 167.176 74.1404C167.581 73.9418 167.994 73.84 168.425 73.9314C168.943 74.0359 169.413 74.284 169.931 74.3807C170.566 74.4956 171.285 74.3023 171.854 74.6576C172.33 74.958 172.923 74.8404 173.431 74.9684C173.655 75.0259 173.773 75.3628 173.904 75.5823C174.032 75.7991 174.147 75.8304 174.379 75.7364C175.213 75.4099 175.895 76.089 176.768 75.9349C177.508 75.8043 178.336 75.995 179.102 75.9166C179.97 75.8304 180.535 76.3241 181.282 76.4077C182.051 76.4939 183.005 76.3241 183.564 76.6141C184.641 77.1731 186.018 76.6663 187.019 77.382C187.474 77.7033 188.065 76.8204 188.786 77.3063C189.304 77.6537 190.064 77.4682 190.723 77.4447C191.162 77.4343 191.449 76.9563 191.198 76.6846C191.07 76.5462 190.906 76.4286 190.767 76.2954C189.949 75.4882 189.965 75.5013 191.146 74.6994C191.468 74.4825 191.821 74.2161 191.946 73.9183C192.179 73.3593 192.49 73.6284 192.887 73.7616C193.679 74.0202 194.398 73.9 195.014 73.4325C195.307 73.2078 195.213 73.0171 195.004 72.8029C194.599 72.398 195.158 72.466 195.383 72.3536C195.555 72.2648 196.193 72.257 195.613 71.9383C194.949 71.57 194.839 71.4028 195.25 71.2043C195.524 71.0685 195.825 70.9692 196.091 70.8255C196.951 70.3762 198.135 70.2326 198.446 69.2608C198.54 68.9657 199.026 68.8142 199.52 68.7619C199.899 68.7201 199.957 68.4589 199.549 68.3257C199.283 68.2421 198.904 68.2813 198.927 67.973C198.935 67.9025 199.277 67.8033 199.476 67.7928C199.918 67.7588 200.373 67.7928 200.814 67.751C200.953 67.7353 201.201 67.5081 201.175 67.4767C200.414 66.505 201.598 66.7532 202.017 66.8028C203.078 66.9256 204.139 67.1319 205.153 67.4062C205.576 67.5211 205.861 67.7484 206.256 67.3958C206.617 67.0745 207.307 66.808 207.356 66.4737C207.469 65.7083 208.096 65.7762 208.752 65.7188C208.943 65.7031 209.115 65.5646 209.301 65.4863C209.113 65.4001 208.938 65.2799 208.734 65.2433C208.167 65.1388 207.952 64.7627 208.182 64.4936C208.527 64.0809 208.65 63.8119 208.093 63.4775C207.837 63.3234 207.626 63.1014 207.484 62.8767C207.409 62.7618 207.511 62.5659 207.568 62.4144C207.584 62.3726 207.772 62.3177 207.809 62.3386C208.384 62.6756 209.05 62.6286 209.719 62.6677C210.916 62.7383 212.095 62.639 213.295 63.0883C214.113 63.3913 215.268 63.1902 216.274 63.1771C216.439 63.1771 216.747 62.9812 216.737 62.895C216.708 62.6625 216.622 62.3438 216.408 62.242L216.381 62.2681ZM46.4151 31.3166C46.4151 31.3166 46.2583 31.6327 46.0022 32.1447C46.3184 32.1603 46.6321 32.1682 46.9483 32.1629H47.1391C46.7967 31.6092 46.4151 31.3166 46.4151 31.3166ZM103.645 64.5119C103.203 65.1336 102.858 65.6064 102.523 66.0871C101.196 67.9835 99.8549 69.8773 98.5454 71.7868C97.7038 73.0067 96.8674 74.2265 96.0362 75.449C96.3525 75.4072 96.7315 75.449 97.0608 75.4386C97.398 75.4281 97.7691 75.5013 98.0619 75.4125C98.2318 75.3602 98.399 75.3028 98.5637 75.2427C98.5532 74.89 98.7728 74.6158 99.1857 74.4329C100.082 74.0254 100.963 73.5813 101.867 73.1869C102.701 72.8264 103.255 72.1943 103.728 71.4498C104.045 70.9509 104.392 70.4677 104.774 70.0184C105.182 69.5351 105.757 69.3784 106.376 69.4071C106.86 69.4332 107.348 69.5377 107.824 69.5012C108.177 69.475 108.658 69.3784 108.838 69.1328C109.573 68.135 110.545 67.2991 110.921 66.0322C111.138 65.306 111.559 64.6295 111.928 63.9555C112.197 63.4566 112.531 62.9917 112.921 62.3778C109.722 63.3756 106.648 64.2533 103.642 64.5119H103.645Z" fill="url(#paint0_linear_1646_687)"/>
<path d="M33.1533 76.0259C32.3091 75.8823 31.5824 75.1195 30.6807 75.5323C30.6467 75.5479 30.6101 75.561 30.5762 75.5741C30.9918 75.8353 31.3786 76.0155 31.6347 76.1487C31.9092 76.2924 32.3404 76.4178 32.8396 76.5301C32.9677 76.4674 33.0958 76.4073 33.2212 76.3577C33.4878 76.2558 33.4774 76.0834 33.1533 76.0286V76.0259Z" fill="url(#paint1_linear_1646_687)"/>
<path d="M156.042 51.9839C155.817 51.7253 155.621 51.4145 155.454 51.0723C155.723 51.5111 155.961 51.8585 156.042 51.9839Z" fill="url(#paint2_linear_1646_687)"/>
<defs>
<linearGradient id="paint0_linear_1646_687" x1="0.00627597" y1="39.4274" x2="216.713" y2="39.4274" gradientUnits="userSpaceOnUse">
<stop stop-color="#65C1F8"/>
<stop offset="1" stop-color="#BD9BFF"/>
</linearGradient>
<linearGradient id="paint1_linear_1646_687" x1="30.5762" y1="75.9685" x2="33.4094" y2="75.9685" gradientUnits="userSpaceOnUse">
<stop stop-color="#65C1F8"/>
<stop offset="1" stop-color="#BD9BFF"/>
</linearGradient>
<linearGradient id="paint2_linear_1646_687" x1="155.454" y1="51.5294" x2="156.042" y2="51.5294" gradientUnits="userSpaceOnUse">
<stop stop-color="#65C1F8"/>
<stop offset="1" stop-color="#BD9BFF"/>
</linearGradient>
</defs>
</svg>
