<svg width="307" height="53" viewBox="0 0 307 53" fill="none" xmlns="http://www.w3.org/2000/svg">
<g clip-path="url(#clip0_2037_2249)">
<path d="M89.6252 44.2548C89.6252 44.2548 89.1781 44.1824 89.0023 44.0661C88.8298 43.9499 88.279 44.4031 87.991 44.5042C87.991 44.5042 86.6816 45.4274 85.3236 46.5141C85.4057 46.4754 85.4844 46.4349 85.5614 46.3861C86.1893 46.4046 86.854 46.226 87.415 46.5967C87.4685 46.6337 87.5322 46.6759 87.5958 46.6809C88.2924 46.7416 88.9872 46.6472 89.6704 46.9589C90.1828 47.1914 90.9463 46.9471 91.457 47.3413C91.4905 47.3683 91.596 47.3363 91.6663 47.3397C91.9325 47.3447 92.1117 46.9471 92.3796 47.1847C92.7178 47.4829 92.9539 46.9808 93.2855 47.1796C93.3625 47.2251 93.4579 47.2588 93.5634 47.2841C92.537 46.2715 90.8693 44.7552 89.6269 44.2565L89.6252 44.2548ZM25.9055 22.7115C25.5857 22.7165 25.3764 22.821 25.3412 23.0855C25.3127 23.291 25.3814 23.5454 25.0867 23.6617C24.7987 23.7746 24.4069 23.9666 24.1775 23.8959C23.5864 23.7173 23.1795 24.1722 22.6102 24.0458C22.1314 23.9414 21.6709 24.125 21.2021 24.2968C20.7215 24.4754 20.0668 24.248 19.5863 24.5849C19.4975 24.6473 19.3217 24.6507 19.1844 24.6557C18.4711 24.6742 17.6657 24.5344 17.0663 24.7399C16.3647 24.9842 15.6799 24.9084 15.0034 25.028C13.2436 25.3397 11.4771 25.6211 9.86798 26.3169C9.01737 26.6842 8.79133 27.2553 8.59877 27.8838C8.54519 28.0607 8.7411 28.2662 8.86835 28.1954C9.55654 27.8248 10.3971 27.7389 11.1271 27.4474C11.1589 27.4356 11.1656 27.3867 11.1757 27.3379C11.4553 27.439 11.7333 27.5384 12.0129 27.6378C12.0447 27.8939 11.7751 28.059 11.5675 28.1112C10.9044 28.2797 10.4875 28.716 9.89309 28.9502C9.84286 29.1541 9.96677 29.4776 9.657 29.5129C8.97886 29.5871 8.54017 29.9291 7.99431 30.1582C7.65943 30.2981 7.23245 30.7125 6.69664 30.3469C6.66483 30.325 6.44381 30.4126 6.38018 30.4851C6.17757 30.7024 6.03357 30.9517 5.8226 31.164C5.58986 31.3982 5.49274 31.6526 5.58148 31.9289C5.68697 32.2608 5.97832 32.463 6.41367 32.5354C6.43041 32.2895 6.37348 31.998 6.80045 31.9205C7.54389 31.7874 7.84194 31.8868 8.18687 32.281C8.34259 32.4546 8.51673 32.6214 8.70426 32.7764C8.89179 32.9331 9.25179 32.8876 9.41086 32.6888C9.55486 32.5102 9.65365 32.3114 9.80435 32.1378C10.0254 31.8834 10.377 31.8868 10.7203 31.8935C10.7186 31.9037 10.7136 31.9154 10.7102 31.9256H10.7537C10.7487 32.025 10.7353 32.126 10.7638 32.2204C10.7923 32.3164 10.881 32.4023 10.9446 32.4916C11.0116 32.4023 11.1054 32.3198 11.1389 32.2238C11.1707 32.1294 11.1539 32.0233 11.1506 31.9222H11.1824C11.1824 31.9222 11.1757 31.907 11.1707 31.9003C11.8069 31.8952 12.2691 32.1126 12.4248 32.5877C12.5119 32.8539 12.6107 33.0948 12.7798 33.3391C12.9891 33.6373 12.7965 33.8934 12.3227 33.8563C11.6328 33.8058 11.1204 34.2405 10.4909 34.1798C9.78928 34.1141 9.3104 34.5403 8.66407 34.5572C8.16008 34.5724 8.16008 34.8722 8.17682 35.1469C8.18184 35.2463 8.26891 35.3423 8.33087 35.435C8.33589 35.44 8.45142 35.4164 8.50166 35.3895C8.78463 35.2277 9.07598 34.9161 9.34723 34.9278C10.094 34.9565 10.6935 34.6044 11.3883 34.5673C12.028 34.5336 12.6743 34.5488 13.3156 34.5673C13.54 34.5724 13.6907 34.7004 13.7308 34.879C13.7811 35.0963 13.8397 35.3844 13.5316 35.4518C13.051 35.5529 12.6977 35.8359 12.1586 35.8797C11.7015 35.9168 11.2644 36.1561 10.8391 36.3313C10.7638 36.3633 10.7722 36.5267 10.7722 36.6312C10.7722 36.6716 10.8391 36.7306 10.8944 36.7474C11.02 36.7878 11.1539 36.83 11.2862 36.8316C12.2908 36.8384 13.2938 36.8249 14.2951 36.8485C14.6869 36.8586 14.9481 36.6615 15.2713 36.6025C15.4371 36.5705 15.6866 36.8704 15.9628 36.6514C16.1001 36.5402 16.2039 36.5587 16.2944 36.7019C16.3597 36.803 16.2224 37.1181 16.0851 37.108C15.345 37.0456 14.8142 37.5595 14.0657 37.5073C13.3541 37.4567 12.7731 37.8627 12.0229 37.8577C11.3549 37.8509 10.6817 38.102 10.0136 38.2519C9.74909 38.3092 9.48956 38.4575 9.23003 38.4558C7.78333 38.4406 6.55264 39.0151 5.21144 39.283C4.49814 39.4262 3.91544 39.7699 3.54875 40.2383C3.32773 40.5213 3.16698 40.7724 2.73666 40.9055C2.54745 40.9627 2.53908 41.1835 2.68643 41.3216C2.87229 41.4985 3.11173 41.7344 2.94764 41.8995C2.57089 42.287 2.48885 42.843 1.8509 43.0755C1.47583 43.2103 1.07899 43.3181 0.697227 43.4411C0.635274 43.463 0.588391 43.5118 0.536484 43.5472C0.623553 43.6079 0.70225 43.7073 0.797692 43.7191C1.14095 43.7645 1.52774 43.7039 1.77387 43.9633C1.87266 44.0695 2.14392 44.1234 1.94969 44.3424C1.75713 44.5581 1.61313 44.8041 1.49257 45.0517C1.27825 45.4898 1.01369 45.8132 0.281973 45.7627C0.00736945 45.7442 -0.114863 46.1586 0.137973 46.2496C0.541506 46.3878 0.844575 46.5394 0.971831 46.8982C1.06057 47.1476 1.22634 47.4273 1.47918 47.5856C1.81573 47.7979 2.11545 47.5014 2.42354 47.3953C2.80866 47.2638 3.10168 47.8215 3.56214 47.4626C3.79321 47.2807 4.16326 47.1796 4.49479 47.1072C4.7493 47.0499 5.13442 47.001 5.30018 47.1021C5.7372 47.3683 6.20604 47.3851 6.71171 47.3851C7.01478 47.3851 7.27431 47.4525 7.28101 47.7423C7.28771 48.0153 7.32622 48.3017 6.83394 48.3657C6.76697 48.3758 6.70334 48.4061 6.64139 48.428C6.46557 48.4937 6.49069 48.6437 6.67487 48.6285C7.3865 48.578 7.12864 49.262 7.68454 49.3446C8.08808 49.4069 8.48324 49.5619 8.83152 49.7337C9.04082 49.8331 9.15802 50.0437 9.31709 50.2055C9.11951 50.2543 8.92528 50.3049 8.72603 50.3453C8.65905 50.3605 8.56696 50.3302 8.51505 50.3554C8.42631 50.3959 8.35598 50.4649 8.27896 50.5222C8.33589 50.5559 8.39114 50.6115 8.45142 50.6166C8.6624 50.6317 8.8784 50.6284 9.09272 50.6317C9.73737 50.6385 10.3837 50.6637 11.0283 50.6385C11.4855 50.6216 11.8404 50.7278 12.2138 50.9215C12.5336 51.0866 12.7145 50.9535 12.6224 50.5947C12.5906 50.4717 12.5286 50.3891 12.7396 50.3706C13.0929 50.3419 13.4512 50.3487 13.8062 50.3268C14.4341 50.288 15.0436 50.3099 15.6782 50.0993C16.2307 49.9174 16.9373 50.0067 17.5786 49.9814C18.2568 49.9494 18.9299 50.0185 19.5829 49.7388C18.749 49.2165 17.7344 48.2056 18.5732 46.1805C18.5732 46.1805 20.3515 43.4832 22.3608 41.7411C22.3608 41.7411 24.0938 39.9755 24.6698 39.6739C24.6698 39.6739 24.278 39.3959 24.1859 39.1853C24.0921 38.9781 23.1209 38.4895 23.0054 37.487C23.0054 37.487 22.5684 37.4415 22.267 37.674C21.9673 37.9065 21.4817 38.6748 20.7433 38.3244C20.0032 37.9756 19.8173 37.6286 19.9797 37.3034C20.1438 36.9765 20.7198 35.6523 20.7198 35.6523C20.7198 35.6523 20.3498 35.4451 20.6495 35.1637C20.6495 35.1637 20.8102 35.002 21.0196 35.1182L21.3662 34.6296C21.3662 34.6296 20.9743 34.3516 21.0413 34.3516C21.1083 34.3516 21.2506 34.3062 21.2506 34.3062C21.2506 34.3062 20.8354 33.8883 21.3209 33.8176C21.3209 33.8176 20.7449 33.3071 21.6424 33.2127C21.6424 33.2127 21.2272 32.864 21.6659 32.6079C22.1062 32.3535 22.3356 32.1682 22.9133 32.1193C22.9133 32.1193 23.2834 30.7715 23.5831 30.0049C23.8828 29.2383 24.5308 28.1449 24.9226 28.2611L27.7775 22.6896C27.1496 22.6963 26.5233 22.7014 25.8971 22.7081L25.9055 22.7115ZM28.2564 51.3208C28.2564 51.3208 28.3953 51.181 27.1245 51.0647C25.8536 50.9485 23.8225 50.7631 23.4274 50.716C23.1394 50.6823 21.9221 50.5593 21.0363 50.3588C20.8036 50.4717 20.5675 50.5964 20.3397 50.5913C19.2246 50.5694 18.0659 50.8912 16.9909 50.3975C16.8804 50.347 16.6226 50.3184 16.5974 50.3521C16.2341 50.8171 15.494 50.534 15.0587 50.8187C14.9113 50.9148 14.8159 51.058 14.6953 51.181C14.8276 51.2147 14.9565 51.277 15.0888 51.2804C16.6661 51.2955 18.2417 51.2989 19.819 51.3073C19.9613 51.3073 20.112 51.2787 20.2476 51.3023C20.8555 51.4135 21.2757 50.8524 21.8752 51.0243C22.3993 51.1742 22.8798 51.4253 23.414 51.5533C23.8074 51.6477 24.2545 51.6426 24.6798 51.6426C25.9591 51.6426 27.235 51.6426 28.5142 51.6409C28.4405 51.5584 28.3551 51.4539 28.2564 51.3225V51.3208ZM30.5352 22.4234C30.336 22.4453 30.1384 22.4891 29.9408 22.5784C29.693 22.6912 29.3347 22.6744 29.0082 22.6778C28.2965 24.1368 27.2986 26.2175 27.1496 26.7263C27.2048 26.6387 28.1057 25.2437 28.4405 24.5934C28.4405 24.5934 28.6013 24.499 28.8558 24.5934C28.8558 24.5934 29.9877 24.5698 30.125 24.3828C30.264 24.1958 30.3577 23.9178 30.9806 23.943L31.3507 23.8032C31.3507 23.8032 30.8467 23.0164 30.5336 22.425L30.5352 22.4234ZM30.6357 45.857C30.0597 43.6736 29.0885 42.3931 29.0885 42.3931C29.0885 42.3931 27.3103 43.8134 26.7996 44.3222C26.2923 44.8327 24.7233 45.9261 24.4688 45.9952C24.2143 46.066 23.4759 46.7854 23.4759 46.7854C23.4759 46.7854 24.4688 46.878 24.9996 47.0634C25.5304 47.2487 27.0541 47.8754 27.9315 48.086C28.8106 48.2932 29.3179 48.642 30.0798 48.6673C30.8416 48.6925 31.6973 48.738 32.2749 48.6909C32.2749 48.6909 31.2134 48.0405 30.6357 45.8537V45.857ZM32.5529 22.3762C32.6952 22.5817 32.861 22.8075 33.0602 23.0552L33.3968 22.356C33.1155 22.361 32.8342 22.3678 32.5529 22.3745V22.3762ZM138.62 41.1616C138.394 41.052 138.086 41.0402 138.017 40.7892C137.845 40.7117 137.676 40.6275 137.497 40.5618C137.239 40.4691 137.133 40.0007 136.713 40.3242C136.37 40.5854 136.172 39.9637 135.869 40.2855C135.757 40.4068 135.66 40.3916 135.533 40.3124C135.04 40.0007 134.91 39.3015 133.97 39.4498C133.915 39.4599 133.768 39.2999 133.743 39.2072C133.697 39.0505 133.702 38.8837 133.702 38.7203C133.697 38.2856 133.741 38.2603 134.437 38.139C134.627 38.1053 134.824 38.0514 134.983 37.9706C135.117 37.8981 134.94 37.5275 134.702 37.4213C134.464 37.3118 134.178 37.2562 133.969 37.1265C133.615 36.9058 134.041 36.894 134.154 36.8552C134.357 36.7845 134.57 36.7221 134.553 36.5385C134.538 36.3936 134.441 36.2403 134.334 36.1122C134.238 35.9994 134.242 35.9067 134.444 35.8949C134.829 35.8713 135.298 35.7349 135.455 36.1796C135.571 36.2234 135.73 36.2538 135.769 36.3245C135.901 36.5621 135.913 36.8418 136.402 36.8569C136.673 36.8637 136.952 36.9462 137.2 37.0389C137.478 37.1433 137.775 37.2293 137.927 36.985C138.036 36.8114 138.031 36.5503 137.95 36.3616C137.796 36.0061 137.207 35.8663 137.14 35.4249C137.103 35.1957 136.87 35.3255 136.695 35.3962C136.16 35.6169 135.591 35.6085 135.092 35.3777C134.761 35.2227 134.434 35.2058 134.082 35.1721C133.999 35.1654 133.932 35.0593 133.856 34.9986C133.984 34.9599 134.111 34.9144 134.242 34.8824C134.309 34.8672 134.386 34.8807 134.456 34.8672C134.943 34.7796 134.943 34.5892 135.079 34.3601C135.255 34.0551 134.089 33.7839 135.122 33.5059C135.554 33.3896 135.857 33.3576 136.239 33.516C136.326 33.5497 136.497 33.4705 136.624 33.4334C136.629 33.4334 136.614 33.3458 136.584 33.3155C136.497 33.2313 136.395 33.1554 136.303 33.0712C136.165 32.9449 136 32.832 135.904 32.6888C135.588 32.217 135.596 32.2019 134.873 32.2271C134.469 32.2423 134.21 32.0822 133.95 31.8834C133.808 31.7722 133.789 31.6998 133.945 31.6375C134.186 31.5381 134.453 31.469 134.662 31.3392C134.771 31.2719 135.097 31.1388 134.772 30.9821C134.066 30.6417 133.342 30.3149 132.624 29.9881C132.447 29.9055 132.123 29.8667 132.09 29.764C131.797 28.898 130.925 28.93 130.052 28.957C129.468 28.9738 129.088 28.4465 128.45 28.6116C128.421 28.6183 128.319 28.4852 128.279 28.4111C128.269 28.3959 128.374 28.3151 128.433 28.3117C128.788 28.2965 129.146 28.3066 129.503 28.2797C129.587 28.2746 129.662 28.1584 129.724 28.0859C129.724 28.0741 129.632 27.9933 129.575 27.9848C129.392 27.9478 129.168 27.9528 129.14 27.7692C129.14 27.7355 129.371 27.6563 129.493 27.6529C129.99 27.6378 130.479 27.626 130.916 27.8905C131.177 28.0455 131.459 27.9141 131.666 27.7473C131.849 27.5957 132.068 27.626 132.246 27.7035C132.483 27.8079 132.642 27.9309 132.972 27.7877C133.131 27.717 133.456 27.8821 133.711 27.9208C133.952 27.9596 134.156 27.8046 134.096 27.6395C134.062 27.5451 133.997 27.3952 133.92 27.3851C133.088 27.2789 132.343 26.8948 131.462 26.9622C130.811 27.0127 130.33 26.5393 129.629 26.6336C129.073 26.7111 128.482 26.6825 127.916 26.6353C127.227 26.5797 126.623 26.2866 125.883 26.295C125.136 26.3001 124.433 25.9833 123.658 25.9058C123.005 25.8401 122.395 25.4678 121.782 25.2066C121.039 24.8916 120.285 24.6001 119.408 24.6945C118.911 24.7484 118.663 24.4013 118.244 24.3508C117.829 24.3002 117.389 24.408 116.995 24.2109C116.824 24.1267 116.613 24.066 116.414 24.0492C115.637 23.9784 114.792 24.1806 114.095 23.8874C113.41 23.6027 112.598 23.8874 112.046 23.5943C111.349 23.2236 110.467 23.5623 109.832 23.1057C109.671 22.9895 109.284 23.0619 109.003 23.0383C108.104 22.9558 107.166 23.1647 106.304 22.7401C106.049 22.6137 105.604 22.7064 105.246 22.7064C104.243 22.7014 103.235 22.6356 102.242 22.7131C101.277 22.7873 100.477 22.3897 99.5745 22.329C99.5143 22.324 99.449 22.2684 99.4138 22.2246C99.4021 22.2128 99.469 22.1403 99.5176 22.1235C99.8994 21.9954 100.269 21.8118 100.67 21.7629C101.229 21.6955 101.822 21.6753 102.381 21.7343C103.01 21.8 103.379 21.3215 103.988 21.3788C104.337 21.4159 104.7 21.3687 105.055 21.3502C105.115 21.3485 105.17 21.2895 105.227 21.2575C105.149 21.2002 105.072 21.0958 104.986 21.0924C104.656 21.0806 104.489 20.902 104.295 20.747C104.246 20.7083 104.167 20.6375 104.184 20.6139C104.234 20.5398 104.321 20.4303 104.399 20.4252C105.043 20.3983 105.686 20.3983 106.331 20.3713C106.396 20.3662 106.463 20.2534 106.503 20.1809C106.51 20.1658 106.403 20.0849 106.348 20.0815C105.631 20.0765 104.918 20.0798 104.201 20.0815C103.735 20.0832 103.605 20.2887 103.632 20.6105C103.653 20.8498 103.54 21.0317 103.169 21.0368C102.237 21.0469 101.308 21.0604 100.377 21.0688C100.022 21.0739 100.028 21.0637 99.1241 20.4623C98.9734 20.3629 98.7256 20.3511 98.5716 20.2517C98.4929 20.2011 98.4728 20.0478 98.4996 19.9518C98.5431 19.8069 98.677 19.7749 98.7959 19.8625C99.0705 20.0663 99.4021 20.0967 99.7554 20.0613C99.8877 19.6266 100.392 19.7934 100.755 19.7176C101.068 19.6519 100.932 19.4885 100.804 19.379C100.653 19.2526 100.656 19.1566 100.874 19.1583C101.708 19.1633 102.568 18.9477 103.364 19.3267C103.473 19.3773 103.673 19.416 103.757 19.3756C104.198 19.1633 104.618 18.9712 105.087 19.325C105.485 19.0824 105.832 19.3099 106.207 19.3806C106.478 19.4295 106.836 19.475 107.051 19.3823C107.814 19.0454 108.503 19.5491 109.228 19.4396C110.182 19.785 111.218 19.9787 112.235 20.0444C113.228 20.1068 114.105 20.4774 115.123 20.4707C115.774 20.4656 116.466 20.7217 117.072 20.961C117.816 21.2508 118.618 21.4293 119.386 21.6315C120.074 21.8101 120.893 21.6989 121.657 21.704C121.608 21.6147 121.568 21.4917 121.498 21.4799C121.154 21.4293 120.798 21.4226 120.449 21.3906C120.034 21.3569 119.875 21.1682 120.118 20.8279C120.294 20.5836 120.212 20.4909 120.026 20.3039C119.773 20.0478 119.163 20.1556 119.098 19.7446C118.884 19.6283 118.666 19.5154 118.459 19.3891C118.234 19.2543 118.038 19.1111 117.718 19.106C117.012 19.0959 116.295 19.106 115.669 18.7893C114.304 18.9274 113.057 18.3765 111.696 18.39C110.945 18.4001 110.194 18.1507 109.46 18.0025C108.909 17.893 108.372 17.7413 107.816 17.7851C107.128 17.8407 106.612 17.524 106.009 17.4061C105.949 17.3943 105.904 17.3336 105.85 17.2966C105.956 17.241 106.056 17.1399 106.165 17.1348C107.022 17.1112 107.881 17.1112 108.739 17.0893C108.869 17.0876 108.993 17.0169 109.12 16.9781C108.953 16.9242 108.785 16.8282 108.618 16.8265C107.618 16.8097 106.615 16.7996 105.614 16.8164C104.918 16.8282 104.318 17.1938 103.568 17.1281C102.861 17.0708 102.14 17.1213 101.425 17.1348C101.219 17.1365 100.984 17.1416 100.807 17.2123C99.7018 17.6436 98.6469 17.4853 97.5619 17.1382C97.2488 17.0371 96.9055 16.9444 96.5757 16.8787C95.6363 16.685 94.7204 16.3918 93.699 16.4525C93.0041 16.4929 92.3193 16.4693 91.6445 16.1711C91.2594 16.0043 90.6667 16.1223 90.166 16.1004C90.1091 16.0987 90.0505 16.0397 89.9952 16.006C90.0622 15.9437 90.1258 15.8291 90.1978 15.8274C90.9664 15.7988 91.7534 15.8712 92.4449 15.5006C92.5068 15.4669 92.6894 15.5629 92.8149 15.6017C92.9322 15.6354 93.1063 15.728 93.1565 15.696C93.406 15.5461 93.2603 15.14 93.7911 15.1451C94.1377 15.1501 94.486 15.1013 94.8326 15.0676C94.8778 15.0625 94.9147 15.0019 94.9582 14.9665C94.9029 14.9328 94.8527 14.8738 94.7924 14.8654C94.5865 14.8385 94.3738 14.8317 94.1679 14.8115C94.1009 14.8048 94.0339 14.7879 93.9787 14.761C93.9167 14.734 93.8681 14.6902 93.8146 14.6548C93.8631 14.6161 93.9016 14.5622 93.9619 14.5436C95.1156 14.173 96.2575 13.8124 97.5619 13.8225C100.994 13.8495 104.429 13.8293 107.863 13.8276C108.216 13.8276 108.586 13.8647 108.849 13.6119C108.938 13.5277 109.027 13.4435 109.114 13.3575C109.022 13.3019 108.933 13.2076 108.834 13.2008C108.551 13.1739 108.261 13.184 107.977 13.1823C107.618 13.1773 107.26 13.1941 106.905 13.1722C106.415 13.1402 105.877 13.2783 105.447 13.0374C105.087 12.8336 104.405 12.8993 104.409 12.3483C104.409 12.2978 104.049 12.2085 103.856 12.2035C102.423 12.1816 100.986 12.1074 99.5662 12.1967C98.657 12.254 97.9487 11.8311 97.0981 11.8345C97.0261 11.8345 96.9507 11.7182 96.8787 11.6559C96.934 11.6222 96.9892 11.5599 97.0445 11.5599C97.9018 11.543 98.7608 11.5329 99.6164 11.5262C99.8157 11.5245 100.01 11.5144 100.058 11.3375C100.058 11.3189 99.8257 11.2448 99.6951 11.228C99.3518 11.1825 99.0052 11.1555 98.6586 11.1151C98.6201 11.11 98.5548 11.0325 98.5665 11.0191C98.6 10.9736 98.6603 10.9196 98.7223 10.9095C98.9935 10.8657 99.2782 10.8556 99.5394 10.7916C99.6315 10.7697 99.7219 10.6248 99.7219 10.5355C99.7269 10.3468 99.6214 10.2525 99.3502 10.3755C98.8596 10.5979 98.513 10.1413 98.0039 10.2104C97.5334 10.2761 97.016 10.1783 96.5254 10.1278C96.4585 10.1211 96.4132 9.99302 96.3597 9.90372C96.4852 9.89867 96.6092 9.89867 96.7314 9.88519C96.9089 9.86666 97.217 9.90372 97.0294 9.64595C96.929 9.50611 96.7297 9.41176 96.6008 9.28035C96.502 9.17926 96.224 9.00236 96.579 8.94171C97.5987 8.76818 98.6436 8.35877 99.6683 8.62666C101.403 9.07649 103.151 8.83388 104.894 8.88274C104.884 8.71595 104.74 8.63171 104.536 8.59801C103.928 8.49356 103.305 8.63171 102.671 8.38573C102.145 8.18187 101.445 8.24252 100.825 8.17008C100.655 8.15155 100.653 8.04203 100.815 7.94095C100.971 7.84491 101.209 7.64779 101.294 7.67981C102.381 8.09595 103.529 7.82807 104.645 7.88703C104.856 7.89714 105.073 7.89714 105.284 7.87693C105.417 7.86513 105.631 7.83144 105.654 7.77078C105.991 6.89806 106.934 7.37149 107.598 7.24345C107.687 7.2266 107.747 7.12214 107.819 7.0598C107.764 7.02611 107.704 6.95872 107.654 6.96377C106.925 7.02105 106.289 6.79866 105.651 6.58638C105.572 6.55942 105.539 6.45834 105.484 6.39094C105.611 6.35219 105.736 6.30334 105.869 6.28143C106.006 6.25953 106.162 6.29154 106.292 6.25448C106.384 6.23089 106.446 6.13654 106.52 6.07252C106.465 6.03545 106.416 5.97649 106.356 5.97143C106.147 5.94785 105.929 5.95627 105.721 5.92594C105.519 5.89393 105.39 5.79116 105.35 5.63111C104.879 5.58225 104.417 5.60415 103.946 5.4104C103.163 5.0886 102.307 4.85947 101.458 4.64382C101.132 4.55958 100.8 4.51241 100.48 4.38436C99.8073 4.11311 99.1241 3.80143 98.3958 3.68012C97.6506 3.55713 96.8452 3.63969 96.065 3.63127C95.7117 3.62621 95.3567 3.638 95.0051 3.61442C94.7907 3.59757 94.62 3.50154 94.6082 3.30947C94.5982 3.14773 94.5714 2.98262 94.5915 2.82088C94.6467 2.40811 94.2918 2.21436 93.8296 2.46708C93.3641 2.72317 92.9037 2.72991 92.4734 2.47382C92.0866 2.24469 91.7383 2.05768 91.2159 1.95827C90.5461 1.82686 89.9149 1.61289 89.2016 1.65838C88.999 1.67354 88.7947 1.6567 88.5904 1.65333C88.5519 1.48485 88.4079 1.37702 88.1969 1.3686C87.5556 1.34501 86.911 1.34501 86.2663 1.33153C85.9833 1.32648 85.6167 1.39892 85.4274 1.29278C84.5266 0.780608 83.6995 1.19675 82.8221 1.29952C82.4302 1.34501 82.1523 1.7005 81.7019 1.51012C81.2498 1.31974 80.9333 1.64996 80.6202 1.75947C80.2284 1.89425 80.0358 1.82686 79.7144 1.70892C79.4615 1.61626 79.1886 1.73083 79.1166 1.98523C78.9776 1.99534 78.8353 2.00208 78.6963 2.01219C78.6411 2.10485 78.5875 2.23458 78.5255 2.23626C77.6799 2.26996 76.831 2.28175 75.9821 2.2986C75.3358 1.83697 74.4148 2.17561 73.7786 1.90604C73.0167 1.58257 72.2666 1.68365 71.5047 1.6449C71.0074 1.61795 70.6558 1.28267 70.1066 1.33827C69.621 1.38882 69.117 1.31637 68.618 1.29952C68.3016 0.848 67.6921 1.47642 67.3539 1.10072C66.5049 1.07208 65.6577 1.01648 64.8087 1.02659C64.0469 1.03333 63.2633 0.874956 62.5349 1.26077C62.2904 1.39219 61.845 1.31132 61.4917 1.31637C60.5658 1.32648 59.6382 1.32648 58.7139 1.33322C58.3556 1.3349 57.9972 1.33322 57.6439 1.35175C57.2253 1.37534 56.7381 1.23045 56.4116 1.47979C56.0633 1.74262 55.7887 1.2574 55.499 1.48485C55.2177 1.70556 54.99 1.3686 54.7924 1.42925C54.5396 1.50844 54.3855 1.63479 54.0808 1.46295C53.8832 1.35175 53.55 1.36354 53.2754 1.35849C52.3478 1.33659 51.4202 1.3467 50.4942 1.31805C50.0086 1.30289 49.4845 1.43094 49.0442 1.18496C48.5971 0.930554 48.2153 1.50675 47.708 1.19001C47.3095 0.940663 46.8457 1.33827 46.35 1.32479C44.6405 1.28099 42.9275 1.32648 41.2163 1.33996C41.002 1.33996 40.7843 1.32142 40.5767 1.35007C40.3841 1.37871 40.1296 1.4242 40.0409 1.53202C39.9454 1.6449 39.9839 1.82686 39.9739 1.98355C39.6223 2.01724 39.2907 1.99365 39.0195 1.78474C38.9039 1.69545 38.7382 1.72914 38.7264 1.87235C38.698 2.22952 38.4384 2.30534 38.0265 2.31039C37.0437 2.3205 36.0457 2.24806 35.1281 2.63724C34.9624 2.708 34.7045 2.66083 34.4935 2.64398C34.3629 2.63387 34.2407 2.57659 34.1134 2.53952C34.1737 2.47213 34.2139 2.36262 34.2943 2.34577C34.82 2.22784 35.2453 1.87235 35.8582 1.95322C35.9067 1.95827 35.9687 1.89088 36.0239 1.85719C35.9402 1.79653 35.8582 1.68871 35.7661 1.68365C35.4831 1.66512 35.1432 1.61121 34.9172 1.70219C33.9226 2.11159 32.8576 1.98355 31.8095 2.01387C31.3189 2.02903 30.8383 1.99197 30.3678 2.20762C30.0915 2.33398 29.6796 2.30702 29.3313 2.30871C28.5527 2.31376 27.8193 2.4199 27.0558 2.57996C26.3325 2.73159 25.5639 2.80909 24.8154 2.9523C23.8928 3.1292 23.4207 3.65317 22.8614 4.12996C22.9568 4.19061 23.0489 4.29507 23.1544 4.30349C23.3637 4.32203 23.6467 4.35404 23.7823 4.27148C24.6396 3.73235 25.7246 3.68686 26.7176 3.44762C27.4459 3.27072 28.2011 3.16458 28.9378 3.02643C29.7483 2.8748 30.6424 2.98094 31.4997 2.98094C31.5549 2.98094 31.6152 3.03822 31.6655 3.07529C31.7609 3.14605 31.7274 3.23703 31.5449 3.29094C30.4364 3.60599 29.3682 4.03898 28.1291 3.98002C27.6871 3.96148 27.307 4.32034 26.7896 4.07436C26.6573 4.01203 26.2655 4.19567 26.0495 4.32371C25.7347 4.51072 25.4651 4.58991 25.1537 4.34561C24.8841 4.5242 24.6179 4.70279 24.3483 4.87969C23.8912 4.54105 23.5027 4.94034 23.0774 4.94708C22.5048 4.95382 21.8835 4.85274 21.3779 4.99763C20.9157 5.12904 20.4436 5.19643 19.9965 5.31605C18.7089 5.66143 17.2906 5.91415 16.7063 7.0716C16.5405 7.39845 16.1202 6.89806 16.0733 7.03959C15.8925 7.60567 15.2613 7.50459 14.7874 7.66633C14.0356 7.92747 13.1967 8.03866 12.5956 8.57611C12.0866 9.031 11.3431 9.24834 10.5109 9.20959C10.228 9.19443 9.9383 9.23823 9.65533 9.22475C8.65068 9.1759 7.71636 9.30394 6.84064 9.72008C6.50241 9.88182 6.05869 9.91383 5.68027 10.0351C5.61832 10.057 5.57646 10.2912 5.63004 10.3232C5.89627 10.4749 6.21943 10.5776 6.48064 10.7343C6.61794 10.8169 6.77701 11.0056 6.7385 11.1016C6.68492 11.2347 6.47227 11.4066 6.29813 11.4251C5.74223 11.4908 5.17125 11.5363 4.61367 11.5093C4.00754 11.4807 3.50521 11.6273 3.00289 11.8429C2.71991 11.9642 2.51229 12.2102 2.60606 12.3163C2.81033 12.5488 2.94931 12.3147 3.1201 12.2995C4.23023 12.2035 5.25665 11.7452 6.41367 11.8395C6.86241 11.8783 7.2291 11.7334 7.61589 11.5801C7.72808 11.5346 8.10147 11.6542 8.12994 11.7401C8.2304 12.0501 8.19022 12.3736 8.49496 12.655C8.55691 12.7156 8.30073 12.9734 8.16845 13.1554C7.71133 13.1672 7.25255 13.1672 6.79878 13.2008C6.61125 13.2126 6.49906 13.3272 6.47897 13.4772C6.72678 13.4822 6.97459 13.4889 7.22241 13.4839C7.53552 13.4772 7.67115 13.6153 7.74315 13.8107C8.44808 13.8091 9.15133 13.8057 9.85625 13.8057C11.3348 13.2295 12.9204 13.5833 14.4559 13.494C14.5831 13.4873 14.7221 13.5344 14.8493 13.5715C14.8996 13.5867 14.9314 13.6389 14.9716 13.6726C14.9163 13.7097 14.8627 13.772 14.8058 13.7737C13.5483 13.8141 12.3829 14.3128 11.0802 14.1629C10.2229 14.0635 9.38575 14.237 8.68584 14.6194C8.30408 14.8267 7.85366 14.7256 7.49534 14.9042C7.45515 14.9227 7.40157 14.9867 7.41161 14.9985C7.4518 15.0423 7.51208 15.0979 7.57236 15.0996C7.92398 15.1232 8.27896 15.1232 8.63059 15.1569C8.73105 15.167 8.90686 15.2832 8.89514 15.3169C8.85831 15.413 8.76454 15.5174 8.65403 15.573C8.48324 15.6606 8.28566 15.7516 8.09143 15.7634C7.5958 15.7954 7.0851 15.7365 6.59953 15.8038C5.51116 15.9555 4.40772 16.0919 3.38801 16.4491C3.27749 16.4879 3.19043 16.5671 3.09164 16.6277C3.20884 16.6782 3.3227 16.7659 3.44326 16.7726C3.72624 16.7894 4.06614 16.8434 4.28884 16.749C5.42744 16.2806 6.64641 16.5165 7.83189 16.4491C8.21701 16.4255 8.48491 16.6311 8.79803 16.6917C9.69049 16.8636 10.6365 16.8636 11.4972 16.6294C11.9124 16.5165 12.2959 16.4424 12.7161 16.4457C14.0557 16.4474 15.3935 16.4575 16.7331 16.4643C16.6879 16.5536 16.6493 16.6816 16.5824 16.6917C15.9042 16.7861 15.2412 16.8568 14.5747 17.0573C14.0172 17.2241 13.3005 17.1753 12.6776 17.1062C11.9208 17.0219 11.3766 17.4886 10.6449 17.4398C10.0203 17.3993 9.40751 17.4229 8.79468 17.6689C8.39282 17.8306 7.82854 17.7531 7.33627 17.7851C7.1052 17.8003 6.96622 17.8896 6.90762 18.0699C6.84231 18.2855 7.02483 18.358 7.22408 18.4018C7.35636 18.4304 7.51041 18.4018 7.64771 18.4203C8.11654 18.4911 8.21198 18.5989 8.1718 18.9645C8.13329 19.3133 8.03784 19.3857 7.49366 19.4042C7.28771 19.411 7.08343 19.416 6.8758 19.4228C6.82055 19.5104 6.77701 19.63 6.69497 19.6468C6.08381 19.7749 5.45423 19.785 4.85646 19.6283C4.60363 19.5609 4.34409 19.3352 4.1013 19.4683C3.71619 19.6839 3.37126 19.9585 3.08159 20.2517C3.04475 20.2904 3.02466 20.3022 3.01126 20.309C3.03973 20.2972 3.1067 20.2904 3.19712 20.3696C3.37294 20.5314 3.58893 20.7858 3.87191 20.6746C5.00716 20.2315 6.21106 20.4572 7.38315 20.4084C7.57571 20.4016 7.70966 20.5415 7.74315 20.7066C8.0864 20.7116 8.40119 20.7504 8.71431 20.9138C8.91858 21.0233 9.35058 21.1008 9.50463 21.0132C10.166 20.6308 10.6215 20.7588 11.1456 21.18C11.4202 21.4024 11.8622 21.5203 12.2557 21.6248C12.5052 21.6922 12.892 21.7343 13.0678 21.6349C13.6538 21.303 14.2951 21.4277 14.9213 21.3906C15.6162 21.3502 16.3396 21.4967 16.9809 21.1177C17.3677 20.8902 17.8365 21.5456 18.2769 21.1177C18.6285 21.2794 19.1174 21.3805 19.2932 21.618C19.4958 21.8893 19.6482 22.0409 20.0601 22.0392C21.7044 22.0241 23.3487 22.0022 24.9896 22.0291C25.4551 22.0359 25.7782 21.7663 26.1868 21.773C26.5166 21.7781 26.947 22.0611 27.1529 21.9735C27.523 21.8168 27.8997 21.7461 28.2831 21.7191L29.117 20.0916C29.117 20.0916 28.4221 19.4868 29.0232 18.9072C29.0232 18.9072 28.9529 17.8846 29.117 17.6521C29.2777 17.4196 29.4636 17.5122 29.4636 17.5122C29.4636 17.5122 29.4636 17.1399 29.9944 17.1399C29.9944 17.1399 30.0647 16.8383 30.6173 16.9781L31.8429 14.6295C31.8429 14.6295 31.6789 14.4678 31.9099 14.3516C31.9099 14.3516 31.4729 14.05 32.3955 14.0028L33.8037 12.3298C33.8037 12.3298 33.6664 12.1681 33.9427 12.1681L34.3579 11.6795C34.3579 11.6795 34.2658 11.4689 34.4969 11.5396L34.959 11.0511L34.82 10.9584L34.9356 10.7967L35.0511 10.8893L35.4915 10.3788L35.3525 10.2845L35.468 10.1682L35.6321 10.2626L36.0692 9.81948L35.8632 9.65774L35.9787 9.49263L36.1395 9.67965L37.0872 8.56432L37.5493 9.23823L37.2731 9.67796L37.5493 9.70155C37.5493 9.70155 37.5041 10.1665 37.3434 10.2828C37.3434 10.2828 36.903 10.143 37.1826 10.5153L36.8126 10.7967C36.8126 10.7967 36.466 10.8421 36.466 11.0966C36.466 11.351 36.7188 11.7957 36.1412 11.5851L35.9352 11.7957C35.9352 11.7957 36.0273 12.5168 35.5652 12.2355L35.4262 12.4461C35.4262 12.4461 35.6573 13.1419 35.0561 12.7695L34.8502 13.0256C34.8502 13.0256 35.3358 13.6305 34.6409 13.4906L34.2039 13.9337C34.2039 13.9337 33.9728 13.6322 33.8338 13.8882C33.8338 13.8882 33.1641 14.3061 32.6801 15.2142C32.2113 16.0869 31.7843 16.8366 31.7575 16.8855C31.786 16.8703 32.002 16.7844 31.8948 17.7009C31.7793 18.6781 31.8245 19.5121 31.8245 20.2112C31.8245 20.6594 31.8429 21.0789 32.1762 21.7225C32.4022 21.7208 32.6282 21.7174 32.8543 21.7208C32.6785 21.5321 32.5077 21.3165 32.4022 21.1193C32.1611 20.6543 32.7722 21.4529 32.9414 21.6703C32.7689 21.426 32.0623 20.3915 32.1025 19.8389C32.1025 19.8389 32.6333 21.4664 33.514 21.4883C33.514 21.4883 32.5964 20.2601 32.4859 19.726C32.4859 19.726 33.005 20.7217 33.514 20.8633C33.514 20.8633 33.1205 20.2584 33.0988 19.9568C33.0988 19.9568 33.2813 20.1439 33.8372 20.0512C33.8372 20.0512 31.9669 19.6081 31.9669 18.609C31.9669 18.609 32.1979 19.1903 32.7287 19.3756L32.2666 18.7472C32.2666 18.7472 33.4437 19.7243 34.0448 19.2593C34.0448 19.2593 33.1892 18.887 33.7451 17.5392C33.7451 17.5392 33.6295 19.0942 34.2524 19.0723C34.2524 19.0723 33.6513 18.0497 34.0666 17.5611C34.0666 17.5611 33.8606 18.235 34.1603 18.5382C34.1603 18.5382 34.4366 17.5392 34.4818 17.1668V18.1659L35.0377 17.0978L34.9222 17.7936L35.5685 16.6328L35.5233 17.4229L35.7092 17.1668C35.7092 17.1668 35.962 17.3538 35.962 17.8172C35.962 17.8172 36.332 17.4903 36.7238 17.4903C36.7238 17.4903 36.7021 17.2123 36.2617 17.2578L36.6318 17.1651L36.1914 17.0944L36.6552 17.0017L36.0306 16.9074C36.0306 16.9074 36.908 16.3278 37.7402 16.8619L37.3032 16.4188L37.9495 16.6058L37.7888 16.2823L38.3196 16.4693L38.0868 16.1425L38.5021 16.2587L38.3865 16.0026L38.9877 16.2132L38.7114 15.7247L39.1032 15.9807L38.9659 15.6084L39.3811 15.7701L39.4029 15.3523L39.567 15.6792L39.634 14.98L39.9337 15.6337L40.004 15.0962L40.4444 16.2132L40.4662 15.6792L40.6303 16.097L40.6755 15.632L41.0455 16.0262L40.9752 15.445L41.161 15.9791L41.2063 15.4197L41.367 16.1155L41.5763 15.8375C41.5763 15.8375 42.0602 16.2806 41.7622 17.0472C41.7622 17.0472 42.0602 17.5577 41.8074 18.3243L41.7839 18.7674L42.2461 17.7447C42.2461 17.7447 42.3164 18.7219 41.6935 19.3722C41.6935 19.3722 41.7387 20.1388 40.8379 20.6038C40.8379 20.6038 41.1627 20.6493 41.0689 21.3485C40.9769 22.0443 41.3235 22.115 41.5311 22.58C41.7404 23.045 41.6466 23.1394 41.5796 23.7645C41.5227 24.2766 41.4524 24.9573 41.4256 25.1915C41.4407 24.9708 41.4641 24.3524 41.2782 23.788L41.1627 24.9977L40.9316 24.0913C40.9316 24.0913 40.6537 25.2066 40.8613 26.0423C40.8613 26.0423 40.4913 25.7188 40.5616 24.9034C40.5616 24.9034 40.0995 25.6699 40.1463 26.2293C40.1463 26.2293 39.8215 25.8115 40.2384 24.9977C40.2384 24.9977 39.917 25.3212 39.6373 26.1349C39.3611 26.9504 38.991 27.1357 38.991 27.1357C38.991 27.1357 39.4531 26.391 39.5218 25.4846C39.5218 25.4846 38.5741 27.3901 38.1136 27.5771L38.621 26.7886L38.0433 27.3227L38.3631 26.6303C38.3078 26.7128 37.8658 27.3733 37.6063 27.4592C37.6063 27.4592 37.9278 26.7634 37.9278 25.926L37.6515 26.8089L37.628 25.926C37.628 25.926 37.628 26.5764 37.5828 26.6471C37.5376 26.7179 37.4438 26.2984 37.4438 26.2984L37.3769 26.8324L37.2597 26.2512L37.1441 26.5999L37.052 25.7626L36.7523 26.4837C36.7523 26.4837 36.7523 25.9715 36.8679 25.6464C36.8679 25.6464 36.5916 25.6228 36.5212 26.3422C36.4509 27.0633 36.4275 28.3875 36.0357 28.9233C35.6439 29.4573 34.9975 29.7825 34.4885 29.085C34.4885 29.085 32.7789 31.223 32.7555 31.5717C32.7337 31.9222 32.5948 32.2221 32.6885 32.3619C32.7806 32.5018 33.0803 32.7562 33.2863 33.2936C33.4956 33.8277 33.9561 34.8268 34.0264 35.221C34.0967 35.6169 34.0716 36.1274 34.1419 36.5216C34.2122 36.9176 34.3512 37.3118 34.3512 37.5224C34.3512 37.733 34.7665 37.5679 34.5337 38.0329C34.3027 38.4979 34.8334 38.2654 34.4416 38.7068C34.0498 39.1465 33.9343 39.3807 33.9343 39.3807L34.3964 43.0755C34.3964 43.0755 34.7665 43.0974 34.6275 43.5405C34.4885 43.9802 34.6275 43.8892 34.6727 44.1908C34.6727 44.1908 34.8334 44.4924 34.743 44.7249C34.743 44.7249 34.9975 44.6305 35.0896 45.0736C35.0896 45.0736 35.2989 44.4924 35.5752 44.7013C35.8515 44.9119 35.6204 44.8883 36.1763 44.6339C36.7289 44.3778 37.5393 43.7949 41.372 43.7494C45.2064 43.7039 44.5132 43.4478 44.607 43.96C44.6991 44.4705 44.9285 43.9364 45.2047 43.7039C45.4844 43.4714 45.8996 43.4259 46.1307 43.7275C46.3618 44.0291 46.6163 43.4714 47.0533 43.7039C47.0533 43.7039 47.1471 43.5169 47.5389 43.2608C47.5389 43.2608 47.8855 42.6341 48.3711 42.6795C48.8566 42.725 49.2719 43.2389 50.5193 43.773C51.7668 44.307 53.545 45.6077 54.0523 47.6311C54.0523 47.6311 54.1227 48.2815 53.5667 48.3977C53.0142 48.514 52.8752 48.4685 52.8752 48.4685C52.8752 48.4685 52.4382 48.145 51.9275 48.145C51.4168 48.145 50.7253 47.8889 50.7253 47.8889C50.7253 47.8889 50.5193 48.0759 50.1493 47.7962C49.7792 47.5149 49.9634 47.4947 49.2484 47.3531C48.5335 47.2116 48.0948 47.0263 48.0948 47.0263C48.0948 47.0263 47.8403 47.2369 47.3095 47.097C47.3095 47.097 46.8691 47.3784 46.1776 47.1425C46.1776 47.1425 45.0909 47.8417 43.3361 47.6092C41.5813 47.3767 37.7452 48.6083 35.9452 48.7936C34.1419 48.9806 33.5207 49.0716 33.5207 49.0716C33.5207 49.0716 33.6362 49.631 33.3114 50.2341C33.1607 50.5172 33.0284 51.0782 32.9313 51.6156C33.4119 51.614 33.8924 51.614 34.3713 51.6055C34.872 51.6005 35.3693 51.5904 35.8682 51.5836C36.1679 51.1271 36.6803 51.6106 37.1207 51.4067C37.7335 51.122 38.5104 51.3107 39.217 51.3141C39.3225 51.3141 39.505 51.4253 39.5168 51.4977C39.5904 51.9037 39.7947 51.9088 40.1832 51.6881C40.4025 51.5617 40.6738 51.4606 40.9383 51.4253C41.1577 51.3966 41.5495 51.5567 41.6081 51.491C41.9463 51.1355 42.2745 51.6746 42.6898 51.4455C43.0046 51.272 43.5404 51.774 44.0092 51.5836C44.3893 51.4269 44.7175 51.25 45.1897 51.2787C45.687 51.3107 46.2044 51.2248 46.6899 51.2938C47.1102 51.3494 47.3346 50.8895 47.8285 51.1439C48.0864 51.277 48.4782 51.0731 48.8985 51.2231C49.3472 51.3798 49.8546 50.8137 50.4657 50.9451C50.8643 50.6722 51.3331 50.6385 51.8522 50.6334C52.7446 50.6233 53.6622 50.7446 54.5111 50.4093C55.0201 50.7867 55.3684 50.5273 55.777 50.2644C56.2023 49.9915 56.6728 49.7708 57.2019 49.6849C57.3225 49.4557 57.4346 49.2233 57.5451 48.9907C58.1948 47.6126 58.302 46.0845 58.5397 44.5968C58.5766 44.3694 58.5766 44.1369 58.59 43.9044C58.6184 43.4596 58.6268 43.0148 58.6787 42.5717C58.8378 41.2054 59.5461 40.1119 60.4519 39.1348C60.7349 38.8248 60.7952 38.6125 60.5239 38.3025C60.2828 38.0262 60.0116 37.7684 59.7135 37.5628C59.2397 37.236 58.9784 36.8199 58.9617 36.2403C58.9567 36.1173 58.8629 35.9977 58.8127 35.8781C58.7424 35.7062 58.6519 35.5394 58.6101 35.3625C58.5766 35.2109 58.6051 35.0458 58.6051 34.8958C58.3639 34.8773 58.1597 34.8689 57.9554 34.8453C57.2923 34.7661 56.7749 34.5066 56.5924 33.7839C56.5589 33.6457 56.3647 33.5514 56.2441 33.4351C56.2224 33.4132 56.1889 33.3863 56.1889 33.3644C56.2073 33.0459 55.9612 33.0712 55.7652 33.0308C55.3785 32.9465 55.0988 32.7545 54.98 32.3434C54.8426 31.8666 54.6384 31.4319 54.3186 31.0276C54.0523 30.694 53.9418 30.2374 53.7627 29.8297C53.7509 29.801 53.7643 29.7589 53.7576 29.7252C53.6756 29.2906 53.5969 28.8491 53.5048 28.4145C53.4897 28.342 53.4278 28.2713 53.3708 28.219C52.9238 27.8063 52.6375 27.3042 52.4968 26.7128C52.4851 26.6623 52.4466 26.6134 52.4131 26.5696C51.889 25.8856 52.0263 25.1864 52.6073 24.7686C52.7329 24.6759 52.8451 24.5698 53.0477 24.4013C52.7513 24.2076 52.5085 24.0526 52.2657 23.8942C51.9744 23.7038 51.5759 23.5724 51.4168 23.3011C51.2175 22.9608 50.963 22.703 50.6951 22.4419C50.5796 22.329 50.4574 22.2178 50.3703 22.0814C50.31 21.9887 50.31 21.8573 50.2816 21.7427C50.4038 21.736 50.5428 21.6854 50.6416 21.7275C50.814 21.8067 50.9681 21.9398 51.1255 22.0561C51.2477 22.1504 51.3616 22.2515 51.4788 22.3509C51.452 22.2279 51.38 22.1572 51.3197 22.0746C51.1204 21.8067 50.9095 21.5456 50.7387 21.2592C50.6901 21.1766 50.7604 21.025 50.7772 20.9054C51.092 21.0183 51.4838 20.843 51.7433 21.1615C51.8153 21.2508 51.8773 21.3485 51.9359 21.4243C51.9794 21.2339 52.0129 21.0907 52.0447 20.9475C52.1837 21.0435 52.3428 21.121 52.4549 21.2423C52.5504 21.3434 52.5973 21.4967 52.686 21.6703C52.7513 21.4142 52.835 21.2103 52.8518 21.0048C52.892 20.5179 52.8417 20.0209 52.9388 19.5491C53.0778 18.8533 53.3022 18.1777 53.9251 17.7178C54.2348 17.4937 54.4542 17.1382 54.8862 17.1079C54.9314 17.1062 54.9783 17.0405 55.0134 16.9967C55.216 16.7524 55.4706 16.7591 55.6882 16.9259C55.8908 17.0826 56.0583 17.0691 56.2575 16.9647C56.7029 16.7305 57.1132 16.8366 57.4715 17.1382C57.6707 17.3067 57.8315 17.5257 57.9972 17.7312C58.1078 17.8643 58.1697 18.0463 58.297 18.1524C58.6787 18.4675 58.8596 18.8297 58.672 19.3234C58.662 19.352 58.6553 19.4059 58.672 19.4244C58.9651 19.726 58.7775 20.1118 58.8311 20.4522C58.8914 20.8312 58.9416 21.2508 58.5665 21.5422C58.5264 21.5742 58.5012 21.6383 58.4878 21.6922C58.3673 22.1353 58.2384 22.5716 58.1345 23.0181C58.0726 23.2893 58.0893 23.5286 58.4008 23.6853C58.7373 23.8571 59.0371 24.098 59.3569 24.3036C59.4004 24.3322 59.4741 24.3659 59.5126 24.3491C59.8391 24.1991 60.1154 24.3777 60.405 24.4805C60.6411 24.563 60.8571 24.5344 60.9827 24.3137C61.2305 23.8807 61.6274 23.7628 62.0795 23.6971C62.2435 23.6735 62.4227 23.5623 62.5382 23.4342C62.8045 23.136 63.1226 22.9574 63.5144 22.8968C64.0385 22.8142 64.4471 22.5362 64.802 22.1471C64.9728 21.9634 65.1704 21.7966 65.378 21.6602C66.3827 21.0065 67.3974 20.3646 68.4138 19.7277C68.7403 19.5238 68.973 19.2762 69.0701 18.8786C69.1103 18.7067 69.2962 18.5719 69.4 18.4102C69.544 18.1828 69.7164 17.9604 69.8035 17.7093C69.9793 17.1887 69.8186 16.7136 69.5457 16.2587C69.3782 15.9757 69.1806 15.6825 69.4151 15.3254C69.4469 15.2765 69.3933 15.1417 69.3447 15.071C69.2175 14.8974 69.107 14.7424 69.2627 14.5167C69.3732 14.36 69.4351 14.1679 69.5289 13.9994C69.544 13.9758 69.6126 13.9674 69.6562 13.9708C70.048 13.9944 70.1267 14.515 70.5336 14.5369C70.5938 14.5386 70.6675 14.6548 70.701 14.7357C70.7295 14.8031 70.701 14.8957 70.7127 14.9749C70.763 15.3035 70.7629 15.6539 70.8835 15.9572C71.0509 16.3784 71.2318 16.7793 71.2201 17.2494C71.2134 17.5122 71.2569 17.7784 71.2653 18.0429C71.2753 18.3277 71.3373 18.5703 71.5399 18.7994C71.6989 18.9763 71.8162 19.2307 71.853 19.4649C71.9032 19.7816 71.6336 19.9602 71.3674 19.7985C71.1347 19.6586 70.9806 19.7698 70.855 19.8945C70.5838 20.1759 70.331 20.4791 70.0932 20.7925C69.6461 21.3805 69.2325 21.9937 68.7721 22.5716C68.1475 23.3584 67.4409 24.0778 67.034 25.0247C66.8951 25.3515 66.6188 25.5621 66.2621 25.675C66.1366 25.7154 66.0512 25.8789 65.9373 25.9749C65.7816 26.1097 65.6125 26.3523 65.4534 26.3489C64.9996 26.3422 64.8288 26.5983 64.6698 26.9487C64.4538 27.4221 64.2729 27.5097 63.7874 27.4642C63.6651 27.7186 63.5446 27.968 63.4274 28.2157C63.8259 28.8171 64.2227 29.4388 64.6413 30.0436C64.9578 30.4985 65.3312 30.9113 65.6275 31.3763C66.1784 32.244 66.6941 33.1319 67.2132 34.0164C67.4242 34.3735 67.6201 34.7391 67.8043 35.1098C67.9081 35.3153 67.96 35.5445 68.0655 35.75C68.3032 36.21 68.6046 36.3228 69.0969 36.1847C69.2292 36.1476 69.3665 36.1224 69.5038 36.1173C70.4649 36.0718 71.4294 35.9842 72.3905 36.0061C74.1587 36.0449 75.9302 36.0903 77.6933 36.2555C78.415 36.3262 79.1668 36.3784 79.5318 37.1315C79.7646 37.6134 79.8801 38.1525 80.0342 38.6698C80.2016 39.2375 80.0409 39.7632 79.8081 40.2821C79.2405 41.5423 78.3179 42.4167 77.0905 43.0249C76.605 43.2675 76.1361 43.6045 75.7644 43.997C74.7916 45.0298 73.7233 45.9345 72.5696 46.7534C72.1125 47.0768 71.7241 47.498 71.2954 47.8653C71.128 48.0102 70.9605 48.1652 70.7948 48.3151C71.2201 48.3034 71.6487 48.2916 72.0656 48.3303C73.3014 48.4432 74.4065 48.0153 75.5752 47.8653C75.8967 47.8249 76.2098 47.6615 76.5782 47.6699C77.0085 47.68 77.4405 47.6311 77.8658 47.6631C78.3246 47.7002 78.765 47.6968 79.2087 47.6631C79.8918 46.6624 81.0087 45.1814 81.5729 44.3761C82.3415 43.2827 84.1934 41.3755 84.6421 41.1279C84.6421 41.1279 84.5551 40.4725 85.0323 40.2551C85.0323 40.2551 85.1646 40.1827 85.0172 40.0782C84.8732 39.9771 84.3826 39.4111 84.3826 39.3656C84.3826 39.3218 84.7577 38.5215 84.8581 37.9537C84.9586 37.3876 85.106 36.1055 85.1193 35.4653C85.1344 34.8251 85.3638 33.0173 85.9582 30.7327C85.9582 30.7327 86.1458 29.8448 87.1454 28.6065C87.1454 28.6065 87.276 26.0423 87.2609 25.6059C87.2459 25.1712 86.9562 24.6608 87.1002 23.9616C87.2475 23.2624 87.3396 22.6053 87.3396 22.6053C87.3396 22.6053 86.5644 22.8732 86.5158 22.6845C86.412 22.2717 87.2793 22.1386 87.2944 22.0948C87.2944 22.0948 86.998 19.9282 86.998 19.7395C86.998 19.5508 86.839 19.2728 86.782 18.823C86.7251 18.3715 86.3182 16.4188 86.3182 13.0122C86.3182 13.0122 86.2898 12.5472 86.1156 12.313C85.9432 12.0805 86.1005 12.1529 85.7556 11.9642C85.4073 11.7738 85.1043 11.4251 85.1043 11.4251C85.1043 11.4251 85.0591 11.8025 84.9 11.6711C84.7409 11.5396 84.6689 11.4386 84.5685 11.2937C84.468 11.1488 84.3642 10.8556 84.3642 10.8556C84.3642 10.8556 84.1616 10.7107 84.0042 10.5793C83.8451 10.4479 83.4684 9.76388 84.2637 9.99639C84.2637 9.99639 84.1633 9.60215 84.3809 9.54486C84.5969 9.48758 85.1629 9.35617 85.1629 9.35617C85.1629 9.35617 85.2198 8.96193 85.2064 8.68562C85.1913 8.40932 85.0172 7.78426 85.0172 7.33105C85.0172 6.87785 85.322 6.77676 85.3655 7.1272C85.409 7.47595 85.4526 7.87019 85.5815 8.05888C85.7121 8.24758 85.7121 8.9316 85.8578 9.19611C86.0018 9.45725 87.2911 11.7283 87.3045 11.8749C87.3195 12.0198 87.7515 13.8242 87.8989 14.6279C88.0429 15.4281 88.9102 17.8306 88.8968 18.3832C88.8817 18.9375 88.8817 19.7951 88.9404 20.0428C88.9973 20.2921 89.1563 21.7612 89.158 21.7646C89.1647 21.8118 89.4644 21.8135 89.4963 21.8101C89.662 21.7899 89.59 21.6281 89.6034 21.4833C89.6168 21.3266 89.7123 21.2861 89.7558 21.276C90.1828 21.1733 90.66 21.1935 91.1171 21.1227C91.3716 21.0823 91.5407 21.1935 91.5558 21.3502C91.5926 21.7275 91.6311 21.8573 91.611 22.2364C91.6094 22.2717 91.5524 22.5346 91.3331 22.5598C90.8073 22.6205 90.4406 22.6559 89.9115 22.6626C89.8747 22.6626 89.7307 22.6744 89.6553 22.5565C89.6319 22.5211 89.5917 22.3543 89.5649 22.3459C89.4845 22.3189 89.2719 22.329 89.2384 22.3914C89.1714 22.511 89.287 23.0316 89.3774 23.163C89.508 23.3517 89.9132 24.2412 89.9132 24.2412C89.9132 24.2412 90.3167 24.7197 90.3167 24.836C90.3167 24.9522 90.4038 25.1729 90.4323 25.2589C90.4607 25.3465 91.4185 25.4627 91.5909 25.4476C91.7634 25.4324 91.8069 25.0853 91.3883 24.4737C90.9681 23.8622 90.9396 23.5117 91.1121 23.4241C91.2879 23.3365 91.3883 23.2927 91.3883 23.1057C91.3883 22.9187 91.4319 22.8884 91.7199 22.8597C92.0112 22.8277 92.3143 22.393 92.3863 22.2481C92.4583 22.0999 92.5303 21.5641 93.0092 21.709C93.0092 21.709 92.9807 20.9964 93.3574 21.025C93.7325 21.0536 94.0239 21.5793 94.3839 21.271C94.3839 21.271 94.5563 21.0098 95.412 21.0823C95.412 21.0823 96.003 21.1547 96.2224 21.2996C96.4384 21.4445 97.3777 21.2272 98.1915 23.1647L97.9152 22.8142L98.0877 23.2371L97.8733 22.9524C97.9051 23.0619 98.4209 24.8225 98.4209 25.6699C98.4209 26.5174 98.5649 30.1683 98.6955 30.5339C98.806 30.8389 98.9768 32.682 99.5946 33.9102C99.3585 33.5278 99.0856 33.0392 98.9483 32.6568C99.0638 33.0122 99.7219 34.9952 100.467 35.9101C100.355 35.8006 99.4473 34.8891 98.9165 33.7721C98.9433 33.922 99.3954 36.3481 99.9697 36.9395C99.9697 36.9395 99.1744 36.2689 99.1593 35.8174C99.1593 35.8174 99.2028 36.7508 99.4791 37.0119C99.4791 37.0119 99.2028 36.9681 99.0588 36.1678C99.0588 36.1678 98.9584 36.6783 99.0304 37.1855C99.0304 37.1855 98.8428 36.9395 98.8997 36.2116L98.739 36.6632V35.5697C98.739 35.5697 98.5665 36.1813 98.6084 36.6312C98.6519 37.0827 98.6519 37.3152 98.6519 37.3152C98.6519 37.3152 98.5079 36.9378 98.4493 36.5587C98.4493 36.5587 98.2082 36.9462 98.3288 37.2478C98.2953 37.1989 98.1412 36.9428 98.2116 36.6109L98.0726 37.14C98.0726 37.14 98.0441 36.0786 97.9571 35.9455C97.9571 35.9455 97.8147 36.8114 97.9118 37.2057C97.8784 37.1332 97.5636 36.4324 97.6808 35.6355C97.659 35.7686 97.4313 37.1012 97.5535 37.4904L97.3492 37.2276L97.2337 37.4618L97.1182 36.894L96.9156 37.1113L96.9005 36.2824L96.7113 37.2714C96.7113 37.2714 96.6108 36.6446 96.6678 36.1813C96.728 35.7146 96.5372 34.5488 96.5372 34.5488C96.5372 34.5488 96.3781 35.2193 96.4367 35.6136L96.2977 34.9144C96.3312 35.157 96.5572 36.7811 96.4233 36.9968C96.4233 36.9968 96.3078 35.5411 96.1638 35.002C96.1638 35.002 95.926 36.2133 95.988 36.6345C95.9327 36.4189 95.7736 35.622 96.1186 34.8166C96.0733 34.8453 95.6146 35.1839 95.8875 36.7373C95.8875 36.7373 95.3533 35.8477 95.4404 34.9885C95.4404 34.9885 95.0771 35.9657 95.4974 36.7659C95.4974 36.7659 95.0051 36.6783 95.1926 35.8039C95.1926 35.8039 94.9615 35.905 94.8895 36.3144C94.8895 36.3144 94.846 35.6877 95.2495 35.1637C95.2495 35.1637 94.8025 35.3844 94.7589 35.9067C94.7589 35.9067 94.7305 35.1839 95.1876 34.633C95.1373 34.6835 94.7305 35.1064 94.4977 35.9825C94.4977 35.9825 94.3269 35.5495 94.496 35.2884C94.4642 35.3322 94.2248 35.6894 94.2248 35.8932C94.2248 35.8932 94.0373 35.6169 94.4693 34.8756C94.9046 34.1326 94.702 33.2161 94.702 33.2161C94.702 33.2161 94.7171 34.0888 94.4107 34.5252C94.1076 34.9632 93.9318 35.2682 93.9318 35.2682C93.9318 35.2682 93.8598 35.0643 94.3085 34.4527C94.7573 33.8412 94.5245 33.2902 94.5245 33.2902C94.5245 33.2902 94.5814 34.0332 94.121 34.4831C94.121 34.4831 94.4374 33.8277 94.4374 33.4216C94.4374 33.4216 93.5115 33.8142 93.5835 34.601C93.5835 34.601 93.3692 34.3685 93.7091 33.8782C93.6488 33.9456 93.18 34.4965 92.9908 34.5117C92.9908 34.5117 93.6856 33.7839 93.9904 33.2329L93.5115 33.6541L93.8481 33.0982C93.7911 33.1554 93.5232 33.4435 92.9757 34.1208C92.3528 34.8925 92.2674 35.0812 92.2239 35.2699C92.1803 35.4602 92.0514 35.4316 91.9041 35.6641C91.7601 35.8966 91.8471 35.9252 91.8036 36.1881C91.7601 36.4492 91.7601 36.5065 91.8605 36.6834C91.9643 36.8569 93.7861 39.4936 93.4981 40.149C93.4981 40.149 93.5701 40.7589 93.9167 41.239C94.265 41.7209 94.2214 41.7782 94.5245 42.0831C94.8293 42.3898 94.9448 42.6947 95.0754 43.0889C95.206 43.4815 97.217 46.787 97.217 46.787C97.217 46.787 97.5519 46.9319 97.6523 47.1813C97.6573 47.1914 97.659 47.1998 97.6624 47.2082C97.7511 47.2706 97.8382 47.343 97.9504 47.3464C98.5247 47.3565 99.099 47.3464 99.6717 47.3683C100.164 47.3851 100.529 47.7019 101.075 47.68C101.865 47.648 102.687 47.6749 102.851 48.5005C102.878 48.6319 103.015 48.6134 103.168 48.5123C103.392 48.364 103.694 48.2444 103.923 48.4415C104.348 48.8122 105.003 48.5813 105.497 48.8678C105.946 49.1272 106.585 49.0716 107.098 48.8189C107.357 48.6909 107.622 48.6251 107.898 48.6841C108.23 48.7515 108.531 48.9116 108.862 48.9739C109.269 49.048 109.73 48.9234 110.095 49.1525C110.4 49.3462 110.78 49.2704 111.105 49.353C111.249 49.39 111.324 49.6074 111.408 49.7489C111.49 49.8887 111.563 49.909 111.712 49.8483C112.246 49.6377 112.684 50.0758 113.243 49.9764C113.717 49.8921 114.247 50.0151 114.738 49.9646C115.294 49.909 115.656 50.2274 116.134 50.2813C116.627 50.3369 117.238 50.2274 117.596 50.4144C118.286 50.7749 119.168 50.4481 119.81 50.9097C120.101 51.1169 120.48 50.5475 120.942 50.8609C121.273 51.0849 121.76 50.9653 122.182 50.9502C122.464 50.9434 122.648 50.6351 122.487 50.4599C122.405 50.3706 122.3 50.2948 122.211 50.2088C121.687 49.6882 121.697 49.6967 122.454 49.1794C122.66 49.0396 122.886 48.8678 122.966 48.6757C123.115 48.3152 123.314 48.4887 123.569 48.5746C124.076 48.7414 124.537 48.6639 124.932 48.3623C125.119 48.2174 125.059 48.0944 124.925 47.9563C124.666 47.6951 125.024 47.739 125.168 47.6665C125.278 47.6092 125.687 47.6042 125.315 47.3986C124.89 47.1611 124.82 47.0532 125.083 46.9252C125.258 46.8376 125.451 46.7736 125.622 46.6809C126.173 46.3911 126.931 46.2985 127.13 45.6717C127.191 45.4813 127.502 45.3836 127.818 45.3499C128.061 45.323 128.098 45.1545 127.837 45.0686C127.666 45.0147 127.423 45.0399 127.438 44.8411C127.443 44.7956 127.663 44.7316 127.79 44.7249C128.073 44.703 128.364 44.7249 128.647 44.6979C128.736 44.6878 128.895 44.5412 128.878 44.521C128.391 43.8943 129.15 44.0543 129.418 44.0863C130.097 44.1655 130.777 44.2986 131.427 44.4755C131.698 44.5497 131.881 44.6962 132.133 44.4688C132.365 44.2616 132.807 44.0897 132.838 43.8741C132.91 43.3804 133.312 43.4242 133.733 43.3872C133.855 43.377 133.965 43.2877 134.084 43.2372C133.964 43.1816 133.851 43.1041 133.721 43.0805C133.357 43.0131 133.22 42.7705 133.367 42.597C133.589 42.3308 133.667 42.1573 133.311 41.9416C133.146 41.8422 133.011 41.699 132.92 41.5541C132.872 41.48 132.937 41.3536 132.974 41.2559C132.984 41.2289 133.105 41.1936 133.128 41.207C133.496 41.4244 133.923 41.3941 134.352 41.4193C135.119 41.4648 135.874 41.4008 136.643 41.6906C137.167 41.886 137.907 41.7563 138.551 41.7479C138.657 41.7479 138.855 41.6215 138.848 41.5659C138.829 41.416 138.774 41.2104 138.637 41.1447L138.62 41.1616ZM29.7349 21.1985C29.7349 21.1985 29.6344 21.4024 29.4703 21.7326C29.6729 21.7427 29.8738 21.7478 30.0764 21.7444H30.1987C29.9793 21.3872 29.7349 21.1985 29.7349 21.1985ZM66.3978 42.6088C66.1148 43.0098 65.8938 43.3147 65.6794 43.6247C64.8288 44.8479 63.9699 46.0693 63.131 47.3009C62.5918 48.0877 62.056 48.8745 61.5236 49.663C61.7262 49.636 61.9689 49.663 62.1799 49.6562C62.3959 49.6495 62.6337 49.6967 62.8212 49.6394C62.9301 49.6057 63.0372 49.5686 63.1427 49.5299C63.136 49.3024 63.2767 49.1255 63.5412 49.0076C64.1155 48.7448 64.6798 48.4584 65.2592 48.204C65.7933 47.9715 66.1483 47.5637 66.4513 47.0836C66.6539 46.7618 66.8766 46.4501 67.1211 46.1603C67.3823 45.8486 67.7507 45.7475 68.1475 45.7661C68.4573 45.7829 68.7704 45.8503 69.0751 45.8267C69.3012 45.8099 69.6093 45.7475 69.7248 45.5892C70.1953 44.9456 70.8182 44.4064 71.0593 43.5893C71.1983 43.121 71.4679 42.6846 71.704 42.2499C71.8764 41.9281 72.0908 41.6282 72.3402 41.2323C70.2908 41.8759 68.3217 42.442 66.3961 42.6088H66.3978Z" fill="url(#paint0_linear_2037_2249)"/>
<path d="M21.239 50.0352C20.6981 49.9426 20.2327 49.4506 19.655 49.7168C19.6332 49.7269 19.6098 49.7353 19.588 49.7438C19.8542 49.9122 20.1021 50.0285 20.2661 50.1144C20.442 50.2071 20.7182 50.2879 21.0381 50.3604C21.1201 50.3199 21.2021 50.2812 21.2825 50.2492C21.4533 50.1835 21.4466 50.0723 21.239 50.0369V50.0352Z" fill="url(#paint1_linear_2037_2249)"/>
<path d="M99.9648 34.5284C99.8208 34.3616 99.6952 34.1611 99.588 33.9404C99.7605 34.2235 99.9128 34.4475 99.9648 34.5284Z" fill="url(#paint2_linear_2037_2249)"/>
<path d="M158.259 21.1124H154.91V12.1797H152.553V21.1124H149.206V12.1797H146.848V22.3625C146.848 23.0853 147.25 23.4846 147.978 23.4846H159.486C160.225 23.4846 160.633 23.087 160.633 22.3625V12.1797H158.261V21.1124H158.259Z" fill="#15112B"/>
<path d="M169.369 17.7178C169.968 17.3354 170.422 16.7727 170.857 15.8966L172.721 12.1816H170.164L168.456 15.5512C167.914 16.616 167.716 16.7676 165.909 16.7676H165.111V12.1816H162.753V23.4866H165.111V18.9646H165.909C167.94 18.9646 168.173 19.128 168.696 20.149L170.404 23.4866H173.042L171.127 19.7379C170.61 18.722 170.159 18.0834 169.369 17.7195V17.7178Z" fill="#15112B"/>
<path d="M179.429 12.1797H177.962C174.626 12.1797 172.862 14.1425 172.862 17.8557C172.862 21.569 174.625 23.4846 177.962 23.4846H179.429C182.764 23.4846 184.529 21.5387 184.529 17.8557C184.529 14.1728 182.766 12.1797 179.429 12.1797ZM182.156 17.8406C182.156 20.1656 181.366 21.1141 179.429 21.1141H177.962C175.988 21.1141 175.219 20.201 175.219 17.8574C175.219 15.5139 176.014 14.5519 177.962 14.5519H179.429C181.366 14.5519 182.156 15.5055 182.156 17.8406Z" fill="#15112B"/>
<path d="M192.069 11.9883C190.522 11.9883 190.058 12.7801 189.477 14.0858L187.118 19.3289C186.341 21.0373 186.145 21.1131 185.58 21.1131H184.959V23.4853H185.547C187.655 23.4853 188.198 22.4525 189.224 20.1191L191.66 14.5761C191.782 14.3167 191.895 14.2964 192.019 14.2964C192.168 14.2964 192.338 14.3352 192.338 14.6351V23.4869H194.711V14.539C194.711 12.9436 193.721 11.99 192.065 11.99L192.069 11.9883Z" fill="#15112B"/>
<path d="M202.11 11.9883C200.793 11.9883 200.002 12.4819 199.626 13.5349L195.719 23.4853H198.303L199.179 21.2563H204.878L205.724 23.4853H208.321L204.567 13.545C204.203 12.4836 203.423 11.9883 202.11 11.9883ZM204.029 18.9818H200.069L201.771 14.6334C201.843 14.4683 201.93 14.4076 202.095 14.4076C202.261 14.4076 202.34 14.4649 202.398 14.6216L204.031 18.9801L204.029 18.9818Z" fill="#15112B"/>
<path d="M226.212 11.9883C224.621 11.9883 223.68 12.7481 223.333 14.3065L221.82 20.9261C221.726 21.3035 221.522 21.354 221.332 21.354C221.143 21.354 220.941 21.3035 220.847 20.9311L219.333 14.3082C218.995 12.7902 217.979 11.9883 216.391 11.9883C214.625 11.9883 213.572 12.984 213.572 14.6502V23.4869H215.912V14.748C215.912 14.4497 216.09 14.2981 216.44 14.2981C216.733 14.2981 216.897 14.4228 216.957 14.6907L218.488 21.3136C218.851 22.9057 219.777 23.6807 221.317 23.6807C222.858 23.6807 223.72 22.9293 224.099 21.3153L225.646 14.6907C225.708 14.4161 225.863 14.2998 226.163 14.2998C226.513 14.2998 226.691 14.4514 226.691 14.7496V23.4886H229.031V14.6519C229.031 12.9857 227.976 11.99 226.212 11.99V11.9883Z" fill="#15112B"/>
<path d="M241.339 12.1797H239.872C236.906 12.1797 235.167 13.7482 234.827 16.7185H233.511V12.1797H231.153V23.4846H233.511V18.9138H234.825C235.133 21.906 236.873 23.4846 239.872 23.4846H241.339C244.674 23.4846 246.439 21.5387 246.439 17.8557C246.439 14.1728 244.676 12.1797 241.339 12.1797ZM239.872 14.5502H241.339C243.276 14.5502 244.064 15.5038 244.064 17.8389C244.064 20.174 243.299 21.1124 241.339 21.1124H239.872C237.898 21.1124 237.129 20.1942 237.129 17.8389C237.129 15.4836 237.924 14.5502 239.872 14.5502Z" fill="#15112B"/>
<path d="M256.035 17.8069C256.86 17.2981 257.279 16.4641 257.279 15.3218C257.279 13.3253 255.879 12.1797 253.438 12.1797H247.828V14.5502H253.438C254.372 14.5502 254.826 14.9124 254.826 15.6588C254.826 16.1827 254.658 16.7185 253.422 16.7185H249.916V18.9138H253.469C254.729 18.9138 254.873 19.5186 254.873 19.9735C254.873 20.7401 254.419 21.1141 253.484 21.1141H247.812V23.4863H253.484C255.879 23.4863 257.309 22.312 257.309 20.3442C257.309 19.1631 256.89 18.3292 256.033 17.8086L256.035 17.8069Z" fill="#15112B"/>
<path d="M268.214 11.9883C266.403 11.9883 265.763 13.0817 265.385 14.133L262.248 21.0373C262.14 21.2563 261.994 21.354 261.776 21.354C261.594 21.354 261.376 21.29 261.376 20.9833V12.1803H259.019V21.0642C259.019 22.7254 260.006 23.6773 261.728 23.6773C263.551 23.6773 264.203 22.5216 264.558 21.5326L267.697 14.6216C267.804 14.3925 267.95 14.2948 268.183 14.2948C268.434 14.2948 268.566 14.4278 268.566 14.6806V23.4853H270.939V14.5845C270.939 12.9587 269.921 11.9883 268.214 11.9883Z" fill="#15112B"/>
<path d="M279.659 17.7178C280.258 17.3354 280.712 16.7727 281.148 15.8966L283.011 12.1816H280.454L278.747 15.5512C278.202 16.616 278.006 16.7676 276.2 16.7676H275.401V12.1816H273.043V23.4866H275.401V18.9646H276.2C278.231 18.9646 278.464 19.128 278.984 20.149L280.692 23.4866H283.331L281.416 19.7379C280.898 18.722 280.448 18.0834 279.657 17.7195L279.659 17.7178Z" fill="#15112B"/>
<path d="M290.594 11.9883C289.047 11.9883 288.583 12.7801 288.002 14.0858L285.643 19.3289C284.866 21.0373 284.67 21.1131 284.106 21.1131H283.485V23.4853H284.073C286.181 23.4853 286.723 22.4525 287.75 20.1191L290.186 14.5761C290.308 14.3167 290.42 14.2964 290.544 14.2964C290.693 14.2964 290.864 14.3352 290.864 14.6351V23.4869H293.237V14.539C293.237 12.9436 292.247 11.99 290.591 11.99L290.594 11.9883Z" fill="#15112B"/>
<path d="M303.092 13.545C302.729 12.4836 301.949 11.9883 300.636 11.9883C299.323 11.9883 298.526 12.4819 298.151 13.5349L294.245 23.4853H296.828L297.706 21.2563H303.405L304.251 23.4853H306.848L303.094 13.545H303.092ZM302.555 18.9801H298.593L300.294 14.6317C300.366 14.4666 300.453 14.4059 300.619 14.4059C300.785 14.4059 300.864 14.4632 300.922 14.6199L302.555 18.9785V18.9801Z" fill="#15112B"/>
<path d="M150.788 32.9452H154.122V31.8467H150.788C148.174 31.8467 146.848 33.336 146.848 36.2709C146.848 39.2058 148.174 40.6783 150.788 40.6783H154.122V39.5782H150.788C148.846 39.5782 147.941 38.5269 147.941 36.2709C147.941 34.015 148.846 32.9452 150.788 32.9452Z" fill="#262433"/>
<path d="M155.871 31.8486V32.9471H158.591V40.6803H159.696V32.9471H162.415V31.8486H155.873H155.871Z" fill="#262433"/>
<path d="M169.3 32.7137C169.054 31.9909 168.552 31.6826 167.621 31.6826C166.69 31.6826 166.169 31.9909 165.913 32.7137L162.785 40.6811H164.002L164.763 38.752H170.343L170.409 38.9255L171.073 40.6811H172.308L169.299 32.7137H169.3ZM165.158 37.736L165.302 37.3654L166.889 33.3118C167.028 32.99 167.276 32.8215 167.607 32.8215C167.939 32.8215 168.192 32.9934 168.312 33.3169L169.968 37.736H165.159H165.158Z" fill="#262433"/>
<path d="M177.401 32.9452H180.735V31.8467H177.401C174.789 31.8467 173.464 33.336 173.464 36.2709C173.464 39.2058 174.789 40.6783 177.401 40.6783H180.735V39.5782H177.401C175.459 39.5782 174.553 38.5269 174.553 36.2709C174.553 34.015 175.459 32.9452 177.401 32.9452Z" fill="#262433"/>
<path d="M188.988 32.7137C188.742 31.9909 188.24 31.6826 187.309 31.6826C186.378 31.6826 185.859 31.9909 185.601 32.7137L182.473 40.6811H183.694L184.447 38.752H190.033L190.098 38.9255L190.763 40.6811H191.997L188.988 32.7137ZM184.846 37.736L184.99 37.3654L186.577 33.3118C186.719 32.9883 186.967 32.8215 187.295 32.8215C187.624 32.8215 187.883 32.9934 188.004 33.3169L189.655 37.736H184.846Z" fill="#262433"/>
<path d="M203.773 31.8484V36.7494H200.706C199.448 36.7494 198.755 36.0806 198.755 34.8692V31.8484H197.633V34.9922C197.633 36.9213 198.579 37.858 200.526 37.858H203.773V40.6783H204.88V31.8467H203.773V31.8484Z" fill="#262433"/>
<path d="M214.473 31.8486L211.229 37.3309L210.998 36.935L208.137 31.8486H206.923L210.648 38.3317L210.412 38.7158C209.994 39.388 209.654 39.5801 208.887 39.5801H207.568V40.6803H208.612C210.185 40.6803 210.762 40.3416 211.551 38.9551L215.703 31.8486H214.473Z" fill="#262433"/>
<path d="M224.135 31.8486V35.668H218.841V31.8486H217.746V40.6803H218.841V36.7648H224.135V40.6803H225.241V31.8486H224.135Z" fill="#262433"/>
<path d="M235.498 31.6807C234.455 31.6807 233.891 32.117 233.487 33.2408L230.761 39.2437C230.582 39.6008 230.292 39.7879 229.924 39.7879C229.435 39.7879 229.107 39.4677 229.107 38.9926V31.8491H228.012V39.06C228.012 40.2293 228.66 40.8459 229.885 40.8459C230.925 40.8459 231.488 40.4095 231.895 39.2892L234.621 33.2846C234.791 32.9207 235.084 32.7269 235.47 32.7269C235.952 32.7269 236.277 33.0521 236.277 33.539V40.6808H237.382V33.4531C237.382 32.2939 236.73 31.6824 235.498 31.6824V31.6807Z" fill="#262433"/>
<path d="M244.913 36.187L245.06 36.0101L248.662 31.8486H247.359L244.237 35.4524L244.036 35.2081L241.26 31.8486H239.979L243.533 36.0657L243.381 36.2392L239.594 40.6786H240.903L244.2 36.8086L244.402 37.0529L247.413 40.6786H248.696L244.908 36.187H244.913Z" fill="#262433"/>
<path d="M258.124 31.6807C257.081 31.6807 256.519 32.117 256.115 33.2408L253.389 39.2437C253.21 39.6008 252.92 39.7879 252.552 39.7879C252.061 39.7879 251.731 39.4677 251.731 38.9926V31.8491H250.64V39.06C250.64 40.2293 251.286 40.8459 252.508 40.8459C253.551 40.8459 254.116 40.4095 254.519 39.2892L257.247 33.2846C257.418 32.9207 257.711 32.7269 258.097 32.7269C258.58 32.7269 258.905 33.0521 258.905 33.539V40.6808H260.01V33.4531C260.01 32.2939 259.358 31.6824 258.124 31.6824V31.6807Z" fill="#262433"/>
<path d="M269.167 31.8486V35.668H263.871V31.8486H262.779V40.6803H263.871V36.7648H269.167V40.6803H270.272V31.8486H269.167Z" fill="#262433"/>
<path d="M278.829 32.7137C278.581 31.9909 278.078 31.6826 277.147 31.6826C276.217 31.6826 275.701 31.9909 275.441 32.7137L272.313 40.6811H273.532L274.289 38.752H279.872L279.937 38.9255L280.6 40.6811H281.836L278.827 32.7137H278.829ZM274.686 37.736L274.83 37.3654L276.417 33.3118C276.556 32.99 276.804 32.8215 277.136 32.8215C277.467 32.8215 277.722 32.9934 277.841 33.3185L279.495 37.736H274.686Z" fill="#262433"/>
</g>
<defs>
<linearGradient id="paint0_linear_2037_2249" x1="0.00402056" y1="26.4298" x2="138.833" y2="26.4298" gradientUnits="userSpaceOnUse">
<stop stop-color="#65C1F8"/>
<stop offset="1" stop-color="#BD9BFF"/>
</linearGradient>
<linearGradient id="paint1_linear_2037_2249" x1="19.588" y1="49.9982" x2="21.4031" y2="49.9982" gradientUnits="userSpaceOnUse">
<stop stop-color="#65C1F8"/>
<stop offset="1" stop-color="#BD9BFF"/>
</linearGradient>
<linearGradient id="paint2_linear_2037_2249" x1="99.588" y1="34.2353" x2="99.9648" y2="34.2353" gradientUnits="userSpaceOnUse">
<stop stop-color="#65C1F8"/>
<stop offset="1" stop-color="#BD9BFF"/>
</linearGradient>
<clipPath id="clip0_2037_2249">
<rect width="306.848" height="52.8337" fill="white"/>
</clipPath>
</defs>
</svg>
