<?xml version="1.0" encoding="UTF-8"?>
<svg id="_Слой_1" data-name="Слой 1" xmlns="http://www.w3.org/2000/svg" xmlns:xlink="http://www.w3.org/1999/xlink" viewBox="0 0 216.74 78.81">
  <defs>
    <linearGradient id="_Безымянный_градиент" data-name="Безымянный градиент" x1="0" y1="39.87" x2="216.74" y2="39.87" gradientTransform="translate(0 79.28) scale(1 -1)" gradientUnits="userSpaceOnUse">
      <stop offset="0" stop-color="#65c1f8"/>
      <stop offset="1" stop-color="#bd9bff"/>
    </linearGradient>
    <linearGradient id="_Безымянный_градиент_2" data-name="Безымянный градиент 2" x1="0" y1="3.3" x2="216.71" y2="3.3" gradientTransform="translate(0 79.28) scale(1 -1)" gradientUnits="userSpaceOnUse">
      <stop offset="0" stop-color="#65c1f8"/>
      <stop offset="1" stop-color="#bd9bff"/>
    </linearGradient>
    <linearGradient id="_Безымянный_градиент_3" data-name="Безымянный градиент 3" x1="155.45" y1="27.75" x2="156.04" y2="27.75" gradientTransform="translate(0 79.28) scale(1 -1)" gradientUnits="userSpaceOnUse">
      <stop offset="0" stop-color="#65c1f8"/>
      <stop offset="1" stop-color="#bd9bff"/>
    </linearGradient>
  </defs>
  <path d="M139.9,67.06s-.7-.11-.97-.29c-.27-.18-1.13,.52-1.58,.68,0,0-2.04,1.43-4.16,3.12,.13-.06,.25-.12,.37-.2,.98,.03,2.02-.25,2.89,.33,.08,.06,.18,.12,.28,.13,1.09,.09,2.17-.05,3.24,.43,.8,.36,1.99-.02,2.79,.59,.05,.04,.22,0,.33,0,.42,0,.7-.61,1.11-.24,.53,.46,.9-.32,1.41,0,.12,.07,.27,.12,.43,.16-1.6-1.57-4.21-3.92-6.14-4.69h0ZM40.44,33.66c-.5,0-.83,.17-.88,.58-.04,.32,.06,.71-.4,.89-.45,.17-1.06,.47-1.42,.36-.92-.28-1.56,.43-2.45,.23-.75-.16-1.47,.12-2.2,.39-.75,.28-1.77-.08-2.52,.45-.14,.1-.41,.1-.63,.11-1.11,.03-2.37-.19-3.31,.13-1.1,.38-2.16,.26-3.22,.45-2.75,.48-5.5,.92-8.02,2-1.33,.57-1.68,1.45-1.98,2.43-.08,.27,.22,.59,.42,.48,1.07-.57,2.39-.71,3.53-1.16,.05-.02,.06-.09,.08-.17,.44,.16,.87,.31,1.31,.47,.05,.4-.37,.65-.7,.73-1.03,.26-1.69,.94-2.61,1.3-.08,.32,.12,.82-.37,.87-1.06,.11-1.74,.65-2.6,1-.52,.22-1.19,.86-2.03,.29-.05-.03-.39,.1-.49,.21-.32,.34-.54,.72-.87,1.05-.36,.36-.51,.76-.38,1.19,.16,.51,.62,.83,1.3,.94,.03-.38-.06-.83,.6-.95,1.16-.21,1.63-.05,2.16,.56,.24,.27,.51,.53,.81,.77,.29,.24,.85,.17,1.1-.14,.22-.28,.38-.59,.61-.85,.34-.39,.89-.39,1.43-.38,0,.02-.01,.03-.02,.05h.07c0,.15-.03,.31,.02,.46,.04,.15,.18,.28,.28,.42,.1-.14,.25-.27,.3-.42,.05-.15,.02-.31,.02-.47h.05s-.01-.02-.02-.03c.99,0,1.71,.33,1.96,1.07,.14,.41,.29,.79,.55,1.17,.33,.46,.03,.86-.71,.8-1.08-.08-1.88,.6-2.86,.5-1.1-.1-1.84,.56-2.85,.59-.79,.02-.79,.49-.76,.91,0,.15,.14,.3,.24,.45,0,0,.19-.03,.27-.07,.44-.25,.9-.73,1.32-.72,1.17,.04,2.1-.5,3.19-.56,1-.05,2.01-.03,3.01,0,.35,0,.59,.21,.65,.48,.08,.34,.17,.78-.31,.89-.75,.16-1.3,.6-2.14,.66-.71,.06-1.4,.43-2.06,.7-.12,.05-.1,.3-.1,.47,0,.06,.1,.15,.19,.18,.2,.06,.41,.13,.61,.13,1.57,.01,3.13-.01,4.7,.03,.61,.02,1.02-.29,1.52-.38,.26-.05,.65,.42,1.08,.08,.21-.17,.38-.14,.52,.08,.1,.16-.11,.65-.33,.63-1.16-.1-1.98,.7-3.15,.62-1.11-.08-2.02,.55-3.19,.54-1.04-.01-2.09,.38-3.14,.61-.41,.09-.82,.32-1.22,.32-2.26-.02-4.18,.87-6.27,1.28-1.11,.22-2.02,.75-2.6,1.48-.35,.44-.6,.83-1.27,1.03-.3,.09-.31,.43-.08,.65,.29,.27,.66,.64,.41,.9-.59,.6-.72,1.46-1.71,1.82-.59,.21-1.2,.38-1.8,.57-.1,.03-.17,.11-.25,.16,.14,.09,.26,.25,.41,.27,.54,.07,1.14-.02,1.52,.38,.15,.16,.58,.25,.27,.59-.3,.33-.53,.72-.71,1.1-.33,.68-.75,1.18-1.89,1.1-.43-.03-.62,.61-.22,.75,.63,.21,1.1,.45,1.3,1.01,.14,.39,.4,.82,.79,1.07,.53,.33,.99-.13,1.47-.3,.6-.2,1.06,.66,1.78,.1,.36-.28,.94-.44,1.46-.55,.4-.09,1-.16,1.26,0,.68,.41,1.41,.44,2.2,.44,.47,0,.88,.1,.89,.55,.01,.42,.07,.87-.7,.97-.1,.02-.2,.06-.3,.1-.27,.1-.24,.33,.05,.31,1.11-.08,.71,.98,1.58,1.11,.63,.1,1.25,.34,1.79,.6,.33,.15,.51,.48,.76,.73-.31,.08-.61,.15-.92,.22-.1,.02-.25-.02-.33,.02-.14,.06-.25,.17-.37,.26,.09,.05,.18,.14,.27,.15,.33,.02,.67,.02,1,.02,1.01,.01,2.02,.05,3.02,.01,.71-.03,1.27,.14,1.85,.44,.5,.26,.78,.05,.64-.51-.05-.19-.15-.32,.18-.35,.55-.04,1.11-.03,1.66-.07,.98-.06,1.93-.03,2.92-.35,.86-.28,1.97-.14,2.97-.18,1.06-.05,2.11,.06,3.13-.38-1.3-.81-2.89-2.38-1.58-5.52,0,0,2.78-4.18,5.91-6.88,0,0,2.71-2.74,3.6-3.21,0,0-.61-.43-.76-.76-.15-.32-1.66-1.08-1.84-2.63,0,0-.68-.07-1.15,.29-.47,.36-1.23,1.55-2.38,1.01-1.16-.54-1.45-1.08-1.19-1.58,.26-.51,1.16-2.56,1.16-2.56,0,0-.58-.32-.11-.76,0,0,.25-.25,.58-.07l.54-.76s-.61-.43-.51-.43,.33-.07,.33-.07c0,0-.65-.65,.11-.76,0,0-.9-.79,.5-.94,0,0-.65-.54,.04-.94,.69-.39,1.05-.68,1.95-.76,0,0,.58-2.09,1.05-3.28,.47-1.19,1.48-2.88,2.09-2.7l4.46-8.64c-.98,.01-1.96,.02-2.94,.03h.01Zm3.67,44.36s.22-.22-1.77-.4c-1.98-.18-5.15-.47-5.77-.54-.45-.05-2.35-.24-3.73-.55-.36,.18-.73,.37-1.09,.36-1.74-.03-3.55,.47-5.23-.3-.17-.08-.58-.12-.61-.07-.57,.72-1.72,.28-2.4,.72-.23,.15-.38,.37-.57,.56,.21,.05,.41,.15,.61,.15,2.46,.02,4.92,.03,7.38,.04,.22,0,.46-.04,.67,0,.95,.17,1.6-.7,2.54-.43,.82,.23,1.57,.62,2.4,.82,.61,.15,1.31,.14,1.98,.14,2,0,3.99,0,5.99,0-.12-.13-.25-.29-.4-.49h0Zm3.56-44.81c-.31,.03-.62,.1-.93,.24-.39,.17-.95,.15-1.46,.15-1.11,2.26-2.67,5.49-2.9,6.28,.09-.14,1.49-2.3,2.02-3.31,0,0,.25-.15,.65,0,0,0,1.77-.04,1.98-.33,.22-.29,.36-.72,1.34-.68l.58-.22s-.79-1.22-1.28-2.14h0Zm.16,36.33c-.9-3.39-2.42-5.37-2.42-5.37,0,0-2.78,2.2-3.57,2.99-.79,.79-3.24,2.49-3.64,2.59-.4,.11-1.55,1.23-1.55,1.23,0,0,1.55,.14,2.38,.43,.83,.29,3.21,1.26,4.58,1.59,1.37,.32,2.16,.86,3.35,.9,1.19,.04,2.52,.11,3.43,.04,0,0-1.66-1.01-2.56-4.4h0Zm2.99-36.4c.22,.32,.48,.67,.79,1.05l.53-1.08c-.44,0-.88,.02-1.32,.03h0Zm165.57,29.13c-.35-.17-.83-.19-.94-.58-.27-.12-.53-.25-.81-.35-.4-.14-.57-.87-1.22-.37-.54,.4-.84-.56-1.32-.06-.18,.19-.33,.16-.53,.04-.77-.48-.97-1.57-2.44-1.34-.09,.02-.32-.23-.35-.38-.07-.24-.06-.5-.06-.75,0-.67,.06-.71,1.15-.9,.3-.05,.6-.14,.85-.26,.21-.11-.07-.69-.44-.85-.37-.17-.82-.26-1.14-.46-.55-.34,.11-.36,.29-.42,.32-.11,.65-.21,.62-.49-.02-.22-.18-.46-.34-.66-.15-.17-.14-.32,.17-.34,.6-.04,1.33-.25,1.58,.44,.18,.07,.43,.12,.49,.22,.21,.37,.23,.8,.99,.83,.42,.01,.86,.14,1.25,.28,.43,.16,.9,.3,1.13-.08,.17-.27,.16-.67,.04-.97-.24-.55-1.16-.77-1.26-1.45-.06-.36-.42-.15-.69-.04-.83,.34-1.72,.33-2.5-.03-.52-.24-1.03-.27-1.58-.32-.13-.01-.24-.18-.35-.27,.2-.06,.4-.13,.6-.18,.1-.02,.22,0,.33-.02,.76-.14,.76-.43,.97-.79,.28-.47-1.54-.89,.07-1.32,.67-.18,1.15-.23,1.74,.02,.14,.05,.4-.07,.6-.13,0,0-.02-.14-.06-.18-.14-.13-.29-.25-.44-.38-.21-.2-.47-.37-.62-.59-.49-.73-.48-.75-1.61-.72-.63,.02-1.04-.22-1.44-.53-.22-.17-.25-.28,0-.38,.38-.15,.79-.26,1.12-.46,.17-.1,.68-.31,.17-.55-1.1-.53-2.23-1.03-3.35-1.54-.28-.13-.78-.19-.83-.35-.46-1.34-1.82-1.29-3.18-1.25-.91,.03-1.51-.79-2.5-.54-.04,.01-.2-.2-.27-.31-.01-.02,.15-.15,.24-.15,.55-.02,1.11,0,1.67-.05,.13,0,.25-.19,.35-.3,0-.02-.14-.14-.23-.16-.28-.06-.63-.05-.68-.33,0-.05,.36-.18,.55-.18,.78-.02,1.54-.04,2.22,.37,.41,.24,.85,.04,1.17-.22,.29-.24,.63-.19,.9-.07,.37,.16,.62,.35,1.13,.13,.25-.11,.76,.15,1.15,.21,.38,.06,.69-.18,.6-.44-.05-.15-.15-.38-.27-.39-1.3-.16-2.46-.76-3.84-.66-1.02,.08-1.77-.66-2.86-.51-.87,.12-1.79,.08-2.67,0-1.07-.09-2.02-.54-3.17-.53-1.17,0-2.26-.48-3.47-.6-1.02-.1-1.97-.68-2.93-1.08-1.16-.49-2.34-.94-3.71-.79-.78,.08-1.16-.45-1.82-.53-.65-.08-1.33,.09-1.95-.22-.27-.13-.6-.22-.91-.25-1.21-.11-2.53,.2-3.62-.25-1.07-.44-2.34,0-3.2-.45-1.09-.57-2.46-.05-3.46-.76-.25-.18-.85-.07-1.29-.1-1.4-.13-2.87,.2-4.21-.46-.4-.2-1.09-.05-1.65-.05-1.57,0-3.14-.11-4.69,.01-1.5,.11-2.75-.5-4.16-.6-.1,0-.2-.09-.25-.16-.02-.02,.09-.13,.16-.16,.6-.2,1.17-.48,1.8-.56,.87-.1,1.8-.14,2.67-.04,.98,.1,1.56-.64,2.51-.55,.54,.06,1.11-.02,1.66-.04,.09,0,.18-.09,.27-.14-.12-.09-.24-.25-.38-.26-.51-.02-.78-.3-1.08-.54-.08-.06-.2-.17-.17-.21,.08-.11,.21-.28,.33-.29,1.01-.04,2.01-.04,3.02-.08,.1,0,.21-.18,.27-.3,.01-.02-.16-.15-.24-.15-1.12,0-2.23,0-3.35,0-.73,0-.93,.32-.89,.82,.03,.37-.14,.65-.72,.66-1.46,.02-2.91,.04-4.36,.05-.55,0-.54,0-1.96-.94-.24-.15-.62-.17-.86-.33-.12-.08-.15-.32-.11-.47,.07-.22,.28-.27,.46-.14,.43,.32,.95,.36,1.5,.31,.21-.67,.99-.42,1.56-.53,.49-.1,.28-.36,.08-.52-.24-.2-.23-.34,.11-.34,1.3,0,2.65-.33,3.89,.26,.17,.08,.48,.14,.62,.08,.69-.33,1.34-.63,2.07-.08,.62-.38,1.16-.02,1.75,.09,.42,.08,.98,.15,1.32,0,1.19-.52,2.27,.26,3.4,.09,1.49,.54,3.11,.84,4.69,.94,1.55,.1,2.92,.67,4.51,.66,1.02,0,2.1,.39,3.04,.76,1.16,.45,2.41,.73,3.61,1.04,1.07,.28,2.35,.1,3.54,.11-.08-.14-.14-.33-.25-.35-.54-.08-1.09-.09-1.64-.14-.65-.05-.9-.34-.52-.87,.27-.38,.15-.52-.14-.81-.39-.4-1.35-.23-1.45-.87-.33-.18-.67-.36-1-.55-.35-.21-.66-.43-1.15-.44-1.1-.02-2.22,0-3.2-.49-2.13,.21-4.08-.64-6.2-.62-1.17,.02-2.34-.37-3.49-.6-.86-.17-1.7-.4-2.57-.34-1.07,.09-1.88-.4-2.82-.59-.09-.02-.17-.11-.25-.17,.16-.09,.32-.24,.49-.25,1.34-.04,2.68-.04,4.02-.07,.2,0,.4-.11,.6-.17-.26-.08-.52-.23-.78-.24-1.56-.03-3.13-.04-4.69-.02-1.09,.02-2.02,.59-3.19,.48-1.1-.09-2.23-.01-3.35,.01-.32,0-.69,.01-.96,.12-1.73,.67-3.37,.42-5.07-.11-.49-.16-1.02-.3-1.54-.4-1.47-.3-2.9-.75-4.49-.66-1.09,.06-2.15,.03-3.21-.44-.6-.26-1.53-.08-2.31-.11-.09,0-.18-.09-.27-.15,.1-.1,.2-.27,.32-.28,1.2-.04,2.43,.07,3.51-.51,.1-.05,.38,.1,.58,.16,.18,.05,.46,.2,.53,.15,.39-.23,.16-.86,.99-.85,.54,0,1.09-.07,1.63-.12,.07,0,.13-.1,.2-.16-.09-.05-.17-.14-.26-.16-.32-.04-.65-.05-.98-.08-.1-.01-.21-.04-.29-.08-.1-.04-.17-.11-.26-.16,.08-.06,.14-.14,.23-.17,1.8-.57,3.58-1.13,5.62-1.12,5.36,.04,10.72,.01,16.08,0,.55,0,1.13,.06,1.54-.33,.14-.13,.28-.26,.41-.39-.14-.09-.28-.23-.44-.24-.44-.04-.89-.03-1.34-.03-.56,0-1.12,.02-1.67-.02-.76-.05-1.6,.16-2.28-.21-.56-.32-1.63-.21-1.62-1.07,0-.08-.56-.22-.86-.22-2.24-.03-4.48-.15-6.7-.01-1.42,.09-2.52-.57-3.85-.56-.11,0-.23-.18-.34-.28,.09-.05,.17-.15,.26-.15,1.34-.03,2.68-.04,4.01-.05,.31,0,.61-.02,.69-.29,0-.03-.36-.14-.57-.17-.54-.07-1.08-.11-1.62-.17-.06,0-.16-.13-.14-.15,.05-.07,.15-.15,.24-.17,.42-.07,.87-.08,1.28-.18,.14-.03,.28-.26,.28-.4,0-.29-.16-.44-.58-.25-.76,.34-1.31-.36-2.1-.26-.74,.1-1.54-.05-2.31-.13-.11-.01-.18-.21-.26-.35,.2,0,.39,0,.58-.03,.28-.03,.76,.03,.47-.37-.16-.22-.47-.36-.67-.57-.15-.16-.59-.43-.03-.53,1.59-.27,3.22-.9,4.82-.49,2.71,.7,5.44,.32,8.16,.4-.01-.26-.24-.39-.56-.44-.95-.16-1.92,.05-2.91-.33-.82-.32-1.91-.22-2.88-.33-.27-.03-.27-.2-.02-.36,.24-.15,.61-.45,.75-.4,1.7,.65,3.49,.23,5.23,.32,.33,.02,.67,.02,1-.02,.21-.02,.54-.07,.58-.16,.52-1.35,2-.62,3.03-.82,.14-.03,.23-.19,.35-.28-.09-.05-.18-.16-.26-.15-1.14,.09-2.13-.26-3.13-.59-.12-.04-.18-.2-.26-.3,.2-.06,.39-.14,.6-.17,.21-.03,.46,.02,.66-.04,.14-.04,.24-.18,.35-.28-.09-.06-.16-.15-.26-.16-.33-.04-.67-.02-.99-.07-.32-.05-.52-.21-.58-.46-.73-.08-1.46-.04-2.19-.34-1.22-.5-2.56-.85-3.88-1.19-.51-.13-1.03-.2-1.53-.4-1.05-.42-2.12-.9-3.25-1.09-1.16-.19-2.42-.06-3.64-.08-.55,0-1.1,.01-1.65-.03-.34-.03-.6-.18-.62-.47-.01-.25-.06-.51-.03-.76,.09-.64-.47-.94-1.19-.55-.73,.4-1.44,.41-2.12,.01-.6-.36-1.15-.65-1.96-.8-1.04-.2-2.03-.54-3.14-.46-.32,.02-.63,0-.95,0-.06-.26-.29-.43-.62-.44-1-.04-2.01-.04-3.01-.06-.44,0-1.01,.1-1.31-.06-1.41-.79-2.7-.15-4.07,.01-.61,.07-1.05,.62-1.75,.33-.71-.3-1.2,.22-1.69,.39-.61,.21-.91,.1-1.41-.08-.39-.14-.82,.03-.93,.43-.22,.02-.44,.03-.66,.04-.09,.14-.17,.34-.27,.35-1.32,.05-2.64,.07-3.97,.1-1.01-.72-2.45-.19-3.44-.61-1.19-.5-2.36-.34-3.55-.4-.78-.04-1.33-.56-2.18-.48-.76,.08-1.54-.03-2.32-.06-.49-.7-1.44,.27-1.97-.31-1.33-.04-2.65-.13-3.97-.11-1.19,.01-2.41-.24-3.55,.36-.38,.2-1.08,.08-1.63,.09-1.45,.02-2.89,.02-4.34,.03-.56,0-1.12,0-1.67,.03-.65,.04-1.41-.19-1.92,.2-.54,.41-.97-.34-1.42,0-.44,.34-.79-.18-1.1-.09-.39,.12-.64,.32-1.11,.05-.31-.17-.83-.15-1.26-.16-1.45-.03-2.9-.02-4.34-.06-.76-.02-1.58,.18-2.26-.21-.7-.39-1.29,.5-2.09,0-.62-.39-1.35,.23-2.12,.21-2.67-.07-5.34,0-8.01,.02-.33,0-.67-.03-1,.02-.3,.04-.7,.11-.84,.28-.15,.18-.09,.46-.1,.7-.55,.05-1.07,.02-1.49-.31-.18-.14-.44-.09-.46,.14-.04,.55-.45,.67-1.09,.68-1.53,.02-3.09-.1-4.52,.51-.26,.11-.66,.04-.99,.01-.2-.02-.39-.1-.59-.16,.09-.1,.16-.27,.28-.3,.82-.18,1.48-.73,2.44-.61,.08,0,.17-.1,.26-.15-.13-.09-.26-.26-.4-.27-.44-.03-.97-.11-1.33,.03-1.55,.63-3.21,.44-4.85,.48-.77,.02-1.52-.03-2.25,.3-.43,.2-1.07,.15-1.62,.16-1.22,0-2.36,.17-3.55,.42-1.13,.24-2.33,.36-3.5,.58-1.44,.27-2.18,1.09-3.05,1.83,.15,.09,.29,.26,.46,.27,.33,.03,.77,.08,.98-.05,1.34-.84,3.03-.91,4.58-1.28,1.14-.27,2.32-.44,3.47-.65,1.27-.24,2.66-.07,4-.07,.09,0,.18,.09,.26,.15,.15,.11,.1,.25-.19,.33-1.73,.49-3.4,1.16-5.33,1.07-.69-.03-1.28,.53-2.09,.15-.21-.1-.82,.19-1.16,.39-.49,.29-.91,.41-1.4,.03-.42,.28-.84,.55-1.26,.83-.71-.53-1.32,.09-1.98,.1-.89,.01-1.86-.15-2.65,.08-.72,.2-1.46,.31-2.16,.49-2.01,.54-4.22,.93-5.14,2.72-.26,.51-.91-.27-.99-.05-.28,.88-1.27,.72-2.01,.97-1.17,.4-2.48,.58-3.42,1.41-.79,.71-1.95,1.04-3.25,.98-.44-.02-.89,.04-1.34,.02-1.57-.08-3.03,.12-4.39,.77-.53,.25-1.22,.3-1.81,.49-.1,.03-.16,.4-.08,.45,.42,.24,.92,.39,1.33,.64,.21,.13,.46,.42,.4,.57-.08,.21-.42,.47-.69,.5-.87,.1-1.76,.17-2.63,.13-.95-.04-1.73,.18-2.51,.52-.44,.19-.77,.57-.62,.73,.32,.36,.54,0,.8-.03,1.73-.15,3.34-.86,5.14-.71,.7,.06,1.27-.16,1.88-.4,.18-.07,.76,.11,.8,.25,.16,.48,.09,.98,.57,1.42,.1,.09-.3,.49-.51,.78-.71,.02-1.43,.02-2.14,.07-.29,.02-.47,.2-.5,.43,.39,0,.77,.02,1.16,.01,.49-.01,.7,.2,.81,.51,1.1,0,2.2,0,3.3,0,2.31-.89,4.78-.34,7.18-.48,.2-.01,.42,.06,.61,.12,.08,.02,.13,.1,.19,.16-.09,.06-.17,.15-.26,.16-1.96,.06-3.78,.84-5.82,.6-1.34-.15-2.65,.11-3.74,.71-.6,.32-1.3,.16-1.86,.44-.06,.03-.15,.13-.13,.15,.06,.07,.16,.15,.25,.16,.55,.04,1.1,.04,1.65,.09,.16,.02,.43,.2,.41,.25-.06,.15-.2,.31-.38,.4-.27,.14-.58,.28-.88,.3-.77,.05-1.57-.04-2.33,.06-1.7,.24-3.42,.45-5.01,1-.17,.06-.31,.18-.46,.28,.18,.08,.36,.21,.55,.22,.44,.03,.97,.11,1.32-.04,1.78-.73,3.68-.36,5.53-.47,.6-.04,1.02,.28,1.51,.38,1.39,.27,2.87,.27,4.21-.1,.65-.18,1.25-.29,1.9-.28,2.09,0,4.18,.02,6.27,.03-.07,.14-.13,.34-.24,.35-1.06,.15-2.09,.26-3.13,.57-.87,.26-1.99,.18-2.96,.08-1.18-.13-2.03,.59-3.17,.52-.97-.06-1.93-.03-2.89,.36-.63,.25-1.51,.13-2.28,.18-.36,.02-.58,.16-.67,.44-.1,.33,.18,.45,.49,.51,.21,.04,.45,0,.66,.03,.73,.11,.88,.28,.82,.84-.06,.54-.21,.65-1.06,.68-.32,.01-.64,.02-.96,.03-.09,.14-.15,.32-.28,.35-.95,.2-1.94,.21-2.87-.03-.39-.1-.8-.45-1.18-.25-.6,.33-1.14,.76-1.59,1.21-.06,.06-.09,.08-.11,.09,.04-.02,.15-.03,.29,.09,.27,.25,.61,.65,1.05,.47,1.77-.69,3.65-.34,5.48-.41,.3-.01,.51,.21,.56,.46,.54,0,1.03,.07,1.52,.32,.32,.17,.99,.29,1.23,.15,1.03-.59,1.74-.39,2.56,.26,.43,.34,1.12,.53,1.73,.69,.39,.1,.99,.17,1.27,.02,.91-.51,1.92-.32,2.89-.38,1.08-.06,2.21,.16,3.21-.42,.6-.35,1.34,.66,2.02,0,.55,.25,1.31,.41,1.59,.78,.32,.42,.55,.66,1.2,.65,2.57-.02,5.13-.06,7.69-.02,.73,.01,1.23-.41,1.87-.4,.51,0,1.19,.45,1.51,.31,.58-.24,1.17-.35,1.76-.39l1.3-2.52s-1.08-.94-.15-1.84c0,0-.11-1.59,.15-1.95,.25-.36,.54-.22,.54-.22,0,0,0-.58,.83-.58,0,0,.11-.47,.97-.25l1.91-3.64s-.26-.25,.1-.43c0,0-.68-.47,.76-.54l2.2-2.59s-.21-.25,.22-.25l.65-.76s-.14-.33,.22-.22l.72-.76-.22-.14,.18-.25,.18,.14,.69-.79-.22-.15,.18-.18,.26,.15,.68-.69-.32-.25,.18-.26,.25,.29,1.48-1.73,.72,1.04-.43,.68,.43,.04s-.07,.72-.32,.9c0,0-.69-.22-.25,.36l-.58,.44s-.54,.07-.54,.47,.39,1.08-.51,.76l-.32,.33s.14,1.12-.58,.68l-.22,.33s.36,1.08-.58,.5l-.32,.4s.76,.94-.33,.72l-.68,.69s-.36-.47-.58-.07c0,0-1.05,.65-1.8,2.06-.73,1.35-1.4,2.52-1.44,2.59,.04-.02,.38-.16,.21,1.26-.18,1.51-.11,2.81-.11,3.89,0,.69,.03,1.35,.55,2.34,.35,0,.71,0,1.06,0-.27-.29-.54-.63-.71-.93-.38-.72,.58,.52,.84,.85-.27-.38-1.37-1.98-1.31-2.84,0,0,.83,2.52,2.2,2.56,0,0-1.43-1.9-1.6-2.73,0,0,.81,1.54,1.6,1.76,0,0-.61-.94-.65-1.41,0,0,.28,.29,1.15,.15,0,0-2.92-.69-2.92-2.24,0,0,.36,.9,1.19,1.19l-.72-.97s1.84,1.52,2.78,.79c0,0-1.34-.58-.47-2.67,0,0-.18,2.41,.79,2.38,0,0-.94-1.59-.29-2.34,0,0-.32,1.04,.15,1.51,0,0,.43-1.55,.5-2.13v1.55l.87-1.66-.18,1.08,1.01-1.8-.07,1.23,.29-.4s.39,.29,.39,1.01c0,0,.58-.51,1.19-.51,0,0-.03-.43-.72-.36l.58-.14-.69-.11,.72-.14-.97-.15s1.37-.9,2.67-.07l-.68-.69,1.01,.29-.25-.5,.83,.29-.36-.51,.65,.18-.18-.4,.94,.33-.43-.76,.61,.4-.21-.58,.65,.25,.03-.65,.26,.51,.1-1.08,.47,1.01,.11-.83,.69,1.73,.03-.83,.26,.65,.07-.72,.58,.61-.11-.9,.29,.83,.07-.87,.25,1.08,.33-.43s.76,.69,.29,1.88c0,0,.47,.79,.07,1.98l-.04,.69,.72-1.59s.11,1.51-.86,2.52c0,0,.07,1.19-1.34,1.91,0,0,.51,.07,.36,1.15-.14,1.08,.4,1.19,.72,1.91,.33,.72,.18,.87,.08,1.84-.09,.79-.2,1.85-.24,2.21,.02-.34,.06-1.3-.23-2.18l-.18,1.88-.36-1.41s-.43,1.73-.11,3.02c0,0-.58-.5-.47-1.77,0,0-.72,1.19-.65,2.06,0,0-.51-.65,.14-1.91,0,0-.5,.5-.94,1.76-.43,1.26-1.01,1.55-1.01,1.55,0,0,.72-1.15,.83-2.56,0,0-1.48,2.95-2.2,3.24l.79-1.22-.9,.83,.5-1.07c-.09,.13-.78,1.15-1.18,1.29,0,0,.5-1.08,.5-2.38l-.43,1.37-.04-1.37s0,1.01-.07,1.12c-.07,.11-.22-.54-.22-.54l-.1,.83-.18-.9-.18,.54-.14-1.3-.47,1.12s0-.79,.18-1.3c0,0-.43-.04-.54,1.08-.11,1.12-.15,3.17-.76,4-.61,.83-1.62,1.33-2.42,.25,0,0-2.67,3.31-2.71,3.86-.03,.54-.25,1.01-.1,1.23,.14,.22,.61,.61,.93,1.44,.33,.83,1.05,2.38,1.16,2.99,.11,.61,.07,1.41,.18,2.02,.11,.61,.33,1.23,.33,1.55s.65,.07,.28,.79c-.36,.72,.47,.36-.14,1.04-.61,.68-.79,1.04-.79,1.04l.72,5.73s.58,.03,.36,.72c-.22,.68,0,.54,.07,1.01,0,0,.25,.47,.11,.83,0,0,.4-.15,.54,.54,0,0,.33-.9,.76-.58,.43,.33,.07,.29,.94-.1,.86-.4,2.13-1.3,8.11-1.37,5.99-.07,4.9-.47,5.05,.33,.14,.79,.5-.04,.93-.4,.44-.36,1.08-.43,1.45,.04s.76-.4,1.44-.04c0,0,.15-.29,.76-.69,0,0,.54-.97,1.3-.9,.76,.07,1.41,.87,3.35,1.7,1.95,.83,4.72,2.84,5.51,5.98,0,0,.11,1.01-.76,1.19-.86,.18-1.08,.11-1.08,.11,0,0-.68-.5-1.48-.5s-1.88-.4-1.88-.4c0,0-.32,.29-.9-.14-.58-.44-.29-.47-1.41-.69-1.12-.22-1.8-.51-1.8-.51,0,0-.4,.33-1.23,.11,0,0-.69,.44-1.77,.07,0,0-1.7,1.08-4.44,.72-2.74-.36-8.73,1.55-11.54,1.84-2.82,.29-3.78,.43-3.78,.43,0,0,.18,.87-.33,1.8-.24,.44-.44,1.31-.59,2.14,.75,0,1.5,0,2.25-.02,.78,0,1.56-.02,2.34-.03,.47-.71,1.27,.04,1.96-.27,.96-.44,2.17-.15,3.27-.14,.16,0,.45,.17,.47,.28,.12,.63,.43,.64,1.04,.3,.34-.2,.77-.35,1.18-.41,.34-.04,.95,.2,1.05,.1,.53-.55,1.04,.28,1.69-.07,.49-.27,1.33,.51,2.06,.21,.59-.24,1.11-.52,1.84-.47,.78,.05,1.58-.08,2.34,.02,.66,.09,1.01-.63,1.78-.23,.4,.21,1.01-.11,1.67,.12,.7,.24,1.49-.63,2.45-.43,.62-.42,1.35-.48,2.16-.48,1.39-.02,2.83,.17,4.15-.35,.79,.59,1.34,.18,1.98-.22,.66-.42,1.4-.77,2.22-.9,.19-.36,.36-.72,.54-1.08,1.01-2.14,1.18-4.51,1.55-6.81,.06-.35,.06-.71,.08-1.07,.04-.69,.06-1.38,.14-2.07,.25-2.12,1.35-3.81,2.77-5.33,.44-.48,.54-.81,.11-1.29-.38-.43-.8-.83-1.27-1.15-.74-.51-1.15-1.15-1.17-2.05,0-.19-.15-.38-.23-.56-.11-.27-.25-.53-.32-.8-.05-.24,0-.49,0-.72-.38-.03-.7-.04-1.01-.08-1.04-.12-1.84-.53-2.13-1.65-.05-.21-.36-.36-.54-.54-.03-.03-.09-.08-.09-.11,.03-.49-.36-.45-.66-.52-.6-.13-1.04-.43-1.23-1.07-.21-.74-.53-1.41-1.03-2.04-.42-.52-.59-1.23-.87-1.86-.02-.04,0-.11,0-.16-.13-.67-.25-1.36-.39-2.03-.02-.11-.12-.22-.21-.3-.7-.64-1.14-1.42-1.36-2.34-.02-.08-.08-.15-.13-.22-.82-1.06-.6-2.14,.3-2.79,.2-.14,.37-.31,.69-.57-.46-.3-.84-.54-1.22-.79-.45-.3-1.08-.5-1.33-.92-.31-.53-.71-.93-1.13-1.33-.18-.17-.37-.35-.51-.56-.09-.14-.09-.35-.14-.53,.19-.01,.41-.09,.56-.02,.27,.12,.51,.33,.76,.51,.19,.15,.37,.3,.55,.46-.04-.19-.15-.3-.25-.43-.31-.42-.64-.82-.91-1.26-.08-.13,.03-.36,.06-.55,.49,.17,1.1-.1,1.51,.4,.11,.14,.21,.29,.3,.41,.07-.3,.12-.52,.17-.74,.22,.15,.47,.27,.64,.46,.15,.16,.22,.39,.36,.66,.1-.4,.23-.71,.26-1.03,.06-.75-.02-1.53,.14-2.26,.22-1.08,.57-2.13,1.54-2.84,.48-.35,.83-.9,1.5-.95,.07,0,.14-.1,.2-.17,.32-.38,.71-.37,1.05-.11,.32,.24,.58,.22,.89,.06,.7-.36,1.34-.2,1.89,.27,.31,.26,.56,.6,.82,.92,.17,.21,.27,.49,.47,.65,.6,.49,.88,1.05,.59,1.82-.02,.04-.03,.13,0,.16,.46,.47,.16,1.07,.25,1.59,.09,.59,.17,1.24-.41,1.69-.06,.05-.1,.15-.12,.23-.19,.69-.39,1.36-.55,2.06-.1,.42-.07,.79,.42,1.03,.53,.27,.99,.64,1.49,.96,.07,.04,.18,.1,.24,.07,.51-.23,.94,.04,1.39,.2,.37,.13,.71,.08,.9-.26,.39-.67,1.01-.85,1.71-.96,.26-.04,.54-.21,.72-.41,.42-.46,.91-.74,1.52-.83,.82-.13,1.46-.56,2.01-1.16,.27-.28,.57-.54,.9-.76,1.57-1.01,3.15-2.01,4.74-3,.51-.32,.87-.7,1.02-1.32,.06-.27,.35-.48,.51-.73,.22-.35,.49-.7,.63-1.09,.27-.81,.02-1.54-.4-2.25-.26-.44-.57-.89-.2-1.45,.05-.08-.03-.28-.11-.39-.2-.27-.37-.51-.13-.86,.17-.24,.27-.54,.42-.8,.02-.04,.13-.05,.2-.04,.61,.04,.73,.84,1.37,.88,.09,0,.21,.18,.26,.31,.04,.1,0,.25,.02,.37,.08,.51,.08,1.05,.27,1.52,.26,.65,.54,1.27,.52,2,0,.41,.06,.82,.07,1.23,.02,.44,.11,.82,.43,1.17,.25,.27,.43,.67,.49,1.03,.08,.49-.34,.77-.76,.52-.36-.22-.6-.04-.8,.15-.42,.44-.82,.91-1.19,1.39-.7,.91-1.34,1.86-2.06,2.76-.97,1.22-2.08,2.34-2.71,3.8-.22,.51-.65,.83-1.21,1.01-.2,.06-.33,.32-.51,.47-.24,.21-.51,.59-.76,.58-.71-.01-.97,.39-1.22,.93-.34,.73-.62,.87-1.38,.8-.19,.39-.38,.78-.56,1.17,.62,.93,1.24,1.9,1.89,2.83,.49,.71,1.08,1.35,1.54,2.07,.86,1.35,1.67,2.72,2.48,4.09,.33,.55,.64,1.12,.92,1.7,.16,.32,.24,.67,.41,.99,.37,.71,.84,.89,1.61,.67,.21-.06,.42-.1,.63-.1,1.5-.07,3.01-.21,4.51-.17,2.76,.06,5.53,.13,8.28,.39,1.13,.11,2.3,.19,2.87,1.36,.36,.75,.54,1.58,.78,2.38,.26,.88,.01,1.7-.35,2.5-.89,1.95-2.33,3.31-4.24,4.25-.76,.38-1.49,.9-2.07,1.51-1.52,1.6-3.19,3-4.99,4.27-.71,.5-1.32,1.15-1.99,1.72-.26,.22-.52,.46-.78,.7,.66-.02,1.33-.04,1.98,.02,1.93,.18,3.65-.49,5.48-.72,.5-.06,.99-.32,1.57-.3,.67,.02,1.35-.06,2.01-.01,.72,.06,1.4,.05,2.1,0,1.07-1.55,2.81-3.85,3.69-5.1,1.2-1.7,4.09-4.65,4.79-5.04,0,0-.14-1.02,.61-1.35,0,0,.21-.11-.02-.27-.23-.16-.99-1.03-.99-1.1s.59-1.31,.74-2.19c.16-.88,.39-2.87,.41-3.86,.02-.99,.38-3.8,1.31-7.34,0,0,.29-1.38,1.85-3.3,0,0,.2-3.98,.18-4.65-.02-.67-.48-1.47-.25-2.55,.23-1.08,.37-2.1,.37-2.1,0,0-1.21,.42-1.29,.12-.16-.64,1.19-.85,1.22-.91,0,0-.46-3.36-.46-3.65s-.25-.72-.34-1.42c-.09-.7-.72-3.73-.72-9.01,0,0-.04-.72-.32-1.08-.27-.36-.02-.25-.56-.54-.54-.3-1.02-.84-1.02-.84,0,0-.07,.59-.32,.38-.25-.2-.36-.36-.52-.59-.16-.22-.32-.68-.32-.68,0,0-.32-.22-.56-.43-.25-.2-.84-1.26,.4-.9,0,0-.16-.61,.18-.7,.34-.09,1.22-.29,1.22-.29,0,0,.09-.61,.07-1.04-.02-.43-.29-1.4-.29-2.1s.48-.86,.54-.32c.07,.54,.14,1.15,.34,1.44,.2,.29,.2,1.35,.43,1.76,.23,.4,2.24,3.93,2.26,4.15,.02,.22,.7,3.02,.93,4.27,.23,1.24,1.58,4.97,1.56,5.82-.02,.86-.02,2.19,.07,2.57,.09,.39,.34,2.66,.34,2.67,0,.07,.48,.08,.53,.07,.26-.03,.15-.28,.17-.51,.02-.24,.17-.31,.24-.32,.67-.16,1.41-.13,2.12-.24,.4-.06,.66,.11,.68,.35,.06,.59,.12,.79,.09,1.37,0,.05-.09,.46-.43,.5-.82,.09-1.39,.15-2.22,.16-.06,0-.28,.02-.4-.16-.04-.05-.1-.31-.14-.33-.13-.04-.46-.03-.51,.07-.1,.19,.08,.99,.22,1.2,.2,.29,.84,1.67,.84,1.67,0,0,.63,.74,.63,.92s.14,.52,.18,.66c.04,.14,1.54,.32,1.81,.29,.27-.02,.34-.56-.32-1.51-.66-.95-.7-1.49-.43-1.63,.27-.14,.43-.2,.43-.49s.07-.34,.52-.38c.45-.05,.93-.72,1.04-.95,.11-.23,.22-1.06,.97-.84,0,0-.04-1.11,.54-1.06,.59,.04,1.04,.86,1.6,.38,0,0,.27-.4,1.6-.29,0,0,.92,.11,1.26,.34,.34,.22,1.8-.11,3.07,2.89l-.43-.54,.27,.66-.34-.44c.05,.17,.86,2.9,.86,4.21s.22,6.97,.43,7.54c.17,.47,.44,3.33,1.4,5.23-.37-.59-.79-1.35-1.01-1.94,.18,.55,1.21,3.63,2.37,5.04-.18-.17-1.59-1.58-2.42-3.31,.04,.23,.75,3.99,1.64,4.91,0,0-1.24-1.04-1.26-1.74,0,0,.07,1.45,.5,1.85,0,0-.43-.07-.66-1.31,0,0-.16,.79-.05,1.58,0,0-.29-.38-.2-1.51l-.25,.7v-1.7s-.27,.95-.2,1.65c.07,.7,.07,1.06,.07,1.06,0,0-.22-.59-.32-1.17,0,0-.38,.6-.19,1.07-.05-.08-.29-.47-.18-.99l-.22,.82s-.04-1.65-.18-1.85c0,0-.22,1.34-.07,1.95-.05-.11-.54-1.2-.36-2.43-.03,.21-.39,2.27-.2,2.88l-.32-.41-.18,.36-.18-.88-.32,.34-.02-1.29-.29,1.53s-.16-.97-.07-1.69c.09-.72-.2-2.53-.2-2.53,0,0-.25,1.04-.16,1.65l-.22-1.08c.05,.38,.41,2.89,.2,3.23,0,0-.18-2.26-.41-3.09,0,0-.37,1.88-.27,2.53-.09-.33-.34-1.57,.2-2.82-.07,.04-.79,.57-.36,2.98,0,0-.83-1.38-.7-2.71,0,0-.57,1.52,.09,2.76,0,0-.77-.14-.47-1.49,0,0-.36,.16-.47,.79,0,0-.07-.97,.56-1.78,0,0-.7,.34-.76,1.15,0,0-.04-1.12,.67-1.97-.08,.08-.71,.73-1.08,2.09,0,0-.27-.67,0-1.08-.05,.07-.42,.62-.42,.94,0,0-.29-.43,.38-1.58,.68-1.15,.36-2.57,.36-2.57,0,0,.02,1.35-.46,2.03-.47,.68-.75,1.15-.75,1.15,0,0-.11-.32,.59-1.26,.7-.95,.34-1.8,.34-1.8,0,0,.09,1.15-.63,1.85,0,0,.49-1.02,.49-1.65,0,0-1.45,.61-1.33,1.83,0,0-.33-.36,.2-1.12-.09,.1-.83,.96-1.12,.98,0,0,1.08-1.13,1.56-1.98l-.75,.65,.53-.86c-.09,.09-.51,.54-1.36,1.59-.97,1.2-1.11,1.49-1.17,1.78-.07,.3-.27,.25-.5,.61-.23,.36-.09,.4-.16,.81-.07,.4-.07,.49,.09,.77,.16,.27,3.01,4.36,2.56,5.37,0,0,.11,.95,.65,1.69,.54,.75,.48,.84,.95,1.31,.47,.48,.66,.95,.86,1.56,.2,.61,3.34,5.73,3.34,5.73,0,0,.52,.22,.68,.61,0,.02,.01,.03,.02,.04,.14,.1,.27,.21,.45,.21,.9,.02,1.79,0,2.69,.03,.77,.03,1.34,.52,2.19,.48,1.23-.05,2.52,0,2.77,1.27,.04,.2,.26,.18,.49,.02,.35-.23,.82-.42,1.18-.11,.66,.57,1.69,.22,2.46,.66,.7,.4,1.7,.32,2.5-.08,.4-.2,.82-.3,1.25-.21,.52,.1,.99,.35,1.51,.45,.63,.11,1.35-.08,1.92,.28,.48,.3,1.07,.18,1.58,.31,.22,.06,.34,.39,.47,.61,.13,.22,.24,.25,.47,.15,.83-.33,1.52,.35,2.39,.2,.74-.13,1.57,.06,2.33-.02,.87-.09,1.43,.41,2.18,.49,.77,.09,1.72-.08,2.28,.21,1.08,.56,2.45,.05,3.46,.77,.46,.32,1.05-.56,1.77-.08,.52,.35,1.28,.16,1.94,.14,.44-.01,.73-.49,.47-.76-.13-.14-.29-.26-.43-.39-.82-.81-.8-.79,.38-1.6,.32-.22,.68-.48,.8-.78,.23-.56,.54-.29,.94-.16,.79,.26,1.51,.14,2.13-.33,.29-.22,.2-.42-.01-.63-.4-.4,.15-.34,.38-.45,.17-.09,.81-.1,.23-.42-.66-.37-.77-.54-.36-.73,.27-.14,.57-.24,.84-.38,.86-.45,2.04-.59,2.35-1.56,.09-.3,.58-.45,1.07-.5,.38-.04,.44-.3,.03-.44-.27-.08-.64-.04-.62-.35,0-.07,.35-.17,.55-.18,.44-.03,.9,0,1.34-.04,.14-.02,.39-.24,.36-.27-.76-.97,.42-.72,.84-.67,1.06,.12,2.12,.33,3.14,.6,.42,.11,.71,.34,1.1-.01,.36-.32,1.05-.59,1.1-.92,.11-.77,.74-.7,1.4-.75,.19-.02,.36-.15,.55-.23-.19-.09-.36-.21-.57-.24-.57-.1-.78-.48-.55-.75,.34-.41,.47-.68-.09-1.02-.26-.15-.47-.38-.61-.6-.07-.11,.03-.31,.08-.46,.02-.04,.2-.1,.24-.08,.57,.34,1.24,.29,1.91,.33,1.2,.07,2.38-.03,3.58,.42,.82,.3,1.97,.1,2.98,.09,.16,0,.47-.2,.46-.28-.03-.23-.12-.55-.33-.65l-.03,.03ZM46.42,31.32s-.16,.32-.41,.83c.32,.02,.63,.02,.95,.02h.19c-.34-.55-.72-.85-.72-.85Zm57.23,33.2c-.44,.62-.79,1.09-1.12,1.58-1.33,1.9-2.67,3.79-3.98,5.7-.84,1.22-1.68,2.44-2.51,3.66,.32-.04,.7,0,1.02-.01,.34-.01,.71,.06,1-.03,.17-.05,.34-.11,.5-.17-.01-.35,.21-.63,.62-.81,.9-.41,1.78-.85,2.68-1.25,.83-.36,1.39-.99,1.86-1.74,.32-.5,.66-.98,1.05-1.43,.41-.48,.98-.64,1.6-.61,.48,.03,.97,.13,1.45,.09,.35-.03,.83-.12,1.01-.37,.74-1,1.71-1.83,2.08-3.1,.22-.73,.64-1.4,1.01-2.08,.27-.5,.6-.96,.99-1.58-3.2,1-6.27,1.88-9.28,2.13h0Z" fill="url(#_Безымянный_градиент)"/>
  <path d="M33.15,76.03c-.84-.14-1.57-.91-2.47-.49-.03,.02-.07,.03-.1,.04,.42,.26,.8,.44,1.06,.57,.27,.14,.71,.27,1.2,.38,.13-.06,.26-.12,.38-.17,.27-.1,.26-.27-.07-.33h0Z" fill="url(#_Безымянный_градиент_2)"/>
  <path d="M156.04,51.98c-.23-.26-.42-.57-.59-.91,.27,.44,.51,.79,.59,.91Z" fill="url(#_Безымянный_градиент_3)"/>
</svg>