<svg width="20" height="20" viewBox="0 0 20 20" fill="none" xmlns="http://www.w3.org/2000/svg">
<path d="M19.9909 2.11026C20.0298 1.87713 19.9423 1.64086 19.761 1.48925C19.5797 1.33763 19.3317 1.29334 19.1091 1.37283L0.442449 8.0395C0.190945 8.12932 0.0173155 8.36057 0.00121827 8.62714C-0.014879 8.89372 0.129663 9.14418 0.36853 9.26361L5.70186 11.9303C5.91584 12.0373 6.17075 12.0214 6.36981 11.8887L10.797 8.93723L8.14609 12.2509C8.02937 12.3968 7.97923 12.585 8.0079 12.7696C8.03657 12.9542 8.1414 13.1184 8.29687 13.222L16.2969 18.5554C16.4851 18.6808 16.7241 18.7023 16.9317 18.6124C17.1393 18.5225 17.2871 18.3334 17.3243 18.1103L19.9909 2.11026Z" fill="#15112B"/>
</svg>
