<svg width="125" height="115" viewBox="0 0 125 115" fill="none" xmlns="http://www.w3.org/2000/svg">
<path d="M61.1682 25.0094C59.2096 10.8985 46.3209 0 30.7129 0C13.7506 0 0 12.8718 0 28.75C0 43.7732 12.3097 56.1051 28.0025 57.3896C28.0034 57.4632 28.0046 57.5367 28.0061 57.6101C12.3116 58.893 0 71.2256 0 86.25C0 102.128 13.7506 115 30.7129 115C46.6867 115 59.8123 103.585 61.2878 88.9931C61.5246 88.9977 61.762 89 62 89C62.5232 89 63.0437 88.9889 63.5611 88.9669C65.0235 103.571 78.1552 115 94.1387 115C111.101 115 124.852 102.128 124.852 86.25C124.852 70.9553 112.093 58.4501 95.995 57.5517C95.9957 57.5172 95.9962 57.4827 95.9967 57.4482C112.094 56.549 124.851 44.0442 124.851 28.75C124.851 12.8718 111.101 0 94.1386 0C78.5199 0 65.6243 10.9134 63.6793 25.0384C63.123 25.0129 62.5631 25 62 25C61.7219 25 61.4446 25.0031 61.1682 25.0094Z" fill="#ED70AE"/>
</svg>
