<svg width="125" height="115" viewBox="0 0 125 115" fill="none" xmlns="http://www.w3.org/2000/svg">
<path d="M60.1776 25.1469L60.3001 26.0293L61.1907 26.0091C61.4597 26.0031 61.7295 26 62 26C62.5478 26 63.0925 26.0125 63.6336 26.0373L64.5455 26.0791L64.67 25.1748C66.5409 11.5873 78.9753 1 94.1386 1C110.612 1 123.851 13.4853 123.851 28.75C123.851 43.4543 111.569 55.5768 95.941 56.4498L95.0104 56.5018L94.9968 57.4336L94.9952 57.5337L94.9779 58.4964L95.9393 58.5501C111.569 59.4223 123.852 71.5451 123.852 86.25C123.852 101.515 110.612 114 94.1387 114C78.6198 114 65.9626 102.913 64.5561 88.8672L64.4621 87.9276L63.5186 87.9678C63.0153 87.9892 62.509 88 62 88C61.7685 88 61.5375 87.9978 61.3071 87.9933L60.3856 87.9755L60.2928 88.8925C58.8738 102.926 46.2224 114 30.7129 114C14.2397 114 1 101.515 1 86.25C1 71.8046 12.8518 59.8522 28.0875 58.6068L29.0245 58.5302L29.0059 57.5903C29.0044 57.5192 29.0033 57.4481 29.0024 57.3769L28.9909 56.4671L28.084 56.3929C12.85 55.146 1 43.1943 1 28.75C1 13.4853 14.2397 1 30.7129 1C45.8658 1 58.2936 11.5729 60.1776 25.1469Z" fill="#ED70AE" stroke="#D25493" stroke-width="2"/>
</svg>
