<svg width="125" height="115" fill="none" xmlns="http://www.w3.org/2000/svg"><mask id="path-1-inside-1_1501_7035" fill="#fff"><path fill-rule="evenodd" clip-rule="evenodd" d="M61.168 25.01C59.21 10.897 46.321 0 30.713 0 13.75 0 0 12.872 0 28.75c0 15.023 12.31 27.355 28.003 28.64l.003.22C12.312 58.893 0 71.226 0 86.25 0 102.128 13.75 115 30.713 115c15.974 0 29.1-11.415 30.575-26.007a36.669 36.669 0 002.273-.026C65.023 103.57 78.155 115 94.14 115c16.962 0 30.713-12.872 30.713-28.75 0-15.295-12.759-27.8-28.857-28.698l.002-.104c16.097-.899 28.854-13.404 28.854-28.698C124.852 12.872 111.102 0 94.14 0 78.52 0 65.625 10.913 63.68 25.038a36.673 36.673 0 00-2.51-.029z"/></mask><path fill-rule="evenodd" clip-rule="evenodd" d="M61.168 25.01C59.21 10.897 46.321 0 30.713 0 13.75 0 0 12.872 0 28.75c0 15.023 12.31 27.355 28.003 28.64l.003.22C12.312 58.893 0 71.226 0 86.25 0 102.128 13.75 115 30.713 115c15.974 0 29.1-11.415 30.575-26.007a36.669 36.669 0 002.273-.026C65.023 103.57 78.155 115 94.14 115c16.962 0 30.713-12.872 30.713-28.75 0-15.295-12.759-27.8-28.857-28.698l.002-.104c16.097-.899 28.854-13.404 28.854-28.698C124.852 12.872 111.102 0 94.14 0 78.52 0 65.625 10.913 63.68 25.038a36.673 36.673 0 00-2.51-.029z" fill="#ED70AE"/><path d="M61.168 25.01l-1.98.274.244 1.765 1.781-.04-.045-2zM28.002 57.39l2-.026-.023-1.82-1.813-.148-.163 1.994zm.004.22l.163 1.993 1.874-.153-.037-1.88-2 .04zm33.282 31.383l.038-2-1.843-.035-.185 1.834 1.99.201zm2.273-.026l1.99-.2-.188-1.879-1.887.08.085 1.999zm32.434-31.415l-2-.036-.034 1.925 1.923.107.111-1.996zm.002-.104l-.112-1.997-1.86.104-.028 1.864 2 .03zm-32.318-32.41l-.091 1.998 1.824.084.249-1.809-1.982-.273zm-.53-.304C61.042 9.55 47.231-2 30.713-2v4C45.41 2 57.378 12.247 59.187 25.284l3.962-.55zM30.713-2C12.773-2-2 11.645-2 28.75h4C2 14.099 14.729 2 30.713 2v-4zM-2 28.75c0 16.181 13.229 29.273 29.84 30.633l.326-3.987C13.39 54.186 2 42.616 2 28.75h-4zm32.006 28.82a28.264 28.264 0 01-.004-.206l-4 .05.005.236 3.999-.08zM2 86.25c0-13.866 11.392-25.439 26.169-26.647l-.326-3.986C11.231 56.975-2 70.067-2 86.25h4zM30.713 113C14.729 113 2 100.901 2 86.25h-4C-2 103.355 12.773 117 30.713 117v-4zm28.585-24.208C57.935 102.267 45.758 113 30.713 113v4c16.902 0 30.976-12.098 32.565-27.806l-3.98-.402zM62 87c-.225 0-.45-.002-.674-.007l-.077 4c.25.005.5.007.751.007v-4zm1.476-.031c-.489.02-.981.031-1.476.031v4c.552 0 1.1-.012 1.646-.035l-.17-3.996zM94.14 113c-15.055 0-27.237-10.746-28.588-24.232l-3.98.398C63.145 104.887 77.226 117 94.14 117v-4zm28.713-26.75c0 14.651-12.729 26.75-28.713 26.75v4c17.94 0 32.713-13.645 32.713-30.75h-4zM95.884 59.548c15.16.847 26.968 12.587 26.968 26.702h4c0-16.474-13.71-29.745-30.746-30.695l-.222 3.993zm-1.887-2.129l-.002.097 4 .072.001-.11-4-.059zm2.111 2.026c17.034-.951 30.743-14.221 30.743-30.695h-4c0 14.114-11.806 25.855-26.966 26.701l.223 3.994zm30.743-30.695C126.851 11.645 112.079-2 94.139-2v4c15.984 0 28.712 12.099 28.712 26.75h4zM94.139-2C77.609-2 63.79 9.566 61.698 24.765l3.963.546C67.458 12.261 79.43 2 94.139 2v-4zM62 27c.533 0 1.062.012 1.588.036l.183-3.996A38.812 38.812 0 0062 23v4zm-.787.009c.262-.006.524-.009.787-.009v-4c-.293 0-.586.003-.877.01l.09 3.999z" fill="#D25493" mask="url(#path-1-inside-1_1501_7035)"/></svg>