<svg width="127" height="117" fill="none" xmlns="http://www.w3.org/2000/svg"><path d="M61.178 26.147l.122.882.89-.02a36.293 36.293 0 012.444.028l.912.042.124-.904C67.54 12.587 79.975 2 95.139 2c16.473 0 29.712 12.485 29.712 27.75 0 14.704-12.282 26.827-27.91 27.7l-.93.052-.014.932-.002.1-.017.962.961.054c15.63.872 27.913 12.995 27.913 27.7 0 15.265-13.24 27.75-29.713 27.75-15.52 0-28.176-11.087-29.583-25.133l-.094-.94-.943.04a35.747 35.747 0 01-2.212.026l-.921-.017-.093.916C59.873 103.927 47.223 115 31.713 115 15.24 115 2 102.515 2 87.25c0-14.445 11.852-26.398 27.087-27.643l.938-.077-.02-.94a25.241 25.241 0 01-.003-.213l-.011-.91-.907-.074C13.85 56.146 2 44.194 2 29.75 2 14.485 15.24 2 31.713 2c15.153 0 27.58 10.573 29.465 24.147z" fill="#ED70AE" stroke="#D25493" stroke-width="2"/></svg>