<svg width="189" height="111" fill="none" xmlns="http://www.w3.org/2000/svg"><path d="M13.48 84.523H9.523V73.975H6.739v10.548H2.785V73.975H0v12.024c0 .854.475 1.325 1.335 1.325H14.93c.872 0 1.355-.47 1.355-1.325V73.975h-2.803v10.548h-.002zm13.123-4.009c.708-.452 1.244-1.116 1.758-2.15l2.201-4.387h-3.02l-2.017 3.978c-.641 1.258-.874 1.437-3.009 1.437h-.943v-5.415h-2.785v13.349h2.785v-5.34h.943c2.4 0 2.675.193 3.292 1.399l2.017 3.941h3.117l-2.262-4.427c-.612-1.2-1.144-1.953-2.077-2.383v-.002z" fill="#15112B"/><path d="M38.486 73.975h-1.733c-3.94 0-6.024 2.317-6.024 6.702s2.082 6.647 6.024 6.647h1.733c3.94 0 6.025-2.298 6.025-6.647s-2.083-6.702-6.025-6.702zm3.222 6.684c0 2.746-.934 3.866-3.222 3.866h-1.733c-2.332 0-3.24-1.079-3.24-3.846 0-2.767.94-3.903 3.24-3.903h1.733c2.288 0 3.222 1.126 3.222 3.883zm11.709-6.911c-1.827 0-2.375.935-3.062 2.477l-2.786 6.191c-.918 2.017-1.15 2.107-1.816 2.107h-.734v2.801h.694c2.49 0 3.131-1.22 4.344-3.975l2.878-6.545c.144-.306.276-.33.423-.33.176 0 .378.045.378.4v10.452h2.802V76.76c0-1.884-1.169-3.01-3.125-3.01l.004-.002zm11.862 0c-1.557 0-2.49.583-2.936 1.826l-4.614 11.75h3.052l1.034-2.632h6.733l.999 2.632h3.068L68.18 75.586c-.429-1.253-1.35-1.838-2.901-1.838zm2.266 8.258h-4.677l2.01-5.135c.084-.194.187-.266.383-.266s.289.068.358.253l1.928 5.146-.002.002zm26.204-8.258c-1.88 0-2.991.897-3.4 2.738l-1.788 7.816c-.111.446-.353.506-.576.506-.224 0-.463-.06-.574-.5l-1.788-7.82c-.4-1.793-1.6-2.74-3.475-2.74-2.087 0-3.33 1.176-3.33 3.143v10.435h2.764v-10.32c0-.351.21-.53.624-.53.346 0 .54.147.61.463l1.808 7.82c.43 1.88 1.523 2.796 3.343 2.796s2.838-.887 3.285-2.793l1.828-7.823c.073-.324.257-.461.611-.461.414 0 .623.179.623.53v10.32h2.765V76.893c0-1.967-1.246-3.143-3.33-3.143v-.002zm17.868.227h-1.733c-3.503 0-5.558 1.852-5.96 5.36h-1.554v-5.36h-2.785v13.349h2.785v-5.397h1.552c.364 3.533 2.419 5.397 5.962 5.397h1.733c3.939 0 6.024-2.298 6.024-6.647s-2.083-6.702-6.024-6.702zm-1.733 2.799h1.733c2.288 0 3.22 1.126 3.22 3.883 0 2.758-.904 3.866-3.22 3.866h-1.733c-2.332 0-3.24-1.084-3.24-3.866 0-2.781.94-3.883 3.24-3.883zm19.093 3.846c.975-.601 1.469-1.586 1.469-2.935 0-2.358-1.653-3.71-4.537-3.71h-6.626v2.799h6.626c1.104 0 1.64.427 1.64 1.309 0 .619-.198 1.251-1.658 1.251h-4.142v2.593h4.198c1.487 0 1.657.714 1.657 1.251 0 .905-.536 1.347-1.64 1.347h-6.701v2.801h6.701c2.829 0 4.518-1.387 4.518-3.71 0-1.395-.495-2.38-1.507-2.995l.002-.001zm14.387-6.872c-2.14 0-2.896 1.291-3.343 2.533l-3.704 8.152c-.129.26-.301.375-.558.375-.216 0-.473-.076-.473-.438V73.975h-2.785v10.49c0 1.962 1.167 3.086 3.201 3.086 2.154 0 2.923-1.365 3.342-2.532l3.709-8.161c.126-.271.299-.386.574-.386.296 0 .452.157.452.455v10.397h2.803v-10.51c0-1.92-1.202-3.066-3.218-3.066zm13.519 6.766c.708-.452 1.244-1.116 1.758-2.15l2.202-4.387h-3.02l-2.018 3.978c-.643 1.258-.874 1.437-3.008 1.437h-.944v-5.415h-2.785v13.349h2.785v-5.34h.944c2.399 0 2.674.193 3.289 1.399l2.017 3.941h3.118l-2.263-4.427c-.611-1.2-1.143-1.953-2.077-2.383l.002-.002zm12.917-6.766c-1.827 0-2.375.935-3.061 2.477l-2.787 6.191c-.918 2.017-1.149 2.107-1.816 2.107h-.734v2.801h.695c2.49 0 3.131-1.22 4.343-3.975l2.878-6.545c.144-.306.277-.33.423-.33.176 0 .378.045.378.4v10.452h2.803V76.76c0-1.884-1.169-3.01-3.125-3.01l.003-.002zm14.764 1.838c-.43-1.253-1.351-1.838-2.902-1.838-1.551 0-2.492.583-2.935 1.826l-4.615 11.75h3.052l1.037-2.632h6.732l.999 2.632H189l-4.434-11.738h-.002zm-.635 6.418h-4.68l2.009-5.135c.085-.194.188-.266.384-.266s.289.068.358.253l1.929 5.146v.002z" fill="#15112B"/><path d="M19.1 95.639h3.938v-1.297H19.1c-3.088 0-4.654 1.758-4.654 5.224s1.566 5.205 4.654 5.205h3.938v-1.299H19.1c-2.295 0-3.363-1.242-3.363-3.906s1.068-3.927 3.363-3.927zm6.005-1.295v1.297h3.212v9.132h1.305v-9.132h3.212v-1.297h-7.73zm15.863 1.02c-.291-.853-.885-1.218-1.984-1.218-1.1 0-1.715.365-2.018 1.218l-3.694 9.408h1.437l.898-2.278H42.2l.077.205.785 2.073h1.458l-3.555-9.408h.002zm-4.894 5.931l.17-.438 1.875-4.787c.164-.38.457-.579.849-.579.391 0 .69.203.832.585l1.957 5.219h-5.683zm14.462-5.656h3.938v-1.297h-3.938c-3.085 0-4.65 1.758-4.65 5.224s1.565 5.205 4.65 5.205h3.938v-1.299h-3.938c-2.294 0-3.364-1.242-3.364-3.906s1.07-3.927 3.364-3.927zm13.687-.275c-.29-.853-.884-1.218-1.983-1.218-1.1 0-1.713.365-2.018 1.218l-3.695 9.408h1.442l.89-2.278h6.599l.077.205.785 2.073h1.458l-3.555-9.408zm-4.893 5.931l.17-.438 1.875-4.787c.168-.382.461-.579.849-.579a.85.85 0 01.836.585l1.95 5.219h-5.68zm22.359-6.951v5.787h-3.624c-1.485 0-2.304-.79-2.304-2.22v-3.567h-1.325v3.712c0 2.278 1.117 3.384 3.417 3.384h3.836v3.331h1.307v-10.43h-1.307v.003zm12.638 0l-3.831 6.474-.273-.468-3.38-6.006h-1.434l4.4 7.655-.278.454c-.495.794-.896 1.02-1.802 1.02H86.17v1.3h1.234c1.858 0 2.54-.4 3.472-2.038l4.905-8.391h-1.454zm11.415 0v4.51h-6.255v-4.51h-1.293v10.429h1.293v-4.624h6.255v4.624h1.305v-10.43h-1.305zm13.421-.2c-1.232 0-1.898.516-2.375 1.843l-3.22 7.088c-.212.422-.554.643-.989.643-.577 0-.965-.378-.965-.939v-8.435h-1.294v8.514c0 1.381.766 2.109 2.214 2.109 1.228 0 1.892-.515 2.373-1.838l3.22-7.09c.202-.43.548-.659 1.003-.659.57 0 .953.384.953.959v8.433h1.306v-8.535c0-1.368-.77-2.09-2.226-2.09v-.003zm11.122 5.323l.174-.21 4.255-4.913h-1.539l-3.689 4.255-.237-.288-3.28-3.967h-1.513l4.199 4.98-.18.204-4.474 5.243h1.547l3.895-4.57.239.288 3.556 4.282h1.515l-4.474-5.304h.006zm15.606-5.323c-1.232 0-1.897.516-2.373 1.843l-3.22 7.088c-.212.422-.554.643-.989.643-.58 0-.97-.378-.97-.939v-8.435h-1.289v8.514c0 1.381.763 2.109 2.207 2.109 1.232 0 1.899-.515 2.376-1.838l3.222-7.09c.201-.43.547-.659 1.004-.659.57 0 .954.384.954.959v8.433h1.305v-8.535c0-1.368-.769-2.09-2.227-2.09v-.003zm13.044.2v4.51h-6.256v-4.51h-1.289v10.429h1.289v-4.624h6.256v4.624h1.306v-10.43h-1.306zm11.413 1.02c-.293-.853-.886-1.218-1.986-1.218s-1.709.365-2.015 1.218l-3.695 9.408h1.44l.894-2.278h6.594l.077.205.783 2.073h1.46l-3.554-9.408h.002zm-4.893 5.931l.17-.438 1.875-4.787c.164-.38.457-.579.848-.579.392 0 .692.203.833.587l1.954 5.217h-5.68z" fill="#262433"/><path d="M117.908 52.279s-.528-.086-.736-.223c-.204-.137-.854.398-1.195.517 0 0-1.546 1.09-3.15 2.374a2.45 2.45 0 00.28-.152c.742.022 1.527-.189 2.19.249a.474.474 0 00.214.1c.822.071 1.643-.04 2.45.328.605.274 1.507-.014 2.111.451.039.032.164-.006.247-.002.314.006.526-.463.842-.183.4.352.679-.24 1.071-.006.091.054.203.094.328.124-1.213-1.196-3.183-2.986-4.65-3.575l-.002-.002zm-75.27-25.44c-.377.006-.624.13-.666.442-.033.243.048.543-.3.68-.34.134-.803.36-1.074.277-.698-.211-1.18.326-1.852.177-.565-.123-1.11.093-1.663.296-.568.211-1.341-.057-1.909.34-.105.074-.312.078-.474.084-.843.022-1.794-.143-2.502.1-.83.288-1.638.198-2.437.34-2.079.368-4.166.7-6.066 1.522-1.005.433-1.272 1.108-1.5 1.85-.063.209.168.451.319.368.813-.438 1.806-.54 2.668-.883.038-.014.046-.072.057-.13.33.12.659.237.99.354.037.303-.281.498-.527.56-.783.198-1.276.714-1.978.99-.059.24.087.623-.279.665-.8.087-1.319.491-1.964.762-.395.165-.9.654-1.533.222-.037-.025-.298.078-.373.164-.24.256-.41.55-.659.801-.275.277-.39.577-.285.904.125.392.469.63.983.716.02-.29-.047-.635.457-.726.878-.157 1.23-.04 1.638.425.184.205.39.402.611.585.221.185.647.132.835-.103.17-.211.287-.446.464-.65.262-.301.677-.297 1.082-.29-.002.013-.008.027-.012.039h.052c-.006.117-.022.236.012.348.033.113.138.215.213.32.08-.105.19-.203.23-.316.037-.112.018-.237.014-.356h.037s-.008-.018-.014-.026c.752-.006 1.298.25 1.482.812.103.314.22.598.42.887.246.352.019.654-.54.61-.816-.06-1.42.454-2.165.383-.828-.078-1.394.425-2.157.445-.596.018-.596.372-.576.697.006.117.109.23.182.34a.609.609 0 00.202-.054c.334-.191.678-.559.998-.545.883.034 1.59-.382 2.412-.426.755-.04 1.519-.022 2.276 0 .265.006.443.157.49.368.06.257.13.597-.235.677-.567.119-.985.453-1.622.505-.54.044-1.056.326-1.558.533-.09.038-.08.23-.08.354 0 .048.08.118.145.137.148.048.307.098.463.1 1.187.008 2.371-.008 3.554.02.463.012.772-.22 1.153-.29.196-.038.49.316.817.057.162-.131.285-.11.392.06.077.12-.085.491-.247.48-.875-.074-1.502.532-2.386.47-.84-.059-1.527.42-2.413.415-.789-.008-1.584.288-2.373.465-.313.068-.62.243-.926.24-1.709-.017-3.163.661-4.747.978-.842.169-1.53.575-1.964 1.128-.261.334-.45.63-.96.788-.223.067-.233.328-.059.491.22.209.503.487.309.682-.445.458-.542 1.114-1.295 1.389-.444.16-.912.286-1.363.432-.073.026-.129.083-.19.125.103.072.196.19.308.203.406.054.863-.018 1.153.288.117.126.438.19.208.448a3.615 3.615 0 00-.54.838c-.253.517-.566.899-1.43.84-.324-.023-.469.467-.17.574.477.163.835.342.985.766.105.295.3.625.6.812.397.25.751-.1 1.115-.225.455-.155.8.503 1.345.08.273-.215.71-.335 1.102-.42.3-.068.755-.125.95-.006.517.314 1.071.334 1.668.334.358 0 .665.08.673.422.008.322.053.66-.528.736-.08.012-.155.048-.228.074-.207.077-.178.254.04.236.84-.06.536.748 1.193.846.476.073.943.256 1.354.46.248.117.386.365.574.556-.233.058-.463.118-.698.166-.08.018-.188-.018-.25.012-.104.047-.187.129-.278.197.067.04.132.105.203.11.25.019.505.015.758.019.761.008 1.525.038 2.286.008.54-.02.96.105 1.4.334.378.195.592.038.483-.386-.037-.145-.11-.243.139-.264.417-.034.84-.026 1.26-.052.741-.046 1.461-.02 2.21-.269.654-.215 1.488-.11 2.246-.14.8-.037 1.596.045 2.367-.286-.985-.616-2.183-1.81-1.192-4.201 0 0 2.1-3.185 4.474-5.243 0 0 2.047-2.085 2.727-2.44 0 0-.463-.329-.571-.578-.111-.244-1.258-.821-1.395-2.005 0 0-.516-.054-.872.22-.354.275-.928 1.183-1.8.769-.874-.412-1.094-.822-.902-1.206.194-.386.874-1.95.874-1.95s-.437-.244-.083-.577c0 0 .19-.19.437-.053l.41-.577s-.463-.328-.384-.328c.08 0 .247-.054.247-.054s-.49-.494.084-.577c0 0-.68-.603.38-.714 0 0-.491-.412.027-.715.52-.3.791-.519 1.473-.577 0 0 .438-1.591.792-2.496.354-.906 1.12-2.197 1.582-2.06l3.372-6.579-2.22.022.009.004zm2.778 33.784s.164-.166-1.337-.303a376.97 376.97 0 01-4.367-.412c-.34-.04-1.779-.185-2.825-.421-.275.133-.554.28-.823.274-1.317-.026-2.686.354-3.955-.229-.13-.06-.436-.093-.465-.053-.43.549-1.304.215-1.818.55-.174.114-.287.283-.43.428.157.04.31.114.466.118 1.863.018 3.724.022 5.587.032.168 0 .346-.034.507-.006.718.131 1.214-.532 1.922-.329.62.178 1.187.474 1.818.625.465.111.993.105 1.495.105 1.511 0 3.018 0 4.53-.002a5.812 5.812 0 01-.305-.376v-.002zm2.692-34.124a2.278 2.278 0 00-.702.183c-.293.133-.716.113-1.102.117-.84 1.723-2.02 4.18-2.196 4.781.066-.103 1.13-1.75 1.526-2.519 0 0 .19-.111.49 0 0 0 1.337-.027 1.5-.248.163-.221.274-.55 1.01-.52l.437-.165s-.595-.929-.965-1.627l.002-.002zm.119 27.672c-.68-2.579-1.828-4.09-1.828-4.09s-2.1 1.676-2.704 2.277c-.6.603-2.453 1.894-2.753 1.976-.3.083-1.173.933-1.173.933s1.173.11 1.8.328c.627.219 2.427.96 3.463 1.208 1.039.245 1.638.656 2.538.686.9.03 1.91.084 2.593.028 0 0-1.254-.768-1.936-3.35v.004zm2.264-27.728c.168.243.364.51.6.802l.397-.826c-.332.006-.664.014-.997.022v.002zm125.292 22.183c-.267-.13-.631-.143-.712-.44-.204-.091-.403-.19-.615-.268-.305-.11-.429-.663-.926-.28-.405.308-.639-.426-.997-.047-.132.144-.247.126-.397.032-.582-.368-.736-1.193-1.846-1.018-.065.012-.239-.177-.268-.287-.054-.185-.048-.382-.048-.575-.006-.513.046-.543.868-.686a2.39 2.39 0 00.645-.2c.158-.085-.051-.522-.332-.648-.281-.129-.619-.195-.866-.348-.418-.26.085-.274.219-.32.239-.084.491-.157.471-.374-.018-.171-.133-.352-.259-.504-.113-.133-.109-.242.13-.256.455-.028 1.009-.19 1.195.336.136.052.324.088.37.171.156.28.17.611.747.629.321.008.651.105.944.215.328.123.678.224.858-.064.129-.205.123-.513.028-.736-.182-.42-.878-.585-.957-1.106-.044-.27-.319-.118-.526-.034-.631.26-1.304.25-1.893-.022-.392-.183-.778-.203-1.193-.243-.099-.008-.178-.133-.267-.204.15-.046.301-.1.455-.138.079-.018.17-.002.253-.018.576-.103.576-.328.736-.599.208-.36-1.169-.68.051-1.008.511-.137.869-.175 1.32.012.102.04.304-.054.454-.098a.245.245 0 00-.047-.139c-.103-.1-.224-.189-.332-.288-.162-.15-.358-.283-.471-.452-.374-.557-.364-.575-1.218-.545-.477.018-.784-.171-1.09-.406-.168-.131-.19-.217-.006-.29.285-.118.599-.2.846-.353.129-.08.515-.236.131-.422-.835-.401-1.689-.787-2.538-1.173-.209-.098-.591-.144-.631-.265-.346-1.023-1.376-.985-2.407-.953-.69.02-1.139-.603-1.893-.408-.033.008-.154-.149-.201-.236-.012-.018.112-.114.182-.118.419-.018.842-.006 1.263-.038.099-.006.188-.143.262-.228a.364.364 0 00-.176-.12c-.216-.044-.481-.038-.515-.254 0-.04.273-.134.418-.138.587-.018 1.165-.032 1.681.28.308.184.641.029.886-.168.216-.18.475-.144.684-.052.281.123.469.269.859.1.188-.084.571.11.872.157.285.045.526-.138.455-.333-.04-.111-.117-.288-.208-.3-.983-.125-1.863-.579-2.903-.5-.77.06-1.337-.499-2.166-.387-.657.091-1.355.057-2.024.002-.812-.066-1.527-.412-2.401-.402-.882.006-1.713-.368-2.628-.46-.772-.077-1.492-.517-2.216-.825-.878-.372-1.768-.717-2.804-.605-.588.063-.88-.346-1.375-.406-.49-.06-1.011.068-1.475-.165a1.991 1.991 0 00-.687-.191c-.917-.084-1.916.155-2.739-.191-.809-.336-1.768 0-2.421-.346-.823-.438-1.865-.038-2.615-.577-.19-.138-.647-.052-.979-.08-1.062-.097-2.17.15-3.188-.352-.301-.15-.827-.04-1.25-.04-1.185-.006-2.376-.083-3.549.008-1.139.088-2.084-.382-3.15-.453-.072-.006-.149-.072-.19-.124-.014-.014.065-.1.122-.12.451-.15.888-.367 1.361-.425a9.152 9.152 0 012.021-.034c.744.078 1.179-.487 1.899-.42.412.044.841-.011 1.26-.033.071-.002.137-.072.204-.11-.093-.067-.184-.19-.285-.195-.39-.014-.587-.224-.817-.408-.057-.045-.15-.129-.13-.157.059-.087.162-.217.253-.222.761-.032 1.521-.032 2.282-.064.077-.006.157-.14.204-.225.008-.018-.119-.113-.184-.117-.846-.006-1.689-.002-2.536 0-.549.002-.704.244-.672.624.026.283-.109.498-.546.504-1.102.012-2.199.028-3.299.037-.419.006-.411-.006-1.48-.716-.178-.117-.47-.131-.652-.248-.093-.06-.117-.241-.085-.355.051-.17.209-.208.35-.105.324.24.716.276 1.133.235.156-.514.752-.317 1.181-.406.37-.078.21-.27.057-.4-.178-.15-.174-.263.083-.26.985.005 2.002-.25 2.942.198.128.06.365.106.464.058.52-.25 1.017-.477 1.571-.06.471-.286.88-.018 1.323.066.32.058.744.111.997.002.902-.398 1.715.197 2.571.068 1.128.407 2.352.636 3.552.714 1.173.073 2.21.511 3.412.503.77-.006 1.587.297 2.303.58.878.341 1.825.552 2.733.79.813.212 1.78.08 2.682.087-.057-.106-.105-.251-.188-.265-.405-.06-.827-.068-1.238-.106-.491-.04-.678-.262-.392-.664.208-.288.111-.398-.108-.619-.299-.302-1.019-.175-1.096-.66-.253-.138-.51-.27-.756-.42-.265-.16-.496-.328-.874-.334-.835-.012-1.681 0-2.421-.374-1.612.163-3.085-.488-4.693-.472-.887.012-1.775-.282-2.641-.457-.651-.13-1.286-.309-1.942-.257-.813.066-1.422-.308-2.134-.448-.072-.014-.125-.085-.188-.129.124-.066.243-.185.372-.191 1.012-.028 2.027-.028 3.04-.054.154-.002.3-.085.451-.131-.198-.064-.396-.177-.594-.18-1.181-.019-2.365-.03-3.548-.011-.823.014-1.531.446-2.417.368-.835-.068-1.687-.008-2.532.008-.243.002-.52.008-.73.091-1.305.51-2.551.323-3.833-.087-.37-.12-.775-.229-1.165-.306-1.11-.23-2.191-.575-3.398-.504-.821.048-1.63.02-2.427-.332-.455-.197-1.155-.058-1.746-.084-.068-.002-.137-.071-.202-.111.079-.074.154-.209.239-.21.908-.035 1.838.05 2.655-.387.073-.04.288.074.437.12.138.04.344.149.403.111.295-.177.123-.657.75-.65.409.005.821-.052 1.23-.092.054-.006.097-.078.148-.12-.065-.04-.124-.109-.195-.119-.244-.032-.495-.04-.738-.064a.685.685 0 01-.224-.06c-.073-.031-.13-.083-.193-.124.057-.046.102-.11.174-.132 1.362-.438 2.711-.863 4.252-.851 4.055.032 8.111.008 12.168.006.417 0 .855.043 1.165-.255.105-.1.21-.199.313-.3-.109-.066-.214-.178-.331-.185-.334-.032-.676-.02-1.012-.022-.424-.006-.847.014-1.266-.012-.58-.038-1.215.125-1.723-.16-.425-.24-1.23-.163-1.226-.813 0-.06-.426-.165-.653-.171-1.693-.026-3.39-.114-5.067-.008-1.074.068-1.911-.432-2.916-.428-.085 0-.174-.137-.259-.21.065-.04.131-.114.196-.114 1.013-.02 2.027-.032 3.038-.04.235-.002.465-.014.522-.223 0-.022-.275-.11-.429-.13-.406-.053-.815-.085-1.224-.132-.046-.006-.123-.098-.109-.114a.333.333 0 01.184-.13c.32-.05.656-.063.965-.138.109-.026.216-.197.216-.303.006-.223-.119-.334-.44-.189-.579.263-.988-.276-1.59-.195-.556.078-1.167-.038-1.746-.097-.079-.008-.133-.16-.196-.265.148-.006.295-.006.439-.022.21-.022.574.022.352-.282-.119-.165-.354-.277-.506-.432-.117-.12-.445-.328-.026-.4 1.205-.205 2.439-.688 3.649-.372 2.049.531 4.114.245 6.173.302-.012-.196-.182-.296-.423-.336-.718-.123-1.454.04-2.203-.25-.621-.241-1.448-.17-2.18-.255-.202-.022-.204-.151-.012-.27.184-.114.465-.347.566-.309 1.283.491 2.64.175 3.958.245.249.012.506.012.755-.012.156-.014.41-.054.437-.126.398-1.03 1.511-.471 2.297-.622.104-.02.176-.143.261-.217-.066-.04-.137-.12-.196-.114-.861.068-1.612-.194-2.366-.445-.093-.032-.132-.151-.197-.23.15-.047.298-.104.454-.13.163-.026.347.012.501-.032.109-.028.182-.14.269-.215-.065-.044-.123-.113-.194-.12-.247-.027-.504-.017-.75-.053-.239-.038-.391-.16-.439-.348-.556-.058-1.101-.032-1.657-.26-.926-.38-1.937-.651-2.939-.906-.386-.1-.778-.155-1.155-.306-.796-.32-1.603-.689-2.463-.832-.88-.145-1.831-.048-2.753-.058-.417-.006-.837.008-1.252-.02-.253-.02-.455-.133-.469-.36-.012-.19-.043-.386-.02-.577.066-.487-.354-.716-.9-.417-.549.302-1.093.31-1.602.008-.457-.271-.868-.492-1.485-.61-.791-.154-1.537-.407-2.38-.353-.239.018-.48-.002-.721-.006-.046-.2-.216-.327-.465-.337-.758-.027-1.519-.027-2.281-.043-.334-.006-.767.08-.991-.046-1.064-.605-2.041-.113-3.077.008-.463.054-.792.473-1.324.249-.534-.225-.907.165-1.277.294-.463.16-.691.08-1.07-.06-.299-.11-.621.026-.706.327-.165.012-.333.02-.497.031-.065.11-.128.263-.202.265-.998.04-2.001.054-3.004.074-.764-.545-1.851-.146-2.603-.464-.9-.382-1.786-.263-2.686-.308-.587-.032-1.003-.428-1.651-.362-.574.06-1.17-.026-1.759-.046-.374-.533-1.094.209-1.493-.235-1.003-.034-2.004-.1-3.007-.087-.9.008-1.825-.18-2.686.276-.288.155-.814.06-1.232.066-1.094.012-2.19.012-3.281.02-.423.002-.847 0-1.264.022-.495.027-1.07-.144-1.456.15-.411.311-.736-.262-1.078.007-.332.26-.601-.138-.834-.066-.299.094-.481.243-.841.04-.233-.131-.627-.118-.951-.124-1.096-.025-2.192-.013-3.286-.047-.573-.018-1.192.133-1.712-.157-.529-.3-.98.38-1.579.006-.47-.295-1.019.175-1.604.159-2.02-.052-4.043.002-6.064.018-.253 0-.51-.022-.756.012-.227.033-.528.087-.633.214-.112.134-.067.349-.079.534-.415.04-.807.012-1.127-.235-.137-.106-.332-.066-.346.103-.034.422-.34.512-.827.518-1.161.011-2.34-.074-3.424.386-.196.083-.5.027-.75.007-.154-.011-.298-.08-.448-.123.07-.08.118-.209.213-.229.621-.139 1.124-.559 1.848-.463.057.006.13-.074.195-.114-.099-.071-.195-.199-.304-.205-.334-.021-.736-.085-1.003.022-1.175.484-2.433.333-3.671.368-.58.018-1.147-.025-1.703.23-.326.148-.813.117-1.224.119-.92.006-1.786.13-2.688.32-.855.179-1.763.27-2.647.44-1.09.208-1.647.827-2.308 1.39.113.072.222.195.346.205.247.022.582.06.742-.038 1.013-.636 2.294-.69 3.467-.973.86-.208 1.753-.334 2.623-.497.957-.179 2.013-.054 3.026-.054.065 0 .137.068.196.112.113.083.073.19-.142.254-1.31.372-2.572.884-4.035.814-.523-.022-.972.402-1.583.112-.156-.074-.619.143-.874.294-.372.22-.69.314-1.058.026-.319.21-.633.422-.951.63-.54-.4-1 .072-1.502.08-.676.008-1.41-.111-2.007.06-.546.155-1.104.235-1.632.376-1.521.408-3.196.706-3.887 2.073-.195.386-.692-.205-.747-.038-.214.668-.96.55-1.52.74-.887.308-1.878.44-2.588 1.074-.602.538-1.48.794-2.463.748-.334-.017-.676.034-1.01.018-1.187-.057-2.291.094-3.325.585-.4.191-.924.23-1.371.372-.073.026-.123.303-.06.34.315.18.697.3 1.005.486.162.097.35.32.305.434-.063.157-.315.36-.52.382-.657.077-1.331.13-1.99.1-.716-.035-1.31.138-1.903.393-.334.143-.58.434-.469.56.242.274.406-.003.608-.02 1.311-.114 2.523-.655 3.89-.544.53.046.963-.125 1.42-.306.133-.054.574.087.608.189.118.366.07.748.43 1.08.074.072-.229.376-.385.59-.54.015-1.082.015-1.618.055-.221.014-.354.149-.378.326.293.006.586.014.879.008.37-.008.53.155.615.386.832-.002 1.663-.006 2.496-.006 1.746-.68 3.62-.263 5.433-.368.15-.008.315.048.465.091.06.018.097.08.144.12-.065.043-.128.117-.195.119-1.486.048-2.863.637-4.401.46a4.765 4.765 0 00-2.829.539c-.45.244-.983.125-1.406.336-.047.022-.11.097-.099.111.047.052.119.118.19.12.415.028.835.028 1.25.067.119.012.326.15.313.19a.615.615 0 01-.285.302c-.202.103-.435.21-.665.225-.585.037-1.189-.032-1.762.047-1.286.18-2.59.34-3.794.762-.13.046-.233.14-.35.211.139.06.273.163.415.171.335.02.736.084 1-.028 1.344-.553 2.784-.274 4.184-.354.455-.028.772.215 1.142.287 1.054.203 2.171.203 3.188-.074.49-.133.944-.22 1.44-.217 1.582.002 3.163.014 4.745.022-.053.106-.099.257-.178.269-.801.111-1.584.195-2.372.431-.658.197-1.505.14-2.24.058-.895-.1-1.537.452-2.402.394-.737-.048-1.461-.02-2.185.27-.475.192-1.141.1-1.723.138-.273.018-.437.123-.506.336-.077.255.138.34.373.392.157.034.339 0 .5.022.555.084.667.21.62.643-.046.411-.158.497-.801.519l-.73.022c-.065.103-.117.244-.213.264-.722.152-1.466.163-2.172-.022-.299-.08-.605-.346-.892-.189a5.471 5.471 0 00-1.205.925.293.293 0 01-.083.068c.034-.014.113-.022.22.072.207.19.463.491.797.36 1.34-.523 2.763-.257 4.147-.314.228-.008.386.157.426.352.405.006.777.051 1.147.244.241.13.752.221.933.118.782-.452 1.32-.3 1.939.197.324.262.846.402 1.311.525.295.08.752.13.96.012.692-.392 1.45-.245 2.189-.289.82-.047 1.675.126 2.433-.322.457-.268 1.01.505 1.53 0 .416.191.993.31 1.201.591.24.32.42.5.906.497 1.942-.018 3.885-.043 5.823-.012.55.008.932-.31 1.414-.302.39.006.898.34 1.142.237a4.11 4.11 0 011.335-.3l.984-1.922s-.82-.715-.11-1.4c0 0-.083-1.207.11-1.481.19-.275.41-.165.41-.165s0-.44.627-.44c0 0 .083-.356.736-.191l1.448-2.773s-.194-.191.079-.329c0 0-.517-.356.573-.412l1.664-1.975s-.163-.191.164-.191l.49-.577s-.108-.249.165-.165l.545-.577-.164-.11.137-.19.136.109.52-.603-.164-.111.137-.137.194.11.516-.522-.244-.191.137-.195.19.22 1.12-1.316.545.795-.326.52.326.027s-.053.55-.243.687c0 0-.52-.165-.19.274l-.437.333s-.41.053-.41.354c0 .3.3.825-.383.577l-.243.248s.108.852-.438.52l-.164.248s.273.822-.437.382l-.243.303s.574.714-.247.549l-.517.523s-.273-.356-.437-.054c0 0-.79.494-1.362 1.566-.554 1.03-1.059 1.916-1.09 1.974.033-.018.288-.12.162.962-.137 1.154-.083 2.14-.083 2.965 0 .529.022 1.024.415 1.784.267-.002.534-.006.801-.002a3.646 3.646 0 01-.534-.71c-.285-.549.437.394.637.65-.204-.288-1.038-1.51-.99-2.162 0 0 .626 1.922 1.666 1.948 0 0-1.083-1.45-1.214-2.081 0 0 .613 1.176 1.215 1.343 0 0-.465-.715-.491-1.07 0 0 .216.22.872.11 0 0-2.21-.522-2.21-1.702 0 0 .274.686.9.905l-.545-.742s1.39 1.154 2.1.605c0 0-1.01-.44-.353-2.032 0 0-.137 1.837.599 1.81 0 0-.71-1.207-.22-1.784 0 0-.243.796.111 1.154 0 0 .326-1.18.38-1.62v1.18l.656-1.26-.136.82.763-1.37-.053.933.22-.302s.298.22.298.768c0 0 .437-.386.9-.386 0 0-.026-.328-.546-.275l.437-.11-.52-.083.548-.11-.738-.11s1.037-.685 2.02-.054l-.517-.523.764.22-.19-.382.627.221-.275-.386.49.137-.136-.302.71.249-.326-.577.463.302-.163-.44.491.191.026-.493.194.386.079-.826.354.772.083-.634.52 1.319.026-.63.194.492.053-.549.437.466-.083-.686.22.63.053-.66.19.821.247-.328s.572.523.22 1.428c0 0 .352.603.053 1.509l-.028.523.546-1.208s.083 1.154-.653 1.922c0 0 .054.905-1.01 1.454 0 0 .383.054.273.88-.109.821.3.905.546 1.454.247.55.136.66.057 1.399-.067.604-.15 1.408-.182 1.685.018-.26.046-.991-.174-1.658l-.137 1.429-.272-1.07s-.329 1.317-.084 2.303c0 0-.437-.382-.353-1.345 0 0-.546.906-.491 1.566 0 0-.384-.493.109-1.454 0 0-.38.382-.71 1.343-.327.963-.764 1.182-.764 1.182s.546-.88.627-1.95c0 0-1.12 2.25-1.663 2.47l.6-.93-.683.63.378-.817c-.066.097-.588.877-.894.979 0 0 .38-.822.38-1.81l-.327 1.042-.028-1.043s0 .768-.053.852c-.054.083-.164-.412-.164-.412l-.08.63-.138-.686-.136.412-.11-.989-.353.852s0-.605.136-.99c0 0-.326-.027-.41.823-.082.851-.11 2.415-.573 3.047-.463.631-1.226 1.015-1.827.191 0 0-2.02 2.525-2.047 2.937-.026.414-.19.768-.08.933.11.165.463.465.706 1.1.248.63.792 1.81.875 2.276.083.468.053 1.07.136 1.536.083.468.247.933.247 1.182 0 .248.491.053.216.602-.273.55.354.275-.109.796-.463.52-.599.796-.599.796l.546 4.363s.437.026.273.55c-.164.518 0 .41.053.767 0 0 .19.356.083.63 0 0 .3-.11.41.413 0 0 .247-.687.573-.44.327.249.054.22.71-.08.653-.302 1.61-.99 6.138-1.044 4.53-.054 3.71-.356 3.821.248.109.603.38-.027.706-.302.33-.274.821-.328 1.094.028.273.356.574-.302 1.09-.028 0 0 .11-.22.573-.523 0 0 .41-.74.983-.686.574.053 1.064.66 2.538 1.29 1.474.631 3.574 2.167 4.173 4.557 0 0 .084.767-.573.905-.653.137-.817.083-.817.083s-.516-.382-1.12-.382c-.603 0-1.42-.302-1.42-.302s-.243.22-.68-.11c-.437-.332-.22-.356-1.064-.523-.845-.167-1.363-.386-1.363-.386s-.3.249-.928.084c0 0-.52.332-1.337.054 0 0-1.283.825-3.356.55-2.073-.274-6.604 1.18-8.73 1.4-2.13.22-2.865.328-2.865.328s.137.66-.247 1.372c-.178.335-.334.997-.449 1.632.568-.002 1.136-.002 1.701-.012.592-.006 1.179-.018 1.768-.026.355-.54.96.032 1.48-.209.724-.336 1.642-.113 2.476-.11.125 0 .34.132.354.217.087.48.329.486.788.225.259-.149.579-.268.892-.31.259-.034.721.155.79.078.4-.42.788.216 1.278-.054.372-.205 1.005.388 1.559.163.449-.185.837-.394 1.394-.36.588.038 1.199-.064 1.773.018.496.065.761-.478 1.345-.177.304.157.767-.084 1.263.093.53.185 1.13-.483 1.852-.328.47-.322 1.024-.362 1.637-.368 1.055-.012 2.139.131 3.141-.265.602.446 1.013.14 1.496-.17.502-.323 1.058-.584 1.683-.685.142-.27.275-.545.405-.82.768-1.627.894-3.432 1.175-5.189.044-.268.044-.543.06-.817.033-.525.043-1.05.104-1.574.188-1.613 1.025-2.904 2.095-4.058.334-.366.405-.617.085-.983a5.253 5.253 0 00-.957-.874c-.56-.386-.869-.877-.888-1.561-.006-.145-.117-.287-.176-.428-.084-.203-.19-.4-.24-.609-.04-.179-.006-.374-.006-.55-.284-.023-.526-.033-.767-.06-.783-.094-1.395-.4-1.61-1.254-.04-.163-.27-.275-.412-.412-.025-.026-.065-.058-.065-.083.022-.376-.269-.346-.5-.394-.457-.1-.787-.326-.928-.812a4.406 4.406 0 00-.781-1.554c-.315-.394-.445-.933-.657-1.414-.014-.034.002-.084-.006-.124-.097-.513-.19-1.034-.298-1.547a.49.49 0 00-.159-.231 3.444 3.444 0 01-1.032-1.779c-.014-.06-.06-.117-.099-.169-.619-.808-.457-1.633.23-2.127.148-.11.28-.234.52-.433-.35-.23-.637-.412-.924-.6-.344-.224-.815-.38-1.003-.7-.235-.401-.536-.706-.852-1.014-.137-.133-.281-.265-.384-.426-.071-.11-.071-.264-.105-.4.145-.008.309-.067.425-.018.204.094.386.251.572.388.144.112.279.231.417.348-.031-.145-.116-.228-.188-.326-.235-.316-.484-.625-.686-.963-.057-.097.026-.276.046-.418.371.134.834-.073 1.14.303.086.105.16.22.228.31l.129-.563c.164.114.352.205.484.348.113.12.169.3.273.506.078-.303.177-.543.196-.786.048-.575-.012-1.162.103-1.72.164-.82.43-1.619 1.165-2.162.366-.264.625-.684 1.135-.72.054-.002.11-.08.15-.131.24-.289.54-.28.798-.084.24.185.437.17.672.046.526-.277 1.011-.151 1.434.205.236.199.425.458.621.7.13.157.204.372.354.498.451.372.665.8.443 1.382-.011.034-.02.098 0 .12.347.356.125.811.188 1.213.072.448.13.943-.312 1.288-.048.037-.077.113-.093.177-.142.523-.295 1.038-.417 1.565-.074.32-.054.603.314.788.398.203.752.488 1.13.73.05.034.138.074.183.054.386-.177.712.034 1.055.155.278.098.534.064.682-.197.293-.511.761-.65 1.296-.728a.984.984 0 00.541-.31 1.88 1.88 0 011.153-.635c.62-.098 1.102-.426 1.522-.885.201-.217.435-.414.68-.575 1.187-.772 2.385-1.53 3.586-2.282.385-.24.66-.533.775-1.003.048-.203.267-.362.39-.553.17-.269.374-.531.477-.828.207-.614.017-1.175-.305-1.712-.198-.335-.431-.68-.154-1.103.037-.057-.026-.217-.084-.3-.15-.205-.28-.388-.096-.655.13-.185.203-.412.314-.61.018-.028.099-.038.15-.034.463.028.556.642 1.037.668.071.002.158.14.198.235.033.08 0 .189.013.282.06.388.06.802.202 1.16.198.498.412.971.398 1.526-.008.31.043.625.053.937.012.337.085.623.325.894.188.209.326.509.37.785.059.375-.26.585-.574.394-.275-.165-.457-.034-.605.114-.32.332-.62.69-.9 1.06-.528.694-1.017 1.419-1.56 2.101-.739.93-1.573 1.779-2.054 2.897-.164.386-.49.634-.912.768-.148.047-.249.24-.383.354-.184.159-.384.445-.572.441-.536-.008-.738.295-.926.709-.255.559-.469.662-1.042.609-.144.3-.287.594-.425.887.47.71.94 1.444 1.434 2.158.373.538.814 1.025 1.165 1.574.65 1.025 1.26 2.073 1.873 3.118.249.421.48.853.698 1.29.122.243.184.514.308.757.281.543.637.676 1.219.513a2.07 2.07 0 01.48-.08c1.136-.053 2.275-.157 3.41-.13 2.089.045 4.182.099 6.264.294.853.083 1.741.145 2.172 1.034.275.57.411 1.206.593 1.817.198.67.008 1.29-.267 1.904-.67 1.488-1.76 2.52-3.21 3.238a5.701 5.701 0 00-1.566 1.148 25.08 25.08 0 01-3.774 3.255c-.54.382-.999.88-1.505 1.313-.198.171-.396.354-.592.531.503-.014 1.01-.028 1.502.018 1.46.133 2.765-.372 4.145-.549.38-.048.75-.24 1.185-.23.508.011 1.019-.046 1.521-.009.542.044 1.062.04 1.586 0 .807-1.181 2.127-2.93 2.793-3.881.908-1.291 3.096-3.543 3.626-3.836 0 0-.103-.774.46-1.03 0 0 .157-.086-.017-.21-.17-.119-.75-.787-.75-.84 0-.053.443-.998.562-1.668.118-.669.293-2.182.308-2.938.018-.756.289-2.891.991-5.589 0 0 .222-1.048 1.403-2.51 0 0 .154-3.029.136-3.544-.018-.513-.36-1.116-.19-1.942.174-.825.283-1.601.283-1.601s-.916.316-.973.093c-.123-.487.902-.644.92-.696 0 0-.35-2.558-.35-2.781 0-.223-.188-.551-.256-1.082-.067-.534-.547-2.84-.547-6.862 0 0-.034-.55-.24-.826-.204-.274-.018-.189-.425-.412-.411-.224-.769-.636-.769-.636s-.054.445-.242.29a1.865 1.865 0 01-.391-.445c-.119-.172-.242-.518-.242-.518s-.239-.17-.425-.326c-.188-.155-.633-.963.307-.688 0 0-.119-.466.138-.534.255-.067.924-.222.924-.222s.067-.466.051-.792c-.018-.327-.223-1.065-.223-1.6 0-.535.36-.654.411-.24.052.411.103.877.255 1.1.154.222.155 1.03.327 1.343.17.308 1.693 2.99 1.708 3.163.018.17.529 2.302.703 3.25.17.946 1.194 3.783 1.178 4.435-.017.655-.017 1.667.052 1.96.067.294.255 2.03.257 2.033.008.056.362.058.4.054.195-.024.11-.215.126-.386.016-.185.129-.233.18-.245.504-.121 1.068-.097 1.608-.18.301-.049.501.083.518.268.044.445.089.599.066 1.046-.002.042-.07.352-.329.382-.621.072-1.054.113-1.679.122-.043 0-.214.013-.303-.126-.027-.042-.075-.239-.106-.248-.095-.032-.346-.02-.386.053-.079.141.057.756.164.911.154.223.633 1.274.633 1.274s.477.565.477.702.103.398.136.5c.034.103 1.165.24 1.369.222.204-.018.255-.428-.239-1.15-.497-.722-.53-1.136-.327-1.24.208-.103.327-.154.327-.375s.051-.257.391-.29c.344-.039.702-.552.787-.723.085-.175.171-.808.736-.637 0 0-.033-.841.412-.807.443.034.787.654 1.212.29 0 0 .204-.308 1.214-.223 0 0 .699.086.958.257.255.171 1.365-.086 2.326 2.202l-.327-.413.204.499-.253-.336c.038.129.647 2.208.647 3.209 0 1 .17 5.312.324 5.743.131.36.332 2.537 1.062 3.987-.279-.451-.601-1.028-.763-1.48.136.42.914 2.761 1.794 3.842-.133-.13-1.205-1.206-1.832-2.525.032.177.566 3.042 1.244 3.74 0 0-.939-.791-.957-1.325 0 0 .051 1.102.378 1.41 0 0-.327-.05-.497-.996 0 0-.118.603-.033 1.202 0 0-.222-.29-.155-1.15l-.189.533v-1.291s-.204.722-.155 1.253c.052.533.052.808.052.808s-.17-.446-.24-.893c0 0-.284.457-.142.813a1.013 1.013 0 01-.138-.752l-.165.625s-.033-1.253-.136-1.41c0 0-.168 1.022-.054 1.488-.039-.086-.411-.913-.272-1.855-.026.158-.295 1.731-.151 2.19l-.241-.31-.137.277-.136-.67-.239.256-.018-.979-.224 1.168s-.118-.74-.051-1.287c.071-.551-.154-1.928-.154-1.928s-.188.792-.119 1.258l-.164-.826c.039.286.306 2.204.148 2.459 0 0-.136-1.719-.306-2.356 0 0-.281 1.43-.208 1.928-.065-.254-.253-1.195.154-2.146-.053.033-.595.433-.273 2.268 0 0-.631-1.05-.528-2.066 0 0-.429 1.154.067 2.1 0 0-.581-.104-.36-1.137 0 0-.273.12-.358.603 0 0-.051-.74.426-1.359 0 0-.528.261-.58.878 0 0-.034-.854.506-1.504-.059.06-.54.559-.814 1.593 0 0-.202-.511-.002-.82-.038.052-.321.474-.321.715 0 0-.221-.326.289-1.202.514-.877.275-1.96.275-1.96s.018 1.031-.344 1.546c-.358.518-.566.878-.566.878s-.085-.241.445-.963.255-1.373.255-1.373.067.877-.476 1.409c0 0 .373-.774.373-1.254 0 0-1.093.464-1.008 1.393 0 0-.254-.275.148-.853-.071.079-.625.73-.849.747 0 0 .821-.859 1.181-1.51l-.565.498.397-.657c-.067.068-.384.408-1.03 1.208-.736.911-.837 1.134-.888 1.357-.052.225-.204.19-.378.465-.17.275-.067.309-.119.619-.051.308-.051.376.067.585.123.205 2.275 3.318 1.935 4.092 0 0 .085.72.494 1.288.412.568.36.636.718.996.36.362.497.722.651 1.188.154.463 2.53 4.367 2.53 4.367s.395.17.514.465c.006.012.008.022.012.032.105.074.207.16.34.163.678.012 1.357 0 2.033.026.582.02 1.013.394 1.658.368.933-.038 1.904-.006 2.098.97.032.154.194.133.374.013.265-.175.621-.316.892-.084.502.438 1.276.166 1.859.504.53.306 1.286.24 1.891-.058.307-.151.619-.229.946-.159.391.08.747.269 1.139.342.481.088 1.024-.06 1.456.211.36.229.809.14 1.192.237.17.044.259.3.358.467.097.166.184.19.36.118.631-.249 1.147.268 1.808.15.56-.099 1.187.047 1.766-.013.657-.066 1.084.31 1.65.374.581.066 1.303-.064 1.727.157.815.426 1.857.04 2.614.585.345.245.792-.428 1.337-.058.392.265.968.124 1.466.106.332-.008.55-.372.36-.58-.097-.104-.221-.194-.326-.295-.619-.615-.607-.605.287-1.216.243-.165.51-.368.605-.595.176-.426.411-.22.712-.12.599.198 1.143.106 1.61-.25.221-.171.15-.316-.008-.48-.307-.308.117-.256.287-.342.13-.067.613-.073.174-.316-.503-.28-.586-.408-.275-.559.207-.104.435-.18.637-.288.65-.343 1.546-.452 1.782-1.192.071-.225.439-.34.813-.38.287-.032.33-.231.021-.332-.201-.064-.488-.034-.47-.269.006-.054.265-.13.415-.137.334-.026.679 0 1.013-.032.105-.012.293-.185.273-.209-.576-.74.32-.551.637-.513.803.093 1.606.25 2.373.46.32.087.536.26.835-.009.273-.244.795-.447.832-.702.085-.583.56-.531 1.057-.575.144-.012.275-.117.415-.177-.142-.066-.275-.157-.429-.185-.429-.08-.592-.366-.418-.571.262-.314.354-.52-.067-.774a1.432 1.432 0 01-.461-.457c-.057-.088.02-.237.064-.353.012-.031.154-.073.182-.057.435.256.939.22 1.445.25.906.054 1.798-.022 2.706.32.619.231 1.494.078 2.255.068.125 0 .358-.149.35-.215-.022-.177-.087-.42-.249-.497l-.02.02zM47.163 25.053l-.313.63c.24.012.477.018.716.014h.144a2.578 2.578 0 00-.548-.644zM90.47 50.335c-.334.473-.595.834-.848 1.2-1.005 1.444-2.02 2.886-3.01 4.34-.637.93-1.27 1.859-1.9 2.79.24-.032.527 0 .776-.008.255-.008.536.048.758-.02.128-.04.255-.084.38-.13-.008-.268.158-.477.47-.616.679-.31 1.345-.649 2.03-.949.63-.275 1.05-.756 1.408-1.323.24-.38.502-.748.79-1.09.31-.368.745-.488 1.213-.466.366.02.736.1 1.096.072.267-.02.631-.094.767-.28.556-.76 1.292-1.397 1.577-2.362.164-.553.483-1.069.761-1.582.204-.38.457-.734.752-1.202-2.42.76-4.747 1.429-7.021 1.626h.001z" fill="url(#paint0_linear_1653_692)"/><path d="M37.127 59.105c-.64-.11-1.19-.69-1.872-.376-.025.012-.053.022-.079.032.315.199.607.336.801.438.208.109.534.204.912.29.097-.048.194-.094.289-.131.202-.078.194-.21-.051-.251v-.002z" fill="url(#paint1_linear_1653_692)"/><path d="M130.121 40.794a3.223 3.223 0 01-.445-.694c.204.334.384.598.445.694z" fill="url(#paint2_linear_1653_692)"/><defs><linearGradient id="paint0_linear_1653_692" x1="12.043" y1="31.23" x2="176.034" y2="31.23" gradientUnits="userSpaceOnUse"><stop stop-color="#65C1F8"/><stop offset="1" stop-color="#BD9BFF"/></linearGradient><linearGradient id="paint1_linear_1653_692" x1="35.176" y1="59.061" x2="37.32" y2="59.061" gradientUnits="userSpaceOnUse"><stop stop-color="#65C1F8"/><stop offset="1" stop-color="#BD9BFF"/></linearGradient><linearGradient id="paint2_linear_1653_692" x1="129.676" y1="40.448" x2="130.121" y2="40.448" gradientUnits="userSpaceOnUse"><stop stop-color="#65C1F8"/><stop offset="1" stop-color="#BD9BFF"/></linearGradient></defs></svg>