<svg width="189" height="111" viewBox="0 0 189 111" fill="none" xmlns="http://www.w3.org/2000/svg">
<path d="M13.4794 84.5228H9.52358V73.9746H6.7387V84.5228H2.78488V73.9746H0V85.999C0 86.8525 0.474695 87.324 1.33508 87.324H14.9292C15.8014 87.324 16.284 86.8545 16.284 85.999V73.9746H13.4814V84.5228H13.4794Z" fill="#15112B"/>
<path d="M26.6028 80.514C27.3108 80.0624 27.8469 79.3979 28.3611 78.3634L30.5625 73.9766H27.5423L25.5248 77.9555C24.884 79.2129 24.6506 79.3919 22.5164 79.3919H21.573V73.9766H18.7881V87.326H21.573V81.9862H22.5164C24.9156 81.9862 25.1905 82.1792 25.8076 83.3848L27.8251 87.326H30.9423L28.6796 82.8994C28.0684 81.6997 27.5363 80.9457 26.6028 80.516V80.514Z" fill="#15112B"/>
<path d="M38.4858 73.9746H36.7532C32.8132 73.9746 30.7285 76.2924 30.7285 80.6772C30.7285 85.062 32.8112 87.324 36.7532 87.324H38.4858C42.4258 87.324 44.5105 85.0262 44.5105 80.6772C44.5105 76.3282 42.4278 73.9746 38.4858 73.9746ZM41.7078 80.6593C41.7078 83.4047 40.7743 84.5248 38.4858 84.5248H36.7532C34.4213 84.5248 33.5134 83.4465 33.5134 80.6792C33.5134 77.9118 34.4529 76.7758 36.7532 76.7758H38.4858C40.7743 76.7758 41.7078 77.9018 41.7078 80.6593Z" fill="#15112B"/>
<path d="M53.4172 73.748C51.5896 73.748 51.0417 74.6831 50.3554 76.2249L47.5686 82.4162C46.6508 84.4335 46.4194 84.5231 45.7528 84.5231H45.019V87.3243H45.7133C48.2035 87.3243 48.8443 86.1047 50.0567 83.3493L52.9346 76.8039C53.079 76.4975 53.2115 76.4736 53.3579 76.4736C53.5339 76.4736 53.7356 76.5194 53.7356 76.8735V87.3263H56.5383V76.7601C56.5383 74.8761 55.3694 73.75 53.4132 73.75L53.4172 73.748Z" fill="#15112B"/>
<path d="M65.2786 73.748C63.722 73.748 62.7885 74.331 62.3434 75.5744L57.729 87.3243H60.7809L61.8153 84.6922H68.5481L69.5469 87.3243H72.6147L68.1802 75.5863C67.751 74.333 66.8293 73.748 65.2786 73.748ZM67.5453 82.0064H62.8676L64.8771 76.8715C64.9622 76.6766 65.065 76.6049 65.2608 76.6049C65.4567 76.6049 65.5496 76.6726 65.6188 76.8576L67.5473 82.0044L67.5453 82.0064Z" fill="#15112B"/>
<path d="M93.7485 73.748C91.8695 73.748 90.758 74.6453 90.3485 76.4856L88.5605 84.3022C88.4497 84.7479 88.2084 84.8076 87.9849 84.8076C87.7614 84.8076 87.5221 84.7479 87.4114 84.3082L85.6233 76.4876C85.2238 74.695 84.0232 73.748 82.1482 73.748C80.0615 73.748 78.8174 74.9238 78.8174 76.8914V87.3263H81.5825V77.0068C81.5825 76.6547 81.7921 76.4756 82.2055 76.4756C82.5517 76.4756 82.7455 76.6228 82.8167 76.9392L84.6245 84.7598C85.0537 86.6399 86.1475 87.555 87.9671 87.555C89.7868 87.555 90.8054 86.6677 91.2524 84.7618L93.08 76.9392C93.1532 76.6149 93.3371 76.4776 93.6912 76.4776C94.1046 76.4776 94.3142 76.6567 94.3142 77.0088V87.3282H97.0793V76.8934C97.0793 74.9258 95.8332 73.75 93.7485 73.75V73.748Z" fill="#15112B"/>
<path d="M111.617 73.9746H109.884C106.381 73.9746 104.326 75.8268 103.924 79.3343H102.37V73.9746H99.585V87.324H102.37V81.9266H103.922C104.286 85.4599 106.341 87.324 109.884 87.324H111.617C115.556 87.324 117.641 85.0262 117.641 80.6772C117.641 76.3282 115.558 73.9746 111.617 73.9746ZM109.884 76.7738H111.617C113.905 76.7738 114.837 77.8999 114.837 80.6573C114.837 83.4147 113.933 84.5228 111.617 84.5228H109.884C107.552 84.5228 106.644 83.4386 106.644 80.6573C106.644 77.876 107.584 76.7738 109.884 76.7738Z" fill="#15112B"/>
<path d="M128.977 80.6195C129.952 80.0187 130.446 79.0339 130.446 77.685C130.446 75.3275 128.793 73.9746 125.909 73.9746H119.283V76.7738H125.909C127.013 76.7738 127.549 77.2015 127.549 78.0829C127.549 78.7016 127.351 79.3343 125.891 79.3343H121.749V81.9266H125.947C127.434 81.9266 127.604 82.6408 127.604 83.178C127.604 84.0832 127.068 84.5248 125.964 84.5248H119.263V87.326H125.964C128.793 87.326 130.482 85.9393 130.482 83.6156C130.482 82.221 129.987 81.2362 128.975 80.6215L128.977 80.6195Z" fill="#15112B"/>
<path d="M143.364 73.748C141.224 73.748 140.468 75.0392 140.021 76.2807L136.317 84.4335C136.188 84.6922 136.016 84.8076 135.759 84.8076C135.543 84.8076 135.286 84.732 135.286 84.3699V73.9748H132.501V84.4654C132.501 86.427 133.668 87.5511 135.702 87.5511C137.856 87.5511 138.625 86.1863 139.044 85.0185L142.753 76.8576C142.879 76.587 143.052 76.4716 143.327 76.4716C143.623 76.4716 143.779 76.6288 143.779 76.9272V87.3243H146.582V76.8138C146.582 74.894 145.38 73.748 143.364 73.748Z" fill="#15112B"/>
<path d="M156.883 80.514C157.591 80.0624 158.127 79.3979 158.641 78.3634L160.843 73.9766H157.823L155.805 77.9555C155.162 79.2129 154.931 79.3919 152.797 79.3919H151.853V73.9766H149.068V87.326H151.853V81.9862H152.797C155.196 81.9862 155.471 82.1792 156.086 83.3848L158.103 87.326H161.221L158.958 82.8994C158.347 81.6997 157.815 80.9457 156.881 80.516L156.883 80.514Z" fill="#15112B"/>
<path d="M169.8 73.748C167.973 73.748 167.425 74.6831 166.739 76.2249L163.952 82.4162C163.034 84.4335 162.803 84.5231 162.136 84.5231H161.402V87.3243H162.097C164.587 87.3243 165.228 86.1047 166.44 83.3493L169.318 76.8039C169.462 76.4975 169.595 76.4736 169.741 76.4736C169.917 76.4736 170.119 76.5194 170.119 76.8735V87.3263H172.922V76.7601C172.922 74.8761 171.753 73.75 169.797 73.75L169.8 73.748Z" fill="#15112B"/>
<path d="M184.564 75.5863C184.134 74.333 183.213 73.748 181.662 73.748C180.111 73.748 179.17 74.331 178.727 75.5744L174.112 87.3243H177.164L178.201 84.6922H184.933L185.932 87.3243H189L184.566 75.5863H184.564ZM183.929 82.0044H179.249L181.258 76.8695C181.343 76.6746 181.446 76.6029 181.642 76.6029C181.838 76.6029 181.931 76.6706 182 76.8556L183.929 82.0024V82.0044Z" fill="#15112B"/>
<path d="M19.0998 95.6389H23.0378V94.3418H19.0998C16.0123 94.3418 14.4458 96.1005 14.4458 99.5662C14.4458 103.032 16.0123 104.771 19.0998 104.771H23.0378V103.472H19.0998C16.8054 103.472 15.7374 102.23 15.7374 99.5662C15.7374 96.9023 16.8054 95.6389 19.0998 95.6389Z" fill="#262433"/>
<path d="M25.1045 94.3438V95.6409H28.3166V104.773H29.622V95.6409H32.8341V94.3438H25.1065H25.1045Z" fill="#262433"/>
<path d="M40.9675 95.364C40.6767 94.5106 40.0834 94.1465 38.9837 94.1465C37.8839 94.1465 37.2688 94.5106 36.9662 95.364L33.2715 104.772H34.7094L35.6074 102.494H42.1997L42.2769 102.699L43.0621 104.772H44.5198L40.9655 95.364H40.9675ZM36.0742 101.295L36.2443 100.857L38.1193 96.0703C38.2835 95.6903 38.5762 95.4914 38.9678 95.4914C39.3595 95.4914 39.6581 95.6943 39.8005 96.0763L41.7567 101.295H36.0761H36.0742Z" fill="#262433"/>
<path d="M50.5363 95.6389H54.4743V94.3418H50.5363C47.4507 94.3418 45.8862 96.1005 45.8862 99.5662C45.8862 103.032 47.4507 104.771 50.5363 104.771H54.4743V103.472H50.5363C48.2419 103.472 47.1719 102.23 47.1719 99.5662C47.1719 96.9023 48.2419 95.6389 50.5363 95.6389Z" fill="#262433"/>
<path d="M64.2233 95.364C63.9326 94.5106 63.3392 94.1465 62.2395 94.1465C61.1398 94.1465 60.5267 94.5106 60.2221 95.364L56.5273 104.772H57.9692L58.8593 102.494H65.4576L65.5347 102.699L66.3199 104.772H67.7776L64.2233 95.364ZM59.33 101.295L59.5001 100.857L61.3752 96.0703C61.5433 95.6883 61.836 95.4914 62.2237 95.4914C62.6114 95.4914 62.9179 95.6943 63.0603 96.0763L65.0105 101.295H59.33Z" fill="#262433"/>
<path d="M81.6885 94.3438V100.131H78.065C76.5796 100.131 75.7607 99.3414 75.7607 97.9109V94.3438H74.4355V98.0562C74.4355 100.334 75.5531 101.44 77.8534 101.44H81.6885V104.771H82.9959V94.3418H81.6885V94.3438Z" fill="#262433"/>
<path d="M94.327 94.3438L90.4958 100.818L90.2229 100.35L86.8427 94.3438H85.4087L89.8095 101.999L89.5306 102.453C89.0362 103.247 88.6346 103.473 87.7288 103.473H86.1702V104.773H87.4044C89.2616 104.773 89.944 104.373 90.8756 102.735L95.7808 94.3438H94.327Z" fill="#262433"/>
<path d="M105.742 94.3438V98.8539H99.4874V94.3438H98.1938V104.773H99.4874V100.149H105.742V104.773H107.047V94.3438H105.742Z" fill="#262433"/>
<path d="M119.163 94.1445C117.931 94.1445 117.265 94.6598 116.788 95.9868L113.568 103.075C113.356 103.497 113.014 103.718 112.579 103.718C112.002 103.718 111.614 103.34 111.614 102.779V94.3435H110.32V102.858C110.32 104.239 111.086 104.967 112.534 104.967C113.762 104.967 114.426 104.452 114.907 103.129L118.127 96.0385C118.329 95.6088 118.675 95.38 119.13 95.38C119.7 95.38 120.083 95.764 120.083 96.3389V104.772H121.389V96.2375C121.389 94.8687 120.619 94.1465 119.163 94.1465V94.1445Z" fill="#262433"/>
<path d="M130.285 99.4667L130.459 99.2578L134.714 94.3438H133.175L129.486 98.5992L129.249 98.3108L125.969 94.3438H124.456L128.655 99.3234L128.475 99.5283L124.001 104.771H125.548L129.443 100.201L129.682 100.489L133.238 104.771H134.753L130.279 99.4667H130.285Z" fill="#262433"/>
<path d="M145.891 94.1445C144.659 94.1445 143.994 94.6598 143.518 95.9868L140.298 103.075C140.086 103.497 139.744 103.718 139.309 103.718C138.729 103.718 138.339 103.34 138.339 102.779V94.3435H137.05V102.858C137.05 104.239 137.813 104.967 139.257 104.967C140.489 104.967 141.156 104.452 141.633 103.129L144.855 96.0385C145.056 95.6088 145.402 95.38 145.859 95.38C146.429 95.38 146.813 95.764 146.813 96.3389V104.772H148.118V96.2375C148.118 94.8687 147.349 94.1465 145.891 94.1465V94.1445Z" fill="#262433"/>
<path d="M158.935 94.3438V98.8539H152.679V94.3438H151.39V104.773H152.679V100.149H158.935V104.773H160.241V94.3438H158.935Z" fill="#262433"/>
<path d="M170.348 95.364C170.055 94.5106 169.462 94.1465 168.362 94.1465C167.262 94.1465 166.653 94.5106 166.347 95.364L162.652 104.772H164.092L164.986 102.494H171.58L171.657 102.699L172.44 104.772H173.9L170.346 95.364H170.348ZM165.455 101.295L165.625 100.857L167.5 96.0703C167.664 95.6903 167.957 95.4914 168.348 95.4914C168.74 95.4914 169.04 95.6943 169.181 96.0783L171.135 101.295H165.455Z" fill="#262433"/>
<path d="M117.908 52.2787C117.908 52.2787 117.38 52.1931 117.172 52.0558C116.968 51.9186 116.318 52.4537 115.977 52.5731C115.977 52.5731 114.431 53.6633 112.827 54.9466C112.924 54.9008 113.017 54.8531 113.107 54.7954C113.849 54.8172 114.634 54.6064 115.297 55.044C115.36 55.0878 115.435 55.1375 115.511 55.1435C116.333 55.2151 117.154 55.1037 117.961 55.4718C118.566 55.7463 119.468 55.4579 120.072 55.9234C120.111 55.9552 120.236 55.9174 120.319 55.9214C120.633 55.9274 120.845 55.4579 121.161 55.7384C121.561 56.0905 121.84 55.4976 122.232 55.7324C122.323 55.7861 122.435 55.8259 122.56 55.8558C121.347 54.6601 119.377 52.8695 117.91 52.2807L117.908 52.2787ZM42.6389 26.8392C42.2612 26.8451 42.0139 26.9685 41.9724 27.2808C41.9388 27.5236 42.0199 27.824 41.6717 27.9612C41.3316 28.0945 40.8687 28.3213 40.5977 28.2378C39.8996 28.0269 39.4189 28.5641 38.7464 28.4148C38.1808 28.2915 37.6368 28.5083 37.083 28.7113C36.5154 28.9222 35.742 28.6536 35.1744 29.0515C35.0695 29.1251 34.8618 29.1291 34.6997 29.135C33.8571 29.1569 32.9057 28.9918 32.1976 29.2345C31.3689 29.523 30.5599 29.4335 29.7608 29.5747C27.6821 29.9428 25.5954 30.275 23.6946 31.0967C22.6899 31.5304 22.4228 32.2048 22.1954 32.9469C22.1321 33.1558 22.3635 33.3985 22.5138 33.3149C23.3267 32.8772 24.3196 32.7758 25.182 32.4316C25.2196 32.4177 25.2275 32.36 25.2394 32.3023C25.5697 32.4217 25.898 32.539 26.2283 32.6564C26.2659 32.9588 25.9475 33.1538 25.7022 33.2155C24.919 33.4144 24.4265 33.9297 23.7243 34.2062C23.665 34.4469 23.8113 34.8289 23.4454 34.8707C22.6444 34.9582 22.1262 35.3621 21.4814 35.6327C21.0858 35.7978 20.5814 36.2872 19.9485 35.8555C19.9109 35.8296 19.6498 35.9331 19.5747 36.0186C19.3353 36.2753 19.1652 36.5697 18.916 36.8204C18.6411 37.0969 18.5264 37.3974 18.6312 37.7236C18.7558 38.1156 19.1 38.3543 19.6142 38.4398C19.634 38.1494 19.5668 37.8052 20.0711 37.7137C20.9493 37.5565 21.3014 37.6739 21.7088 38.1394C21.8928 38.3443 22.0985 38.5413 22.32 38.7243C22.5415 38.9094 22.9668 38.8556 23.1547 38.6209C23.3248 38.41 23.4415 38.1752 23.6195 37.9703C23.8806 37.6699 24.2959 37.6739 24.7014 37.6818C24.6994 37.6938 24.6935 37.7077 24.6895 37.7196H24.7409C24.735 37.837 24.7192 37.9564 24.7528 38.0678C24.7864 38.1812 24.8913 38.2827 24.9664 38.3881C25.0455 38.2827 25.1563 38.1852 25.1959 38.0718C25.2334 37.9604 25.2137 37.835 25.2097 37.7157H25.2473C25.2473 37.7157 25.2394 37.6978 25.2334 37.6898C25.985 37.6838 26.5309 37.9405 26.7149 38.5015C26.8177 38.8158 26.9344 39.1003 27.1342 39.3888C27.3814 39.741 27.154 40.0434 26.5942 39.9996C25.7793 39.9399 25.1741 40.4532 24.4304 40.3816C23.6017 40.304 23.036 40.8073 22.2725 40.8272C21.6772 40.8451 21.6772 41.1992 21.697 41.5235C21.7029 41.6409 21.8057 41.7543 21.8789 41.8637C21.8849 41.8697 22.0213 41.8419 22.0807 41.81C22.4149 41.619 22.7591 41.251 23.0795 41.2649C23.9616 41.2987 24.6697 40.8829 25.4906 40.8392C26.2461 40.7994 27.0096 40.8173 27.7671 40.8392C28.0322 40.8451 28.2102 40.9963 28.2576 41.2072C28.317 41.4638 28.3862 41.8041 28.0223 41.8836C27.4546 42.003 27.0373 42.3372 26.4004 42.389C25.8604 42.4327 25.3442 42.7152 24.8418 42.9221C24.7528 42.9599 24.7627 43.1529 24.7627 43.2763C24.7627 43.324 24.8418 43.3936 24.9071 43.4135C25.0554 43.4613 25.2137 43.511 25.3699 43.513C26.5567 43.521 27.7414 43.5051 28.9242 43.5329C29.387 43.5448 29.6956 43.3121 30.0773 43.2424C30.2731 43.2046 30.5678 43.5588 30.8942 43.3001C31.0564 43.1688 31.179 43.1907 31.2858 43.3598C31.3629 43.4792 31.2008 43.8512 31.0386 43.8393C30.1643 43.7657 29.5373 44.3725 28.6532 44.3108C27.8126 44.2511 27.1263 44.7306 26.2402 44.7246C25.451 44.7167 24.6559 45.0131 23.8667 45.1901C23.5542 45.2578 23.2476 45.4329 22.9411 45.4309C21.2322 45.413 19.7784 46.0914 18.1941 46.4077C17.3515 46.5768 16.6632 46.9827 16.23 47.5357C15.969 47.87 15.7791 48.1664 15.2708 48.3236C15.0473 48.3912 15.0374 48.6518 15.2114 48.815C15.431 49.0239 15.7138 49.3024 15.52 49.4974C15.075 49.955 14.978 50.6115 14.2245 50.886C13.7814 51.0452 13.3126 51.1725 12.8617 51.3177C12.7885 51.3436 12.7331 51.4013 12.6718 51.4431C12.7747 51.5147 12.8676 51.6321 12.9804 51.646C13.3858 51.6997 13.8427 51.6281 14.1335 51.9345C14.2502 52.0598 14.5706 52.1235 14.3412 52.3821C14.1137 52.6368 13.9436 52.9272 13.8012 53.2197C13.548 53.737 13.2355 54.1189 12.3712 54.0593C12.0468 54.0374 11.9024 54.5268 12.2011 54.6342C12.6777 54.7973 13.0357 54.9764 13.1861 55.4002C13.2909 55.6946 13.4867 56.0249 13.7854 56.2119C14.1829 56.4625 14.537 56.1124 14.9009 55.9871C15.3558 55.8319 15.7019 56.4904 16.2459 56.0666C16.5188 55.8518 16.9559 55.7324 17.3476 55.6469C17.6482 55.5792 18.1031 55.5215 18.2989 55.6409C18.8152 55.9552 19.369 55.9751 19.9663 55.9751C20.3243 55.9751 20.6309 56.0547 20.6388 56.3969C20.6467 56.7192 20.6922 57.0574 20.1107 57.133C20.0316 57.1449 19.9564 57.1807 19.8832 57.2066C19.6755 57.2842 19.7052 57.4613 19.9228 57.4434C20.7634 57.3837 20.4588 58.1914 21.1155 58.2889C21.5921 58.3625 22.0589 58.5455 22.4703 58.7485C22.7176 58.8658 22.856 59.1145 23.0439 59.3055C22.8105 59.3632 22.5811 59.4229 22.3457 59.4706C22.2666 59.4885 22.1578 59.4527 22.0965 59.4826C21.9917 59.5303 21.9086 59.6119 21.8176 59.6795C21.8849 59.7193 21.9501 59.785 22.0213 59.7909C22.2705 59.8088 22.5257 59.8049 22.7789 59.8088C23.5404 59.8168 24.3038 59.8467 25.0653 59.8168C25.6053 59.7969 26.0246 59.9223 26.4657 60.151C26.8434 60.346 27.0571 60.1888 26.9483 59.7651C26.9107 59.6199 26.8375 59.5224 27.0867 59.5005C27.5041 59.4667 27.9273 59.4746 28.3466 59.4488C29.0884 59.403 29.8083 59.4289 30.5579 59.1802C31.2106 58.9653 32.0453 59.0708 32.8029 59.0409C33.6039 59.0031 34.399 59.0847 35.1704 58.7544C34.1854 58.1377 32.9868 56.944 33.9777 54.5526C33.9777 54.5526 36.0783 51.3675 38.4517 49.3104C38.4517 49.3104 40.4989 47.2254 41.1793 46.8693C41.1793 46.8693 40.7164 46.541 40.6076 46.2923C40.4969 46.0476 39.3497 45.4707 39.2132 44.2869C39.2132 44.2869 38.697 44.2332 38.341 44.5078C37.9869 44.7823 37.4133 45.6895 36.5411 45.2757C35.6669 44.8639 35.4473 44.454 35.6392 44.0701C35.833 43.6841 36.5134 42.1204 36.5134 42.1204C36.5134 42.1204 36.0763 41.8757 36.4303 41.5434C36.4303 41.5434 36.6202 41.3524 36.8674 41.4897L37.2769 40.9128C37.2769 40.9128 36.814 40.5845 36.8931 40.5845C36.9723 40.5845 37.1404 40.5308 37.1404 40.5308C37.1404 40.5308 36.6499 40.0374 37.2235 39.9538C37.2235 39.9538 36.5431 39.351 37.6032 39.2396C37.6032 39.2396 37.1127 38.8278 37.6309 38.5254C38.1511 38.225 38.4221 38.0061 39.1044 37.9484C39.1044 37.9484 39.5416 36.3569 39.8956 35.4516C40.2496 34.5464 41.0151 33.2552 41.4779 33.3925L44.8502 26.8133C44.1085 26.8213 43.3688 26.8272 42.6291 26.8352L42.6389 26.8392ZM45.4159 60.6225C45.4159 60.6225 45.5801 60.4574 44.0788 60.3201C42.5776 60.1829 40.1784 59.964 39.7117 59.9083C39.3715 59.8685 37.9335 59.7233 36.8872 59.4866C36.6123 59.6199 36.3334 59.7671 36.0644 59.7611C34.7471 59.7352 33.3784 60.1152 32.1086 59.5323C31.9781 59.4726 31.6735 59.4388 31.6438 59.4786C31.2146 60.0277 30.3404 59.6935 29.8261 60.0297C29.6521 60.1431 29.5393 60.3122 29.3969 60.4574C29.5532 60.4972 29.7055 60.5708 29.8617 60.5748C31.7249 60.5927 33.5861 60.5967 35.4493 60.6066C35.6174 60.6066 35.7954 60.5728 35.9556 60.6007C36.6736 60.732 37.1701 60.0695 37.8781 60.2724C38.4972 60.4495 39.0649 60.7459 39.6958 60.8971C40.1606 61.0085 40.6887 61.0025 41.1911 61.0025C42.7022 61.0025 44.2094 61.0025 45.7205 61.0005C45.6335 60.9031 45.5326 60.7797 45.4159 60.6245V60.6225ZM48.1078 26.499C47.8725 26.5248 47.6391 26.5766 47.4057 26.682C47.1129 26.8153 46.6897 26.7954 46.304 26.7994C45.4634 28.5223 44.2845 30.9793 44.1085 31.5801C44.1738 31.4767 45.2379 29.8294 45.6335 29.0614C45.6335 29.0614 45.8234 28.95 46.124 29.0614C46.124 29.0614 47.4611 29.0336 47.6232 28.8127C47.7874 28.5919 47.8982 28.2636 48.6339 28.2935L49.0711 28.1284C49.0711 28.1284 48.4757 27.1993 48.1059 26.501L48.1078 26.499ZM48.2265 54.1707C47.5461 51.5923 46.3989 50.0803 46.3989 50.0803C46.3989 50.0803 44.2984 51.7574 43.6951 52.3582C43.0958 52.9611 41.2425 54.2522 40.9419 54.3338C40.6413 54.4174 39.769 55.2669 39.769 55.2669C39.769 55.2669 40.9419 55.3763 41.5689 55.5951C42.1959 55.814 43.9958 56.5541 45.0322 56.8027C46.0706 57.0475 46.6699 57.4593 47.5698 57.4891C48.4698 57.519 49.4805 57.5727 50.1629 57.517C50.1629 57.517 48.9089 56.749 48.2265 54.1667V54.1707ZM50.4912 26.4433C50.6593 26.686 50.8551 26.9526 51.0905 27.245L51.4881 26.4194C51.1558 26.4254 50.8235 26.4333 50.4912 26.4413V26.4433ZM175.783 48.626C175.516 48.4967 175.152 48.4827 175.071 48.1863C174.867 48.0948 174.668 47.9953 174.456 47.9177C174.151 47.8083 174.027 47.2552 173.53 47.6372C173.125 47.9456 172.891 47.2115 172.533 47.5914C172.401 47.7347 172.286 47.7168 172.136 47.6233C171.554 47.2552 171.4 46.4296 170.29 46.6047C170.225 46.6166 170.051 46.4276 170.022 46.3182C169.968 46.1332 169.974 45.9362 169.974 45.7432C169.968 45.2299 170.02 45.2001 170.842 45.0569C171.066 45.0171 171.299 44.9534 171.487 44.8579C171.645 44.7724 171.436 44.3347 171.155 44.2093C170.874 44.08 170.536 44.0144 170.289 43.8612C169.871 43.6005 170.374 43.5866 170.508 43.5409C170.747 43.4573 170.999 43.3837 170.979 43.1668C170.961 42.9958 170.846 42.8147 170.72 42.6635C170.607 42.5302 170.611 42.4208 170.85 42.4069C171.305 42.379 171.859 42.2179 172.045 42.7431C172.181 42.7948 172.369 42.8306 172.415 42.9142C172.571 43.1947 172.585 43.525 173.162 43.5429C173.483 43.5508 173.813 43.6483 174.106 43.7577C174.434 43.8811 174.784 43.9825 174.964 43.6941C175.093 43.4891 175.087 43.1808 174.992 42.9579C174.81 42.5382 174.114 42.373 174.035 41.8518C173.991 41.5812 173.716 41.7344 173.509 41.818C172.878 42.0786 172.205 42.0686 171.616 41.7961C171.224 41.6131 170.838 41.5932 170.423 41.5534C170.324 41.5454 170.245 41.4201 170.156 41.3485C170.306 41.3027 170.457 41.249 170.611 41.2112C170.69 41.1933 170.781 41.2092 170.864 41.1933C171.44 41.0898 171.44 40.865 171.6 40.5944C171.808 40.2343 170.431 39.914 171.651 39.5858C172.162 39.4485 172.52 39.4107 172.971 39.5977C173.073 39.6375 173.275 39.544 173.425 39.5002C173.431 39.5002 173.414 39.3968 173.378 39.361C173.275 39.2615 173.154 39.172 173.046 39.0725C172.884 38.9233 172.688 38.79 172.575 38.6209C172.201 38.0638 172.211 38.0459 171.357 38.0758C170.88 38.0937 170.573 37.9047 170.267 37.6699C170.099 37.5386 170.077 37.4531 170.261 37.3794C170.546 37.2621 170.86 37.1805 171.107 37.0273C171.236 36.9477 171.622 36.7906 171.238 36.6055C170.403 36.2037 169.549 35.8177 168.7 35.4317C168.491 35.3343 168.109 35.2885 168.069 35.1671C167.723 34.1445 166.693 34.1824 165.662 34.2142C164.972 34.2341 164.523 33.6114 163.769 33.8063C163.736 33.8143 163.615 33.6571 163.568 33.5696C163.556 33.5517 163.68 33.4562 163.75 33.4522C164.169 33.4343 164.592 33.4462 165.013 33.4144C165.112 33.4084 165.201 33.2712 165.275 33.1856C165.275 33.1717 165.166 33.0762 165.099 33.0662C164.883 33.0225 164.618 33.0285 164.584 32.8116C164.584 32.7718 164.857 32.6783 165.002 32.6743C165.589 32.6564 166.167 32.6425 166.683 32.9548C166.991 33.1379 167.324 32.9827 167.569 32.7857C167.785 32.6067 168.044 32.6425 168.253 32.734C168.534 32.8574 168.722 33.0026 169.112 32.8335C169.3 32.7499 169.683 32.9449 169.984 32.9906C170.269 33.0364 170.51 32.8534 170.439 32.6584C170.399 32.547 170.322 32.3699 170.231 32.358C169.248 32.2327 168.368 31.7791 167.328 31.8586C166.558 31.9183 165.991 31.3593 165.162 31.4707C164.505 31.5622 163.807 31.5284 163.138 31.4727C162.326 31.407 161.611 31.0609 160.737 31.0708C159.855 31.0768 159.024 30.7027 158.109 30.6112C157.337 30.5336 156.617 30.094 155.893 29.7856C155.015 29.4136 154.125 29.0694 153.089 29.1808C152.501 29.2445 152.209 28.8346 151.714 28.7749C151.224 28.7153 150.703 28.8426 150.239 28.6098C150.037 28.5103 149.788 28.4387 149.552 28.4188C148.635 28.3353 147.636 28.574 146.813 28.2278C146.004 27.8916 145.045 28.2278 144.392 27.8817C143.569 27.444 142.527 27.8439 141.777 27.3047C141.587 27.1674 141.13 27.253 140.798 27.2251C139.736 27.1276 138.628 27.3743 137.61 26.873C137.309 26.7238 136.783 26.8332 136.36 26.8332C135.175 26.8272 133.984 26.7496 132.811 26.8412C131.672 26.9287 130.727 26.4592 129.661 26.3876C129.589 26.3816 129.512 26.3159 129.471 26.2642C129.457 26.2503 129.536 26.1647 129.593 26.1448C130.044 25.9936 130.481 25.7768 130.954 25.7191C131.615 25.6395 132.315 25.6156 132.975 25.6853C133.719 25.7629 134.154 25.1979 134.874 25.2655C135.286 25.3093 135.715 25.2536 136.134 25.2317C136.205 25.2297 136.271 25.1601 136.338 25.1223C136.245 25.0546 136.154 24.9313 136.053 24.9273C135.663 24.9134 135.466 24.7025 135.236 24.5194C135.179 24.4737 135.086 24.3901 135.106 24.3623C135.165 24.2747 135.268 24.1454 135.359 24.1395C136.12 24.1076 136.88 24.1076 137.641 24.0758C137.718 24.0698 137.798 23.9365 137.845 23.851C137.853 23.8331 137.726 23.7376 137.661 23.7336C136.815 23.7276 135.972 23.7316 135.125 23.7336C134.576 23.7356 134.421 23.9783 134.453 24.3583C134.479 24.6408 134.344 24.8557 133.907 24.8616C132.805 24.8736 131.708 24.8895 130.608 24.8994C130.189 24.9054 130.197 24.8935 129.128 24.1832C128.95 24.0658 128.658 24.0519 128.476 23.9345C128.383 23.8748 128.359 23.6938 128.391 23.5804C128.442 23.4093 128.6 23.3715 128.741 23.475C129.065 23.7157 129.457 23.7515 129.874 23.7097C130.03 23.1964 130.626 23.3934 131.055 23.3039C131.425 23.2263 131.265 23.0333 131.112 22.904C130.934 22.7548 130.938 22.6414 131.195 22.6434C132.18 22.6493 133.197 22.3947 134.137 22.8423C134.265 22.902 134.502 22.9478 134.601 22.9C135.121 22.6493 135.618 22.4225 136.172 22.8403C136.643 22.5538 137.052 22.8224 137.495 22.906C137.815 22.9637 138.239 23.0174 138.492 22.908C139.394 22.5101 140.207 23.1049 141.063 22.9756C142.191 23.3834 143.415 23.6122 144.615 23.6898C145.788 23.7634 146.825 24.2011 148.027 24.1932C148.797 24.1872 149.614 24.4896 150.33 24.7721C151.208 25.1143 152.155 25.3252 153.063 25.5639C153.876 25.7748 154.843 25.6435 155.745 25.6495C155.688 25.544 155.64 25.3988 155.557 25.3849C155.152 25.3252 154.73 25.3172 154.319 25.2794C153.828 25.2396 153.641 25.0168 153.927 24.6149C154.135 24.3265 154.038 24.217 153.819 23.9962C153.52 23.6938 152.8 23.8211 152.723 23.3357C152.47 23.1984 152.213 23.0651 151.967 22.9159C151.702 22.7568 151.471 22.5877 151.093 22.5817C150.258 22.5697 149.412 22.5817 148.672 22.2077C147.06 22.3708 145.587 21.7202 143.979 21.7362C143.092 21.7481 142.204 21.4537 141.338 21.2786C140.687 21.1493 140.052 20.9702 139.396 21.0219C138.583 21.0876 137.974 20.7136 137.262 20.5743C137.19 20.5604 137.137 20.4888 137.074 20.445C137.198 20.3793 137.317 20.26 137.446 20.254C138.458 20.2261 139.473 20.2261 140.486 20.2003C140.64 20.1983 140.786 20.1147 140.937 20.069C140.739 20.0053 140.541 19.8919 140.343 19.8899C139.162 19.87 137.978 19.8581 136.795 19.878C135.972 19.8919 135.264 20.3236 134.378 20.246C133.543 20.1784 132.691 20.2381 131.846 20.254C131.603 20.256 131.326 20.262 131.116 20.3455C129.811 20.8548 128.565 20.6678 127.283 20.258C126.913 20.1386 126.508 20.0292 126.118 19.9516C125.008 19.7228 123.927 19.3766 122.72 19.4483C121.899 19.496 121.09 19.4681 120.293 19.116C119.838 18.9191 119.138 19.0583 118.547 19.0325C118.479 19.0305 118.41 18.9608 118.345 18.921C118.424 18.8474 118.499 18.7121 118.584 18.7102C119.492 18.6763 120.422 18.7619 121.239 18.3242C121.312 18.2844 121.527 18.3978 121.676 18.4436C121.814 18.4834 122.02 18.5928 122.079 18.555C122.374 18.3779 122.202 17.8984 122.829 17.9044C123.238 17.9104 123.65 17.8527 124.059 17.8129C124.113 17.8069 124.156 17.7353 124.207 17.6935C124.142 17.6537 124.083 17.5841 124.012 17.5742C123.768 17.5423 123.517 17.5344 123.274 17.5105C123.195 17.5025 123.116 17.4826 123.05 17.4508C122.977 17.419 122.92 17.3673 122.857 17.3255C122.914 17.2797 122.959 17.2161 123.031 17.1942C124.393 16.7565 125.742 16.3307 127.283 16.3427C131.338 16.3745 135.394 16.3506 139.451 16.3486C139.868 16.3486 140.306 16.3924 140.616 16.094C140.721 15.9945 140.826 15.895 140.929 15.7936C140.82 15.7279 140.715 15.6165 140.598 15.6086C140.264 15.5767 139.922 15.5887 139.586 15.5867C139.162 15.5807 138.739 15.6006 138.32 15.5747C137.74 15.5369 137.105 15.7001 136.597 15.4156C136.172 15.1748 135.367 15.2524 135.371 14.6019C135.371 14.5422 134.945 14.4368 134.718 14.4308C133.025 14.4049 131.328 14.3174 129.651 14.4228C128.577 14.4905 127.74 13.9911 126.735 13.9951C126.65 13.9951 126.561 13.8578 126.476 13.7842C126.541 13.7444 126.607 13.6708 126.672 13.6708C127.685 13.6509 128.699 13.639 129.71 13.631C129.945 13.629 130.175 13.6171 130.232 13.4082C130.232 13.3863 129.957 13.2988 129.803 13.2789C129.397 13.2252 128.988 13.1933 128.579 13.1456C128.533 13.1396 128.456 13.0481 128.47 13.0322C128.509 12.9785 128.581 12.9148 128.654 12.9029C128.974 12.8511 129.31 12.8392 129.619 12.7636C129.728 12.7377 129.835 12.5666 129.835 12.4612C129.841 12.2384 129.716 12.127 129.395 12.2722C128.816 12.5348 128.407 11.9957 127.805 12.0772C127.249 12.1548 126.638 12.0394 126.059 11.9797C125.98 11.9718 125.926 11.8206 125.863 11.7151C126.011 11.7092 126.158 11.7092 126.302 11.6933C126.512 11.6714 126.876 11.7151 126.654 11.4108C126.535 11.2456 126.3 11.1342 126.148 10.979C126.031 10.8597 125.703 10.6508 126.122 10.5791C127.327 10.3742 128.561 9.89079 129.771 10.2071C131.82 10.7383 133.885 10.4518 135.944 10.5095C135.932 10.3126 135.762 10.2131 135.521 10.1733C134.803 10.0499 134.067 10.2131 133.318 9.92262C132.697 9.68189 131.87 9.75351 131.138 9.66797C130.936 9.64608 130.934 9.51676 131.126 9.3974C131.31 9.284 131.591 9.05123 131.692 9.08903C132.975 9.58043 134.332 9.2641 135.65 9.33373C135.899 9.34567 136.156 9.34567 136.405 9.3218C136.561 9.30787 136.815 9.26808 136.842 9.19646C137.24 8.16591 138.353 8.72495 139.139 8.57375C139.243 8.55386 139.315 8.43051 139.4 8.3569C139.334 8.31711 139.263 8.23753 139.204 8.2435C138.343 8.31114 137.592 8.04853 136.838 7.79785C136.745 7.76602 136.706 7.64665 136.641 7.56707C136.791 7.52132 136.939 7.46362 137.095 7.43776C137.258 7.41189 137.442 7.44969 137.596 7.40593C137.705 7.37807 137.778 7.26666 137.865 7.19106C137.8 7.14729 137.742 7.07766 137.671 7.07169C137.424 7.04384 137.167 7.05379 136.921 7.01798C136.682 6.98018 136.53 6.85882 136.482 6.66982C135.926 6.61212 135.381 6.63799 134.825 6.4092C133.899 6.02921 132.888 5.75864 131.886 5.50398C131.5 5.40451 131.108 5.3488 130.731 5.1976C129.935 4.8773 129.128 4.50924 128.268 4.366C127.388 4.22077 126.437 4.31825 125.515 4.3083C125.098 4.30234 124.678 4.31626 124.263 4.28841C124.01 4.26851 123.808 4.15511 123.794 3.92831C123.782 3.73732 123.751 3.54235 123.774 3.35136C123.84 2.86394 123.42 2.63515 122.874 2.93357C122.325 3.23597 121.781 3.24393 121.272 2.94153C120.815 2.67096 120.404 2.45013 119.787 2.33275C118.996 2.17757 118.25 1.92491 117.407 1.97862C117.168 1.99653 116.927 1.97663 116.686 1.97265C116.64 1.77371 116.47 1.64638 116.221 1.63643C115.463 1.60858 114.702 1.60858 113.94 1.59266C113.606 1.58669 113.173 1.67224 112.949 1.5469C111.885 0.942103 110.908 1.4335 109.872 1.55486C109.409 1.60858 109.08 2.02836 108.548 1.80355C108.014 1.57874 107.641 1.96867 107.271 2.09799C106.808 2.25715 106.58 2.17757 106.201 2.03831C105.902 1.92889 105.58 2.06417 105.495 2.36458C105.33 2.37652 105.162 2.38448 104.998 2.39641C104.933 2.50583 104.87 2.65902 104.796 2.66101C103.798 2.7008 102.795 2.71473 101.792 2.73462C101.028 2.18951 99.9406 2.58939 99.189 2.27108C98.2891 1.8891 97.403 2.00846 96.503 1.96271C95.9156 1.93087 95.5002 1.53497 94.8515 1.60062C94.2779 1.66031 93.6826 1.57476 93.0931 1.55486C92.7193 1.02168 91.9994 1.76376 91.5998 1.3201C90.597 1.28628 89.5962 1.22063 88.5934 1.23257C87.6935 1.24052 86.7678 1.05351 85.9074 1.5091C85.6187 1.66428 85.0925 1.56879 84.6752 1.57476C83.5814 1.58669 82.4857 1.58669 81.3939 1.59465C80.9706 1.59664 80.5473 1.59465 80.13 1.61654C79.6355 1.64439 79.06 1.47329 78.6743 1.76774C78.2629 2.0781 77.9385 1.50513 77.5963 1.77371C77.264 2.03433 76.995 1.63643 76.7616 1.70805C76.463 1.80156 76.281 1.95077 75.921 1.74784C75.6876 1.61654 75.294 1.63046 74.9697 1.62449C73.8739 1.59863 72.7782 1.61057 71.6844 1.57675C71.1108 1.55884 70.4917 1.71004 69.9715 1.41958C69.4434 1.11917 68.9925 1.79957 68.3932 1.42555C67.9224 1.1311 67.3745 1.60062 66.7891 1.58471C64.7696 1.53298 62.7463 1.58669 60.7248 1.60261C60.4717 1.60261 60.2145 1.58073 59.9693 1.61455C59.7418 1.64837 59.4412 1.70208 59.3364 1.82941C59.2236 1.96271 59.2691 2.17757 59.2572 2.36259C58.8419 2.40238 58.4503 2.37453 58.1298 2.12783C57.9934 2.02239 57.7976 2.06218 57.7837 2.23129C57.7501 2.65306 57.4435 2.74258 56.9569 2.74855C55.7959 2.76049 54.6171 2.67494 53.5332 3.13451C53.3374 3.21807 53.0328 3.16236 52.7836 3.14247C52.6293 3.13053 52.4849 3.06289 52.3346 3.01912C52.4058 2.93954 52.4533 2.81023 52.5482 2.79033C53.1693 2.65107 53.6717 2.23129 54.3956 2.32678C54.4529 2.33275 54.5261 2.25317 54.5914 2.21338C54.4925 2.14176 54.3956 2.01443 54.2868 2.00846C53.9525 1.98658 53.551 1.92292 53.284 2.03035C52.1091 2.51379 50.8512 2.36259 49.613 2.3984C49.0335 2.41631 48.4658 2.37254 47.91 2.62719C47.5837 2.7764 47.0971 2.74457 46.6857 2.74656C45.766 2.75253 44.8997 2.87787 43.9978 3.06687C43.1433 3.24592 42.2354 3.33744 41.3513 3.50654C40.2615 3.71544 39.7037 4.33417 39.0431 4.89719C39.1559 4.96881 39.2646 5.09216 39.3893 5.10211C39.6365 5.12399 39.9708 5.16179 40.131 5.06431C41.1436 4.42767 42.4253 4.37396 43.5982 4.09145C44.4586 3.88256 45.3506 3.75722 46.2209 3.59408C47.1782 3.41503 48.2344 3.54036 49.2471 3.54036C49.3124 3.54036 49.3836 3.60801 49.4429 3.65178C49.5556 3.73533 49.5161 3.84277 49.3005 3.90643C47.9911 4.27846 46.7292 4.78976 45.2656 4.72013C44.7434 4.69824 44.2944 5.122 43.6833 4.83154C43.527 4.75793 43.0642 4.97478 42.809 5.12598C42.4372 5.34681 42.1188 5.44032 41.7509 5.15184C41.4324 5.36273 41.1179 5.57361 40.7995 5.78251C40.2595 5.38262 39.8007 5.85413 39.2983 5.86209C38.6218 5.87005 37.888 5.75068 37.2907 5.92177C36.7448 6.07695 36.187 6.15653 35.6589 6.29779C34.1379 6.70563 32.4627 7.00405 31.7724 8.37082C31.5766 8.75678 31.0801 8.16591 31.0247 8.33302C30.8111 9.00149 30.0654 8.88212 29.5057 9.07311C28.6176 9.38148 27.6267 9.51279 26.9166 10.1474C26.3153 10.6846 25.4372 10.9412 24.4541 10.8955C24.1199 10.8776 23.7777 10.9293 23.4434 10.9134C22.2567 10.8557 21.153 11.0069 20.1186 11.4983C19.7191 11.6893 19.1949 11.7271 18.7479 11.8703C18.6747 11.8962 18.6253 12.1727 18.6886 12.2105C19.0031 12.3896 19.3848 12.5109 19.6933 12.696C19.8555 12.7934 20.0434 13.0163 19.9979 13.1297C19.9346 13.2868 19.6835 13.4898 19.4778 13.5116C18.8211 13.5892 18.1466 13.6429 17.488 13.6111C16.772 13.5773 16.1786 13.7504 15.5853 14.005C15.251 14.1483 15.0057 14.4387 15.1165 14.5641C15.3578 14.8386 15.522 14.5621 15.7237 14.5442C17.0351 14.4308 18.2475 13.8896 19.6142 14.0011C20.1443 14.0468 20.5775 13.8757 21.0344 13.6947C21.1669 13.641 21.608 13.7822 21.6416 13.8837C21.7602 14.2497 21.7128 14.6317 22.0728 14.964C22.1459 15.0356 21.8433 15.34 21.6871 15.5548C21.1471 15.5688 20.6052 15.5688 20.0691 15.6086C19.8476 15.6225 19.7151 15.7578 19.6914 15.9348C19.9841 15.9408 20.2768 15.9488 20.5696 15.9428C20.9394 15.9348 21.0996 16.098 21.1847 16.3287C22.0174 16.3268 22.8481 16.3228 23.6808 16.3228C25.4273 15.6424 27.3003 16.0602 29.1141 15.9547C29.2644 15.9468 29.4286 16.0025 29.5789 16.0462C29.6382 16.0641 29.6758 16.1258 29.7233 16.1656C29.658 16.2094 29.5947 16.283 29.5275 16.285C28.0421 16.3327 26.6654 16.9216 25.1266 16.7445C24.1139 16.6272 23.125 16.8321 22.2982 17.2837C21.8473 17.5284 21.3152 17.409 20.892 17.6199C20.8445 17.6418 20.7812 17.7174 20.7931 17.7313C20.8405 17.7831 20.9117 17.8487 20.9829 17.8507C21.3983 17.8786 21.8176 17.8786 22.233 17.9183C22.3516 17.9303 22.5593 18.0676 22.5455 18.1073C22.502 18.2207 22.3912 18.3441 22.2607 18.4097C22.0589 18.5132 21.8255 18.6206 21.5961 18.6346C21.0106 18.6724 20.4074 18.6027 19.8338 18.6823C18.5481 18.8614 17.2447 19.0225 16.0402 19.4443C15.9096 19.49 15.8068 19.5835 15.6901 19.6552C15.8285 19.7148 15.963 19.8183 16.1054 19.8263C16.4397 19.8461 16.8412 19.9098 17.1043 19.7984C18.4492 19.2453 19.8892 19.5239 21.2895 19.4443C21.7444 19.4164 22.0609 19.6591 22.4308 19.7308C23.485 19.9337 24.6025 19.9337 25.6191 19.6572C26.1096 19.5239 26.5626 19.4363 27.059 19.4403C28.6414 19.4423 30.2217 19.4542 31.804 19.4622C31.7506 19.5676 31.7051 19.7188 31.626 19.7308C30.825 19.8422 30.0417 19.9257 29.2545 20.1625C28.5959 20.3594 27.7493 20.3017 27.0135 20.2202C26.1195 20.1207 25.4767 20.6718 24.6124 20.6141C23.8746 20.5663 23.1507 20.5942 22.4268 20.8847C21.9521 21.0757 21.2856 20.9841 20.7041 21.0219C20.4311 21.0398 20.2669 21.1453 20.1977 21.3582C20.1206 21.6128 20.3362 21.6984 20.5715 21.7501C20.7278 21.7839 20.9098 21.7501 21.0719 21.772C21.6258 21.8555 21.7385 21.9829 21.691 22.4146C21.6455 22.8264 21.5328 22.9119 20.89 22.9338C20.6467 22.9418 20.4054 22.9478 20.1601 22.9557C20.0949 23.0592 20.0434 23.2004 19.9465 23.2203C19.2246 23.3715 18.4809 23.3834 17.7748 23.1984C17.4761 23.1188 17.1695 22.8523 16.8828 23.0094C16.4278 23.2641 16.0204 23.5884 15.6782 23.9345C15.6347 23.9803 15.611 23.9942 15.5951 24.0022C15.6288 23.9883 15.7079 23.9803 15.8147 24.0738C16.0224 24.2648 16.2775 24.5652 16.6118 24.4339C17.9528 23.9107 19.3749 24.1772 20.7594 24.1196C20.9869 24.1116 21.1451 24.2767 21.1847 24.4717C21.5901 24.4777 21.962 24.5234 22.3319 24.7164C22.5732 24.8457 23.0835 24.9372 23.2654 24.8338C24.0467 24.3822 24.5847 24.5334 25.2038 25.0307C25.5281 25.2933 26.0503 25.4326 26.5151 25.556C26.8098 25.6355 27.2667 25.6853 27.4744 25.5679C28.1667 25.176 28.9242 25.3232 29.6639 25.2794C30.4848 25.2317 31.3392 25.4048 32.0967 24.9571C32.5536 24.6885 33.1075 25.4625 33.6276 24.9571C34.043 25.1481 34.6205 25.2675 34.8282 25.548C35.0675 25.8683 35.2475 26.0474 35.7341 26.0454C37.6764 26.0275 39.6187 26.0016 41.557 26.0334C42.1069 26.0414 42.4886 25.7231 42.9712 25.731C43.3609 25.737 43.8692 26.0712 44.1125 25.9678C44.5496 25.7828 44.9946 25.6992 45.4476 25.6674L46.4325 23.7455C46.4325 23.7455 45.6117 23.0313 46.3218 22.3469C46.3218 22.3469 46.2387 21.1393 46.4325 20.8648C46.6224 20.5902 46.842 20.6996 46.842 20.6996C46.842 20.6996 46.842 20.26 47.469 20.26C47.469 20.26 47.552 19.9038 48.2047 20.069L49.6526 17.2956C49.6526 17.2956 49.4587 17.1046 49.7317 16.9674C49.7317 16.9674 49.2155 16.6113 50.3053 16.5555L51.9687 14.58C51.9687 14.58 51.8065 14.389 52.1329 14.389L52.6234 13.8121C52.6234 13.8121 52.5146 13.5634 52.7875 13.6469L53.3334 13.07L53.1693 12.9606L53.3057 12.7696L53.4422 12.879L53.9624 12.2762L53.7982 12.1648L53.9347 12.0275L54.1286 12.1389L54.6448 11.6157L54.4015 11.4247L54.538 11.2297L54.7279 11.4505L55.8473 10.1335L56.3932 10.9293L56.0669 11.4486L56.3932 11.4764C56.3932 11.4764 56.3398 12.0255 56.15 12.1628C56.15 12.1628 55.6298 11.9976 55.9601 12.4373L55.523 12.7696C55.523 12.7696 55.1135 12.8233 55.1135 13.1237C55.1135 13.4241 55.4122 13.9493 54.7298 13.7006L54.4865 13.9493C54.4865 13.9493 54.5953 14.8008 54.0494 14.4686L53.8853 14.7173C53.8853 14.7173 54.1582 15.5389 53.4482 15.0992L53.2049 15.4017C53.2049 15.4017 53.7785 16.1159 52.9576 15.9507L52.4414 16.474C52.4414 16.474 52.1685 16.1179 52.0043 16.4203C52.0043 16.4203 51.2131 16.9137 50.6415 17.986C50.0877 19.0165 49.5833 19.9019 49.5517 19.9596C49.5853 19.9416 49.8405 19.8402 49.7139 20.9225C49.5774 22.0764 49.6308 23.0612 49.6308 23.8868C49.6308 24.416 49.6526 24.9114 50.0462 25.6714C50.3132 25.6694 50.5802 25.6654 50.8472 25.6694C50.6395 25.4465 50.4378 25.1919 50.3132 24.9591C50.0284 24.41 50.7503 25.353 50.9501 25.6097C50.7463 25.3212 49.9117 24.0997 49.9591 23.4471C49.9591 23.4471 50.5861 25.3689 51.6265 25.3948C51.6265 25.3948 50.5426 23.9445 50.4121 23.3138C50.4121 23.3138 51.0252 24.4896 51.6265 24.6567C51.6265 24.6567 51.1617 23.9425 51.136 23.5864C51.136 23.5864 51.3516 23.8072 52.0082 23.6978C52.0082 23.6978 49.7989 23.1746 49.7989 21.9948C49.7989 21.9948 50.0719 22.6812 50.6989 22.9L50.153 22.1579C50.153 22.1579 51.5434 23.3118 52.2535 22.7627C52.2535 22.7627 51.2428 22.3231 51.8995 20.7315C51.8995 20.7315 51.763 22.5678 52.4988 22.5419C52.4988 22.5419 51.7887 21.3343 52.2792 20.7573C52.2792 20.7573 52.0359 21.5531 52.39 21.9112C52.39 21.9112 52.7163 20.7315 52.7697 20.2918V21.4716L53.4264 20.2102L53.2899 21.0319L54.0534 19.6611L54 20.5942L54.2195 20.2918C54.2195 20.2918 54.5182 20.5126 54.5182 21.0597C54.5182 21.0597 54.9553 20.6738 55.4181 20.6738C55.4181 20.6738 55.3924 20.3455 54.8722 20.3992L55.3094 20.2898L54.7892 20.2062L55.337 20.0968L54.5993 19.9854C54.5993 19.9854 55.6357 19.301 56.6187 19.9317L56.1025 19.4085L56.866 19.6293L56.6761 19.2473L57.3031 19.4681L57.0281 19.0822L57.5187 19.2195L57.3822 18.9171L58.0923 19.1657L57.7659 18.5888L58.2287 18.8912L58.0665 18.4515L58.5571 18.6425L58.5828 18.1491L58.7766 18.5351L58.8557 17.7094L59.2098 18.4814L59.2928 17.8467L59.813 19.1657L59.8387 18.5351L60.0326 19.0285L60.086 18.4794L60.5231 18.9449L60.44 18.2585L60.6596 18.8892L60.713 18.2287L60.9029 19.0504L61.1501 18.7221C61.1501 18.7221 61.7217 19.2453 61.3696 20.1505C61.3696 20.1505 61.7217 20.7534 61.423 21.6586L61.3953 22.1818L61.9412 20.9742C61.9412 20.9742 62.0243 22.1281 61.2885 22.896C61.2885 22.896 61.3419 23.8012 60.2778 24.3503C60.2778 24.3503 60.6615 24.4041 60.5508 25.2297C60.442 26.0513 60.8514 26.1349 61.0967 26.684C61.3439 27.2331 61.2332 27.3445 61.154 28.0826C61.0868 28.6874 61.0037 29.4912 60.9721 29.7677C60.9899 29.5071 61.0176 28.7769 60.798 28.1105L60.6615 29.5389L60.3886 28.4686C60.3886 28.4686 60.0603 29.7856 60.3055 30.7724C60.3055 30.7724 59.8684 30.3904 59.9515 29.4275C59.9515 29.4275 59.4056 30.3327 59.461 30.9932C59.461 30.9932 59.0773 30.4998 59.5697 29.5389C59.5697 29.5389 59.19 29.9209 58.8597 30.8818C58.5333 31.8447 58.0962 32.0636 58.0962 32.0636C58.0962 32.0636 58.6421 31.1842 58.7232 30.1139C58.7232 30.1139 57.6037 32.364 57.0598 32.5848L57.6591 31.6537L56.9767 32.2844L57.3545 31.4667C57.2892 31.5642 56.7671 32.3441 56.4605 32.4455C56.4605 32.4455 56.8402 31.6239 56.8402 30.6351L56.5139 31.6776L56.4862 30.6351C56.4862 30.6351 56.4862 31.403 56.4328 31.4866C56.3794 31.5702 56.2686 31.0748 56.2686 31.0748L56.1895 31.7054L56.0511 31.0191L55.9146 31.4309L55.8058 30.4421L55.4518 31.2936C55.4518 31.2936 55.4518 30.6888 55.5882 30.3048C55.5882 30.3048 55.2619 30.277 55.1788 31.1265C55.0957 31.978 55.0681 33.5417 54.6052 34.1744C54.1424 34.8051 53.3789 35.189 52.7776 34.3654C52.7776 34.3654 50.7582 36.89 50.7305 37.3019C50.7048 37.7157 50.5406 38.0698 50.6514 38.2349C50.7602 38.4 51.1142 38.7005 51.3575 39.3351C51.6048 39.9658 52.1487 41.1455 52.2317 41.6111C52.3148 42.0786 52.2852 42.6814 52.3682 43.1469C52.4513 43.6145 52.6155 44.08 52.6155 44.3287C52.6155 44.5774 53.106 44.3824 52.8311 44.9315C52.5581 45.4806 53.1851 45.2061 52.7223 45.7273C52.2594 46.2466 52.123 46.5231 52.123 46.5231L52.6689 50.886C52.6689 50.886 53.106 50.9119 52.9418 51.4351C52.7776 51.9544 52.9418 51.8469 52.9952 52.2031C52.9952 52.2031 53.1851 52.5592 53.0783 52.8337C53.0783 52.8337 53.3789 52.7223 53.4877 53.2456C53.4877 53.2456 53.735 52.5592 54.0613 52.8059C54.3877 53.0546 54.1147 53.0267 54.7714 52.7263C55.4241 52.4239 56.3814 51.7355 60.9088 51.6818C65.4382 51.6281 64.6193 51.3257 64.7301 51.9305C64.8389 52.5333 65.1098 51.9027 65.4362 51.6281C65.7665 51.3536 66.257 51.2998 66.53 51.656C66.8029 52.0121 67.1036 51.3536 67.6198 51.6281C67.6198 51.6281 67.7306 51.4073 68.1934 51.1049C68.1934 51.1049 68.6028 50.3648 69.1764 50.4185C69.75 50.4722 70.2405 51.079 71.714 51.7097C73.1876 52.3403 75.2881 53.8762 75.8874 56.2656C75.8874 56.2656 75.9705 57.0335 75.3138 57.1708C74.6611 57.3081 74.4969 57.2544 74.4969 57.2544C74.4969 57.2544 73.9807 56.8724 73.3775 56.8724C72.7742 56.8724 71.9573 56.57 71.9573 56.57C71.9573 56.57 71.714 56.7908 71.2769 56.4606C70.8398 56.1283 71.0574 56.1044 70.2128 55.9373C69.3683 55.7702 68.85 55.5514 68.85 55.5514C68.85 55.5514 68.5494 55.8 67.9224 55.6349C67.9224 55.6349 67.4022 55.9672 66.5854 55.6886C66.5854 55.6886 65.3017 56.5143 63.2289 56.2397C61.156 55.9652 56.6247 57.4195 54.4984 57.6383C52.3682 57.8592 51.6344 57.9666 51.6344 57.9666C51.6344 57.9666 51.7709 58.6271 51.3872 59.3393C51.2092 59.6736 51.0529 60.3361 50.9382 60.9707C51.5059 60.9687 52.0735 60.9687 52.6392 60.9588C53.2306 60.9528 53.818 60.9409 54.4074 60.9329C54.7615 60.3938 55.3667 60.9647 55.8869 60.724C56.6108 60.3878 57.5286 60.6106 58.3632 60.6146C58.4878 60.6146 58.7034 60.7459 58.7173 60.8314C58.8043 61.3109 59.0456 61.3169 59.5045 61.0563C59.7636 60.907 60.084 60.7877 60.3965 60.7459C60.6556 60.7121 61.1184 60.9011 61.1877 60.8235C61.5872 60.4037 61.9749 61.0403 62.4654 60.7698C62.8372 60.5649 63.4702 61.1577 64.024 60.9329C64.473 60.7479 64.8606 60.539 65.4184 60.5728C66.0058 60.6106 66.617 60.5091 67.1906 60.5907C67.687 60.6564 67.9521 60.1132 68.5356 60.4137C68.8402 60.5708 69.303 60.3301 69.7994 60.5072C70.3295 60.6922 70.9288 60.0237 71.6507 60.1789C72.1215 59.8566 72.6753 59.8168 73.2884 59.8108C74.3427 59.7989 75.4266 59.9421 76.4294 59.5462C77.0306 59.9919 77.442 59.6855 77.9246 59.3751C78.427 59.0528 78.9828 58.7922 79.6078 58.6908C79.7502 58.4202 79.8828 58.1456 80.0133 57.8711C80.7807 56.2437 80.9073 54.4392 81.1882 52.6825C81.2317 52.4139 81.2317 52.1394 81.2475 51.8649C81.2811 51.3396 81.291 50.8144 81.3523 50.2912C81.5402 48.6777 82.3769 47.3865 83.4469 46.2326C83.7812 45.8666 83.8524 45.6159 83.532 45.2498C83.2472 44.9236 82.9268 44.6192 82.5747 44.3764C82.0149 43.9905 81.7064 43.4991 81.6866 42.8147C81.6807 42.6695 81.5699 42.5282 81.5106 42.387C81.4275 42.184 81.3207 41.9871 81.2712 41.7782C81.2317 41.5991 81.2653 41.4042 81.2653 41.2271C80.9805 41.2052 80.7392 41.1953 80.4979 41.1674C79.7146 41.0739 79.1035 40.7675 78.8879 39.914C78.8483 39.7509 78.6189 39.6395 78.4765 39.5022C78.4508 39.4764 78.4112 39.4445 78.4112 39.4187C78.433 39.0427 78.1422 39.0725 77.9108 39.0247C77.4539 38.9253 77.1236 38.6985 76.9832 38.213C76.821 37.65 76.5797 37.1367 76.2019 36.6593C75.8874 36.2653 75.7569 35.7262 75.5452 35.2447C75.5314 35.2109 75.5472 35.1612 75.5393 35.1214C75.4424 34.6081 75.3494 34.0869 75.2406 33.5736C75.2228 33.488 75.1497 33.4045 75.0824 33.3428C74.5543 32.8554 74.2161 32.2625 74.0499 31.5642C74.0361 31.5045 73.9906 31.4468 73.951 31.3951C73.332 30.5874 73.4942 29.7617 74.1805 29.2683C74.3288 29.1589 74.4613 29.0336 74.7007 28.8346C74.3506 28.6058 74.0638 28.4228 73.777 28.2358C73.4328 28.011 72.9621 27.8558 72.7742 27.5355C72.5388 27.1336 72.2382 26.8292 71.9217 26.5209C71.7852 26.3876 71.6409 26.2563 71.538 26.0951C71.4668 25.9857 71.4668 25.8305 71.4332 25.6952C71.5776 25.6873 71.7417 25.6276 71.8584 25.6773C72.0622 25.7708 72.2441 25.928 72.43 26.0653C72.5744 26.1767 72.7089 26.296 72.8474 26.4134C72.8157 26.2682 72.7307 26.1846 72.6595 26.0872C72.4241 25.7708 72.1749 25.4625 71.9731 25.1242C71.9158 25.0268 71.9989 24.8477 72.0186 24.7065C72.3905 24.8397 72.8533 24.6328 73.1599 25.0089C73.2449 25.1143 73.3181 25.2297 73.3873 25.3192C73.4388 25.0944 73.4783 24.9253 73.5159 24.7562C73.6801 24.8696 73.868 24.9611 74.0005 25.1043C74.1132 25.2237 74.1686 25.4048 74.2734 25.6097C74.3506 25.3073 74.4495 25.0665 74.4693 24.8238C74.5167 24.2489 74.4574 23.662 74.5721 23.1049C74.7363 22.2833 75.0013 21.4855 75.7371 20.9424C76.103 20.6778 76.3621 20.258 76.8724 20.2222C76.9258 20.2202 76.9812 20.1426 77.0227 20.0909C77.262 19.8024 77.5627 19.8103 77.8198 20.0073C78.0591 20.1923 78.2569 20.1764 78.4923 20.0531C79.0184 19.7765 79.503 19.9019 79.9263 20.258C80.1616 20.4569 80.3515 20.7156 80.5473 20.9583C80.6779 21.1154 80.7511 21.3303 80.9014 21.4556C81.3523 21.8277 81.566 22.2554 81.3444 22.8383C81.3326 22.8722 81.3246 22.9358 81.3444 22.9577C81.6906 23.3138 81.469 23.7694 81.5323 24.1713C81.6035 24.6189 81.6629 25.1143 81.2198 25.4585C81.1723 25.4963 81.1427 25.5719 81.1269 25.6355C80.9845 26.1588 80.8322 26.674 80.7095 27.2013C80.6363 27.5216 80.6561 27.8041 81.024 27.9891C81.4216 28.192 81.7756 28.4765 82.1534 28.7192C82.2048 28.7531 82.2918 28.7928 82.3373 28.7729C82.723 28.5959 83.0494 28.8068 83.3916 28.9281C83.6704 29.0256 83.9256 28.9918 84.0739 28.7312C84.3667 28.2199 84.8354 28.0806 85.3695 28.003C85.5633 27.9752 85.7749 27.8439 85.9114 27.6927C86.2259 27.3405 86.6017 27.1296 87.0645 27.058C87.6836 26.9605 88.1662 26.6323 88.5855 26.1727C88.7873 25.9558 89.0206 25.7589 89.2659 25.5977C90.4526 24.8258 91.6513 24.0678 92.8518 23.3158C93.2375 23.0751 93.5125 22.7826 93.6272 22.3131C93.6746 22.1102 93.8942 21.951 94.0168 21.76C94.1869 21.4915 94.3906 21.2288 94.4935 20.9324C94.7012 20.3177 94.5113 19.7566 94.1889 19.2195C93.9911 18.8852 93.7577 18.5391 94.0346 18.1173C94.0722 18.0596 94.0089 17.9004 93.9515 17.8169C93.8012 17.612 93.6707 17.4289 93.8546 17.1623C93.9852 16.9773 94.0584 16.7505 94.1691 16.5516C94.1869 16.5237 94.268 16.5138 94.3194 16.5177C94.7823 16.5456 94.8752 17.1604 95.3559 17.1862C95.4271 17.1882 95.5141 17.3255 95.5536 17.421C95.5873 17.5006 95.5536 17.61 95.5675 17.7035C95.6268 18.0914 95.6268 18.5052 95.7692 18.8633C95.967 19.3607 96.1806 19.8342 96.1668 20.3893C96.1589 20.6996 96.2103 21.014 96.2202 21.3263C96.2321 21.6625 96.3053 21.949 96.5446 22.2196C96.7325 22.4285 96.8709 22.7289 96.9144 23.0054C96.9738 23.3795 96.6553 23.5904 96.3409 23.3994C96.0659 23.2342 95.8839 23.3655 95.7356 23.5128C95.4152 23.845 95.1165 24.2031 94.8357 24.5732C94.3076 25.2675 93.819 25.9917 93.2751 26.674C92.5374 27.6031 91.7027 28.4526 91.2221 29.5707C91.0579 29.9567 90.7315 30.2054 90.3102 30.3387C90.1619 30.3864 90.061 30.5794 89.9265 30.6928C89.7426 30.852 89.5428 31.1384 89.3549 31.1345C88.8189 31.1265 88.6172 31.4289 88.4293 31.8427C88.1741 32.4018 87.9605 32.5052 87.3869 32.4515C87.2425 32.7519 87.1001 33.0464 86.9617 33.3388C87.4324 34.0491 87.9012 34.7832 88.3956 35.4974C88.7695 36.0346 89.2105 36.522 89.5606 37.0711C90.2113 38.0957 90.8205 39.1441 91.4337 40.1886C91.6829 40.6104 91.9143 41.0421 92.1319 41.4798C92.2545 41.7225 92.3158 41.993 92.4404 42.2358C92.7213 42.7789 93.0773 42.9122 93.6588 42.7491C93.8151 42.7053 93.9773 42.6754 94.1395 42.6695C95.2748 42.6158 96.414 42.5123 97.5493 42.5382C99.638 42.5839 101.731 42.6376 103.813 42.8326C104.666 42.9162 105.554 42.9778 105.985 43.8671C106.26 44.4361 106.396 45.0728 106.578 45.6835C106.776 46.354 106.586 46.9747 106.311 47.5875C105.641 49.0756 104.551 50.1081 103.101 50.8263C102.528 51.1128 101.974 51.5107 101.535 51.9743C100.386 53.1938 99.1238 54.2622 97.761 55.2291C97.221 55.611 96.7621 56.1084 96.2558 56.5421C96.058 56.7132 95.8602 56.8963 95.6644 57.0733C96.1668 57.0594 96.6731 57.0455 97.1656 57.0912C98.6253 57.2245 99.9307 56.7192 101.311 56.5421C101.691 56.4944 102.061 56.3014 102.496 56.3113C103.004 56.3233 103.515 56.2656 104.017 56.3034C104.559 56.3472 105.079 56.3432 105.603 56.3034C106.41 55.1216 107.73 53.3729 108.396 52.4219C109.304 51.1307 111.492 48.8786 112.022 48.5862C112.022 48.5862 111.919 47.8123 112.482 47.5556C112.482 47.5556 112.639 47.4701 112.465 47.3467C112.295 47.2274 111.715 46.5589 111.715 46.5052C111.715 46.4535 112.158 45.5085 112.277 44.838C112.395 44.1695 112.57 42.6555 112.585 41.8995C112.603 41.1435 112.874 39.0088 113.576 36.3111C113.576 36.3111 113.798 35.2626 114.979 33.8004C114.979 33.8004 115.133 30.7724 115.115 30.2571C115.097 29.7438 114.755 29.141 114.925 28.3154C115.099 27.4897 115.208 26.7138 115.208 26.7138C115.208 26.7138 114.292 27.0302 114.235 26.8073C114.112 26.3199 115.137 26.1628 115.155 26.111C115.155 26.111 114.805 23.5526 114.805 23.3297C114.805 23.1069 114.617 22.7786 114.549 22.2475C114.482 21.7143 114.002 19.4085 114.002 15.3857C114.002 15.3857 113.968 14.8366 113.762 14.5601C113.558 14.2856 113.744 14.3711 113.337 14.1483C112.926 13.9235 112.568 13.5116 112.568 13.5116C112.568 13.5116 112.514 13.9573 112.326 13.8021C112.138 13.6469 112.053 13.5276 111.935 13.3565C111.816 13.1854 111.693 12.8392 111.693 12.8392C111.693 12.8392 111.454 12.6681 111.268 12.5129C111.08 12.3577 110.635 11.55 111.575 11.8246C111.575 11.8246 111.456 11.359 111.713 11.2914C111.968 11.2237 112.637 11.0686 112.637 11.0686C112.637 11.0686 112.704 10.603 112.688 10.2767C112.67 9.95047 112.465 9.21237 112.465 8.6772C112.465 8.14203 112.825 8.02267 112.876 8.43648C112.928 8.8483 112.979 9.31384 113.131 9.53666C113.285 9.75948 113.286 10.5672 113.458 10.8796C113.628 11.1879 115.151 13.8697 115.166 14.0428C115.184 14.2139 115.695 16.3447 115.869 17.2936C116.039 18.2386 117.063 21.0756 117.047 21.7282C117.03 22.3827 117.03 23.3954 117.099 23.6878C117.166 23.9823 117.354 25.7171 117.356 25.7211C117.364 25.7768 117.718 25.7788 117.756 25.7748C117.951 25.7509 117.866 25.5599 117.882 25.3888C117.898 25.2038 118.011 25.1561 118.062 25.1441C118.566 25.0228 119.13 25.0467 119.67 24.9631C119.971 24.9153 120.171 25.0467 120.188 25.2317C120.232 25.6773 120.277 25.8305 120.254 26.2781C120.252 26.3199 120.184 26.6303 119.925 26.6601C119.304 26.7317 118.871 26.7735 118.246 26.7815C118.203 26.7815 118.032 26.7954 117.943 26.6561C117.916 26.6144 117.868 26.4174 117.837 26.4075C117.742 26.3756 117.491 26.3876 117.451 26.4612C117.372 26.6024 117.508 27.2172 117.615 27.3724C117.769 27.5952 118.248 28.6456 118.248 28.6456C118.248 28.6456 118.725 29.2106 118.725 29.3479C118.725 29.4852 118.828 29.7458 118.861 29.8473C118.895 29.9507 120.026 30.088 120.23 30.0701C120.434 30.0522 120.485 29.6424 119.991 28.9202C119.494 28.198 119.461 27.7842 119.664 27.6807C119.872 27.5773 119.991 27.5255 119.991 27.3047C119.991 27.0839 120.042 27.0481 120.382 27.0142C120.726 26.9764 121.084 26.4632 121.169 26.2921C121.254 26.117 121.34 25.4843 121.905 25.6554C121.905 25.6554 121.872 24.8139 122.317 24.8477C122.76 24.8815 123.104 25.5022 123.529 25.1382C123.529 25.1382 123.733 24.8298 124.743 24.9153C124.743 24.9153 125.442 25.0009 125.701 25.172C125.956 25.3431 127.066 25.0864 128.027 27.3743L127.7 26.9605L127.904 27.4599L127.651 27.1237C127.689 27.253 128.298 29.332 128.298 30.3327C128.298 31.3334 128.468 35.6446 128.622 36.0763C128.753 36.4364 128.954 38.6129 129.684 40.0633C129.405 39.6116 129.083 39.0347 128.921 38.5831C129.057 39.0029 129.835 41.3445 130.715 42.4248C130.582 42.2954 129.51 41.2191 128.883 39.9001C128.915 40.0772 129.449 42.942 130.127 43.6403C130.127 43.6403 129.188 42.8485 129.17 42.3153C129.17 42.3153 129.221 43.4175 129.548 43.7259C129.548 43.7259 129.221 43.6742 129.051 42.7292C129.051 42.7292 128.933 43.332 129.018 43.9308C129.018 43.9308 128.796 43.6403 128.863 42.7809L128.674 43.3141V42.0229C128.674 42.0229 128.47 42.7451 128.519 43.2763C128.571 43.8094 128.571 44.084 128.571 44.084C128.571 44.084 128.401 43.6384 128.331 43.1907C128.331 43.1907 128.047 43.6483 128.189 44.0044C128.149 43.9467 127.967 43.6443 128.051 43.2524L127.886 43.8771C127.886 43.8771 127.853 42.6237 127.75 42.4665C127.75 42.4665 127.582 43.4891 127.696 43.9547C127.657 43.8691 127.285 43.0415 127.424 42.1005C127.398 42.2577 127.129 43.8313 127.273 44.2909L127.032 43.9805L126.895 44.2571L126.759 43.5866L126.52 43.8433L126.502 42.8644L126.278 44.0323C126.278 44.0323 126.16 43.2922 126.227 42.7451C126.298 42.194 126.073 40.8173 126.073 40.8173C126.073 40.8173 125.885 41.6091 125.954 42.0746L125.79 41.249C125.829 41.5355 126.096 43.4533 125.938 43.708C125.938 43.708 125.802 41.9891 125.632 41.3524C125.632 41.3524 125.351 42.7829 125.424 43.2802C125.359 43.0256 125.171 42.0846 125.578 41.1336C125.525 41.1674 124.983 41.5673 125.305 43.4016C125.305 43.4016 124.674 42.3512 124.777 41.3365C124.777 41.3365 124.348 42.4904 124.844 43.4354C124.844 43.4354 124.263 43.332 124.484 42.2994C124.484 42.2994 124.211 42.4188 124.126 42.9022C124.126 42.9022 124.075 42.1622 124.552 41.5434C124.552 41.5434 124.024 41.8041 123.972 42.4208C123.972 42.4208 123.938 41.5673 124.478 40.9167C124.419 40.9764 123.938 41.4758 123.664 42.5103C123.664 42.5103 123.462 41.999 123.662 41.6907C123.624 41.7424 123.341 42.1641 123.341 42.4049C123.341 42.4049 123.12 42.0786 123.63 41.2032C124.144 40.3259 123.905 39.2436 123.905 39.2436C123.905 39.2436 123.923 40.2741 123.561 40.7894C123.203 41.3067 122.995 41.6668 122.995 41.6668C122.995 41.6668 122.91 41.426 123.44 40.7039C123.97 39.9817 123.695 39.3311 123.695 39.3311C123.695 39.3311 123.762 40.2085 123.219 40.7397C123.219 40.7397 123.592 39.9658 123.592 39.4863C123.592 39.4863 122.499 39.9499 122.584 40.8789C122.584 40.8789 122.33 40.6044 122.732 40.0255C122.661 40.105 122.107 40.7556 121.883 40.7735C121.883 40.7735 122.704 39.914 123.064 39.2635L122.499 39.7609L122.896 39.1043C122.829 39.172 122.512 39.5122 121.866 40.3119C121.13 41.2231 121.029 41.4459 120.978 41.6688C120.926 41.8936 120.774 41.8598 120.6 42.1343C120.43 42.4089 120.533 42.4427 120.481 42.753C120.43 43.0614 120.43 43.129 120.548 43.3379C120.671 43.5429 122.823 46.6564 122.483 47.4303C122.483 47.4303 122.568 48.1505 122.977 48.7175C123.389 49.2865 123.337 49.3541 123.695 49.7142C124.055 50.0763 124.192 50.4364 124.346 50.9019C124.5 51.3655 126.876 55.2689 126.876 55.2689C126.876 55.2689 127.271 55.4399 127.39 55.7344C127.396 55.7463 127.398 55.7563 127.402 55.7662C127.507 55.8398 127.609 55.9254 127.742 55.9294C128.42 55.9413 129.099 55.9294 129.775 55.9552C130.357 55.9751 130.788 56.3491 131.433 56.3233C132.366 56.2855 133.337 56.3173 133.531 57.2922C133.563 57.4473 133.725 57.4255 133.905 57.3061C134.17 57.131 134.526 56.9898 134.797 57.2225C135.299 57.6602 136.073 57.3877 136.656 57.7259C137.186 58.0322 137.942 57.9666 138.547 57.6682C138.854 57.517 139.166 57.4394 139.493 57.509C139.884 57.5886 140.24 57.7776 140.632 57.8512C141.113 57.9387 141.656 57.7915 142.088 58.0621C142.448 58.2909 142.897 58.2014 143.28 58.2988C143.45 58.3426 143.539 58.5992 143.638 58.7664C143.735 58.9315 143.822 58.9554 143.998 58.8837C144.629 58.6351 145.145 59.1523 145.806 59.0349C146.366 58.9355 146.993 59.0807 147.572 59.021C148.229 58.9554 148.656 59.3314 149.222 59.395C149.803 59.4607 150.525 59.3314 150.949 59.5522C151.764 59.978 152.806 59.592 153.563 60.1371C153.908 60.3818 154.355 59.7094 154.9 60.0794C155.292 60.344 155.868 60.2028 156.366 60.1849C156.698 60.1769 156.916 59.8128 156.726 59.6059C156.629 59.5005 156.505 59.411 156.4 59.3095C155.781 58.6947 155.793 58.7047 156.687 58.0939C156.93 57.9288 157.197 57.7259 157.292 57.4991C157.468 57.0733 157.703 57.2782 158.004 57.3797C158.603 57.5767 159.147 57.4851 159.614 57.129C159.835 56.9579 159.764 56.8127 159.606 56.6496C159.299 56.3412 159.723 56.3929 159.893 56.3074C160.023 56.2397 160.506 56.2338 160.067 55.991C159.564 55.7105 159.481 55.5832 159.792 55.432C159.999 55.3285 160.227 55.2529 160.429 55.1435C161.079 54.8013 161.975 54.6919 162.211 53.9518C162.282 53.727 162.65 53.6116 163.024 53.5718C163.311 53.54 163.354 53.341 163.045 53.2396C162.844 53.1759 162.557 53.2058 162.575 52.971C162.581 52.9173 162.84 52.8417 162.99 52.8337C163.324 52.8079 163.669 52.8337 164.003 52.8019C164.108 52.79 164.296 52.6169 164.276 52.593C163.7 51.8529 164.596 52.0419 164.913 52.0797C165.716 52.1732 166.519 52.3304 167.286 52.5393C167.606 52.6268 167.822 52.7999 168.121 52.5313C168.394 52.2866 168.916 52.0837 168.953 51.829C169.038 51.2461 169.513 51.2979 170.01 51.2541C170.154 51.2421 170.285 51.1367 170.425 51.077C170.283 51.0114 170.15 50.9199 169.996 50.892C169.567 50.8124 169.404 50.5259 169.578 50.321C169.84 50.0067 169.932 49.8018 169.511 49.5471C169.317 49.4297 169.157 49.2606 169.05 49.0895C168.993 49.002 169.07 48.8528 169.114 48.7374C169.126 48.7056 169.268 48.6638 169.296 48.6797C169.731 48.9363 170.235 48.9005 170.741 48.9304C171.647 48.9841 172.539 48.9085 173.447 49.2507C174.066 49.4815 174.941 49.3283 175.702 49.3183C175.827 49.3183 176.06 49.1691 176.052 49.1035C176.03 48.9264 175.965 48.6837 175.803 48.6061L175.783 48.626ZM47.1624 25.0526C47.1624 25.0526 47.0437 25.2933 46.8499 25.6833C47.0892 25.6952 47.3266 25.7012 47.5659 25.6972H47.7103C47.4512 25.2754 47.1624 25.0526 47.1624 25.0526ZM90.4704 50.3349C90.1362 50.8084 89.8751 51.1685 89.6219 51.5346C88.6172 52.979 87.6025 54.4213 86.6116 55.8756C85.9747 56.8047 85.3418 57.7338 84.7128 58.6649C84.9521 58.6331 85.2389 58.6649 85.4881 58.6569C85.7433 58.649 86.0241 58.7047 86.2457 58.6371C86.3742 58.5973 86.5008 58.5535 86.6254 58.5077C86.6175 58.2391 86.7836 58.0303 87.0962 57.891C87.7746 57.5806 88.4411 57.2424 89.1255 56.942C89.7564 56.6675 90.1757 56.186 90.5337 55.619C90.7731 55.239 91.0361 54.871 91.3249 54.5288C91.6335 54.1607 92.0686 54.0413 92.5374 54.0632C92.9033 54.0831 93.2731 54.1627 93.6331 54.1349C93.9001 54.115 94.2641 54.0413 94.4005 53.8543C94.9563 53.0944 95.6921 52.4577 95.9769 51.4928C96.1411 50.9397 96.4595 50.4245 96.7384 49.9112C96.9421 49.5312 97.1953 49.1771 97.49 48.7095C95.0691 49.4695 92.7431 50.138 90.4685 50.3349H90.4704Z" fill="url(#paint0_linear_1653_692)"/>
<path d="M37.1265 59.105C36.4876 58.9956 35.9378 58.4146 35.2554 58.729C35.2297 58.7409 35.202 58.7509 35.1763 58.7608C35.4908 58.9597 35.7835 59.097 35.9773 59.1985C36.185 59.3079 36.5114 59.4034 36.8891 59.489C36.986 59.4412 37.083 59.3954 37.1779 59.3576C37.3796 59.2801 37.3717 59.1487 37.1265 59.107V59.105Z" fill="url(#paint1_linear_1653_692)"/>
<path d="M130.121 40.7939C129.951 40.597 129.803 40.3602 129.676 40.0996C129.88 40.4338 130.06 40.6984 130.121 40.7939Z" fill="url(#paint2_linear_1653_692)"/>
<defs>
<linearGradient id="paint0_linear_1653_692" x1="12.0428" y1="31.23" x2="176.034" y2="31.23" gradientUnits="userSpaceOnUse">
<stop stop-color="#65C1F8"/>
<stop offset="1" stop-color="#BD9BFF"/>
</linearGradient>
<linearGradient id="paint1_linear_1653_692" x1="35.1763" y1="59.0612" x2="37.3203" y2="59.0612" gradientUnits="userSpaceOnUse">
<stop stop-color="#65C1F8"/>
<stop offset="1" stop-color="#BD9BFF"/>
</linearGradient>
<linearGradient id="paint2_linear_1653_692" x1="129.676" y1="40.4478" x2="130.121" y2="40.4478" gradientUnits="userSpaceOnUse">
<stop stop-color="#65C1F8"/>
<stop offset="1" stop-color="#BD9BFF"/>
</linearGradient>
</defs>
</svg>
