<svg width="217" height="79" fill="none" xmlns="http://www.w3.org/2000/svg"><path d="M139.902 67.064s-.698-.112-.972-.293c-.27-.18-1.129.523-1.579.68 0 0-2.044 1.431-4.164 3.116a3.41 3.41 0 00.372-.199c.98.03 2.017-.248 2.893.327.084.057.183.123.282.13 1.087.095 2.172-.052 3.239.431.799.361 1.991-.018 2.788.594.053.041.217-.008.327-.003.416.008.695-.609 1.114-.24.527.462.896-.317 1.414-.008.12.07.269.123.433.162-1.602-1.57-4.205-3.921-6.144-4.694l-.003-.003zM40.438 33.662c-.5.008-.826.17-.881.58-.045.319.063.713-.398.894-.449.175-1.06.472-1.419.363-.922-.277-1.558.428-2.446.232-.748-.162-1.466.123-2.198.39-.75.276-1.772-.076-2.522.446-.139.097-.414.102-.628.11-1.113.029-2.37-.188-3.306.13-1.095.38-2.164.262-3.22.447-2.747.483-5.505.92-8.016 1.998-1.328.57-1.681 1.455-1.982 2.43-.083.274.223.593.421.483 1.074-.575 2.387-.708 3.526-1.16.05-.018.06-.094.076-.17.436.157.87.311 1.307.465.05.397-.371.653-.695.734-1.035.261-1.686.938-2.614 1.301-.079.316.115.818-.369.873-1.058.114-1.743.645-2.595 1-.523.217-1.19.86-2.026.293-.05-.034-.394.102-.494.214-.316.337-.54.723-.87 1.052-.363.364-.515.758-.376 1.186.164.515.619.828 1.299.94.026-.38-.063-.832.603-.953 1.16-.206 1.626-.052 2.164.56.244.268.515.527.808.767.293.243.855.173 1.103-.136.225-.276.379-.585.614-.854.345-.394.894-.389 1.43-.378a.36.36 0 01-.016.05h.068c-.008.153-.029.31.016.456.044.15.183.282.282.42.105-.138.251-.266.303-.414.05-.147.024-.311.019-.468h.05s-.011-.023-.019-.034c.993-.008 1.715.33 1.958 1.066.136.413.29.786.554 1.165.326.462.026.86-.714.802-1.077-.079-1.876.595-2.86.501-1.094-.102-1.842.56-2.85.585-.787.024-.787.489-.761.915.008.154.144.303.24.446a.814.814 0 00.267-.07c.441-.25.896-.734 1.32-.716 1.165.044 2.101-.501 3.186-.559.998-.052 2.007-.029 3.008 0 .35.008.586.207.648.483.079.337.17.784-.31.889-.75.156-1.302.595-2.144.663-.713.057-1.396.428-2.06.7-.117.05-.104.303-.104.465 0 .063.104.154.19.18.197.063.406.128.612.13 1.569.011 3.134-.01 4.697.027.612.016 1.02-.29 1.524-.381.259-.05.648.415 1.08.075.214-.172.376-.143.517.079.102.156-.112.645-.327.63-1.155-.097-1.983.7-3.152.618-1.11-.078-2.018.552-3.189.544-1.042-.01-2.093.378-3.136.61-.413.09-.818.32-1.223.317-2.258-.024-4.18.867-6.273 1.282-1.114.223-2.023.755-2.596 1.482-.345.438-.595.828-1.267 1.034-.296.089-.309.431-.079.645.29.275.664.64.408.896-.588.601-.716 1.463-1.712 1.824-.585.209-1.205.376-1.8.566-.097.034-.17.11-.252.165.136.094.26.248.408.266.536.07 1.14-.023 1.524.38.154.164.578.247.274.587-.3.334-.525.716-.713 1.1-.335.679-.748 1.18-1.89 1.102-.428-.029-.62.614-.225.755.63.214 1.103.45 1.302 1.005.139.387.397.82.792 1.066.525.33.993-.13 1.474-.295.601-.204 1.059.66 1.777.105.361-.283.939-.44 1.456-.552.397-.088.999-.164 1.257-.007.683.412 1.414.438 2.204.438.473 0 .878.105.888.554.01.423.071.867-.697.967-.105.015-.204.062-.301.096-.275.102-.235.335.052.311 1.111-.078.709.982 1.576 1.11.63.097 1.247.337 1.79.604.327.154.51.48.759.731-.309.076-.612.154-.923.217-.104.023-.248-.023-.33.016-.138.062-.248.17-.368.258.09.052.175.139.27.146.329.024.666.019 1 .024 1.007.01 2.016.05 3.022.01.713-.026 1.268.139 1.85.44.5.255.782.049.638-.507-.05-.191-.146-.32.183-.348.552-.044 1.11-.034 1.665-.068.98-.06 1.932-.026 2.922-.352.863-.282 1.966-.144 2.967-.183 1.058-.05 2.109.057 3.128-.376-1.301-.81-2.885-2.377-1.576-5.517 0 0 2.776-4.182 5.912-6.883 0 0 2.706-2.738 3.605-3.206 0 0-.612-.43-.756-.757-.146-.321-1.662-1.079-1.842-2.633 0 0-.683-.07-1.153.29-.468.36-1.226 1.552-2.378 1.008-1.156-.54-1.446-1.079-1.192-1.583.256-.507 1.155-2.56 1.155-2.56s-.578-.321-.11-.757c0 0 .251-.251.578-.07l.54-.758s-.61-.431-.506-.431c.104 0 .327-.07.327-.07s-.649-.649.11-.758c0 0-.9-.792.501-.938 0 0-.648-.54.037-.938.687-.394 1.045-.682 1.947-.757 0 0 .578-2.09 1.045-3.279.468-1.188 1.48-2.883 2.091-2.703l4.457-8.639c-.98.01-1.958.019-2.935.03l.013.004zm3.67 44.357s.216-.216-1.768-.397c-1.983-.18-5.154-.467-5.77-.54-.45-.053-2.35-.243-3.733-.554-.363.175-.732.368-1.087.36-1.741-.034-3.55.465-5.228-.3-.172-.078-.575-.123-.614-.07-.567.72-1.722.281-2.402.723-.23.149-.379.37-.567.562.206.052.408.148.614.154 2.462.023 4.922.029 7.384.042.222 0 .457-.045.669-.008.949.172 1.605-.698 2.54-.431.819.232 1.569.621 2.402.82.615.146 1.313.138 1.976.138 1.997 0 3.989 0 5.986-.002a7.682 7.682 0 01-.403-.494v-.003zm3.556-44.803c-.31.034-.619.102-.927.24-.387.175-.947.149-1.456.154-1.111 2.262-2.669 5.488-2.901 6.277.086-.136 1.492-2.299 2.015-3.307 0 0 .25-.146.648 0 0 0 1.767-.036 1.981-.326.217-.29.363-.721 1.336-.682l.577-.217s-.786-1.22-1.275-2.137l.002-.002zm.157 36.332c-.899-3.385-2.415-5.37-2.415-5.37s-2.776 2.202-3.573 2.99c-.792.792-3.24 2.487-3.638 2.594-.397.11-1.55 1.225-1.55 1.225s1.55.144 2.379.431c.828.288 3.207 1.26 4.576 1.586 1.372.321 2.164.862 3.354.901 1.189.04 2.524.11 3.426.037 0 0-1.657-1.008-2.559-4.399v.005zm2.993-36.406c.222.32.48.67.792 1.053l.525-1.084c-.439.008-.878.018-1.317.029v.002zm165.567 29.126c-.352-.17-.833-.188-.94-.577-.27-.12-.534-.251-.813-.353-.403-.144-.568-.87-1.224-.368-.535.405-.844-.56-1.317-.06-.175.188-.327.164-.525.042-.769-.484-.972-1.568-2.439-1.338-.086.016-.316-.232-.355-.376-.071-.243-.063-.502-.063-.755-.008-.674.06-.713 1.147-.901a3.17 3.17 0 00.852-.261c.21-.113-.067-.687-.439-.852-.371-.17-.818-.256-1.144-.457-.552-.342.112-.36.29-.42.316-.11.648-.207.622-.492-.024-.224-.175-.462-.343-.66-.149-.176-.143-.32.173-.337.601-.037 1.333-.249 1.579.44.18.069.428.116.488.226.207.368.225.802.988.825.424.01.86.139 1.247.282.434.162.897.295 1.134-.084.17-.269.162-.673.037-.966-.24-.551-1.161-.768-1.265-1.452-.058-.356-.421-.154-.695-.045-.834.343-1.723.33-2.502-.029-.517-.24-1.027-.266-1.576-.318-.13-.01-.235-.175-.353-.27.199-.06.398-.13.602-.18.104-.023.224-.002.334-.023.761-.136.761-.43.972-.786.275-.473-1.544-.894.068-1.325.675-.18 1.148-.23 1.744.016.136.052.402-.07.601-.128a.328.328 0 00-.063-.183c-.136-.13-.295-.248-.439-.379-.214-.195-.473-.37-.622-.592-.494-.732-.481-.755-1.61-.716-.63.023-1.035-.225-1.44-.533-.222-.172-.251-.285-.008-.382.376-.154.792-.26 1.119-.462.17-.104.679-.31.172-.554-1.103-.527-2.232-1.034-3.353-1.54-.277-.129-.782-.189-.834-.348-.457-1.343-1.819-1.293-3.181-1.251-.912.026-1.505-.792-2.501-.536-.045.01-.204-.196-.267-.31-.015-.024.149-.15.241-.155.554-.023 1.113-.008 1.67-.05.131-.007.248-.188.345-.3a.48.48 0 00-.233-.157c-.285-.057-.635-.05-.679-.334 0-.052.36-.175.551-.18.776-.024 1.54-.042 2.222.368.408.24.847.037 1.171-.222.285-.235.627-.188.904-.068.371.162.62.353 1.134.13.249-.109.756.147 1.153.207.376.06.695-.18.601-.436-.052-.146-.154-.379-.274-.395-1.299-.164-2.462-.76-3.837-.655-1.017.078-1.767-.656-2.862-.51-.868.12-1.79.076-2.674.003-1.074-.086-2.018-.54-3.173-.528-1.166.008-2.263-.483-3.474-.603-1.019-.102-1.97-.68-2.927-1.084-1.16-.489-2.337-.94-3.706-.794-.776.083-1.163-.455-1.817-.533-.648-.078-1.335.089-1.949-.217a2.646 2.646 0 00-.907-.25c-1.213-.11-2.533.203-3.62-.251-1.069-.442-2.337 0-3.2-.455-1.087-.575-2.464-.05-3.455-.757-.251-.18-.855-.068-1.294-.105-1.403-.128-2.867.196-4.213-.462-.397-.196-1.092-.053-1.652-.053-1.565-.007-3.139-.11-4.689.01-1.505.116-2.755-.5-4.163-.595-.095-.008-.196-.094-.251-.162-.019-.018.086-.13.162-.156.596-.199 1.173-.484 1.798-.56a12.237 12.237 0 012.671-.044c.983.102 1.558-.64 2.509-.55.544.057 1.111-.017 1.665-.045.094-.003.181-.094.269-.144-.122-.089-.243-.25-.376-.256-.515-.018-.776-.295-1.079-.535-.076-.06-.199-.17-.173-.207.079-.115.214-.285.335-.292 1.006-.042 2.01-.042 3.016-.084.102-.008.206-.183.269-.295.011-.024-.157-.149-.243-.154-1.119-.008-2.232-.003-3.351 0-.726.002-.93.321-.888.82.034.37-.144.653-.722.66-1.456.016-2.906.037-4.359.05-.555.008-.544-.007-1.956-.94-.235-.154-.622-.172-.862-.326-.123-.079-.154-.317-.112-.465.068-.225.277-.275.462-.139.429.316.946.363 1.498.308.206-.674.993-.415 1.56-.533.489-.101.277-.355.076-.524-.235-.196-.23-.345.11-.343 1.301.008 2.645-.326 3.886.262.17.078.484.138.615.075.687-.329 1.343-.627 2.075-.078.622-.376 1.163-.024 1.748.086.424.076.983.146 1.318.003 1.192-.523 2.266.258 3.398.088 1.489.536 3.107.836 4.694.938 1.55.097 2.919.672 4.508.661 1.017-.008 2.097.39 3.043.76 1.16.45 2.412.726 3.612 1.04 1.074.277 2.352.104 3.544.112-.076-.138-.138-.329-.248-.347-.536-.079-1.093-.089-1.636-.139-.649-.052-.897-.344-.518-.872.275-.379.146-.523-.144-.812-.394-.398-1.346-.23-1.448-.868-.334-.18-.674-.355-.998-.55-.35-.21-.656-.432-1.155-.44-1.103-.015-2.222 0-3.2-.49-2.13.213-4.077-.64-6.202-.62-1.171.016-2.344-.37-3.489-.6-.86-.17-1.699-.405-2.567-.338-1.074.087-1.879-.405-2.82-.587-.094-.019-.165-.113-.248-.17.164-.086.321-.243.491-.25 1.338-.037 2.679-.037 4.017-.071.204-.003.398-.113.596-.173-.261-.083-.522-.232-.784-.235-1.56-.026-3.126-.042-4.689-.016-1.087.019-2.023.586-3.194.484-1.103-.09-2.229-.01-3.345.01-.322.003-.688.01-.965.12-1.725.669-3.371.423-5.065-.115-.489-.156-1.025-.3-1.54-.402-1.466-.3-2.896-.755-4.49-.66-1.085.062-2.154.025-3.207-.437-.601-.259-1.526-.076-2.308-.11-.089-.002-.18-.094-.266-.146.104-.097.203-.274.316-.277 1.2-.044 2.428.068 3.507-.507.097-.052.382.097.578.157.183.052.455.196.533.146.39-.232.162-.862.991-.854.541.008 1.085-.068 1.626-.12.07-.008.128-.102.196-.157-.087-.052-.165-.143-.259-.157-.322-.041-.654-.052-.975-.083a.888.888 0 01-.295-.079c-.097-.041-.173-.11-.257-.164.076-.06.136-.144.23-.172 1.801-.575 3.584-1.134 5.62-1.118 5.358.041 10.719.01 16.079.007.552 0 1.13.058 1.54-.334.138-.13.277-.261.413-.394-.144-.087-.282-.233-.437-.243-.441-.042-.894-.026-1.338-.029-.559-.008-1.119.018-1.673-.016-.765-.05-1.604.165-2.276-.209-.562-.316-1.626-.214-1.621-1.068 0-.078-.562-.217-.862-.225-2.238-.034-4.48-.149-6.696-.01-1.42.089-2.525-.567-3.853-.562-.112 0-.23-.18-.342-.277.086-.052.172-.149.258-.149a359.25 359.25 0 014.015-.052c.311-.002.614-.018.69-.292 0-.03-.363-.144-.567-.17-.536-.07-1.077-.113-1.618-.175-.06-.008-.162-.128-.144-.15.052-.07.146-.153.243-.169.424-.068.868-.083 1.276-.183.143-.034.285-.258.285-.397.007-.292-.157-.439-.581-.248-.765.345-1.307-.363-2.101-.256-.735.102-1.542-.05-2.308-.128-.105-.01-.175-.209-.259-.347.196-.008.39-.008.581-.029.277-.029.757.029.465-.371-.157-.217-.468-.363-.669-.567-.155-.156-.588-.43-.034-.525 1.591-.269 3.222-.904 4.822-.488 2.708.697 5.436.321 8.157.397-.015-.259-.24-.39-.559-.442-.949-.162-1.921.053-2.912-.329-.82-.316-1.913-.222-2.88-.334-.267-.029-.269-.199-.016-.356.243-.148.615-.454.748-.404 1.696.645 3.489.23 5.23.32.329.017.669.017.998-.015.207-.018.541-.07.578-.164.525-1.353 1.997-.62 3.034-.818.139-.026.233-.188.345-.285-.086-.052-.18-.156-.258-.149-1.137.09-2.13-.256-3.126-.585-.123-.041-.175-.198-.262-.303.199-.06.395-.135.601-.17.215-.033.458.016.662-.041.144-.037.24-.183.355-.282-.086-.058-.162-.15-.256-.157-.327-.037-.666-.024-.991-.07-.316-.05-.517-.21-.58-.458-.734-.075-1.456-.042-2.19-.342-1.223-.499-2.559-.854-3.884-1.188-.51-.131-1.027-.204-1.526-.403-1.051-.42-2.117-.904-3.254-1.092-1.164-.19-2.421-.062-3.639-.075-.551-.008-1.105.01-1.654-.027-.335-.026-.601-.175-.62-.472-.015-.251-.057-.507-.026-.758.086-.64-.468-.94-1.189-.548-.727.397-1.445.407-2.117.01-.604-.355-1.148-.645-1.963-.8-1.045-.203-2.031-.535-3.144-.464-.317.023-.635-.003-.954-.008-.06-.261-.285-.428-.615-.442-1.001-.036-2.007-.036-3.013-.057-.442-.008-1.014.105-1.31-.06-1.406-.794-2.697-.149-4.066.01-.612.07-1.046.622-1.749.327-.706-.295-1.2.217-1.689.387-.611.208-.912.104-1.414-.079-.394-.144-.82.034-.933.429-.217.015-.439.026-.656.041-.086.144-.17.345-.266.348-1.32.052-2.645.07-3.97.096-1.009-.715-2.447-.19-3.44-.608-1.189-.502-2.36-.345-3.549-.405-.777-.042-1.326-.562-2.183-.476-.758.079-1.545-.033-2.324-.06-.494-.7-1.445.275-1.973-.308-1.325-.044-2.648-.13-3.973-.115-1.189.01-2.412-.235-3.55.363-.38.204-1.076.079-1.627.087-1.446.015-2.894.015-4.337.026-.559.002-1.118 0-1.67.028-.653.037-1.414-.188-1.923.199-.544.407-.973-.345-1.425.008-.439.342-.794-.18-1.103-.086-.394.122-.635.318-1.11.052-.31-.173-.83-.154-1.258-.162C81.713.522 80.265.538 78.82.493c-.758-.023-1.576.175-2.264-.206-.697-.395-1.293.499-2.085.008-.623-.387-1.347.23-2.12.209-2.669-.068-5.343.002-8.014.023-.334 0-.674-.029-.998.016-.3.044-.698.115-.837.282-.149.175-.088.457-.104.7-.549.052-1.067.016-1.49-.308-.18-.139-.439-.087-.457.136-.045.553-.45.67-1.093.679-1.534.015-3.092-.097-4.524.506-.259.11-.661.037-.99.01-.205-.015-.395-.104-.594-.161.094-.105.157-.274.282-.3.821-.183 1.485-.734 2.441-.61.076.009.173-.096.26-.148-.131-.094-.26-.261-.403-.269-.442-.029-.973-.112-1.325.029-1.553.634-3.215.436-4.852.483-.765.023-1.515-.034-2.25.3-.431.196-1.074.154-1.618.157-1.215.008-2.36.172-3.552.42-1.129.236-2.329.356-3.497.578-1.44.274-2.177 1.087-3.05 1.826.149.094.293.256.457.269.327.029.769.078.98-.05 1.339-.836 3.032-.906 4.582-1.277 1.137-.274 2.316-.439 3.466-.653 1.265-.235 2.66-.07 3.999-.07.086 0 .18.088.259.146.149.11.096.25-.188.334-1.73.488-3.398 1.16-5.332 1.068-.69-.028-1.284.528-2.091.147-.207-.097-.818.188-1.156.386-.491.29-.912.413-1.398.034-.42.277-.836.554-1.257.828-.714-.525-1.32.094-1.984.105-.894.01-1.864-.147-2.653.078-.721.204-1.458.308-2.156.494-2.01.535-4.224.927-5.136 2.722-.259.506-.915-.27-.988-.05-.282.878-1.268.721-2.007.972-1.174.405-2.483.577-3.422 1.41-.794.706-1.955 1.043-3.254.982-.441-.023-.894.045-1.335.024-1.569-.076-3.027.123-4.394.768-.528.25-1.22.3-1.811.488-.097.034-.162.398-.079.447.416.235.92.395 1.328.637.214.128.463.421.403.57-.084.206-.416.473-.688.501-.868.102-1.759.173-2.63.131-.945-.044-1.73.183-2.514.517-.441.188-.765.57-.619.734.319.36.536-.002.802-.026 1.733-.149 3.335-.86 5.141-.713.701.06 1.273-.165 1.877-.402.175-.07.758.115.803.248.156.48.094.982.57 1.418.096.094-.304.494-.51.776-.714.018-1.43.018-2.138.07-.293.019-.468.197-.5.43.387.007.774.017 1.16.01.49-.01.701.203.814.506 1.1-.002 2.198-.007 3.298-.007 2.308-.894 4.783-.345 7.18-.484.199-.01.416.063.614.12.079.024.128.105.191.157-.086.058-.17.154-.259.157-1.963.063-3.782.836-5.815.603a6.33 6.33 0 00-3.738.708c-.596.321-1.299.165-1.858.442-.063.028-.146.128-.13.146.062.068.156.154.25.157.55.036 1.103.036 1.652.088.157.016.431.196.413.249a.81.81 0 01-.376.397c-.267.135-.575.277-.879.295-.773.05-1.57-.042-2.328.063-1.7.235-3.422.446-5.013 1-.173.06-.309.183-.463.277.183.078.36.214.549.224.442.027.972.11 1.32-.036 1.777-.726 3.68-.36 5.53-.465.601-.037 1.02.282 1.508.376 1.393.267 2.87.267 4.214-.097.648-.175 1.247-.29 1.902-.284 2.091.002 4.18.018 6.27.028-.07.139-.13.337-.235.353-1.058.146-2.093.256-3.133.567-.87.258-1.99.183-2.962.076-1.181-.13-2.03.593-3.173.517-.975-.063-1.931-.026-2.888.355-.627.25-1.508.13-2.276.18-.361.024-.578.162-.67.442-.101.334.184.447.495.514.206.045.447 0 .66.03.733.109.882.276.819.843-.06.54-.21.653-1.059.682l-.964.028c-.086.136-.154.322-.282.348-.954.198-1.937.214-2.87-.029-.395-.104-.8-.454-1.179-.248-.601.334-1.14.76-1.592 1.215a.388.388 0 01-.11.088c.045-.018.15-.028.29.094.275.251.612.646 1.054.473 1.772-.687 3.651-.337 5.48-.413.301-.01.51.207.563.463.536.008 1.027.068 1.516.321.319.17.993.29 1.233.154 1.033-.593 1.744-.394 2.562.259.428.345 1.119.527 1.733.69.39.104.993.17 1.267.015.915-.514 1.916-.321 2.894-.379 1.084-.062 2.213.165 3.215-.423.603-.352 1.335.664 2.023 0 .548.251 1.312.408 1.586.776.316.42.554.656 1.197.653 2.567-.023 5.134-.057 7.695-.016.726.01 1.231-.407 1.869-.397.515.008 1.186.447 1.508.311.577-.243 1.166-.352 1.764-.394l1.302-2.524s-1.085-.937-.147-1.836c0 0-.11-1.585.147-1.946.25-.36.54-.217.54-.217s0-.577.83-.577c0 0 .109-.468.972-.25l1.913-3.642s-.256-.251.104-.431c0 0-.682-.468.758-.54l2.198-2.595s-.214-.25.217-.25l.649-.758s-.144-.327.217-.217l.72-.757-.216-.144.18-.25.18.143.688-.792-.217-.146.18-.18.257.146.682-.687-.322-.25.18-.257.252.29 1.479-1.729.721 1.045-.431.682.431.036s-.07.721-.321.901c0 0-.688-.216-.251.36l-.578.437s-.54.07-.54.465.394 1.084-.508.758l-.321.326s.143 1.118-.578.682l-.217.326s.36 1.08-.578.502l-.321.397s.758.938-.327.721l-.682.687s-.36-.468-.578-.07c0 0-1.045.647-1.8 2.055-.732 1.353-1.399 2.516-1.44 2.591.044-.023.381-.156.214 1.265-.18 1.515-.11 2.808-.11 3.892 0 .695.029 1.345.549 2.343.353-.003.706-.008 1.059-.003-.275-.292-.542-.626-.706-.932-.377-.721.577.517.841.854-.269-.379-1.372-1.983-1.31-2.84 0 0 .83 2.524 2.204 2.558 0 0-1.432-1.904-1.605-2.732 0 0 .81 1.543 1.605 1.763 0 0-.614-.938-.648-1.406 0 0 .285.29 1.153.147 0 0-2.92-.687-2.92-2.236 0 0 .36.9 1.19 1.188l-.722-.974s1.838 1.515 2.776.794c0 0-1.336-.577-.468-2.667 0 0-.18 2.411.792 2.377 0 0-.938-1.585-.29-2.343 0 0-.322 1.045.146 1.515 0 0 .431-1.549.502-2.126v1.549l.868-1.656-.18 1.078 1.008-1.8-.07 1.226.29-.397s.395.29.395 1.008c0 0 .577-.507 1.189-.507 0 0-.034-.43-.722-.36l.578-.144-.687-.11.724-.143-.975-.147s1.37-.898 2.668-.07l-.682-.687 1.009.29-.251-.502.829.29-.364-.507.648.18-.18-.396.938.326-.43-.757.61.397-.213-.578.648.251.034-.648.256.507.104-1.084.468 1.014.11-.834.687 1.732.034-.828.257.648.07-.721.578.611-.11-.9.29.827.07-.867.252 1.079.326-.431s.756.687.29 1.875c0 0 .466.792.07 1.98l-.036.687.722-1.585s.11 1.515-.863 2.523c0 0 .07 1.189-1.335 1.91 0 0 .507.07.36 1.154-.143 1.079.398 1.189.722 1.91.326.72.18.867.076 1.836-.09.794-.2 1.85-.241 2.212.023-.342.06-1.3-.23-2.175l-.18 1.875-.361-1.405s-.434 1.729-.11 3.025c0 0-.577-.502-.468-1.766 0 0-.721 1.188-.648 2.056 0 0-.507-.648.144-1.91 0 0-.502.502-.938 1.763-.432 1.264-1.01 1.552-1.01 1.552s.722-1.155.83-2.56c0 0-1.48 2.954-2.199 3.244l.792-1.222-.902.828.5-1.074c-.087.128-.777 1.152-1.182 1.285 0 0 .502-1.078.502-2.377l-.431 1.37-.037-1.37s0 1.009-.07 1.118c-.071.11-.217-.54-.217-.54l-.105.828-.183-.901-.18.54-.144-1.298-.468 1.118s0-.794.18-1.298c0 0-.43-.037-.54 1.078-.11 1.119-.147 3.172-.758 4.002-.612.828-1.621 1.333-2.416.251 0 0-2.668 3.315-2.705 3.856-.034.543-.25 1.008-.104 1.225.143.217.611.611.933 1.444.326.828 1.045 2.377 1.155 2.989.11.614.07 1.405.18 2.016.11.614.327 1.225.327 1.552 0 .326.648.07.285.791-.36.721.468.36-.144 1.045-.611.682-.792 1.045-.792 1.045l.722 5.729s.577.033.36.72c-.217.682 0 .541.07 1.009 0 0 .252.467.11.828 0 0 .398-.147.542.54 0 0 .326-.9.758-.577.431.327.07.29.938-.104.863-.397 2.128-1.301 8.11-1.372 5.986-.07 4.904-.467 5.05.327.144.791.502-.037.933-.397.437-.36 1.085-.431 1.445.036.361.468.758-.397 1.44-.036 0 0 .147-.29.759-.687 0 0 .54-.972 1.299-.901.758.07 1.406.867 3.353 1.695 1.947.828 4.723 2.845 5.515 5.982 0 0 .11 1.008-.758 1.188-.863.18-1.08.11-1.08.11s-.682-.501-1.479-.501-1.877-.398-1.877-.398-.321.29-.899-.143c-.577-.437-.29-.468-1.406-.687-1.116-.22-1.8-.507-1.8-.507s-.398.326-1.227.11c0 0-.687.436-1.766.07 0 0-1.697 1.084-4.436.724-2.739-.36-8.727 1.549-11.537 1.836-2.815.29-3.784.431-3.784.431s.18.867-.327 1.803c-.235.438-.442 1.308-.593 2.142.75-.003 1.5-.003 2.248-.016.781-.008 1.557-.024 2.336-.034.468-.708 1.268.042 1.955-.274.957-.442 2.17-.15 3.273-.144.164 0 .45.172.467.285.115.63.434.637 1.04.295a3.342 3.342 0 011.18-.408c.342-.044.953.204 1.045.102.528-.55 1.04.285 1.688-.07.492-.27 1.328.51 2.06.214.593-.243 1.105-.517 1.843-.473.776.05 1.584-.083 2.341.024.656.086 1.007-.627 1.778-.233.402.206 1.014-.11 1.67.123.7.243 1.492-.635 2.446-.431.622-.423 1.354-.475 2.164-.483 1.394-.016 2.826.172 4.151-.348.795.585 1.338.183 1.976-.224.664-.424 1.398-.766 2.224-.899.188-.355.364-.716.536-1.076 1.014-2.137 1.181-4.506 1.553-6.813.057-.352.057-.713.078-1.073.044-.69.058-1.38.139-2.067.248-2.118 1.353-3.813 2.767-5.328.442-.481.536-.81.113-1.29a6.92 6.92 0 00-1.265-1.148c-.74-.506-1.148-1.152-1.174-2.05-.008-.19-.154-.376-.232-.562-.11-.266-.251-.525-.317-.799-.052-.235-.007-.491-.007-.724-.377-.028-.696-.041-1.015-.078-1.035-.123-1.842-.525-2.127-1.646-.052-.214-.356-.36-.544-.54-.034-.034-.086-.076-.086-.11.029-.494-.356-.455-.661-.517-.604-.13-1.04-.429-1.226-1.066a5.773 5.773 0 00-1.032-2.04c-.416-.517-.589-1.225-.868-1.857-.019-.045.002-.11-.008-.162-.128-.674-.251-1.359-.395-2.032-.023-.113-.12-.223-.209-.303a4.516 4.516 0 01-1.364-2.336c-.019-.078-.079-.154-.13-.222-.819-1.06-.605-2.144.302-2.792.196-.144.371-.308.688-.57-.463-.3-.842-.54-1.22-.786-.456-.295-1.078-.499-1.326-.92-.311-.527-.708-.927-1.127-1.332-.18-.175-.37-.347-.507-.559-.094-.143-.094-.347-.138-.525.19-.01.408-.088.562-.023.269.123.51.329.755.51.191.145.369.302.552.456-.042-.19-.155-.3-.249-.428-.31-.415-.64-.82-.907-1.264-.075-.128.034-.363.06-.549.492.175 1.104-.097 1.509.397.112.139.209.29.3.408l.17-.74c.217.15.465.27.64.457.15.157.223.395.361.664.102-.397.233-.713.259-1.032.063-.755-.016-1.525.136-2.257.217-1.079.567-2.126 1.54-2.84.483-.346.825-.898 1.5-.945.07-.002.143-.104.198-.172.316-.379.714-.368 1.053-.11.317.243.578.222.89.06.694-.363 1.335-.198 1.894.27.311.26.562.6.82.919.173.206.27.488.469.653.596.488.878 1.05.585 1.815-.016.045-.026.128 0 .157.458.468.165 1.066.248 1.593.094.588.173 1.239-.413 1.69-.062.05-.102.15-.122.233-.189.687-.39 1.364-.552 2.056-.097.42-.07.791.416 1.034.525.267.993.64 1.492.959.068.044.183.096.243.07.51-.232.941.045 1.393.204.369.128.706.084.902-.258.387-.672 1.006-.855 1.712-.957.256-.036.536-.209.716-.407.416-.462.912-.74 1.524-.833.818-.128 1.456-.56 2.01-1.163.266-.285.575-.543.899-.755a325.275 325.275 0 014.739-2.996c.509-.316.873-.7 1.024-1.316.063-.267.353-.476.515-.726.225-.353.494-.698.63-1.087.274-.807.024-1.544-.403-2.25-.261-.438-.569-.893-.203-1.446.049-.076-.034-.285-.11-.395-.199-.269-.371-.51-.128-.86.172-.242.269-.54.415-.801.024-.037.131-.05.199-.045.612.037.734.844 1.37.878.094.003.209.183.261.308.044.105 0 .248.018.371.079.51.079 1.053.267 1.523.261.653.543 1.275.525 2.004-.01.407.058.82.071 1.23.015.442.112.818.428 1.173.249.274.432.669.489 1.032.079.49-.342.768-.758.517-.363-.217-.604-.044-.8.149-.423.436-.818.906-1.189 1.392-.698.912-1.343 1.863-2.062 2.759-.975 1.22-2.078 2.335-2.713 3.803-.217.507-.648.833-1.205 1.008-.196.063-.329.316-.507.465-.243.21-.507.585-.755.58-.709-.01-.975.387-1.224.93-.337.734-.619.87-1.377.8-.19.394-.379.78-.562 1.164.622.933 1.242 1.897 1.895 2.834.494.706 1.077 1.346 1.539 2.067.86 1.345 1.665 2.721 2.476 4.093.329.554.635 1.12.922 1.695.162.319.243.674.408.993.371.713.842.888 1.61.674.206-.058.421-.097.635-.105 1.5-.07 3.006-.206 4.506-.172 2.76.06 5.526.13 8.278.386 1.126.11 2.3.191 2.87 1.359.363.747.543 1.583.784 2.385.261.88.01 1.695-.353 2.5-.886 1.953-2.326 3.31-4.242 4.252a7.523 7.523 0 00-2.07 1.507c-1.519 1.602-3.186 3.004-4.987 4.274-.714.501-1.32 1.154-1.989 1.724-.262.224-.523.465-.782.697.664-.018 1.333-.036 1.984.024 1.929.175 3.654-.489 5.478-.721.502-.063.991-.316 1.566-.303.672.016 1.346-.06 2.01-.01.716.057 1.404.052 2.096 0 1.067-1.552 2.81-3.848 3.691-5.097 1.199-1.695 4.09-4.652 4.791-5.036 0 0-.136-1.016.609-1.353 0 0 .206-.113-.024-.274-.225-.157-.991-1.035-.991-1.105 0-.068.586-1.31.743-2.19.157-.877.387-2.865.407-3.858.024-.992.382-3.795 1.31-7.337 0 0 .293-1.377 1.853-3.297 0 0 .204-3.975.18-4.652-.023-.674-.475-1.465-.25-2.55.23-1.084.373-2.102.373-2.102s-1.21.415-1.286.123c-.162-.64 1.192-.847 1.216-.915 0 0-.463-3.359-.463-3.652 0-.292-.248-.723-.337-1.42-.089-.7-.724-3.728-.724-9.01 0 0-.045-.72-.316-1.084-.27-.36-.024-.248-.562-.54-.544-.296-1.017-.837-1.017-.837s-.071.586-.319.382a2.463 2.463 0 01-.517-.585c-.157-.225-.319-.68-.319-.68s-.317-.224-.562-.428c-.249-.204-.837-1.264.405-.904 0 0-.157-.61.183-.7.337-.088 1.22-.292 1.22-.292s.089-.611.068-1.04c-.023-.428-.295-1.397-.295-2.1 0-.703.476-.86.544-.316.068.54.136 1.152.337 1.444.204.293.204 1.353.431 1.764.225.405 2.237 3.926 2.258 4.153.024.225.698 3.022.928 4.268.225 1.241 1.579 4.966 1.558 5.823-.024.86-.024 2.189.068 2.573.089.386.337 2.664.34 2.67.01.072.478.075.528.07.258-.032.146-.282.167-.507.021-.243.17-.306.238-.321.666-.16 1.411-.128 2.125-.238.397-.063.661.11.685.353.057.585.117.786.086 1.374-.003.055-.092.462-.434.501-.821.094-1.393.15-2.219.16-.058 0-.282.018-.4-.165-.037-.055-.099-.313-.141-.326-.126-.042-.458-.027-.51.07-.104.186.076.993.217 1.196.204.293.837 1.672.837 1.672s.629.742.629.922c0 .18.136.523.181.656.044.136 1.539.316 1.808.292.27-.023.338-.561-.316-1.51-.656-.948-.7-1.49-.431-1.627.274-.136.431-.204.431-.493 0-.29.068-.337.518-.382.454-.05.928-.723 1.04-.948.112-.23.225-1.06.972-.836 0 0-.044-1.105.544-1.06.585.044 1.04.859 1.602.38 0 0 .269-.404 1.605-.292 0 0 .923.113 1.265.337.337.225 1.803-.112 3.074 2.892l-.432-.543.27.655-.335-.441c.05.17.855 2.9.855 4.213 0 1.314.225 6.975.428 7.542.173.472.439 3.33 1.404 5.234-.369-.593-.795-1.35-1.009-1.943.18.551 1.208 3.626 2.371 5.044-.175-.17-1.592-1.583-2.421-3.315.042.233.748 3.994 1.644 4.911 0 0-1.241-1.04-1.265-1.74 0 0 .068 1.447.5 1.852 0 0-.432-.068-.656-1.308 0 0-.157.791-.045 1.577 0 0-.293-.381-.204-1.51l-.251.7v-1.695s-.269.949-.204 1.646c.068.7.068 1.06.068 1.06s-.224-.585-.316-1.172c0 0-.376.6-.188 1.068a1.332 1.332 0 01-.183-.987l-.217.82s-.044-1.646-.18-1.852c0 0-.222 1.343-.071 1.954-.052-.113-.543-1.2-.361-2.435-.033.207-.389 2.273-.198 2.876l-.319-.407-.18.363-.181-.88-.316.337-.024-1.286-.295 1.534s-.157-.972-.068-1.69c.094-.724-.204-2.532-.204-2.532s-.248 1.04-.156 1.651l-.217-1.084c.052.376.405 2.895.196 3.229 0 0-.181-2.257-.406-3.093 0 0-.371 1.878-.274 2.531-.086-.334-.335-1.57.204-2.818-.071.044-.787.57-.361 2.978 0 0-.834-1.38-.698-2.712 0 0-.567 1.515.089 2.756 0 0-.768-.136-.475-1.492 0 0-.361.157-.474.792 0 0-.068-.972.562-1.784 0 0-.697.342-.765 1.152 0 0-.045-1.12.669-1.975-.079.078-.714.734-1.077 2.092 0 0-.267-.671-.003-1.076-.049.068-.423.622-.423.938 0 0-.293-.428.381-1.578.68-1.152.364-2.573.364-2.573s.023 1.353-.455 2.03c-.473.679-.748 1.152-.748 1.152s-.112-.316.588-1.264c.701-.949.338-1.803.338-1.803s.089 1.152-.63 1.85c0 0 .494-1.017.494-1.646 0 0-1.446.608-1.333 1.828 0 0-.335-.36.196-1.12-.094.104-.826.958-1.121.982 0 0 1.084-1.129 1.56-1.983l-.748.653.526-.862c-.089.09-.507.536-1.362 1.586-.972 1.196-1.106 1.489-1.174 1.781-.068.295-.269.251-.499.612-.225.36-.089.405-.157.812-.068.405-.068.494.089.768.162.269 3.006 4.357 2.556 5.373 0 0 .113.946.654 1.69.544.747.476.836.949 1.309.475.475.656.948.86 1.56.203.608 3.342 5.733 3.342 5.733s.523.225.68.611c.008.016.011.03.016.042.138.097.274.21.449.214.897.016 1.793 0 2.687.034.769.026 1.338.517 2.19.483 1.234-.05 2.517-.007 2.774 1.273.041.203.256.175.494.018.35-.23.82-.415 1.178-.11.664.575 1.686.217 2.457.661.701.402 1.699.316 2.499-.076.405-.198.818-.3 1.249-.209.518.105.988.353 1.506.45.635.115 1.354-.079 1.923.277.476.3 1.069.182 1.577.31.224.058.342.395.473.614.128.217.243.248.475.154.834-.326 1.516.353 2.389.199.74-.13 1.568.06 2.334-.018.868-.087 1.433.407 2.18.49.769.087 1.723-.083 2.282.207 1.077.56 2.454.052 3.455.768.455.321 1.046-.562 1.767-.076.518.348 1.278.162 1.937.139.439-.01.726-.489.475-.76-.128-.139-.292-.256-.431-.39-.818-.807-.802-.794.379-1.596.322-.216.675-.483.8-.78.233-.56.544-.29.941-.157.792.258 1.511.138 2.127-.33.293-.224.199-.415-.01-.63-.405-.404.154-.336.379-.448.172-.09.81-.097.23-.416-.664-.368-.774-.535-.363-.734.274-.135.575-.235.841-.378.86-.45 2.044-.593 2.355-1.565.094-.295.58-.447 1.074-.5.379-.04.437-.302.029-.435-.266-.084-.645-.045-.622-.353.008-.07.35-.17.549-.18.442-.034.897 0 1.338-.042.139-.016.387-.243.361-.274-.761-.972.423-.724.842-.674a21.66 21.66 0 013.136.603c.423.115.708.342 1.103-.01.361-.322 1.051-.588 1.1-.922.113-.766.74-.698 1.396-.755.191-.016.363-.154.549-.233-.188-.086-.363-.206-.567-.243-.567-.104-.782-.48-.552-.75.345-.412.468-.681-.089-1.015a1.895 1.895 0 01-.609-.601c-.075-.115.027-.311.084-.463.016-.041.204-.096.241-.075.575.337 1.241.29 1.91.329 1.197.07 2.376-.029 3.576.42.818.303 1.973.102 2.979.09.165 0 .473-.197.463-.283-.029-.233-.115-.551-.329-.653l-.027.026zM46.415 31.317l-.413.828c.316.015.63.023.946.018h.191a3.372 3.372 0 00-.724-.846zm57.23 33.195c-.442.622-.787 1.094-1.122 1.575-1.327 1.897-2.668 3.79-3.978 5.7a700.27 700.27 0 00-2.509 3.662c.317-.042.695 0 1.025-.01.337-.01.708.062 1-.026.17-.053.338-.11.503-.17-.01-.353.209-.627.622-.81.896-.408 1.777-.852 2.681-1.246.834-.36 1.388-.993 1.861-1.737.317-.5.664-.982 1.046-1.432.408-.483.983-.64 1.602-.61.484.025.972.13 1.448.093.353-.026.834-.123 1.014-.368.735-.998 1.707-1.834 2.083-3.1.217-.727.638-1.404 1.007-2.078.269-.498.603-.963.993-1.577-3.199.998-6.273 1.875-9.279 2.134h.003z" fill="url(#paint0_linear_154_641)"/><path d="M33.153 76.026c-.844-.144-1.57-.906-2.472-.494-.034.016-.07.03-.105.042.416.261.803.442 1.059.575.274.144.705.269 1.205.381.128-.062.256-.123.381-.172.267-.102.257-.274-.068-.33v-.002z" fill="url(#paint1_linear_154_641)"/><path d="M156.042 51.984a4.185 4.185 0 01-.588-.912c.269.44.507.786.588.912z" fill="url(#paint2_linear_154_641)"/><defs><linearGradient id="paint0_linear_154_641" x1=".006" y1="39.427" x2="216.713" y2="39.427" gradientUnits="userSpaceOnUse"><stop stop-color="#65C1F8"/><stop offset="1" stop-color="#BD9BFF"/></linearGradient><linearGradient id="paint1_linear_154_641" x1="0" y1="39.257" x2="216.712" y2="39.257" gradientUnits="userSpaceOnUse"><stop stop-color="#65C1F8"/><stop offset="1" stop-color="#BD9BFF"/></linearGradient><linearGradient id="paint2_linear_154_641" x1="155.454" y1="51.529" x2="156.042" y2="51.529" gradientUnits="userSpaceOnUse"><stop stop-color="#65C1F8"/><stop offset="1" stop-color="#BD9BFF"/></linearGradient></defs></svg>