<svg width="125" height="115" fill="none" xmlns="http://www.w3.org/2000/svg"><path d="M60.178 25.147l.122.882.89-.02a36.293 36.293 0 012.444.028l.912.042.124-.904C66.54 11.587 78.975 1 94.139 1c16.473 0 29.712 12.485 29.712 27.75 0 14.704-12.282 26.827-27.91 27.7l-.93.052-.014.932-.002.1-.017.962.961.054c15.63.872 27.913 12.995 27.913 27.7 0 15.265-13.24 27.75-29.713 27.75-15.52 0-28.176-11.087-29.583-25.133l-.094-.94-.943.04a35.747 35.747 0 01-2.212.026l-.921-.017-.093.916C58.873 102.927 46.223 114 30.713 114 14.24 114 1 101.515 1 86.25c0-14.445 11.852-26.398 27.087-27.643l.938-.077-.02-.94a25.241 25.241 0 01-.003-.213l-.011-.91-.907-.074C12.85 55.146 1 43.194 1 28.75 1 13.485 14.24 1 30.713 1c15.153 0 27.58 10.573 29.465 24.147z" fill="#ED70AE" stroke="#D25493" stroke-width="2"/><mask id="path-2-outside-1_154_625" maskUnits="userSpaceOnUse" x="24.261" y="48.744" width="76" height="16" fill="#000"><path fill="#fff" d="M24.261 48.744h76v16h-76z"/><path d="M34.549 57.112l.256-.592c.938.021 1.706.165 2.304.432.608.267 1.056.635 1.344 1.104.298.459.448.987.448 1.584 0 .65-.15 1.232-.448 1.744-.299.501-.747.896-1.344 1.184-.587.288-1.323.432-2.208.432h-8.64l.928-6.16L26.26 51h8.336c1.11 0 1.968.261 2.576.784.618.512.928 1.221.928 2.128 0 .501-.118.981-.352 1.44-.235.459-.608.848-1.12 1.168-.512.31-1.206.507-2.08.592zm-5.312 5.152l-1.152-1.424h6.096c.522 0 .928-.123 1.216-.368.298-.256.448-.613.448-1.072 0-.459-.166-.821-.496-1.088-.32-.277-.8-.416-1.44-.416h-4.992v-2.112h4.608c.437 0 .8-.123 1.088-.368.288-.256.432-.603.432-1.04 0-.352-.128-.64-.384-.864-.246-.235-.598-.352-1.056-.352H28.1l1.136-1.424.848 5.104-.848 5.424zm17.857.992c-1.408 0-2.645-.261-3.712-.784-1.056-.523-1.877-1.253-2.464-2.192-.587-.939-.88-2.032-.88-3.28 0-1.248.293-2.341.88-3.28.587-.939 1.408-1.67 2.464-2.192 1.067-.523 2.304-.784 3.712-.784 1.408 0 2.64.261 3.696.784 1.066.523 1.893 1.253 2.48 2.192.597.939.896 2.032.896 3.28 0 1.248-.299 2.341-.896 3.28-.587.939-1.414 1.67-2.48 2.192-1.056.523-2.288.784-3.696.784zm0-2.704c.832 0 1.547-.139 2.144-.416a3.16 3.16 0 001.376-1.232c.33-.533.496-1.168.496-1.904s-.166-1.37-.496-1.904a3.063 3.063 0 00-1.376-1.216c-.597-.288-1.312-.432-2.144-.432-.822 0-1.53.144-2.128.432a3.16 3.16 0 00-1.392 1.216c-.33.533-.496 1.168-.496 1.904s.165 1.37.496 1.904c.33.533.794.944 1.392 1.232.597.277 1.306.416 2.128.416zM55.957 63V51h3.008v9.568l-.816-.608L65.253 51h3.2l-9.776 12h-2.72zm5.744-5.808l2.176-1.872L68.613 63h-3.424L61.7 57.192z"/><path d="M71.882 60.584v-2.448h8.288v2.448h-8.288zM78.058 51l5.536 12H80.38l-4.753-10.736h.928L71.819 63h-3.231l5.551-12h3.92zm8.774 0h11.536v12h-3.024V52.312l1.36 1.36h-8.192l1.28-1.008c.075.747.128 1.461.16 2.144.043.672.064 1.312.064 1.92 0 1.525-.138 2.768-.416 3.728-.266.95-.693 1.653-1.28 2.112-.576.448-1.328.672-2.256.672a5.37 5.37 0 01-1.168-.128 4.27 4.27 0 01-1.04-.368v-2.512c.47.181.902.272 1.296.272.715 0 1.227-.33 1.536-.992.32-.661.48-1.733.48-3.216a39.2 39.2 0 00-.08-2.368A59.794 59.794 0 0086.832 51z"/></mask><path d="M34.549 57.112l.256-.592c.938.021 1.706.165 2.304.432.608.267 1.056.635 1.344 1.104.298.459.448.987.448 1.584 0 .65-.15 1.232-.448 1.744-.299.501-.747.896-1.344 1.184-.587.288-1.323.432-2.208.432h-8.64l.928-6.16L26.26 51h8.336c1.11 0 1.968.261 2.576.784.618.512.928 1.221.928 2.128 0 .501-.118.981-.352 1.44-.235.459-.608.848-1.12 1.168-.512.31-1.206.507-2.08.592zm-5.312 5.152l-1.152-1.424h6.096c.522 0 .928-.123 1.216-.368.298-.256.448-.613.448-1.072 0-.459-.166-.821-.496-1.088-.32-.277-.8-.416-1.44-.416h-4.992v-2.112h4.608c.437 0 .8-.123 1.088-.368.288-.256.432-.603.432-1.04 0-.352-.128-.64-.384-.864-.246-.235-.598-.352-1.056-.352H28.1l1.136-1.424.848 5.104-.848 5.424zm17.857.992c-1.408 0-2.645-.261-3.712-.784-1.056-.523-1.877-1.253-2.464-2.192-.587-.939-.88-2.032-.88-3.28 0-1.248.293-2.341.88-3.28.587-.939 1.408-1.67 2.464-2.192 1.067-.523 2.304-.784 3.712-.784 1.408 0 2.64.261 3.696.784 1.066.523 1.893 1.253 2.48 2.192.597.939.896 2.032.896 3.28 0 1.248-.299 2.341-.896 3.28-.587.939-1.414 1.67-2.48 2.192-1.056.523-2.288.784-3.696.784zm0-2.704c.832 0 1.547-.139 2.144-.416a3.16 3.16 0 001.376-1.232c.33-.533.496-1.168.496-1.904s-.166-1.37-.496-1.904a3.063 3.063 0 00-1.376-1.216c-.597-.288-1.312-.432-2.144-.432-.822 0-1.53.144-2.128.432a3.16 3.16 0 00-1.392 1.216c-.33.533-.496 1.168-.496 1.904s.165 1.37.496 1.904c.33.533.794.944 1.392 1.232.597.277 1.306.416 2.128.416zM55.957 63V51h3.008v9.568l-.816-.608L65.253 51h3.2l-9.776 12h-2.72zm5.744-5.808l2.176-1.872L68.613 63h-3.424L61.7 57.192z" fill="#fff"/><path d="M71.882 60.584v-2.448h8.288v2.448h-8.288zM78.058 51l5.536 12H80.38l-4.753-10.736h.928L71.819 63h-3.231l5.551-12h3.92zm8.774 0h11.536v12h-3.024V52.312l1.36 1.36h-8.192l1.28-1.008c.075.747.128 1.461.16 2.144.043.672.064 1.312.064 1.92 0 1.525-.138 2.768-.416 3.728-.266.95-.693 1.653-1.28 2.112-.576.448-1.328.672-2.256.672a5.37 5.37 0 01-1.168-.128 4.27 4.27 0 01-1.04-.368v-2.512c.47.181.902.272 1.296.272.715 0 1.227-.33 1.536-.992.32-.661.48-1.733.48-3.216a39.2 39.2 0 00-.08-2.368A59.794 59.794 0 0086.832 51z" fill="#fff"/><path d="M34.549 57.112l.256-.592c.938.021 1.706.165 2.304.432.608.267 1.056.635 1.344 1.104.298.459.448.987.448 1.584 0 .65-.15 1.232-.448 1.744-.299.501-.747.896-1.344 1.184-.587.288-1.323.432-2.208.432h-8.64l.928-6.16L26.26 51h8.336c1.11 0 1.968.261 2.576.784.618.512.928 1.221.928 2.128 0 .501-.118.981-.352 1.44-.235.459-.608.848-1.12 1.168-.512.31-1.206.507-2.08.592zm-5.312 5.152l-1.152-1.424h6.096c.522 0 .928-.123 1.216-.368.298-.256.448-.613.448-1.072 0-.459-.166-.821-.496-1.088-.32-.277-.8-.416-1.44-.416h-4.992v-2.112h4.608c.437 0 .8-.123 1.088-.368.288-.256.432-.603.432-1.04 0-.352-.128-.64-.384-.864-.246-.235-.598-.352-1.056-.352H28.1l1.136-1.424.848 5.104-.848 5.424zm17.857.992c-1.408 0-2.645-.261-3.712-.784-1.056-.523-1.877-1.253-2.464-2.192-.587-.939-.88-2.032-.88-3.28 0-1.248.293-2.341.88-3.28.587-.939 1.408-1.67 2.464-2.192 1.067-.523 2.304-.784 3.712-.784 1.408 0 2.64.261 3.696.784 1.066.523 1.893 1.253 2.48 2.192.597.939.896 2.032.896 3.28 0 1.248-.299 2.341-.896 3.28-.587.939-1.414 1.67-2.48 2.192-1.056.523-2.288.784-3.696.784zm0-2.704c.832 0 1.547-.139 2.144-.416a3.16 3.16 0 001.376-1.232c.33-.533.496-1.168.496-1.904s-.166-1.37-.496-1.904a3.063 3.063 0 00-1.376-1.216c-.597-.288-1.312-.432-2.144-.432-.822 0-1.53.144-2.128.432a3.16 3.16 0 00-1.392 1.216c-.33.533-.496 1.168-.496 1.904s.165 1.37.496 1.904c.33.533.794.944 1.392 1.232.597.277 1.306.416 2.128.416zM55.957 63V51h3.008v9.568l-.816-.608L65.253 51h3.2l-9.776 12h-2.72zm5.744-5.808l2.176-1.872L68.613 63h-3.424L61.7 57.192z" stroke="#B83B79" stroke-width="2" mask="url(#path-2-outside-1_154_625)"/><path d="M71.882 60.584v-2.448h8.288v2.448h-8.288zM78.058 51l5.536 12H80.38l-4.753-10.736h.928L71.819 63h-3.231l5.551-12h3.92zm8.774 0h11.536v12h-3.024V52.312l1.36 1.36h-8.192l1.28-1.008c.075.747.128 1.461.16 2.144.043.672.064 1.312.064 1.92 0 1.525-.138 2.768-.416 3.728-.266.95-.693 1.653-1.28 2.112-.576.448-1.328.672-2.256.672a5.37 5.37 0 01-1.168-.128 4.27 4.27 0 01-1.04-.368v-2.512c.47.181.902.272 1.296.272.715 0 1.227-.33 1.536-.992.32-.661.48-1.733.48-3.216a39.2 39.2 0 00-.08-2.368A59.794 59.794 0 0086.832 51z" stroke="#B83B79" stroke-width="2" mask="url(#path-2-outside-1_154_625)"/></svg>