<svg width="127" height="74" fill="none" xmlns="http://www.w3.org/2000/svg"><g clip-path="url(#clip0_1667_1103)"><path d="M9.026 56.349H6.377v-7.033H4.512v7.033H1.865v-7.033H0v8.017c0 .569.318.883.894.883h9.103c.584 0 .907-.313.907-.883v-8.017H9.028v7.033h-.002zm8.788-2.672c.474-.301.833-.744 1.177-1.434l1.475-2.925h-2.023l-1.35 2.653c-.43.838-.586.958-2.015.958h-.632v-3.61H12.58v8.899h1.865v-3.56h.632c1.606 0 1.79.129 2.204.932l1.35 2.628h2.088l-1.515-2.951c-.41-.8-.766-1.303-1.391-1.589v-.001z" fill="#15112B"/><path d="M25.771 49.316h-1.16c-2.638 0-4.034 1.546-4.034 4.469s1.394 4.431 4.034 4.431h1.16c2.639 0 4.035-1.532 4.035-4.431 0-2.9-1.395-4.469-4.035-4.469zm2.158 4.457c0 1.83-.625 2.577-2.158 2.577h-1.16c-1.561 0-2.17-.719-2.17-2.564 0-1.845.63-2.602 2.17-2.602h1.16c1.533 0 2.158.75 2.158 2.589zm7.841-4.607c-1.224 0-1.59.623-2.05 1.651l-1.866 4.128c-.615 1.345-.77 1.404-1.216 1.404h-.492v1.868h.465c1.668 0 2.097-.813 2.909-2.65l1.927-4.364c.096-.204.185-.22.283-.22.118 0 .253.03.253.267v6.968h1.877v-7.044c0-1.256-.783-2.007-2.093-2.007l.003-.001zm7.943 0c-1.043 0-1.668.389-1.966 1.218l-3.09 7.833h2.044l.693-1.755h4.508l.669 1.755h2.054l-2.97-7.825c-.287-.836-.904-1.226-1.942-1.226zm1.518 5.506h-3.133l1.346-3.424c.057-.13.126-.177.257-.177s.193.045.24.168l1.291 3.431-.001.002zm17.546-5.506c-1.258 0-2.002.598-2.277 1.825l-1.197 5.211c-.074.297-.236.337-.385.337-.15 0-.31-.04-.385-.333l-1.197-5.214c-.267-1.195-1.071-1.826-2.327-1.826-1.397 0-2.23.784-2.23 2.096v6.956h1.851v-6.88c0-.234.14-.354.417-.354.232 0 .362.099.41.31l1.21 5.213c.288 1.254 1.02 1.864 2.239 1.864 1.218 0 1.9-.592 2.2-1.863l1.223-5.215c.05-.216.173-.307.41-.307.277 0 .417.12.417.354v6.88h1.851v-6.957c0-1.312-.834-2.096-2.23-2.096v-.001zm11.965.15h-1.16c-2.345 0-3.722 1.235-3.99 3.573H68.55v-3.573h-1.865v8.9h1.864v-3.598h1.04c.244 2.355 1.62 3.598 3.992 3.598h1.16c2.639 0 4.035-1.532 4.035-4.431 0-2.9-1.395-4.469-4.035-4.469zm-1.16 1.866h1.16c1.533 0 2.157.751 2.157 2.59 0 1.838-.606 2.577-2.157 2.577h-1.16c-1.561 0-2.17-.723-2.17-2.577 0-1.855.63-2.59 2.17-2.59zm12.785 2.564c.653-.4.984-1.057.984-1.956 0-1.572-1.107-2.474-3.038-2.474h-4.437v1.866h4.437c.739 0 1.098.286 1.098.873 0 .413-.133.834-1.11.834h-2.773v1.729h2.81c.996 0 1.11.476 1.11.834 0 .603-.359.898-1.098.898h-4.487v1.867h4.487c1.894 0 3.025-.924 3.025-2.473 0-.93-.331-1.587-1.01-1.996l.002-.002zm9.634-4.58c-1.433 0-1.939.86-2.238 1.688l-2.48 5.436c-.087.172-.202.249-.374.249-.145 0-.317-.05-.317-.292v-6.93h-1.865v6.994c0 1.308.782 2.057 2.143 2.057 1.443 0 1.958-.91 2.239-1.688l2.483-5.44c.085-.181.2-.258.384-.258.199 0 .303.105.303.303v6.932h1.877V51.21c0-1.28-.805-2.044-2.155-2.044zm9.053 4.511c.474-.301.833-.744 1.177-1.434l1.475-2.925h-2.023l-1.351 2.653c-.43.838-.585.958-2.014.958h-.632v-3.61h-1.865v8.899h1.865v-3.56h.632c1.606 0 1.79.129 2.202.932l1.351 2.628h2.088l-1.516-2.951c-.409-.8-.765-1.303-1.39-1.589l.001-.001zm8.65-4.511c-1.224 0-1.591.623-2.05 1.651l-1.866 4.128c-.615 1.345-.77 1.404-1.216 1.404h-.492v1.868h.465c1.668 0 2.097-.813 2.909-2.65l1.927-4.364c.097-.204.185-.22.283-.22.118 0 .253.03.253.267v6.968h1.877v-7.044c0-1.256-.783-2.007-2.093-2.007l.003-.001zm9.886 1.226c-.287-.836-.905-1.226-1.943-1.226s-1.669.389-1.965 1.218l-3.09 7.833h2.043l.694-1.755h4.509l.669 1.755h2.054l-2.97-7.825h-.001zm-.425 4.278h-3.134l1.346-3.423c.057-.13.126-.178.257-.178s.193.045.24.169l1.291 3.43v.002z" fill="#15112B"/><path d="M12.79 63.758h2.637v-.864H12.79c-2.068 0-3.117 1.172-3.117 3.482 0 2.31 1.05 3.47 3.117 3.47h2.637v-.866H12.79c-1.536 0-2.252-.828-2.252-2.604 0-1.776.716-2.618 2.252-2.618zm4.02-.863v.865h2.152v6.088h.874V63.76h2.15v-.864h-5.174zm10.623.68c-.194-.569-.592-.811-1.328-.811-.737 0-1.149.242-1.351.811l-2.474 6.272h.963l.601-1.518h4.414l.052.137.526 1.382h.976l-2.38-6.273h.001zm-3.276 3.954l.113-.292 1.256-3.19c.11-.254.306-.387.568-.387.262 0 .462.136.558.39l1.31 3.48h-3.805zm9.683-3.771h2.638v-.864H33.84c-2.066 0-3.114 1.172-3.114 3.482 0 2.31 1.048 3.47 3.114 3.47h2.637v-.866H33.84c-1.537 0-2.253-.828-2.253-2.604 0-1.776.716-2.618 2.253-2.618zm9.167-.183c-.195-.569-.593-.811-1.329-.811s-1.147.242-1.35.811l-2.475 6.272h.966l.596-1.518h4.418l.052.137.526 1.382h.976l-2.38-6.273zM39.73 67.53l.114-.292 1.255-3.19c.113-.255.309-.387.569-.387a.57.57 0 01.56.39l1.306 3.48H39.73zm14.972-4.635v3.858h-2.427c-.995 0-1.543-.526-1.543-1.48v-2.378h-.887v2.475c0 1.518.748 2.256 2.288 2.256h2.569v2.22h.875v-6.952h-.875zm8.463 0l-2.566 4.316-.182-.311-2.264-4.005h-.96L60.14 68l-.187.303c-.331.529-.6.68-1.207.68h-1.043v.866h.826c1.244 0 1.7-.266 2.325-1.358l3.284-5.594h-.973zm7.643 0v3.007H66.62v-3.007h-.866v6.953h.866v-3.082h4.188v3.082h.874v-6.953h-.874zm8.988-.132c-.825 0-1.271.343-1.59 1.228l-2.157 4.725c-.142.282-.37.429-.662.429-.387 0-.646-.252-.646-.626v-5.624h-.867v5.677c0 .92.513 1.406 1.483 1.406.822 0 1.267-.344 1.589-1.226l2.156-4.727c.135-.286.367-.439.672-.439.381 0 .638.256.638.64v5.622h.874v-5.69c0-.913-.515-1.394-1.49-1.394v-.001zm7.447 3.547l.117-.139 2.849-3.276h-1.03l-2.47 2.837-.16-.192-2.196-2.645H83.34l2.812 3.32-.12.137-2.996 3.495h1.035L86.68 66.8l.16.193 2.382 2.854h1.014L87.24 66.31h.004zm10.451-3.547c-.826 0-1.27.343-1.59 1.228l-2.156 4.725c-.142.282-.37.429-.662.429-.388 0-.65-.252-.65-.626v-5.624h-.863v5.677c0 .92.511 1.406 1.478 1.406.825 0 1.272-.344 1.591-1.226l2.157-4.727c.136-.286.367-.439.673-.439.382 0 .639.256.639.64v5.622h.874v-5.69c0-.913-.515-1.394-1.491-1.394v-.001zm8.734.132v3.007h-4.189v-3.007h-.864v6.953h.864v-3.082h4.189v3.082h.874v-6.953h-.874zm7.643.68c-.196-.569-.594-.811-1.33-.811-.737 0-1.144.242-1.35.811l-2.474 6.272h.964l.599-1.518h4.416l.051.137.525 1.382h.977l-2.38-6.273h.002zm-3.277 3.954l.114-.292 1.255-3.19c.11-.254.306-.387.569-.387.262 0 .463.136.557.392l1.309 3.477h-3.804z" fill="#262433"/><path d="M78.955 34.852s-.353-.057-.493-.148c-.136-.092-.572.265-.8.345 0 0-1.035.727-2.11 1.582.066-.03.128-.062.189-.1.496.014 1.022-.127 1.466.165a.32.32 0 00.143.066c.55.048 1.1-.026 1.64.22.406.182 1.01-.01 1.414.3.027.022.11-.004.166-.001.21.004.352-.31.564-.122.267.235.454-.16.716-.004a.813.813 0 00.22.082c-.812-.797-2.13-1.99-3.114-2.383v-.002zm-50.403-16.96c-.253.005-.418.087-.446.295-.022.162.032.362-.201.454-.228.089-.538.24-.72.184-.467-.14-.789.218-1.239.118-.379-.082-.743.063-1.114.198-.38.14-.898-.039-1.278.227-.07.049-.21.051-.318.055-.564.015-1.201-.095-1.675.067-.555.192-1.097.132-1.632.227-1.392.245-2.79.466-4.062 1.014-.673.29-.852.739-1.004 1.234-.043.139.112.3.213.245.544-.292 1.21-.36 1.787-.589.025-.01.03-.048.038-.086.221.08.441.158.662.236.026.201-.188.331-.352.373-.524.132-.854.476-1.324.66-.04.16.058.415-.187.443-.536.058-.883.328-1.315.508-.265.11-.603.437-1.027.149-.025-.018-.2.051-.25.108-.16.171-.274.368-.441.535-.184.184-.261.385-.19.602.083.261.313.42.657.478.014-.194-.031-.424.306-.485.588-.104.824-.026 1.097.284.123.137.26.268.41.39.148.124.432.088.558-.069.114-.14.192-.297.311-.433.175-.2.453-.198.725-.193a.104.104 0 01-.008.025h.034c-.004.079-.014.158.008.232.023.076.093.144.143.214.053-.07.128-.135.154-.21.025-.075.012-.159.01-.238h.024s-.005-.012-.009-.017c.504-.004.87.167.992.54.07.21.147.4.281.592.166.235.013.437-.362.407-.545-.04-.95.303-1.448.255-.555-.052-.934.284-1.445.297-.4.012-.4.248-.386.464.004.079.073.154.122.227a.411.411 0 00.135-.036c.224-.127.454-.372.669-.363.59.022 1.065-.255 1.614-.284a18.857 18.857 0 011.525 0c.177.004.296.105.328.245.04.172.086.398-.157.451-.38.08-.66.303-1.086.337-.362.03-.708.218-1.044.356-.06.025-.053.154-.053.236 0 .032.053.078.097.091.099.032.205.065.31.067.794.005 1.588-.006 2.38.013.31.008.516-.147.772-.194.13-.025.328.211.547.039.108-.088.19-.073.262.04.052.08-.057.327-.165.32-.586-.05-1.006.355-1.598.314-.563-.04-1.022.28-1.616.275-.528-.005-1.06.193-1.589.31-.21.046-.415.163-.62.161-1.144-.012-2.118.44-3.179.652-.564.112-1.025.383-1.315.752-.175.222-.302.42-.642.525-.15.045-.156.219-.04.327.147.14.337.325.207.455-.298.305-.363.743-.868.926-.296.106-.61.191-.912.288-.05.017-.086.055-.127.083.068.048.13.126.206.136.272.036.578-.012.772.192.078.084.293.126.14.298a2.41 2.41 0 00-.362.559c-.17.345-.379.6-.958.56-.217-.015-.314.311-.114.383.32.109.56.228.66.51.07.197.201.417.401.542.266.167.503-.067.747-.15.305-.104.537.335.9.053.184-.144.476-.223.739-.28.2-.045.505-.084.637-.004.345.21.716.223 1.116.223.24 0 .445.053.45.28.006.216.036.441-.353.492-.053.008-.104.032-.152.049-.14.052-.12.17.026.158.563-.04.359.498.799.563.319.05.631.171.907.307.165.078.258.244.384.371-.156.038-.31.078-.467.11-.053.012-.126-.012-.167.008-.07.032-.126.086-.187.131.045.027.089.07.136.075.167.012.338.009.508.012.51.005 1.02.025 1.53.005.362-.013.643.07.938.223.253.13.396.025.323-.258-.025-.096-.074-.161.093-.176.28-.023.563-.017.844-.035.497-.03.979-.013 1.48-.179.438-.143.997-.073 1.504-.092.536-.026 1.069.029 1.585-.191-.66-.412-1.462-1.207-.798-2.802 0 0 1.406-2.123 2.996-3.494 0 0 1.37-1.39 1.826-1.628 0 0-.31-.219-.383-.384-.074-.164-.842-.548-.933-1.337 0 0-.346-.036-.585.147-.237.183-.62.788-1.205.512-.585-.275-.732-.548-.604-.804.13-.257.586-1.3.586-1.3s-.293-.163-.056-.384c0 0 .127-.128.293-.036l.274-.385s-.31-.219-.257-.219c.053 0 .166-.036.166-.036s-.329-.328.055-.384c0 0-.455-.402.254-.476 0 0-.328-.275.019-.476.348-.2.53-.347.987-.385 0 0 .292-1.061.53-1.665.237-.603.75-1.464 1.06-1.372l2.257-4.387-1.487.015.006.003zm1.86 22.523s.11-.11-.895-.202a258.593 258.593 0 01-2.925-.274c-.227-.027-1.19-.123-1.891-.281-.184.089-.37.187-.551.183-.882-.017-1.799.236-2.649-.153-.087-.04-.291-.062-.311-.036-.288.367-.873.144-1.217.368-.117.075-.192.188-.288.285.105.026.207.076.312.078 1.247.012 2.493.015 3.741.021.113 0 .232-.022.34-.004.48.088.812-.354 1.287-.218.414.118.794.315 1.217.416.311.074.665.07 1.001.07l3.033-.001a3.917 3.917 0 01-.204-.25v-.002zm1.803-22.749a1.53 1.53 0 00-.47.122c-.197.089-.48.076-.738.078-.563 1.149-1.353 2.787-1.47 3.187.043-.069.756-1.167 1.02-1.679 0 0 .128-.074.33 0 0 0 .895-.018 1.003-.165.11-.148.184-.367.677-.347l.293-.11s-.399-.62-.647-1.085l.002-.001zm.08 18.448c-.457-1.72-1.225-2.727-1.225-2.727s-1.406 1.118-1.81 1.519c-.402.401-1.643 1.262-1.844 1.316-.201.056-.785.623-.785.623s.785.072 1.205.218c.42.146 1.625.64 2.32.805.695.164 1.096.438 1.698.458.603.02 1.28.056 1.737.019 0 0-.84-.512-1.297-2.234v.003zm1.516-18.485c.112.162.243.34.401.534l.266-.55-.667.015zm83.899 14.788c-.178-.086-.422-.095-.476-.293-.137-.06-.271-.127-.412-.179-.204-.073-.288-.442-.62-.187-.272.206-.428-.284-.668-.03-.089.095-.165.083-.266.02-.389-.245-.493-.795-1.236-.678-.043.008-.16-.118-.18-.191-.036-.124-.032-.255-.032-.384-.004-.342.031-.362.582-.457a1.62 1.62 0 00.432-.133c.106-.057-.035-.349-.223-.432-.188-.086-.414-.13-.58-.232-.28-.174.057-.183.147-.214.16-.056.328-.105.315-.25-.012-.113-.089-.234-.173-.335-.076-.088-.073-.162.087-.17.305-.02.676-.127.8.223.091.035.217.059.248.114.104.188.114.408.5.42.215.005.436.07.632.143.22.082.454.15.575-.043.086-.136.082-.342.019-.49-.122-.28-.589-.39-.642-.738-.029-.18-.213-.078-.352-.022a1.571 1.571 0 01-1.267-.015c-.263-.122-.521-.135-.799-.162-.066-.005-.119-.089-.179-.136.101-.03.202-.067.305-.092.053-.012.114-.001.169-.012.386-.069.386-.219.493-.399.139-.24-.783-.454.035-.672.341-.092.581-.117.883.008.069.026.204-.036.305-.066a.166.166 0 00-.032-.092c-.069-.067-.15-.126-.223-.193-.108-.1-.239-.188-.315-.3-.25-.372-.244-.384-.816-.364-.319.012-.524-.114-.73-.27-.112-.088-.127-.145-.004-.194.191-.079.402-.133.567-.235.086-.053.345-.158.088-.281-.559-.268-1.131-.526-1.7-.783-.14-.065-.396-.095-.422-.176-.232-.682-.922-.657-1.612-.636-.462.014-.763-.401-1.267-.271-.023.005-.104-.1-.136-.158-.008-.012.076-.076.122-.078.281-.012.564-.005.847-.026.066-.004.125-.095.174-.152a.24.24 0 00-.117-.08c-.145-.029-.322-.025-.345-.17 0-.026.183-.088.28-.091.393-.012.78-.021 1.125.187.207.122.43.018.594-.113.144-.12.318-.095.458-.034.188.082.314.179.575.066.126-.056.383.074.584.105.191.03.352-.092.305-.222-.027-.074-.079-.192-.139-.2-.659-.084-1.248-.386-1.945-.333-.515.04-.895-.333-1.45-.259-.44.061-.907.039-1.355.002-.544-.044-1.022-.275-1.608-.268-.591.004-1.147-.245-1.76-.306-.517-.052-.999-.345-1.484-.55-.588-.249-1.184-.478-1.878-.404-.393.042-.589-.23-.92-.27-.329-.04-.677.044-.988-.11a1.336 1.336 0 00-.46-.128c-.614-.056-1.283.103-1.834-.127-.542-.225-1.184 0-1.621-.231-.551-.292-1.25-.025-1.751-.385-.127-.091-.433-.034-.656-.053-.711-.065-1.453.1-2.135-.235-.201-.1-.553-.026-.837-.026-.793-.004-1.59-.056-2.376.005-.763.059-1.396-.254-2.11-.302-.048-.004-.1-.048-.127-.082-.01-.01.044-.067.082-.08.302-.1.595-.245.911-.284a6.16 6.16 0 011.354-.023c.498.052.79-.324 1.271-.28.276.03.563-.007.844-.022.048-.001.091-.048.136-.073-.062-.045-.123-.127-.19-.13-.261-.01-.394-.15-.547-.272-.039-.03-.1-.086-.088-.105.04-.058.109-.144.17-.148.51-.021 1.018-.021 1.528-.043.052-.003.105-.092.137-.15.005-.011-.08-.075-.123-.078-.567-.004-1.132 0-1.698 0-.369.002-.472.164-.45.417.017.188-.074.331-.366.335-.738.008-1.473.019-2.21.026-.28.004-.275-.004-.99-.478-.12-.078-.315-.087-.437-.166-.063-.04-.078-.16-.057-.236.034-.114.14-.139.234-.07.217.16.48.184.76.156.104-.342.502-.21.79-.27.248-.052.14-.18.038-.267-.119-.1-.116-.175.056-.173.66.004 1.34-.166 1.97.132.085.04.244.07.31.039.349-.167.681-.319 1.052-.04.316-.191.59-.012.886.044.215.038.498.074.668.001.604-.265 1.148.131 1.722.045a8.74 8.74 0 002.378.476c.786.05 1.48.341 2.285.336.515-.004 1.062.197 1.542.386.588.228 1.222.369 1.83.528.545.14 1.192.053 1.796.057-.038-.07-.07-.168-.126-.177-.271-.04-.553-.045-.829-.07-.328-.027-.454-.175-.262-.443.139-.192.074-.265-.073-.412-.2-.202-.682-.117-.734-.44-.169-.092-.341-.181-.506-.28-.177-.107-.332-.22-.585-.223-.559-.008-1.126 0-1.621-.25-1.08.109-2.066-.325-3.143-.314-.593.008-1.188-.189-1.768-.305-.436-.086-.861-.206-1.3-.171-.545.043-.953-.206-1.43-.299-.048-.01-.083-.057-.126-.086.084-.044.163-.123.25-.127.677-.019 1.357-.019 2.035-.036.103-.002.201-.057.302-.088-.133-.042-.265-.118-.398-.12a71.01 71.01 0 00-2.376-.007c-.55.01-1.025.297-1.618.245-.559-.045-1.13-.005-1.695.006-.163.001-.349.005-.49.06-.873.34-1.708.215-2.566-.058a7.151 7.151 0 00-.78-.204c-.743-.152-1.468-.383-2.276-.335-.55.031-1.09.013-1.625-.222-.304-.131-.773-.038-1.17-.056-.044-.001-.09-.047-.134-.074.053-.049.103-.14.16-.14.608-.023 1.23.034 1.778-.258.048-.026.193.05.292.08.093.026.23.1.27.074.198-.118.082-.438.502-.434.275.004.55-.034.824-.06.036-.005.065-.053.1-.08-.044-.027-.084-.073-.132-.08-.163-.021-.33-.026-.494-.042a.454.454 0 01-.15-.04c-.048-.021-.087-.056-.13-.084.04-.03.07-.073.117-.087.913-.292 1.816-.576 2.848-.568 2.715.021 5.432.005 8.148.004.28 0 .572.03.78-.17l.21-.2c-.073-.044-.143-.118-.222-.123-.223-.022-.453-.014-.678-.015-.283-.004-.567.01-.847-.008-.388-.025-.814.084-1.154-.106-.285-.16-.824-.109-.821-.542 0-.04-.285-.11-.437-.114-1.134-.018-2.27-.076-3.394-.006-.719.045-1.279-.288-1.952-.285-.057 0-.116-.091-.173-.14.043-.027.087-.076.13-.076a173.95 173.95 0 012.035-.027c.158-.001.311-.009.35-.148 0-.015-.184-.073-.288-.086-.271-.036-.545-.057-.82-.09-.03-.003-.081-.064-.072-.075a.215.215 0 01.123-.086c.215-.035.44-.043.646-.093.073-.017.145-.131.145-.202.004-.148-.08-.222-.294-.126-.388.176-.663-.184-1.065-.13-.372.052-.782-.025-1.17-.064-.053-.006-.088-.107-.13-.177.098-.004.197-.004.293-.014.14-.015.384.014.236-.189-.08-.11-.237-.184-.34-.288-.077-.08-.297-.218-.016-.266.806-.137 1.633-.46 2.443-.248 1.372.354 2.755.163 4.134.201-.008-.131-.122-.197-.284-.224-.48-.082-.973.027-1.475-.167-.416-.16-.97-.113-1.46-.17-.135-.014-.136-.1-.007-.18.123-.076.31-.23.378-.206.86.328 1.769.117 2.65.163.167.008.34.008.507-.007.104-.01.274-.036.292-.084.266-.687 1.012-.314 1.538-.415.07-.013.118-.096.175-.145-.044-.026-.092-.08-.131-.075-.576.045-1.08-.13-1.584-.297-.063-.022-.09-.101-.133-.154.1-.03.2-.07.305-.086.108-.018.231.007.335-.022.073-.018.122-.093.18-.143-.044-.03-.082-.076-.13-.08-.165-.018-.338-.011-.502-.035-.16-.026-.262-.106-.294-.232-.372-.039-.738-.022-1.11-.174-.62-.254-1.296-.434-1.968-.604-.258-.066-.52-.103-.773-.204-.533-.213-1.073-.459-1.65-.554-.589-.097-1.226-.032-1.843-.039-.28-.004-.56.006-.838-.013-.17-.013-.305-.089-.314-.24-.008-.127-.03-.257-.014-.385.044-.325-.237-.477-.602-.278-.368.201-.733.207-1.073.005-.306-.18-.581-.328-.995-.406-.53-.103-1.029-.272-1.593-.236-.16.012-.322-.001-.483-.004-.03-.133-.145-.217-.312-.224-.507-.019-1.017-.019-1.527-.03-.224-.003-.514.054-.663-.03-.713-.403-1.367-.075-2.061.006-.31.035-.53.315-.886.165-.358-.15-.608.11-.856.197-.31.106-.462.053-.716-.04-.2-.073-.416.017-.473.217l-.333.022c-.043.073-.086.175-.135.176-.669.027-1.34.036-2.012.05-.51-.364-1.24-.098-1.743-.31-.602-.255-1.196-.175-1.798-.206-.394-.02-.672-.285-1.106-.24-.384.039-.783-.018-1.178-.031-.25-.356-.732.139-1-.157-.671-.022-1.341-.066-2.013-.058-.603.005-1.222-.12-1.798.184-.194.104-.546.04-.826.044-.732.008-1.466.008-2.197.013-.283.001-.567 0-.846.015-.331.018-.717-.096-.975.1-.276.207-.493-.175-.722.004-.222.174-.402-.091-.559-.043-.2.062-.322.162-.563.026-.156-.087-.42-.078-.637-.082-.733-.017-1.467-.01-2.2-.032-.384-.012-.798.089-1.147-.105-.353-.2-.655.254-1.057.004-.315-.196-.682.117-1.074.106-1.352-.034-2.707.002-4.06.012-.17 0-.342-.014-.507.008-.152.023-.353.059-.423.144-.076.088-.045.232-.053.355-.278.027-.54.008-.755-.156-.092-.07-.223-.044-.232.069-.023.28-.228.34-.554.344-.777.008-1.566-.049-2.292.258-.131.055-.335.018-.502.005-.104-.008-.2-.053-.3-.082.047-.053.078-.14.142-.153.416-.093.752-.372 1.237-.309.039.004.088-.049.131-.075-.066-.048-.13-.133-.204-.137-.223-.015-.492-.057-.671.015-.787.322-1.63.221-2.458.245-.389.012-.769-.017-1.14.152-.22.1-.545.079-.82.08a8.958 8.958 0 00-1.8.214c-.573.119-1.18.18-1.773.293-.73.139-1.103.551-1.545.927.075.048.148.13.231.136.166.015.39.04.497-.025.678-.424 1.537-.46 2.322-.648.576-.14 1.173-.223 1.756-.332.641-.12 1.348-.036 2.027-.036.043 0 .09.045.13.075.076.055.05.127-.095.17-.877.247-1.721.588-2.702.542-.35-.015-.65.268-1.06.074-.104-.05-.414.096-.585.196-.249.148-.462.21-.708.018l-.637.42c-.362-.267-.67.048-1.006.053-.453.005-.944-.074-1.344.04-.365.103-.739.156-1.093.25-1.018.272-2.14.471-2.602 1.383-.131.257-.464-.137-.5-.026-.144.446-.643.366-1.018.494-.595.205-1.258.293-1.734.716-.402.358-.99.53-1.649.499-.224-.012-.453.022-.676.012-.795-.039-1.534.062-2.227.39-.267.127-.618.152-.918.248-.049.017-.082.201-.04.226.211.12.467.2.673.324.109.065.235.214.204.29a.504.504 0 01-.348.254c-.44.051-.891.087-1.332.066-.48-.022-.877.093-1.274.263-.224.095-.389.289-.314.372.161.183.271 0 .406-.013.878-.075 1.69-.436 2.605-.362.355.03.645-.084.951-.204.09-.036.384.058.407.126.08.244.048.498.289.72.049.048-.154.25-.259.394-.361.01-.724.01-1.083.036-.148.009-.237.1-.253.217.196.004.392.01.588.006.248-.006.355.103.412.257.558-.002 1.114-.004 1.671-.004 1.17-.454 2.424-.175 3.639-.245.1-.006.21.031.311.06.04.012.065.054.097.08-.044.03-.086.078-.131.08-.995.032-1.917.424-2.947.306a3.202 3.202 0 00-1.894.36c-.302.163-.659.083-.942.224-.032.014-.074.065-.066.074.032.034.08.078.127.08.278.018.559.018.837.045.08.008.219.099.21.126a.412.412 0 01-.192.201c-.135.07-.29.14-.445.15-.392.025-.796-.021-1.18.032-.86.12-1.733.227-2.54.508-.087.03-.156.093-.234.14.092.04.182.11.278.114.224.014.492.056.669-.018.9-.369 1.864-.183 2.802-.236.305-.019.517.143.764.19.706.136 1.455.136 2.136-.048.328-.09.631-.148.964-.145 1.06.001 2.117.01 3.177.015-.036.07-.066.17-.12.179-.535.074-1.06.13-1.587.288-.441.131-1.008.092-1.5.038-.6-.066-1.03.301-1.609.263-.494-.032-.979-.014-1.463.18-.318.127-.764.066-1.154.092-.183.012-.293.082-.339.224-.052.17.093.227.25.261.105.023.227 0 .335.015.371.055.447.14.415.428-.03.275-.106.332-.536.346l-.489.015c-.044.069-.078.163-.143.176a3.187 3.187 0 01-1.454-.014c-.2-.053-.406-.231-.598-.126a3.66 3.66 0 00-.806.616.198.198 0 01-.056.046c.023-.01.076-.015.147.047.14.128.31.328.534.24.898-.349 1.85-.17 2.777-.21.153-.005.258.105.285.235.271.004.52.035.768.164.162.086.503.147.625.078.523-.301.884-.2 1.298.131.218.175.567.268.879.35.197.053.503.087.642.008.463-.261.97-.163 1.466-.192.55-.032 1.122.083 1.63-.215.305-.179.676.337 1.024 0 .278.127.665.207.804.394.16.213.281.333.607.332 1.3-.012 2.601-.03 3.899-.008.368.005.624-.207.947-.202.26.004.601.227.764.158.293-.123.591-.18.894-.2l.66-1.282s-.55-.476-.074-.932c0 0-.056-.805.074-.988.127-.183.274-.11.274-.11s0-.293.42-.293c0 0 .056-.238.493-.128l.97-1.849s-.13-.127.052-.218c0 0-.346-.238.384-.275L34.8 9.72s-.109-.127.11-.127l.328-.385s-.072-.166.11-.11l.366-.385-.11-.073.091-.127.092.073.348-.402-.11-.074.092-.092.13.075.345-.35-.163-.127.091-.13.128.148.75-.878.365.53-.219.346.219.019s-.036.366-.163.458c0 0-.348-.11-.127.183l-.293.221s-.274.036-.274.236c0 .2.2.55-.257.385l-.163.166s.073.567-.293.346l-.11.166s.183.547-.292.254l-.163.202s.384.476-.166.366l-.345.349s-.183-.238-.293-.036c0 0-.53.329-.913 1.044-.37.687-.708 1.277-.73 1.315.023-.012.194-.08.11.642-.092.77-.056 1.426-.056 1.976 0 .353.014.684.278 1.19.178-.001.357-.004.536-.001a2.431 2.431 0 01-.358-.474c-.19-.366.293.263.427.434-.137-.192-.695-1.007-.664-1.442 0 0 .42 1.282 1.117 1.299 0 0-.726-.967-.813-1.387 0 0 .41.783.813.895 0 0-.311-.476-.329-.714 0 0 .145.147.585.075 0 0-1.48-.35-1.48-1.136 0 0 .183.458.603.604l-.366-.495s.931.77 1.407.403c0 0-.677-.293-.237-1.354 0 0-.092 1.224.401 1.207 0 0-.476-.805-.147-1.19 0 0-.163.53.074.77 0 0 .219-.787.254-1.08v.786l.44-.84-.091.547.511-.914-.036.623.147-.202s.2.147.2.512c0 0 .293-.257.603-.257 0 0-.017-.22-.366-.183l.293-.073-.348-.056.367-.073-.494-.074s.694-.457 1.352-.036l-.346-.349.511.147-.127-.255.42.148-.184-.257.328.091-.09-.202.475.166-.219-.384.31.201-.109-.293.329.127.017-.329.13.258.053-.55.237.514.056-.423.348.88.017-.421.13.329.036-.366.292.31-.055-.458.147.42.036-.44.127.548.165-.219s.383.35.147.953c0 0 .236.402.036 1.005l-.019.349.366-.805s.056.77-.437 1.281c0 0 .036.604-.677.97 0 0 .257.035.183.586-.073.548.201.603.365.97.166.365.092.44.039.932-.045.403-.1.939-.122 1.123.012-.174.03-.66-.117-1.105l-.09.953-.184-.714s-.22.878-.055 1.536c0 0-.293-.255-.237-.897 0 0-.366.604-.329 1.044 0 0-.257-.329.073-.97 0 0-.254.255-.476.896-.218.642-.51.788-.51.788s.365-.587.42-1.3c0 0-.75 1.5-1.115 1.647l.401-.62-.456.42.252-.545c-.043.065-.393.585-.598.652 0 0 .254-.547.254-1.207l-.218.695-.019-.695s0 .512-.036.568c-.035.056-.11-.274-.11-.274l-.053.42-.092-.458-.092.275-.072-.66-.238.568s0-.403.092-.659c0 0-.219-.018-.274.548-.056.568-.075 1.61-.385 2.032-.31.42-.82.676-1.223.127 0 0-1.352 1.683-1.371 1.958-.017.276-.127.512-.053.622.073.11.31.31.473.733.165.42.53 1.207.585 1.518.056.311.036.713.092 1.024.055.311.165.622.165.787 0 .166.329.036.145.402-.183.366.237.183-.073.53-.31.347-.402.531-.402.531l.366 2.909s.293.017.183.366c-.11.346 0 .275.035.512 0 0 .128.237.056.42 0 0 .201-.074.274.275 0 0 .166-.458.384-.293.219.166.036.147.476-.053.437-.202 1.078-.66 4.11-.696 3.033-.036 2.484-.238 2.559.165.072.402.254-.018.472-.201.221-.183.55-.22.733.018.182.238.384-.201.73-.018 0 0 .074-.147.384-.35 0 0 .274-.492.658-.457.384.036.712.44 1.7.861.986.42 2.392 1.444 2.794 3.037 0 0 .055.512-.384.604-.437.091-.547.056-.547.056s-.346-.255-.75-.255-.95-.202-.95-.202-.164.148-.456-.073c-.293-.221-.147-.237-.713-.349-.566-.11-.913-.257-.913-.257s-.201.166-.62.056c0 0-.35.221-.896.036 0 0-.86.55-2.248.367-1.388-.183-4.422.787-5.846.933a55.487 55.487 0 00-1.918.218s.092.44-.165.916c-.12.222-.224.664-.301 1.087.38-.001.76-.001 1.139-.008.396-.004.79-.012 1.184-.017.237-.36.642.021.99-.14.486-.224 1.1-.075 1.659-.072.084 0 .228.087.237.144.058.32.22.324.527.15.174-.1.388-.179.598-.207.173-.022.483.104.53.052.267-.28.527.145.855-.036.249-.136.673.259 1.044.109.3-.123.56-.263.933-.24.394.025.803-.043 1.187.012.333.044.51-.319.9-.118.205.105.515-.056.847.062.355.123.756-.322 1.24-.219.315-.215.686-.241 1.097-.245.705-.008 1.431.087 2.103-.177.402.298.678.093 1.001-.114a2.978 2.978 0 011.127-.456c.096-.18.184-.363.272-.546.514-1.085.598-2.288.786-3.46.03-.178.03-.361.04-.544.023-.35.03-.7.07-1.05.126-1.075.686-1.936 1.403-2.705.224-.244.271-.411.057-.655a3.507 3.507 0 00-.641-.583c-.375-.257-.582-.585-.595-1.04-.004-.098-.078-.192-.118-.286-.055-.135-.127-.267-.16-.406-.026-.12-.004-.25-.004-.367-.19-.015-.352-.021-.514-.04-.524-.062-.934-.267-1.078-.836-.026-.108-.18-.183-.276-.274-.017-.017-.043-.039-.043-.056.014-.25-.18-.23-.335-.262-.306-.067-.527-.218-.621-.542a2.932 2.932 0 00-.524-1.036c-.21-.262-.298-.622-.44-.942-.009-.023.002-.056-.003-.083-.065-.342-.127-.69-.2-1.032a.326.326 0 00-.106-.154 2.293 2.293 0 01-.692-1.185c-.009-.04-.04-.078-.066-.113-.414-.538-.306-1.089.154-1.418.1-.073.188-.156.348-.289-.234-.152-.426-.274-.618-.4-.23-.149-.546-.253-.672-.466-.157-.268-.359-.47-.57-.676-.092-.09-.189-.177-.258-.284-.047-.073-.047-.177-.07-.267.097-.005.207-.045.285-.012.136.063.258.167.383.259.096.074.186.154.28.232-.022-.097-.079-.153-.127-.218-.157-.21-.324-.416-.46-.641-.038-.066.018-.185.031-.279.25.089.56-.05.764.202.057.07.106.147.153.207l.086-.376c.11.076.236.137.324.232.076.08.113.2.183.337.052-.201.118-.362.131-.524.032-.383-.008-.774.069-1.146.11-.548.287-1.08.78-1.441.245-.177.419-.457.76-.48.036-.002.073-.054.101-.088.16-.192.362-.187.534-.056.16.123.293.113.45.03.352-.184.677-.1.96.137.158.133.285.305.416.467.088.105.137.248.237.332.302.248.445.533.297.922-.008.022-.013.064 0 .08.232.237.084.54.126.808.047.299.087.629-.21.858-.031.025-.051.076-.062.118-.095.35-.197.693-.28 1.044-.048.214-.035.402.211.525.267.136.504.325.757.487.034.023.092.05.123.036.258-.118.477.023.706.103.187.065.357.043.457-.13.196-.342.51-.435.867-.486a.66.66 0 00.363-.207 1.26 1.26 0 01.772-.423c.415-.065.738-.284 1.019-.59.135-.145.291-.276.456-.384.794-.515 1.597-1.02 2.4-1.521.259-.16.443-.356.52-.669.032-.135.179-.241.26-.368.115-.18.251-.354.32-.552.14-.41.012-.784-.204-1.142-.132-.223-.289-.454-.103-.735.025-.038-.017-.144-.056-.2-.1-.137-.188-.259-.065-.436.088-.124.137-.275.21-.408.013-.018.067-.025.102-.022.31.018.372.428.694.445.047.002.105.093.132.157.023.053 0 .126.01.188.039.259.039.535.134.774.133.331.276.647.267 1.017-.006.207.029.416.035.624.008.225.057.416.218.596.125.14.218.34.247.524.04.25-.173.39-.384.263-.184-.11-.306-.023-.405.075a7.9 7.9 0 00-.603.707c-.353.463-.68.946-1.045 1.4-.494.62-1.053 1.186-1.375 1.932-.11.257-.328.423-.61.512-.1.032-.167.16-.257.236-.123.106-.257.297-.383.294-.359-.005-.494.197-.62.473-.17.372-.314.441-.698.405l-.285.592c.316.473.63.963.96 1.439.251.358.546.683.78 1.05.437.682.844 1.381 1.255 2.077.167.282.322.57.468.861.082.162.123.342.206.504.188.362.427.451.816.342.105-.029.213-.049.322-.053.76-.036 1.523-.105 2.283-.087 1.399.03 2.8.066 4.195.196.57.056 1.166.097 1.454.69.184.38.276.803.398 1.21.132.448.005.862-.18 1.27-.448.992-1.178 1.68-2.149 2.16a3.814 3.814 0 00-1.049.765 16.776 16.776 0 01-2.527 2.17c-.361.254-.669.586-1.008.875-.132.114-.265.236-.396.354.337-.01.676-.019 1.005.012.978.089 1.852-.248 2.776-.366.255-.032.503-.16.794-.154.34.008.682-.03 1.018-.005.363.029.712.026 1.063 0 .54-.788 1.423-1.954 1.87-2.588.608-.86 2.073-2.362 2.427-2.557 0 0-.068-.516.31-.687 0 0 .104-.057-.013-.14-.114-.08-.502-.525-.502-.56 0-.035.297-.665.376-1.112.08-.446.196-1.455.207-1.959.012-.504.193-1.927.663-3.726 0 0 .149-.699.94-1.673 0 0 .103-2.02.091-2.363-.012-.342-.241-.744-.127-1.294.116-.55.19-1.068.19-1.068s-.614.211-.652.063c-.082-.325.604-.43.615-.465 0 0-.234-1.705-.234-1.854 0-.148-.126-.367-.17-.721-.046-.356-.368-1.893-.368-4.575 0 0-.022-.366-.16-.55-.136-.183-.012-.126-.285-.275a2.212 2.212 0 01-.515-.424s-.036.297-.162.193a1.258 1.258 0 01-.262-.297c-.08-.114-.161-.345-.161-.345s-.16-.114-.285-.217c-.126-.104-.424-.642.205-.459 0 0-.08-.31.093-.355.17-.046.618-.149.618-.149s.045-.31.035-.528c-.012-.217-.15-.71-.15-1.066 0-.357.241-.437.276-.16.034.274.069.584.17.733.104.148.104.687.22.895.113.206 1.133 1.993 1.143 2.109.012.114.354 1.534.47 2.167.115.63.8 2.521.79 2.957-.012.436-.012 1.11.034 1.306.045.196.171 1.353.173 1.355.005.038.242.039.267.036.131-.016.074-.143.085-.257.01-.123.086-.155.12-.163.338-.081.716-.065 1.077-.12.201-.033.335.055.347.178.03.297.06.4.044.698-.001.028-.046.235-.22.254a9.959 9.959 0 01-1.124.081c-.03 0-.143.01-.203-.083-.019-.028-.05-.16-.072-.166-.063-.021-.231-.013-.258.036-.053.094.039.504.11.607.103.149.424.85.424.85s.32.376.32.467c0 .092.068.265.09.333.023.07.78.16.917.149.136-.012.17-.285-.16-.767-.333-.481-.355-.757-.219-.826.14-.07.219-.104.219-.25 0-.148.034-.172.262-.195.23-.025.47-.367.527-.481.057-.117.114-.538.493-.424 0 0-.023-.561.275-.539.297.023.528.436.812.194 0 0 .137-.206.814-.149 0 0 .467.057.64.171.171.114.914-.057 1.558 1.469l-.218-.276.136.333-.17-.225c.026.087.433 1.473.433 2.14s.114 3.541.218 3.829c.087.24.222 1.69.711 2.658-.187-.301-.403-.686-.511-.987.091.28.612 1.841 1.201 2.561-.089-.086-.807-.804-1.226-1.683.02.118.378 2.028.833 2.494 0 0-.63-.528-.641-.884 0 0 .034.735.253.94 0 0-.219-.034-.333-.664 0 0-.08.402-.022.801 0 0-.149-.193-.104-.766l-.127.355v-.86s-.136.48-.103.835c.034.355.034.538.034.538s-.114-.297-.16-.595c0 0-.19.305-.095.542a.677.677 0 01-.093-.501l-.11.416s-.022-.835-.091-.94c0 0-.113.682-.036.992a2.353 2.353 0 01-.183-1.236c-.017.105-.197 1.154-.1 1.46l-.162-.207-.091.185-.092-.447-.16.17-.012-.652-.15.779s-.08-.494-.034-.858c.047-.368-.103-1.285-.103-1.285s-.126.527-.08.838l-.11-.55c.027.19.205 1.469.1 1.639 0 0-.092-1.146-.206-1.57 0 0-.188.953-.139 1.285-.044-.17-.17-.798.103-1.432-.035.023-.398.29-.182 1.512 0 0-.423-.7-.354-1.376 0 0-.287.769.045 1.399 0 0-.39-.069-.241-.757 0 0-.183.08-.24.402 0 0-.034-.494.285-.906 0 0-.354.173-.388.584 0 0-.023-.569.339-1.002-.04.04-.362.373-.546 1.062 0 0-.135-.34-.001-.546-.025.034-.215.315-.215.476 0 0-.148-.218.194-.801.344-.585.184-1.307.184-1.307s.012.687-.23 1.03c-.24.346-.38.586-.38.586s-.056-.16.299-.642.17-.915.17-.915.046.585-.319.939c0 0 .25-.516.25-.836 0 0-.732.31-.675.929 0 0-.17-.183.1-.57-.048.054-.42.487-.569.5 0 0 .55-.574.791-1.007l-.379.331.266-.437c-.045.045-.257.271-.69.805-.492.607-.56.756-.594.904-.035.15-.137.128-.253.31-.114.184-.045.206-.08.413-.034.206-.034.25.045.39.082.137 1.523 2.212 1.296 2.728 0 0 .057.48.33.858.276.38.242.425.481.665.242.241.333.481.436.792.104.309 1.694 2.91 1.694 2.91s.265.115.345.311c.004.008.005.015.007.022.07.049.14.106.228.108.455.008.909 0 1.362.017.39.014.678.263 1.11.246.625-.025 1.275-.004 1.405.646.021.103.13.089.25.01.178-.118.416-.212.598-.057.336.292.854.11 1.245.336.355.204.86.16 1.266-.039.205-.1.415-.152.633-.106.262.053.5.18.763.229.322.058.686-.04.975.14.24.153.541.093.798.158.114.03.174.2.24.312.065.11.123.126.241.078.423-.166.768.179 1.21.1.376-.066.795.031 1.184-.009.44-.043.725.207 1.104.25.389.044.873-.043 1.156.105.546.283 1.244.026 1.751.39.231.163.53-.286.896-.039.262.176.647.082.981.07.223-.005.368-.248.241-.386-.065-.07-.148-.13-.218-.197-.415-.41-.407-.404.192-.81.163-.11.341-.246.405-.397.118-.284.275-.148.477-.08.401.131.765.07 1.078-.167.148-.114.1-.21-.005-.32-.206-.205.078-.17.192-.228.087-.045.41-.049.116-.21-.336-.188-.392-.273-.184-.373.139-.07.291-.12.426-.193.436-.228 1.036-.3 1.194-.794.048-.15.294-.227.544-.253.192-.022.221-.154.015-.222-.135-.042-.327-.023-.315-.179.004-.036.177-.086.278-.092.224-.017.454 0 .678-.02.07-.009.196-.124.183-.14-.386-.493.214-.367.426-.342a10.88 10.88 0 011.589.306c.215.058.359.174.559-.005.183-.163.533-.299.558-.468.057-.389.375-.354.707-.384.097-.008.184-.078.278-.118-.095-.043-.184-.104-.287-.123-.287-.053-.396-.244-.28-.38.175-.21.238-.347-.045-.517a.957.957 0 01-.308-.305c-.039-.058.013-.157.042-.234.008-.022.104-.05.122-.039.291.171.629.147.968.167.607.036 1.204-.014 1.812.214.415.154 1 .051 1.51.045.083 0 .24-.1.234-.143-.014-.118-.058-.28-.166-.332l-.014.013zM31.582 16.702l-.21.42c.16.008.32.012.48.01h.096a1.724 1.724 0 00-.366-.43zm29 16.855c-.224.315-.399.555-.568.8-.673.962-1.352 1.924-2.016 2.893-.426.62-.85 1.24-1.271 1.86.16-.021.352 0 .519-.005.17-.006.359.032.507-.014a5.27 5.27 0 00.254-.086c-.005-.179.106-.318.316-.411.454-.207.9-.432 1.358-.633.423-.183.704-.504.944-.882.16-.253.336-.498.53-.727.206-.245.497-.324.811-.31.245.013.493.066.734.048.179-.013.422-.062.514-.187.372-.507.865-.931 1.055-1.575.11-.368.324-.712.51-1.054.137-.253.306-.49.504-.801-1.622.507-3.18.952-4.702 1.084h.001z" fill="url(#paint0_linear_1667_1103)"/><path d="M24.861 39.403c-.428-.073-.796-.46-1.253-.25l-.053.02c.211.133.407.225.537.292.139.073.357.137.61.194a2.7 2.7 0 01.194-.088c.135-.051.13-.139-.035-.167v-.001z" fill="url(#paint1_linear_1667_1103)"/><path d="M87.134 27.195a2.135 2.135 0 01-.298-.463c.136.223.257.4.298.463z" fill="url(#paint2_linear_1667_1103)"/></g><defs><linearGradient id="paint0_linear_1667_1103" x1="8.064" y1="20.82" x2="117.879" y2="20.82" gradientUnits="userSpaceOnUse"><stop stop-color="#65C1F8"/><stop offset="1" stop-color="#BD9BFF"/></linearGradient><linearGradient id="paint1_linear_1667_1103" x1="23.555" y1="39.374" x2="24.991" y2="39.374" gradientUnits="userSpaceOnUse"><stop stop-color="#65C1F8"/><stop offset="1" stop-color="#BD9BFF"/></linearGradient><linearGradient id="paint2_linear_1667_1103" x1="86.836" y1="26.965" x2="87.134" y2="26.965" gradientUnits="userSpaceOnUse"><stop stop-color="#65C1F8"/><stop offset="1" stop-color="#BD9BFF"/></linearGradient><clipPath id="clip0_1667_1103"><path fill="#fff" d="M0 0h126.561v74H0z"/></clipPath></defs></svg>