<svg width="127" height="74" viewBox="0 0 127 74" fill="none" xmlns="http://www.w3.org/2000/svg">
<g clip-path="url(#clip0_1667_1103)">
<path d="M9.02624 56.3486H6.37731V49.3164H4.51246V56.3486H1.86485V49.3164H0V57.3327C0 57.9017 0.317872 58.216 0.894015 58.216H9.99708C10.5812 58.216 10.9043 57.903 10.9043 57.3327V49.3164H9.02757V56.3486H9.02624Z" fill="#15112B"/>
<path d="M17.814 53.6766C18.2882 53.3756 18.6471 52.9326 18.9915 52.2429L20.4656 49.3184H18.4431L17.0922 51.971C16.6631 52.8092 16.5068 52.9286 15.0777 52.9286H14.4459V49.3184H12.5811V58.218H14.4459V54.6581H15.0777C16.6843 54.6581 16.8684 54.7868 17.2816 55.5905L18.6325 58.218H20.7199L19.2047 55.2669C18.7955 54.4671 18.4392 53.9645 17.814 53.678V53.6766Z" fill="#15112B"/>
<path d="M25.7713 49.3164H24.6111C21.9728 49.3164 20.5768 50.8616 20.5768 53.7848C20.5768 56.708 21.9714 58.216 24.6111 58.216H25.7713C28.4097 58.216 29.8057 56.6841 29.8057 53.7848C29.8057 50.8854 28.411 49.3164 25.7713 49.3164ZM27.9289 53.7728C27.9289 55.6032 27.3037 56.3499 25.7713 56.3499H24.6111C23.0496 56.3499 22.4416 55.631 22.4416 53.7861C22.4416 51.9412 23.0708 51.1839 24.6111 51.1839H25.7713C27.3037 51.1839 27.9289 51.9346 27.9289 53.7728Z" fill="#15112B"/>
<path d="M35.7699 49.166C34.5461 49.166 34.1792 49.7894 33.7197 50.8173L31.8535 54.9448C31.2389 56.2897 31.084 56.3494 30.6376 56.3494H30.1462V58.2168H30.6111C32.2786 58.2168 32.7078 57.4038 33.5197 55.5668L35.4468 51.2032C35.5434 50.999 35.6322 50.9831 35.7302 50.9831C35.8481 50.9831 35.9832 51.0136 35.9832 51.2497V58.2182H37.8599V51.1741C37.8599 49.918 37.0772 49.1673 35.7673 49.1673L35.7699 49.166Z" fill="#15112B"/>
<path d="M43.7128 49.166C42.6705 49.166 42.0453 49.5546 41.7473 50.3836L38.6573 58.2168H40.701L41.3937 56.4621H45.9022L46.571 58.2168H48.6253L45.6558 50.3915C45.3684 49.556 44.7512 49.166 43.7128 49.166ZM45.2307 54.6716H42.0983L43.444 51.2483C43.5009 51.1184 43.5698 51.0706 43.7009 51.0706C43.832 51.0706 43.8943 51.1157 43.9406 51.2391L45.232 54.6702L45.2307 54.6716Z" fill="#15112B"/>
<path d="M62.7771 49.166C61.5188 49.166 60.7745 49.7642 60.5003 50.991L59.303 56.2021C59.2288 56.4992 59.0673 56.539 58.9176 56.539C58.7679 56.539 58.6077 56.4992 58.5335 56.2061L57.3362 50.9924C57.0686 49.7973 56.2647 49.166 55.0091 49.166C53.6118 49.166 52.7787 49.9499 52.7787 51.2616V58.2182H54.6303V51.3385C54.6303 51.1038 54.7707 50.9844 55.0475 50.9844C55.2793 50.9844 55.4091 51.0825 55.4568 51.2934L56.6673 56.5072C56.9547 57.7606 57.6872 58.3707 58.9057 58.3707C60.1242 58.3707 60.8063 57.7791 61.1056 56.5085L62.3294 51.2934C62.3784 51.0772 62.5016 50.9857 62.7387 50.9857C63.0155 50.9857 63.1559 51.1051 63.1559 51.3399V58.2195H65.0075V51.2629C65.0075 49.9512 64.1731 49.1673 62.7771 49.1673V49.166Z" fill="#15112B"/>
<path d="M74.7424 49.3164H73.5822C71.2365 49.3164 69.8604 50.5512 69.5915 52.8895H68.5505V49.3164H66.6857V58.216H68.5505V54.6177H69.5902C69.8339 56.9733 71.21 58.216 73.5822 58.216H74.7424C77.3807 58.216 78.7767 56.6841 78.7767 53.7848C78.7767 50.8854 77.3821 49.3164 74.7424 49.3164ZM73.5822 51.1825H74.7424C76.2748 51.1825 76.8986 51.9332 76.8986 53.7715C76.8986 55.6098 76.2934 56.3486 74.7424 56.3486H73.5822C72.0206 56.3486 71.4127 55.6257 71.4127 53.7715C71.4127 51.9173 72.0418 51.1825 73.5822 51.1825Z" fill="#15112B"/>
<path d="M86.3671 53.7463C87.0201 53.3458 87.3512 52.6892 87.3512 51.79C87.3512 50.2183 86.244 49.3164 84.3129 49.3164H79.8759V51.1825H84.3129C85.0519 51.1825 85.4109 51.4677 85.4109 52.0553C85.4109 52.4677 85.2784 52.8895 84.301 52.8895H81.5275V54.6177H84.338C85.334 54.6177 85.448 55.0939 85.448 55.452C85.448 56.0554 85.089 56.3499 84.35 56.3499H79.8627V58.2173H84.35C86.244 58.2173 87.3751 57.2929 87.3751 55.7438C87.3751 54.814 87.0439 54.1575 86.3658 53.7476L86.3671 53.7463Z" fill="#15112B"/>
<path d="M96.0013 49.166C94.5682 49.166 94.0622 50.0268 93.7629 50.8544L91.2822 56.2897C91.1961 56.4621 91.0809 56.539 90.9087 56.539C90.7643 56.539 90.5921 56.4886 90.5921 56.2472V49.3172H88.7273V56.3109C88.7273 57.6187 89.5087 58.368 90.8703 58.368C92.3126 58.368 92.8278 57.4582 93.1086 56.6796L95.592 51.2391C95.6768 51.0587 95.792 50.9817 95.9761 50.9817C96.1748 50.9817 96.2794 51.0865 96.2794 51.2855V58.2168H98.1562V51.2099C98.1562 49.93 97.3509 49.166 96.0013 49.166Z" fill="#15112B"/>
<path d="M105.054 53.6766C105.528 53.3756 105.887 52.9326 106.231 52.2429L107.706 49.3184H105.683L104.332 51.971C103.902 52.8092 103.747 52.9286 102.318 52.9286H101.686V49.3184H99.821V58.218H101.686V54.6581H102.318C103.924 54.6581 104.108 54.7868 104.52 55.5905L105.871 58.218H107.959L106.443 55.2669C106.034 54.4671 105.678 53.9645 105.053 53.678L105.054 53.6766Z" fill="#15112B"/>
<path d="M113.704 49.166C112.48 49.166 112.113 49.7894 111.654 50.8173L109.788 54.9448C109.173 56.2897 109.018 56.3494 108.572 56.3494H108.08V58.2168H108.545C110.213 58.2168 110.642 57.4038 111.454 55.5668L113.381 51.2032C113.478 50.999 113.566 50.9831 113.664 50.9831C113.782 50.9831 113.917 51.0136 113.917 51.2497V58.2182H115.794V51.1741C115.794 49.918 115.011 49.1673 113.701 49.1673L113.704 49.166Z" fill="#15112B"/>
<path d="M123.59 50.3915C123.303 49.556 122.685 49.166 121.647 49.166C120.609 49.166 119.978 49.5546 119.682 50.3836L116.592 58.2168H118.635L119.329 56.4621H123.838L124.507 58.2168H126.561L123.591 50.3915H123.59ZM123.165 54.6702H120.031L121.377 51.247C121.434 51.117 121.503 51.0693 121.634 51.0693C121.765 51.0693 121.827 51.1144 121.874 51.2377L123.165 54.6689V54.6702Z" fill="#15112B"/>
<path d="M12.7899 63.7583H15.4269V62.8936H12.7899C10.7224 62.8936 9.67346 64.066 9.67346 66.3765C9.67346 68.6869 10.7224 69.8461 12.7899 69.8461H15.4269V68.98H12.7899C11.2536 68.98 10.5383 68.1524 10.5383 66.3765C10.5383 64.6005 11.2536 63.7583 12.7899 63.7583Z" fill="#262433"/>
<path d="M16.8109 62.8955V63.7603H18.9618V69.8481H19.836V63.7603H21.9869V62.8955H16.8122H16.8109Z" fill="#262433"/>
<path d="M27.4333 63.5754C27.2386 63.0064 26.8412 62.7637 26.1048 62.7637C25.3684 62.7637 24.9565 63.0064 24.7539 63.5754L22.2798 69.8475H23.2427L23.844 68.3289H28.2584L28.3101 68.4655L28.8359 69.8475H29.812L27.432 63.5754H27.4333ZM24.1566 67.5291L24.2705 67.2374L25.5261 64.0462C25.636 63.7929 25.832 63.6603 26.0942 63.6603C26.3565 63.6603 26.5565 63.7955 26.6518 64.0502L27.9617 67.5291H24.1579H24.1566Z" fill="#262433"/>
<path d="M33.8409 63.7583H36.4779V62.8936H33.8409C31.7747 62.8936 30.7271 64.066 30.7271 66.3765C30.7271 68.6869 31.7747 69.8461 33.8409 69.8461H36.4779V68.98H33.8409C32.3045 68.98 31.588 68.1524 31.588 66.3765C31.588 64.6005 32.3045 63.7583 33.8409 63.7583Z" fill="#262433"/>
<path d="M43.0065 63.5754C42.8118 63.0064 42.4145 62.7637 41.6781 62.7637C40.9417 62.7637 40.5311 63.0064 40.3271 63.5754L37.853 69.8475H38.8186L39.4146 68.3289H43.833L43.8846 68.4655L44.4105 69.8475H45.3866L43.0065 63.5754ZM39.7298 67.5291L39.8437 67.2374L41.0993 64.0462C41.2119 63.7916 41.4079 63.6603 41.6675 63.6603C41.9271 63.6603 42.1324 63.7955 42.2277 64.0502L43.5337 67.5291H39.7298Z" fill="#262433"/>
<path d="M54.7015 62.8949V66.7531H52.2751C51.2804 66.7531 50.7321 66.2266 50.7321 65.273V62.8949H49.8447V65.3698C49.8447 66.8884 50.5931 67.6259 52.1334 67.6259H54.7015V69.8461H55.577V62.8936H54.7015V62.8949Z" fill="#262433"/>
<path d="M63.1649 62.8955L60.5994 67.2114L60.4166 66.8997L58.1531 62.8955H57.1929L60.1398 67.9992L59.9531 68.3016C59.6219 68.8308 59.3531 68.982 58.7465 68.982H57.7028V69.8481H58.5293C59.7729 69.8481 60.2299 69.5815 60.8537 68.4899L64.1384 62.8955H63.1649Z" fill="#262433"/>
<path d="M70.8081 62.8955V65.9023H66.6201V62.8955H65.7539V69.8481H66.6201V66.7657H70.8081V69.8481H71.6822V62.8955H70.8081Z" fill="#262433"/>
<path d="M79.7961 62.7627C78.9709 62.7627 78.5246 63.1062 78.2054 63.9909L76.0492 68.7165C75.9075 68.9977 75.6783 69.145 75.3869 69.145C75.0002 69.145 74.7406 68.8929 74.7406 68.5189V62.8953H73.8744V68.572C73.8744 69.4924 74.387 69.9779 75.3565 69.9779C76.179 69.9779 76.624 69.6344 76.9458 68.7524L79.1021 64.0254C79.2372 63.7389 79.4689 63.5863 79.7736 63.5863C80.155 63.5863 80.412 63.8423 80.412 64.2256V69.8479H81.2861V64.158C81.2861 63.2455 80.7709 62.764 79.7961 62.764V62.7627Z" fill="#262433"/>
<path d="M87.2433 66.3108L87.3599 66.1715L90.2088 62.8955H89.1784L86.7083 65.7325L86.5493 65.5402L84.3534 62.8955H83.3401L86.152 66.2153L86.0315 66.3519L83.0355 69.8468H84.0713L86.6791 66.8002L86.8394 66.9925L89.2208 69.8468H90.2353L87.2394 66.3108H87.2433Z" fill="#262433"/>
<path d="M97.6936 62.7627C96.8684 62.7627 96.4234 63.1062 96.1042 63.9909L93.948 68.7165C93.8062 68.9977 93.5771 69.145 93.2857 69.145C92.8977 69.145 92.6367 68.8929 92.6367 68.5189V62.8953H91.7732V68.572C91.7732 69.4924 92.2844 69.9779 93.2513 69.9779C94.0764 69.9779 94.5228 69.6344 94.842 68.7524L96.9995 64.0254C97.1346 63.7389 97.3664 63.5863 97.6724 63.5863C98.0538 63.5863 98.3108 63.8423 98.3108 64.2256V69.8479H99.1849V64.158C99.1849 63.2455 98.6697 62.764 97.6936 62.764V62.7627Z" fill="#262433"/>
<path d="M106.428 62.8955V65.9023H102.239V62.8955H101.375V69.8481H102.239V66.7657H106.428V69.8481H107.302V62.8955H106.428Z" fill="#262433"/>
<path d="M114.071 63.5754C113.875 63.0064 113.477 62.7637 112.741 62.7637C112.004 62.7637 111.597 63.0064 111.391 63.5754L108.917 69.8475H109.881L110.48 68.3289H114.896L114.947 68.4655L115.472 69.8475H116.449L114.069 63.5754H114.071ZM110.794 67.5291L110.908 67.2374L112.163 64.0462C112.273 63.7929 112.469 63.6603 112.732 63.6603C112.994 63.6603 113.195 63.7955 113.289 64.0515L114.598 67.5291H110.794Z" fill="#262433"/>
<path d="M78.9551 34.8524C78.9551 34.8524 78.6015 34.7954 78.4624 34.7039C78.326 34.6124 77.8902 34.9692 77.6624 35.0487C77.6624 35.0487 76.6267 35.7756 75.5526 36.631C75.6175 36.6005 75.6797 36.5687 75.7406 36.5302C76.2373 36.5448 76.7631 36.4042 77.2068 36.696C77.2492 36.7252 77.2995 36.7584 77.3499 36.7623C77.9008 36.8101 78.4505 36.7358 78.9909 36.9812C79.3961 37.1642 80.0001 36.9719 80.4041 37.2823C80.4306 37.3035 80.514 37.2783 80.5696 37.2809C80.7802 37.2849 80.9219 36.9719 81.1339 37.1589C81.4014 37.3937 81.5882 36.9984 81.8504 37.1549C81.9113 37.1908 81.9868 37.2173 82.0703 37.2372C81.2584 36.4401 79.9392 35.2464 78.9564 34.8538L78.9551 34.8524ZM28.5525 17.8928C28.2995 17.8968 28.134 17.979 28.1062 18.1872C28.0837 18.349 28.138 18.5493 27.9049 18.6408C27.677 18.7297 27.3671 18.8809 27.1857 18.8252C26.7181 18.6846 26.3963 19.0427 25.946 18.9432C25.5672 18.861 25.2029 19.0056 24.8321 19.1409C24.452 19.2814 23.9341 19.1024 23.554 19.3677C23.4838 19.4167 23.3447 19.4194 23.2361 19.4234C22.6719 19.4379 22.0348 19.3279 21.5607 19.4897C21.0057 19.682 20.464 19.6223 19.9289 19.7165C18.5369 19.9618 17.1396 20.1833 15.8668 20.7311C15.1939 21.0202 15.0151 21.4699 14.8628 21.9646C14.8204 22.1039 14.9754 22.2657 15.0761 22.21C15.6204 21.9182 16.2853 21.8505 16.8628 21.6211C16.8879 21.6118 16.8932 21.5733 16.9012 21.5349C17.1224 21.6144 17.3422 21.6927 17.5634 21.7709C17.5886 21.9725 17.3753 22.1025 17.2111 22.1436C16.6866 22.2763 16.3568 22.6198 15.8866 22.8041C15.8469 22.9646 15.9449 23.2193 15.6999 23.2471C15.1635 23.3055 14.8165 23.5747 14.3847 23.7551C14.1198 23.8652 13.7821 24.1915 13.3582 23.9037C13.3331 23.8864 13.1582 23.9554 13.1079 24.0124C12.9476 24.1835 12.8337 24.3798 12.6669 24.5469C12.4828 24.7313 12.4059 24.9316 12.4761 25.1491C12.5596 25.4104 12.79 25.5695 13.1344 25.6266C13.1476 25.4329 13.1026 25.2035 13.4403 25.1425C14.0284 25.0377 14.2642 25.1159 14.537 25.4263C14.6602 25.5629 14.7979 25.6942 14.9463 25.8162C15.0946 25.9396 15.3794 25.9038 15.5052 25.7473C15.6191 25.6067 15.6972 25.4502 15.8164 25.3135C15.9913 25.1133 16.2694 25.1159 16.5409 25.1212C16.5396 25.1292 16.5356 25.1385 16.533 25.1464H16.5674C16.5634 25.2247 16.5528 25.3043 16.5754 25.3785C16.5979 25.4541 16.6681 25.5218 16.7184 25.5921C16.7714 25.5218 16.8456 25.4568 16.872 25.3812C16.8972 25.3069 16.884 25.2234 16.8813 25.1438H16.9065C16.9065 25.1438 16.9012 25.1318 16.8972 25.1265C17.4005 25.1226 17.7661 25.2937 17.8892 25.6677C17.9581 25.8772 18.0363 26.0669 18.17 26.2592C18.3356 26.494 18.1833 26.6956 17.8084 26.6664C17.2628 26.6266 16.8575 26.9688 16.3595 26.921C15.8045 26.8693 15.4257 27.2049 14.9145 27.2181C14.5158 27.2301 14.5158 27.4662 14.5291 27.6824C14.533 27.7606 14.6019 27.8362 14.6509 27.9092C14.6549 27.9131 14.7463 27.8946 14.786 27.8733C15.0098 27.746 15.2403 27.5007 15.4549 27.5099C16.0456 27.5325 16.5197 27.2553 17.0694 27.2261C17.5753 27.1996 18.0866 27.2115 18.5939 27.2261C18.7713 27.2301 18.8905 27.3309 18.9223 27.4715C18.9621 27.6426 19.0084 27.8694 18.7647 27.9224C18.3846 28.002 18.1051 28.2248 17.6786 28.2593C17.3171 28.2885 16.9714 28.4768 16.635 28.6148C16.5754 28.64 16.582 28.7686 16.582 28.8508C16.582 28.8827 16.635 28.9291 16.6787 28.9424C16.778 28.9742 16.884 29.0073 16.9886 29.0087C17.7833 29.014 18.5766 29.0034 19.3687 29.0219C19.6786 29.0299 19.8852 28.8747 20.1408 28.8283C20.2719 28.8031 20.4693 29.0392 20.6878 28.8668C20.7964 28.7792 20.8786 28.7938 20.9501 28.9066C21.0017 28.9861 20.8931 29.2341 20.7845 29.2262C20.1991 29.1771 19.7792 29.5816 19.1872 29.5405C18.6243 29.5007 18.1647 29.8204 17.5714 29.8164C17.0429 29.8111 16.5105 30.0087 15.982 30.1268C15.7727 30.1719 15.5674 30.2886 15.3622 30.2872C14.2178 30.2753 13.2443 30.7276 12.1834 30.9385C11.6192 31.0512 11.1583 31.3218 10.8682 31.6905C10.6934 31.9133 10.5663 32.1109 10.2259 32.2157C10.0762 32.2608 10.0696 32.4346 10.1861 32.5433C10.3331 32.6826 10.5225 32.8683 10.3928 32.9982C10.0947 33.3033 10.0298 33.741 9.52522 33.924C9.22854 34.0301 8.91465 34.115 8.61267 34.2118C8.56366 34.2291 8.52658 34.2675 8.48552 34.2954C8.55439 34.3431 8.61664 34.4214 8.69214 34.4307C8.96365 34.4665 9.2696 34.4187 9.4643 34.623C9.54244 34.7066 9.75701 34.749 9.60337 34.9214C9.45105 35.0912 9.33715 35.2848 9.24179 35.4798C9.07226 35.8246 8.86299 36.0793 8.2842 36.0395C8.06699 36.0249 7.9703 36.3512 8.17029 36.4228C8.48949 36.5316 8.72922 36.6509 8.82988 36.9334C8.90008 37.1297 9.0312 37.3499 9.23119 37.4746C9.49741 37.6417 9.73449 37.4083 9.97819 37.3247C10.2828 37.2213 10.5146 37.6603 10.8788 37.3778C11.0616 37.2345 11.3543 37.1549 11.6166 37.0979C11.8179 37.0528 12.1225 37.0143 12.2536 37.0939C12.5993 37.3035 12.9702 37.3167 13.3702 37.3167C13.6099 37.3167 13.8152 37.3698 13.8205 37.5979C13.8258 37.8128 13.8562 38.0383 13.4668 38.0887C13.4139 38.0966 13.3635 38.1205 13.3145 38.1377C13.1755 38.1895 13.1953 38.3075 13.341 38.2956C13.9039 38.2558 13.6999 38.7943 14.1397 38.8593C14.4589 38.9083 14.7714 39.0304 15.0469 39.1656C15.2125 39.2439 15.3052 39.4097 15.431 39.537C15.2747 39.5755 15.1211 39.6153 14.9635 39.6471C14.9105 39.659 14.8377 39.6352 14.7966 39.6551C14.7264 39.6869 14.6708 39.7413 14.6099 39.7864C14.6549 39.8129 14.6986 39.8567 14.7463 39.8606C14.9132 39.8726 15.084 39.8699 15.2535 39.8726C15.7635 39.8779 16.2747 39.8978 16.7846 39.8779C17.1462 39.8646 17.427 39.9482 17.7224 40.1007C17.9753 40.2307 18.1184 40.1259 18.0455 39.8434C18.0204 39.7466 17.9714 39.6816 18.1382 39.667C18.4177 39.6444 18.7011 39.6497 18.9819 39.6325C19.4786 39.602 19.9607 39.6192 20.4627 39.4534C20.8997 39.3102 21.4587 39.3805 21.9659 39.3606C22.5024 39.3354 23.0348 39.3898 23.5513 39.1696C22.8917 38.7585 22.0891 37.9627 22.7527 36.3684C22.7527 36.3684 24.1593 34.245 25.7486 32.8736C25.7486 32.8736 27.1194 31.4836 27.5751 31.2462C27.5751 31.2462 27.2651 31.0273 27.1923 30.8615C27.1181 30.6984 26.3499 30.3138 26.2585 29.5246C26.2585 29.5246 25.9129 29.4888 25.6744 29.6718C25.4374 29.8549 25.0533 30.4597 24.4692 30.1838C23.8838 29.9092 23.7368 29.636 23.8652 29.38C23.995 29.1227 24.4506 28.0803 24.4506 28.0803C24.4506 28.0803 24.1579 27.9171 24.395 27.6956C24.395 27.6956 24.5222 27.5683 24.6877 27.6598L24.9619 27.2752C24.9619 27.2752 24.652 27.0563 24.7049 27.0563C24.7579 27.0563 24.8705 27.0205 24.8705 27.0205C24.8705 27.0205 24.542 26.6916 24.9261 26.6359C24.9261 26.6359 24.4705 26.234 25.1804 26.1597C25.1804 26.1597 24.852 25.8852 25.199 25.6836C25.5473 25.4833 25.7288 25.3374 26.1857 25.299C26.1857 25.299 26.4784 24.2379 26.7155 23.6344C26.9526 23.031 27.4651 22.1702 27.7751 22.2617L30.0333 17.8755C29.5366 17.8808 29.0412 17.8848 28.5459 17.8901L28.5525 17.8928ZM30.4121 40.415C30.4121 40.415 30.522 40.305 29.5167 40.2134C28.5115 40.1219 26.9049 39.976 26.5923 39.9389C26.3645 39.9124 25.4016 39.8155 24.701 39.6577C24.5169 39.7466 24.3301 39.8447 24.15 39.8407C23.2679 39.8235 22.3514 40.0768 21.5011 39.6882C21.4136 39.6484 21.2097 39.6259 21.1898 39.6524C20.9024 40.0185 20.317 39.7956 19.9726 40.0198C19.8561 40.0954 19.7806 40.2081 19.6852 40.305C19.7898 40.3315 19.8918 40.3806 19.9965 40.3832C21.2441 40.3951 22.4904 40.3978 23.7381 40.4044C23.8507 40.4044 23.9699 40.3819 24.0771 40.4004C24.5579 40.488 24.8904 40.0463 25.3645 40.1816C25.7791 40.2996 26.1592 40.4973 26.5817 40.5981C26.893 40.6723 27.2466 40.6684 27.583 40.6684C28.5949 40.6684 29.6041 40.6684 30.616 40.667C30.5578 40.602 30.4902 40.5198 30.4121 40.4164V40.415ZM32.2147 17.666C32.0571 17.6832 31.9008 17.7177 31.7445 17.788C31.5485 17.8769 31.265 17.8636 31.0068 17.8663C30.4439 19.0149 29.6545 20.6529 29.5366 21.0534C29.5803 20.9844 30.2929 19.8862 30.5578 19.3743C30.5578 19.3743 30.6849 19.3 30.8862 19.3743C30.8862 19.3743 31.7816 19.3557 31.8902 19.2085C32.0001 19.0613 32.0743 18.8424 32.567 18.8623L32.8597 18.7522C32.8597 18.7522 32.461 18.1328 32.2133 17.6673L32.2147 17.666ZM32.2941 36.1138C31.8385 34.3949 31.0703 33.3869 31.0703 33.3869C31.0703 33.3869 29.6637 34.5049 29.2598 34.9055C28.8585 35.3074 27.6174 36.1682 27.4161 36.2225C27.2148 36.2782 26.6307 36.8446 26.6307 36.8446C26.6307 36.8446 27.4161 36.9175 27.836 37.0634C28.2558 37.2093 29.4611 37.7027 30.1551 37.8685C30.8505 38.0316 31.2518 38.3062 31.8544 38.3261C32.457 38.346 33.1338 38.3818 33.5908 38.3447C33.5908 38.3447 32.7511 37.8327 32.2941 36.1111V36.1138ZM33.8106 17.6288C33.9232 17.7907 34.0544 17.9684 34.212 18.1634L34.4782 17.6129C34.2557 17.6169 34.0332 17.6222 33.8106 17.6275V17.6288ZM117.71 32.4173C117.532 32.3311 117.288 32.3218 117.234 32.1242C117.097 32.0632 116.963 31.9969 116.822 31.9452C116.618 31.8722 116.534 31.5035 116.202 31.7581C115.93 31.9637 115.774 31.4743 115.534 31.7276C115.445 31.8231 115.369 31.8112 115.268 31.7489C114.879 31.5035 114.775 30.9531 114.032 31.0698C113.989 31.0777 113.872 30.9517 113.852 30.8788C113.816 30.7554 113.82 30.6241 113.82 30.4955C113.816 30.1533 113.851 30.1334 114.402 30.0379C114.551 30.0114 114.708 29.9689 114.834 29.9053C114.94 29.8482 114.799 29.5564 114.611 29.4729C114.423 29.3867 114.197 29.3429 114.031 29.2408C113.751 29.067 114.088 29.0577 114.178 29.0272C114.338 28.9715 114.506 28.9225 114.493 28.7779C114.481 28.6638 114.404 28.5431 114.32 28.4423C114.244 28.3535 114.247 28.2805 114.407 28.2712C114.712 28.2527 115.083 28.1452 115.207 28.4954C115.298 28.5299 115.424 28.5537 115.455 28.6095C115.559 28.7965 115.569 29.0166 115.955 29.0286C116.17 29.0339 116.391 29.0989 116.587 29.1718C116.807 29.254 117.041 29.3217 117.162 29.1294C117.248 28.9928 117.244 28.7872 117.181 28.6386C117.059 28.3588 116.592 28.2487 116.539 27.9012C116.51 27.7208 116.326 27.8229 116.187 27.8787C115.765 28.0524 115.314 28.0458 114.92 27.8641C114.657 27.742 114.399 27.7288 114.121 27.7023C114.055 27.6969 114.002 27.6134 113.942 27.5656C114.043 27.5351 114.144 27.4993 114.247 27.4741C114.3 27.4622 114.361 27.4728 114.416 27.4622C114.802 27.3932 114.802 27.2433 114.909 27.063C115.048 26.8229 114.126 26.6094 114.944 26.3905C115.285 26.299 115.525 26.2738 115.827 26.3985C115.896 26.425 116.031 26.3627 116.132 26.3335C116.136 26.3335 116.124 26.2645 116.1 26.2406C116.031 26.1743 115.95 26.1146 115.877 26.0483C115.769 25.9489 115.638 25.86 115.562 25.7473C115.312 25.3759 115.318 25.3639 114.746 25.3838C114.427 25.3958 114.222 25.2698 114.016 25.1133C113.904 25.0257 113.889 24.9687 114.012 24.9196C114.203 24.8414 114.414 24.787 114.579 24.6849C114.665 24.6318 114.924 24.527 114.667 24.4037C114.108 24.1358 113.536 23.8785 112.967 23.6212C112.827 23.5562 112.571 23.5257 112.545 23.4448C112.313 22.763 111.623 22.7882 110.933 22.8095C110.471 22.8227 110.17 22.4076 109.666 22.5376C109.643 22.5429 109.562 22.4381 109.53 22.3797C109.522 22.3678 109.606 22.3041 109.652 22.3015C109.933 22.2895 110.216 22.2975 110.499 22.2763C110.565 22.2723 110.624 22.1808 110.673 22.1237C110.673 22.1145 110.601 22.0508 110.556 22.0442C110.411 22.015 110.234 22.019 110.211 21.8744C110.211 21.8479 110.394 21.7855 110.491 21.7829C110.884 21.7709 111.271 21.7617 111.616 21.9699C111.823 22.0919 112.046 21.9885 112.21 21.8572C112.354 21.7378 112.528 21.7617 112.668 21.8227C112.856 21.9049 112.982 22.0017 113.243 21.889C113.369 21.8333 113.626 21.9633 113.827 21.9938C114.018 22.0243 114.179 21.9023 114.132 21.7723C114.105 21.698 114.053 21.58 113.993 21.572C113.334 21.4884 112.745 21.186 112.048 21.2391C111.533 21.2789 111.153 20.9062 110.598 20.9805C110.158 21.0415 109.691 21.0189 109.243 20.9818C108.699 20.938 108.221 20.7072 107.635 20.7139C107.044 20.7178 106.488 20.4685 105.875 20.4075C105.358 20.3558 104.876 20.0626 104.391 19.8571C103.803 19.609 103.207 19.3796 102.513 19.4539C102.12 19.4963 101.924 19.2231 101.593 19.1833C101.264 19.1435 100.916 19.2284 100.605 19.0732C100.47 19.0069 100.303 18.9591 100.145 18.9459C99.5307 18.8902 98.8618 19.0493 98.3109 18.8186C97.7692 18.5944 97.1268 18.8186 96.6897 18.5878C96.1387 18.296 95.4408 18.5626 94.9388 18.2031C94.8116 18.1116 94.5057 18.1687 94.2832 18.1501C93.5719 18.0851 92.8302 18.2496 92.1481 17.9153C91.9468 17.8159 91.5945 17.8888 91.3111 17.8888C90.5177 17.8848 89.7204 17.8331 88.935 17.8941C88.1721 17.9525 87.539 17.6395 86.8251 17.5917C86.7774 17.5877 86.7258 17.544 86.6979 17.5095C86.6887 17.5002 86.7416 17.4432 86.7801 17.4299C87.082 17.3291 87.3747 17.1845 87.6913 17.1461C88.1337 17.093 88.6025 17.0771 89.0449 17.1235C89.5429 17.1752 89.8343 16.7986 90.3164 16.8437C90.5919 16.8728 90.8793 16.8357 91.1601 16.8211C91.2077 16.8198 91.2515 16.7734 91.2965 16.7482C91.2342 16.7031 91.1733 16.6208 91.1058 16.6182C90.8448 16.6089 90.7124 16.4683 90.5588 16.3463C90.5203 16.3158 90.4581 16.2601 90.4713 16.2415C90.5111 16.1832 90.5799 16.0969 90.6409 16.093C91.1508 16.0717 91.6594 16.0717 92.1693 16.0505C92.221 16.0465 92.2739 15.9577 92.3057 15.9007C92.311 15.8887 92.2263 15.8251 92.1826 15.8224C91.6157 15.8184 91.0515 15.8211 90.4846 15.8224C90.1164 15.8237 90.0131 15.9855 90.0343 16.2389C90.0515 16.4272 89.9614 16.5704 89.6687 16.5744C88.931 16.5824 88.1959 16.593 87.4595 16.5996C87.1787 16.6036 87.184 16.5956 86.4688 16.1221C86.3496 16.0439 86.1536 16.0346 86.0317 15.9564C85.9695 15.9166 85.9536 15.7959 85.9748 15.7203C86.0092 15.6062 86.1152 15.581 86.2092 15.65C86.4264 15.8105 86.6887 15.8343 86.9681 15.8065C87.0728 15.4643 87.4714 15.5956 87.7588 15.5359C88.0065 15.4842 87.8992 15.3555 87.7972 15.2693C87.678 15.1698 87.6807 15.0942 87.8529 15.0956C88.5125 15.0996 89.1932 14.9298 89.8224 15.2282C89.9084 15.268 90.0674 15.2985 90.1336 15.2667C90.4819 15.0996 90.8144 14.9484 91.1852 15.2269C91.5005 15.0359 91.7746 15.2149 92.0713 15.2706C92.2859 15.3091 92.5693 15.3449 92.7388 15.272C93.3428 15.0067 93.8871 15.4033 94.4606 15.3171C95.2156 15.589 96.0354 15.7415 96.8394 15.7932C97.6248 15.8423 98.3188 16.1341 99.1241 16.1288C99.6393 16.1248 100.186 16.3264 100.666 16.5147C101.254 16.7429 101.888 16.8835 102.496 17.0426C103.041 17.1832 103.688 17.0957 104.292 17.0996C104.254 17.0294 104.222 16.9325 104.166 16.9232C103.895 16.8835 103.613 16.8781 103.337 16.8529C103.009 16.8264 102.883 16.6779 103.075 16.41C103.214 16.2176 103.149 16.1447 103.002 15.9975C102.802 15.7959 102.32 15.8808 102.268 15.5571C102.099 15.4656 101.927 15.3768 101.762 15.2773C101.585 15.1712 101.43 15.0584 101.177 15.0545C100.618 15.0465 100.051 15.0545 99.5559 14.8051C98.4764 14.9139 97.4897 14.4802 96.4129 14.4908C95.8195 14.4987 95.2249 14.3024 94.6447 14.1857C94.209 14.0995 93.7838 13.9801 93.3441 14.0146C92.7998 14.0584 92.3918 13.809 91.915 13.7162C91.8673 13.7069 91.8316 13.6592 91.7892 13.63C91.8726 13.5862 91.9521 13.5066 92.0382 13.5027C92.7163 13.4841 93.3958 13.4841 94.0739 13.4669C94.1772 13.4655 94.2752 13.4098 94.3759 13.3793C94.2434 13.3369 94.111 13.2613 93.9785 13.2599C93.1878 13.2467 92.3945 13.2387 91.6024 13.252C91.0515 13.2613 90.5773 13.5491 89.9839 13.4974C89.425 13.4523 88.8542 13.4921 88.2886 13.5027C88.1257 13.504 87.9403 13.508 87.7999 13.5637C86.9257 13.9032 86.0913 13.7785 85.2331 13.5053C84.9854 13.4257 84.7139 13.3528 84.453 13.3011C83.7099 13.1485 82.9855 12.9178 82.1775 12.9655C81.6279 12.9973 81.0862 12.9788 80.5524 12.744C80.2478 12.6127 79.7789 12.7055 79.3829 12.6883C79.3379 12.687 79.2915 12.6406 79.2478 12.614C79.3008 12.565 79.3511 12.4748 79.4081 12.4734C80.016 12.4509 80.6385 12.5079 81.1855 12.2161C81.2345 12.1896 81.3789 12.2652 81.4782 12.2957C81.5709 12.3222 81.7087 12.3952 81.7484 12.37C81.9457 12.2519 81.8305 11.9323 82.2504 11.9363C82.5245 11.9403 82.8 11.9018 83.0742 11.8753C83.11 11.8713 83.1391 11.8235 83.1735 11.7957C83.1298 11.7692 83.0901 11.7227 83.0424 11.7161C82.8795 11.6949 82.7113 11.6896 82.5484 11.6737C82.4954 11.6684 82.4424 11.6551 82.3987 11.6339C82.3497 11.6127 82.3113 11.5782 82.2689 11.5503C82.3073 11.5198 82.3378 11.4774 82.3855 11.4628C83.298 11.171 84.2013 10.8872 85.2331 10.8951C87.9482 10.9163 90.6647 10.9004 93.3812 10.8991C93.6607 10.8991 93.9534 10.9283 94.1613 10.7293C94.2315 10.663 94.3017 10.5967 94.3706 10.5291C94.2977 10.4853 94.2275 10.411 94.1494 10.4057C93.9256 10.3845 93.6964 10.3924 93.4713 10.3911C93.1878 10.3871 92.9044 10.4004 92.6236 10.3832C92.2355 10.358 91.8104 10.4667 91.47 10.2771C91.1852 10.1166 90.6462 10.1683 90.6488 9.73459C90.6488 9.6948 90.3641 9.6245 90.2118 9.62052C89.078 9.60328 87.9416 9.54492 86.8185 9.61522C86.0993 9.66031 85.539 9.32741 84.8662 9.33006C84.8092 9.33006 84.7496 9.23854 84.6927 9.18947C84.7364 9.16294 84.7801 9.11387 84.8238 9.11387C85.5019 9.10061 86.1814 9.09265 86.8582 9.08734C87.0158 9.08601 87.1694 9.07806 87.2079 8.93879C87.2079 8.9242 87.0238 8.86585 86.9204 8.85258C86.6489 8.81677 86.3748 8.79555 86.1006 8.76372C86.0701 8.75974 86.0185 8.69873 86.0278 8.68812C86.0542 8.65231 86.1019 8.60987 86.1509 8.60191C86.3655 8.56742 86.5907 8.55947 86.7973 8.50907C86.8701 8.49182 86.9416 8.37776 86.9416 8.30746C86.9456 8.15892 86.8622 8.08464 86.6476 8.18146C86.2595 8.35654 85.9854 7.99711 85.5827 8.05149C85.2106 8.10321 84.8013 8.02629 84.4132 7.9865C84.3603 7.98119 84.3245 7.88039 84.2821 7.81009C84.3814 7.80612 84.4795 7.80612 84.5761 7.79551C84.7165 7.78092 84.9602 7.81009 84.8119 7.60717C84.7324 7.49708 84.5748 7.42281 84.4728 7.31936C84.3947 7.23978 84.1748 7.10051 84.4556 7.05277C85.2622 6.91615 86.0887 6.59386 86.8993 6.80474C88.2714 7.15887 89.6542 6.96788 91.0329 7.00634C91.025 6.87504 90.9111 6.80872 90.7495 6.7822C90.2687 6.69996 89.776 6.80872 89.274 6.61508C88.8581 6.4546 88.3045 6.50234 87.8145 6.44531C87.6794 6.43072 87.678 6.34451 87.8065 6.26493C87.9297 6.18933 88.1178 6.03415 88.1853 6.05935C89.0449 6.38695 89.9535 6.17607 90.8356 6.22249C91.0024 6.23045 91.1746 6.23045 91.3415 6.21453C91.4462 6.20525 91.6157 6.17872 91.6342 6.13097C91.9004 5.44394 92.6461 5.81663 93.1719 5.71583C93.2421 5.70257 93.2898 5.62034 93.3468 5.57127C93.3031 5.54474 93.2554 5.49169 93.2156 5.49567C92.6395 5.54076 92.1362 5.36569 91.6316 5.19857C91.5693 5.17735 91.5428 5.09777 91.4991 5.04472C91.5998 5.01421 91.6991 4.97575 91.8038 4.95851C91.9124 4.94126 92.0355 4.96646 92.1388 4.93728C92.2117 4.91872 92.2607 4.84444 92.319 4.79404C92.2753 4.76486 92.2369 4.71844 92.1892 4.71446C92.0236 4.69589 91.8514 4.70253 91.6872 4.67865C91.5269 4.65345 91.425 4.57255 91.3932 4.44655C91.021 4.40808 90.6554 4.42532 90.2833 4.2728C89.6634 4.01947 88.9866 3.83909 88.3151 3.66932C88.0568 3.60301 87.7946 3.56587 87.5416 3.46507C87.0092 3.25153 86.4688 3.00616 85.8927 2.91067C85.3033 2.81384 84.6662 2.87883 84.049 2.8722C83.7695 2.86822 83.4888 2.87751 83.2106 2.85894C83.0411 2.84568 82.906 2.77008 82.8967 2.61888C82.8888 2.49155 82.8676 2.36157 82.8835 2.23424C82.9272 1.90929 82.6464 1.75677 82.2808 1.95572C81.9126 2.15732 81.5484 2.16262 81.208 1.96102C80.9021 1.78064 80.6266 1.63342 80.2133 1.55517C79.6836 1.45171 79.1842 1.28327 78.62 1.31908C78.4598 1.33102 78.2982 1.31776 78.1366 1.3151C78.1061 1.18247 77.9922 1.09759 77.8253 1.09095C77.3181 1.07239 76.8082 1.07239 76.2982 1.06178C76.0744 1.0578 75.7843 1.11483 75.6347 1.03127C74.9221 0.628069 74.2678 0.95567 73.5738 1.03658C73.2639 1.07239 73.044 1.35224 72.6877 1.20237C72.3301 1.05249 72.0798 1.31245 71.8321 1.39866C71.5222 1.50477 71.3699 1.45171 71.1156 1.35887C70.9156 1.28592 70.6997 1.37611 70.6428 1.57639C70.5328 1.58435 70.4202 1.58965 70.3103 1.59761C70.2666 1.67056 70.2242 1.77268 70.1752 1.77401C69.5064 1.80054 68.8349 1.80982 68.1633 1.82308C67.6521 1.45967 66.9236 1.72626 66.4204 1.51405C65.8177 1.2594 65.2244 1.33898 64.6217 1.30847C64.2284 1.28725 63.9502 1.02331 63.5158 1.06708C63.1317 1.10687 62.733 1.04984 62.3383 1.03658C62.088 0.681121 61.6059 1.17584 61.3384 0.880069C60.6669 0.857522 59.9967 0.813753 59.3252 0.821711C58.7225 0.827017 58.1027 0.702342 57.5266 1.00607C57.3332 1.10952 56.9809 1.04586 56.7014 1.04984C55.969 1.0578 55.2352 1.0578 54.5041 1.0631C54.2207 1.06443 53.9372 1.0631 53.6578 1.07769C53.3267 1.09626 52.9412 0.982196 52.683 1.17849C52.4075 1.3854 52.1903 1.00342 51.9611 1.18247C51.7386 1.35622 51.5585 1.09095 51.4022 1.1387C51.2022 1.20104 51.0804 1.30051 50.8393 1.16523C50.683 1.07769 50.4195 1.08698 50.2023 1.083C49.4685 1.06575 48.7347 1.07371 48.0023 1.05116C47.6182 1.03923 47.2037 1.14003 46.8553 0.946385C46.5017 0.746111 46.1997 1.19971 45.7984 0.950364C45.4832 0.754069 45.1163 1.06708 44.7243 1.05647C43.372 1.02199 42.017 1.0578 40.6634 1.06841C40.4939 1.06841 40.3217 1.05382 40.1575 1.07636C40.0052 1.09891 39.8039 1.13472 39.7337 1.21961C39.6582 1.30847 39.6886 1.45171 39.6807 1.57506C39.4025 1.60159 39.1403 1.58302 38.9257 1.41856C38.8344 1.34826 38.7032 1.37479 38.694 1.48752C38.6714 1.7687 38.4662 1.82839 38.1403 1.83237C37.3629 1.84033 36.5735 1.78329 35.8477 2.08967C35.7166 2.14538 35.5126 2.10824 35.3457 2.09498C35.2424 2.08702 35.1457 2.04193 35.0451 2.01275C35.0927 1.95969 35.1245 1.87348 35.1881 1.86022C35.604 1.76738 35.9404 1.48752 36.4251 1.55119C36.4636 1.55517 36.5126 1.50211 36.5563 1.47559C36.49 1.42784 36.4251 1.34296 36.3523 1.33898C36.1285 1.32439 35.8596 1.28194 35.6808 1.35357C34.8941 1.67586 34.0517 1.57506 33.2226 1.59894C32.8345 1.61087 32.4544 1.58169 32.0822 1.75146C31.8637 1.85094 31.5379 1.82971 31.2624 1.83104C30.6465 1.83502 30.0664 1.91858 29.4624 2.04458C28.8903 2.16395 28.2823 2.22496 27.6903 2.3377C26.9605 2.47696 26.587 2.88945 26.1446 3.26479C26.2201 3.31254 26.293 3.39477 26.3764 3.4014C26.542 3.41599 26.7658 3.44119 26.8731 3.3762C27.5512 2.95178 28.4095 2.91597 29.1949 2.72763C29.771 2.58837 30.3684 2.50481 30.9511 2.39605C31.5922 2.27668 32.2994 2.36024 32.9776 2.36024C33.0213 2.36024 33.0689 2.40534 33.1087 2.43452C33.1842 2.49022 33.1577 2.56184 33.0133 2.60429C32.1365 2.85231 31.2915 3.19317 30.3114 3.14675C29.9618 3.13216 29.6611 3.41467 29.2518 3.22103C29.1472 3.17195 28.8373 3.31652 28.6664 3.41732C28.4174 3.56454 28.2042 3.62688 27.9578 3.43456C27.7446 3.57515 27.534 3.71574 27.3208 3.85501C26.9592 3.58842 26.6519 3.90275 26.3155 3.90806C25.8625 3.91336 25.3711 3.83379 24.9712 3.94785C24.6056 4.0513 24.2321 4.10435 23.8785 4.19852C22.86 4.47042 21.7381 4.66937 21.2759 5.58055C21.1448 5.83786 20.8123 5.44394 20.7752 5.55535C20.6322 6.00099 20.1329 5.92141 19.7581 6.04874C19.1634 6.25432 18.4998 6.34186 18.0243 6.76495C17.6217 7.12306 17.0336 7.29416 16.3754 7.26365C16.1515 7.25171 15.9224 7.2862 15.6986 7.27559C14.9039 7.23712 14.1648 7.33792 13.4721 7.66553C13.2046 7.79285 12.8536 7.81805 12.5543 7.91355C12.5053 7.93079 12.4722 8.11515 12.5145 8.14035C12.7251 8.25972 12.9808 8.34062 13.1874 8.46397C13.296 8.52896 13.4218 8.67751 13.3913 8.75311C13.349 8.85789 13.1808 8.99317 13.043 9.00776C12.6033 9.05949 12.1516 9.0953 11.7106 9.07408C11.2311 9.05153 10.8338 9.16692 10.4365 9.33669C10.2126 9.43219 10.0484 9.62583 10.1226 9.70939C10.2841 9.89242 10.3941 9.70806 10.5292 9.69612C11.4073 9.62052 12.2192 9.25976 13.1344 9.33404C13.4894 9.36454 13.7794 9.25048 14.0854 9.12978C14.1741 9.09397 14.4695 9.18814 14.492 9.25578C14.5714 9.49983 14.5397 9.75448 14.7807 9.97598C14.8297 10.0237 14.6271 10.2267 14.5224 10.3699C14.1609 10.3792 13.798 10.3792 13.439 10.4057C13.2907 10.415 13.2019 10.5052 13.1861 10.6232C13.3821 10.6272 13.5781 10.6325 13.7741 10.6285C14.0218 10.6232 14.1291 10.732 14.186 10.8858C14.7436 10.8845 15.2999 10.8819 15.8575 10.8819C17.027 10.4283 18.2813 10.7068 19.4958 10.6365C19.5965 10.6312 19.7064 10.6683 19.8071 10.6975C19.8468 10.7094 19.872 10.7505 19.9037 10.7771C19.86 10.8063 19.8177 10.8553 19.7726 10.8567C18.778 10.8885 17.8561 11.2811 16.8257 11.163C16.1476 11.0848 15.4853 11.2214 14.9317 11.5225C14.6297 11.6856 14.2734 11.606 13.99 11.7466C13.9582 11.7612 13.9158 11.8116 13.9238 11.8209C13.9556 11.8554 14.0032 11.8991 14.0509 11.9005C14.3291 11.919 14.6099 11.919 14.888 11.9456C14.9675 11.9535 15.1065 12.045 15.0973 12.0716C15.0681 12.1472 14.9939 12.2294 14.9065 12.2732C14.7714 12.3421 14.6152 12.4138 14.4615 12.423C14.0695 12.4482 13.6655 12.4018 13.2814 12.4549C12.4205 12.5742 11.5477 12.6817 10.7411 12.9629C10.6537 12.9934 10.5848 13.0557 10.5067 13.1034C10.5994 13.1432 10.6894 13.2122 10.7848 13.2175C11.0086 13.2308 11.2775 13.2732 11.4536 13.1989C12.3543 12.8302 13.3185 13.0159 14.2562 12.9629C14.5608 12.9443 14.7728 13.1061 15.0204 13.1538C15.7264 13.2891 16.4747 13.2891 17.1555 13.1048C17.4839 13.0159 17.7872 12.9575 18.1197 12.9602C19.1793 12.9615 20.2375 12.9695 21.2971 12.9748C21.2613 13.0451 21.2309 13.1459 21.1779 13.1538C20.6415 13.2281 20.117 13.2838 19.5898 13.4417C19.1488 13.573 18.5819 13.5345 18.0892 13.4801C17.4906 13.4138 17.0601 13.7812 16.4813 13.7427C15.9873 13.7109 15.5025 13.7295 15.0178 13.9231C14.6999 14.0504 14.2536 13.9894 13.8642 14.0146C13.6814 14.0266 13.5715 14.0969 13.5251 14.2388C13.4735 14.4085 13.6178 14.4656 13.7754 14.5001C13.8801 14.5226 14.0019 14.5001 14.1105 14.5146C14.4814 14.5704 14.5569 14.6552 14.5251 14.943C14.4946 15.2176 14.4191 15.2746 13.9887 15.2892C13.8258 15.2945 13.6642 15.2985 13.5 15.3038C13.4562 15.3728 13.4218 15.4669 13.3569 15.4802C12.8735 15.581 12.3755 15.589 11.9026 15.4656C11.7026 15.4126 11.4974 15.2348 11.3053 15.3396C11.0007 15.5094 10.7278 15.7256 10.4987 15.9564C10.4696 15.9869 10.4537 15.9961 10.4431 16.0015C10.4656 15.9922 10.5186 15.9869 10.5901 16.0492C10.7292 16.1765 10.9 16.3768 11.1239 16.2893C12.0218 15.9404 12.9741 16.1182 13.9013 16.0797C14.0536 16.0744 14.1595 16.1845 14.186 16.3145C14.4575 16.3184 14.7065 16.3489 14.9542 16.4776C15.1158 16.5638 15.4575 16.6248 15.5794 16.5559C16.1025 16.2548 16.4628 16.3556 16.8773 16.6872C17.0946 16.8622 17.4442 16.9551 17.7555 17.0373C17.9528 17.0904 18.2588 17.1235 18.3978 17.0453C18.8614 16.784 19.3687 16.8821 19.864 16.8529C20.4137 16.8211 20.9858 16.9365 21.4931 16.6381C21.7991 16.459 22.1699 16.975 22.5182 16.6381C22.7964 16.7654 23.1831 16.845 23.3222 17.032C23.4825 17.2455 23.603 17.3649 23.9288 17.3636C25.2294 17.3516 26.5301 17.3344 27.828 17.3556C28.1962 17.3609 28.4519 17.1487 28.775 17.154C29.0359 17.158 29.3763 17.3808 29.5392 17.3119C29.832 17.1885 30.13 17.1328 30.4333 17.1116L31.0928 15.8304C31.0928 15.8304 30.5432 15.3542 31.0187 14.898C31.0187 14.898 30.963 14.0929 31.0928 13.9098C31.22 13.7268 31.367 13.7998 31.367 13.7998C31.367 13.7998 31.367 13.5066 31.7869 13.5066C31.7869 13.5066 31.8425 13.2692 32.2796 13.3793L33.2491 11.5304C33.2491 11.5304 33.1193 11.4031 33.3021 11.3116C33.3021 11.3116 32.9564 11.0742 33.6862 11.037L34.8 9.72C34.8 9.72 34.6914 9.59267 34.91 9.59267L35.2384 9.20804C35.2384 9.20804 35.1656 9.04225 35.3484 9.09795L35.7139 8.71332L35.604 8.64037L35.6954 8.51304L35.7868 8.58599L36.1351 8.18412L36.0252 8.10984L36.1165 8.01833L36.2463 8.0926L36.592 7.74378L36.4291 7.61645L36.5205 7.48647L36.6477 7.63369L37.3973 6.75567L37.7629 7.2862L37.5443 7.63237L37.7629 7.65094C37.7629 7.65094 37.7271 8.017 37.6 8.10852C37.6 8.10852 37.2516 7.99843 37.4728 8.29155L37.1801 8.51304C37.1801 8.51304 36.9059 8.54886 36.9059 8.74913C36.9059 8.9494 37.1059 9.29955 36.649 9.13376L36.4861 9.29955C36.4861 9.29955 36.5589 9.86722 36.1934 9.64572L36.0834 9.81151C36.0834 9.81151 36.2662 10.3593 35.7907 10.0662L35.6278 10.2678C35.6278 10.2678 36.0119 10.7439 35.4623 10.6338L35.1166 10.9827C35.1166 10.9827 34.9338 10.7452 34.8239 10.9468C34.8239 10.9468 34.2941 11.2758 33.9113 11.9907C33.5405 12.6777 33.2027 13.2679 33.1815 13.3064C33.204 13.2944 33.3749 13.2268 33.2901 13.9483C33.1987 14.7176 33.2345 15.3741 33.2345 15.9245C33.2345 16.2773 33.2491 16.6076 33.5126 17.1142C33.6914 17.1129 33.8703 17.1103 34.0491 17.1129C33.91 16.9644 33.7749 16.7946 33.6914 16.6394C33.5007 16.2733 33.9842 16.902 34.1179 17.0731C33.9815 16.8808 33.4226 16.0664 33.4544 15.6314C33.4544 15.6314 33.8742 16.9126 34.5709 16.9299C34.5709 16.9299 33.8451 15.963 33.7577 15.5425C33.7577 15.5425 34.1683 16.3264 34.5709 16.4378C34.5709 16.4378 34.2596 15.9617 34.2424 15.7242C34.2424 15.7242 34.3868 15.8715 34.8265 15.7985C34.8265 15.7985 33.3471 15.4497 33.3471 14.6632C33.3471 14.6632 33.5299 15.1208 33.9497 15.2667L33.5842 14.772C33.5842 14.772 34.5153 15.5412 34.9907 15.1752C34.9907 15.1752 34.3139 14.882 34.7537 13.821C34.7537 13.821 34.6623 15.0452 35.155 15.0279C35.155 15.0279 34.6795 14.2229 35.008 13.8382C35.008 13.8382 34.8451 14.3688 35.0821 14.6075C35.0821 14.6075 35.3007 13.821 35.3364 13.5279V14.3144L35.7762 13.4735L35.6848 14.0213L36.196 13.1074L36.1603 13.7295L36.3073 13.5279C36.3073 13.5279 36.5073 13.6751 36.5073 14.0398C36.5073 14.0398 36.8 13.7825 37.1099 13.7825C37.1099 13.7825 37.0927 13.5637 36.7443 13.5995L37.0371 13.5265L36.6887 13.4708L37.0556 13.3979L36.5616 13.3236C36.5616 13.3236 37.2556 12.8674 37.9138 13.2878L37.5682 12.939L38.0794 13.0862L37.9523 12.8315L38.3721 12.9788L38.188 12.7215L38.5165 12.813L38.4251 12.6114L38.9006 12.7772L38.682 12.3925L38.992 12.5941L38.8834 12.301L39.2118 12.4283L39.229 12.0994L39.3588 12.3567L39.4118 11.8063L39.6489 12.3209L39.7045 11.8978L40.0529 12.7772L40.0701 12.3567L40.1999 12.6856L40.2356 12.3196L40.5283 12.6299L40.4727 12.1724L40.6197 12.5928L40.6555 12.1525L40.7826 12.7002L40.9482 12.4814C40.9482 12.4814 41.331 12.8302 41.0952 13.4337C41.0952 13.4337 41.331 13.8356 41.131 14.439L41.1124 14.7879L41.478 13.9828C41.478 13.9828 41.5336 14.7521 41.0409 15.264C41.0409 15.264 41.0767 15.8675 40.3641 16.2336C40.3641 16.2336 40.6211 16.2694 40.5469 16.8198C40.474 17.3676 40.7482 17.4233 40.9124 17.7893C41.078 18.1554 41.0038 18.2297 40.9509 18.7217C40.9058 19.1249 40.8502 19.6608 40.829 19.8451C40.8409 19.6714 40.8595 19.1846 40.7124 18.7403L40.6211 19.6926L40.4383 18.979C40.4383 18.979 40.2184 19.8571 40.3827 20.5149C40.3827 20.5149 40.0899 20.2603 40.1456 19.6183C40.1456 19.6183 39.78 20.2218 39.8171 20.6621C39.8171 20.6621 39.5602 20.3332 39.89 19.6926C39.89 19.6926 39.6357 19.9473 39.4145 20.5879C39.1959 21.2298 38.9032 21.3757 38.9032 21.3757C38.9032 21.3757 39.2688 20.7895 39.3231 20.0759C39.3231 20.0759 38.5734 21.576 38.2092 21.7232L38.6105 21.1025L38.1536 21.5229L38.4065 20.9778C38.3628 21.0428 38.0132 21.5627 37.8079 21.6304C37.8079 21.6304 38.0622 21.0826 38.0622 20.4234L37.8437 21.1184L37.8251 20.4234C37.8251 20.4234 37.8251 20.9354 37.7893 20.9911C37.7536 21.0468 37.6794 20.7165 37.6794 20.7165L37.6264 21.137L37.5337 20.6794L37.4423 20.9539L37.3695 20.2948L37.1324 20.8624C37.1324 20.8624 37.1324 20.4592 37.2238 20.2032C37.2238 20.2032 37.0053 20.1847 36.9496 20.751C36.894 21.3187 36.8755 22.3612 36.5655 22.7829C36.2556 23.2034 35.7444 23.4594 35.3417 22.9103C35.3417 22.9103 33.9895 24.5934 33.9709 24.8679C33.9537 25.1438 33.8438 25.3799 33.9179 25.4899C33.9908 25.6 34.2279 25.8003 34.3908 26.2234C34.5563 26.6438 34.9206 27.4304 34.9762 27.7407C35.0318 28.0524 35.0119 28.4543 35.0676 28.7646C35.1232 29.0763 35.2331 29.3867 35.2331 29.5525C35.2331 29.7183 35.5616 29.5883 35.3775 29.9543C35.1947 30.3204 35.6146 30.1374 35.3047 30.4849C34.9947 30.831 34.9033 31.0154 34.9033 31.0154L35.2689 33.924C35.2689 33.924 35.5616 33.9413 35.4517 34.2901C35.3417 34.6363 35.4517 34.5646 35.4874 34.802C35.4874 34.802 35.6146 35.0395 35.5431 35.2225C35.5431 35.2225 35.7444 35.1482 35.8172 35.497C35.8172 35.497 35.9828 35.0395 36.2013 35.2039C36.4199 35.3697 36.2371 35.3511 36.6768 35.1509C37.1139 34.9493 37.7549 34.4904 40.7866 34.4546C43.8196 34.4187 43.2713 34.2171 43.3455 34.6203C43.4183 35.0222 43.5998 34.6018 43.8183 34.4187C44.0395 34.2357 44.368 34.1999 44.5508 34.4373C44.7335 34.6747 44.9348 34.2357 45.2805 34.4187C45.2805 34.4187 45.3547 34.2715 45.6646 34.0699C45.6646 34.0699 45.9388 33.5765 46.3229 33.6123C46.707 33.6481 47.0355 34.0527 48.0222 34.4731C49.0089 34.8936 50.4155 35.9175 50.8168 37.5104C50.8168 37.5104 50.8724 38.0224 50.4327 38.1139C49.9956 38.2054 49.8857 38.1696 49.8857 38.1696C49.8857 38.1696 49.54 37.9149 49.1361 37.9149C48.7321 37.9149 48.1851 37.7133 48.1851 37.7133C48.1851 37.7133 48.0222 37.8605 47.7295 37.6404C47.4368 37.4189 47.5825 37.403 47.0169 37.2915C46.4514 37.1801 46.1044 37.0342 46.1044 37.0342C46.1044 37.0342 45.903 37.2 45.4832 37.0899C45.4832 37.0899 45.1348 37.3114 44.5878 37.1258C44.5878 37.1258 43.7283 37.6762 42.3402 37.4931C40.9522 37.3101 37.9178 38.2797 36.494 38.4256C35.0676 38.5728 34.5762 38.6444 34.5762 38.6444C34.5762 38.6444 34.6676 39.0847 34.4106 39.5596C34.2914 39.7824 34.1868 40.224 34.11 40.6471C34.4901 40.6458 34.8702 40.6458 35.249 40.6392C35.645 40.6352 36.0384 40.6272 36.4331 40.6219C36.6702 40.2625 37.0755 40.6432 37.4238 40.4827C37.9086 40.2585 38.5231 40.4071 39.082 40.4097C39.1655 40.4097 39.3098 40.4973 39.3191 40.5543C39.3774 40.8739 39.539 40.8779 39.8462 40.7042C40.0198 40.6047 40.2343 40.5251 40.4436 40.4973C40.6171 40.4747 40.927 40.6007 40.9734 40.549C41.2409 40.2691 41.5005 40.6936 41.829 40.5132C42.078 40.3766 42.5018 40.7718 42.8727 40.6219C43.1733 40.4986 43.4329 40.3593 43.8064 40.3819C44.1998 40.4071 44.609 40.3394 44.9931 40.3938C45.3256 40.4376 45.503 40.0755 45.8938 40.2758C46.0977 40.3806 46.4077 40.2201 46.7401 40.3381C47.0951 40.4615 47.4964 40.0158 47.9798 40.1193C48.295 39.9044 48.6659 39.8779 49.0765 39.8739C49.7824 39.8659 50.5082 39.9614 51.1797 39.6975C51.5823 39.9946 51.8578 39.7903 52.181 39.5834C52.5174 39.3686 52.8896 39.1948 53.3081 39.1272C53.4035 38.9468 53.4922 38.7638 53.5796 38.5807C54.0935 37.4958 54.1783 36.2928 54.3664 35.1217C54.3955 34.9426 54.3955 34.7596 54.4061 34.5766C54.4286 34.2264 54.4352 33.8763 54.4763 33.5275C54.6021 32.4518 55.1624 31.591 55.8789 30.8218C56.1028 30.5777 56.1504 30.4106 55.9359 30.1666C55.7451 29.949 55.5306 29.7461 55.2948 29.5843C54.92 29.327 54.7134 28.9994 54.7001 28.5431C54.6962 28.4463 54.622 28.3521 54.5823 28.258C54.5266 28.1227 54.4551 27.9914 54.422 27.8521C54.3955 27.7328 54.418 27.6028 54.418 27.4847C54.2273 27.4701 54.0657 27.4635 53.9041 27.4449C53.3797 27.3826 52.9704 27.1784 52.826 26.6094C52.7995 26.5006 52.6459 26.4263 52.5505 26.3348C52.5333 26.3176 52.5068 26.2964 52.5068 26.2791C52.5214 26.0284 52.3267 26.0483 52.1717 26.0165C51.8658 25.9502 51.6446 25.799 51.5506 25.4754C51.442 25.1 51.2804 24.7578 51.0274 24.4395C50.8168 24.1769 50.7294 23.8175 50.5877 23.4965C50.5784 23.4739 50.589 23.4408 50.5837 23.4143C50.5188 23.0721 50.4566 22.7246 50.3837 22.3824C50.3718 22.3253 50.3228 22.2696 50.2777 22.2285C49.9241 21.9036 49.6976 21.5083 49.5864 21.0428C49.5771 21.003 49.5466 20.9645 49.5202 20.9301C49.1056 20.3916 49.2142 19.8411 49.6738 19.5122C49.7731 19.4393 49.8619 19.3557 50.0221 19.2231C49.7877 19.0706 49.5956 18.9485 49.4036 18.8239C49.1731 18.674 48.8579 18.5705 48.7321 18.357C48.5745 18.0891 48.3732 17.8862 48.1612 17.6806C48.0699 17.5917 47.9732 17.5042 47.9043 17.3967C47.8566 17.3238 47.8566 17.2203 47.8341 17.1301C47.9308 17.1248 48.0407 17.0851 48.1189 17.1182C48.2553 17.1805 48.3771 17.2853 48.5016 17.3768C48.5983 17.4511 48.6884 17.5307 48.7811 17.609C48.7599 17.5121 48.703 17.4564 48.6553 17.3914C48.4977 17.1805 48.3308 16.975 48.1957 16.7495C48.1573 16.6845 48.2129 16.5651 48.2262 16.471C48.4752 16.5598 48.7851 16.4219 48.9904 16.6726C49.0473 16.7429 49.0963 16.8198 49.1427 16.8795C49.1771 16.7296 49.2036 16.6169 49.2288 16.5041C49.3387 16.5797 49.4645 16.6407 49.5533 16.7362C49.6288 16.8158 49.6658 16.9365 49.736 17.0731C49.7877 16.8715 49.8539 16.711 49.8672 16.5492C49.8989 16.1659 49.8592 15.7747 49.936 15.4033C50.046 14.8555 50.2234 14.3237 50.7161 13.9616C50.9612 13.7852 51.1347 13.5053 51.4764 13.4814C51.5121 13.4801 51.5492 13.4284 51.577 13.3939C51.7373 13.2016 51.9386 13.2069 52.1108 13.3382C52.2711 13.4615 52.4035 13.4509 52.5611 13.3687C52.9134 13.1843 53.2379 13.2679 53.5214 13.5053C53.679 13.6379 53.8061 13.8104 53.9373 13.9722C54.0247 14.077 54.0737 14.2202 54.1743 14.3038C54.4763 14.5518 54.6194 14.8369 54.471 15.2256C54.4631 15.2481 54.4578 15.2905 54.471 15.3051C54.7028 15.5425 54.5545 15.8463 54.5968 16.1142C54.6445 16.4126 54.6842 16.7429 54.3876 16.9723C54.3558 16.9975 54.3359 17.0479 54.3253 17.0904C54.23 17.4392 54.128 17.7827 54.0459 18.1342C53.9969 18.3477 54.0101 18.536 54.2564 18.6594C54.5227 18.7947 54.7597 18.9843 55.0127 19.1462C55.0472 19.1687 55.1054 19.1952 55.1359 19.182C55.3942 19.0639 55.6127 19.2045 55.8418 19.2854C56.0286 19.3504 56.1994 19.3279 56.2988 19.1541C56.4948 18.8133 56.8087 18.7204 57.1663 18.6687C57.2961 18.6501 57.4378 18.5626 57.5292 18.4618C57.7398 18.227 57.9914 18.0864 58.3014 18.0387C58.7159 17.9737 59.0391 17.7548 59.3199 17.4485C59.455 17.3039 59.6113 17.1726 59.7755 17.0652C60.5702 16.5505 61.3728 16.0452 62.1768 15.5439C62.435 15.3834 62.6191 15.1884 62.6959 14.8754C62.7277 14.7401 62.8748 14.634 62.9569 14.5067C63.0708 14.3276 63.2072 14.1526 63.2761 13.9549C63.4151 13.5451 63.288 13.1711 63.0721 12.813C62.9397 12.5902 62.7834 12.3594 62.9688 12.0782C62.994 12.0397 62.9516 11.9336 62.9132 11.8779C62.8125 11.7413 62.7251 11.6193 62.8483 11.4416C62.9357 11.3182 62.9847 11.167 63.0589 11.0344C63.0708 11.0158 63.1251 11.0092 63.1595 11.0118C63.4694 11.0304 63.5317 11.4402 63.8535 11.4575C63.9012 11.4588 63.9595 11.5503 63.986 11.614C64.0085 11.667 63.986 11.74 63.9953 11.8023C64.035 12.061 64.035 12.3368 64.1303 12.5756C64.2628 12.9071 64.4058 13.2228 64.3966 13.5929C64.3913 13.7998 64.4257 14.0093 64.4323 14.2175C64.4403 14.4417 64.4893 14.6327 64.6495 14.8131C64.7754 14.9523 64.8681 15.1526 64.8972 15.337C64.9369 15.5863 64.7237 15.7269 64.5131 15.5996C64.329 15.4895 64.2072 15.577 64.1078 15.6752C63.8933 15.8967 63.6933 16.1354 63.5052 16.3821C63.1516 16.845 62.8244 17.3278 62.4602 17.7827C61.9662 18.4021 61.4072 18.9684 61.0854 19.7138C60.9755 19.9711 60.7569 20.1369 60.4748 20.2258C60.3755 20.2576 60.3079 20.3863 60.2179 20.4619C60.0947 20.568 59.9609 20.759 59.8351 20.7563C59.4762 20.751 59.3411 20.9526 59.2153 21.2285C59.0444 21.6012 58.9014 21.6701 58.5173 21.6343C58.4206 21.8346 58.3252 22.0309 58.2325 22.2259C58.5477 22.6994 58.8616 23.1888 59.1927 23.6649C59.4431 24.023 59.7384 24.348 59.9728 24.7141C60.4086 25.3971 60.8165 26.0961 61.2271 26.7924C61.394 27.0736 61.549 27.3614 61.6947 27.6532C61.7768 27.815 61.8178 27.9954 61.9013 28.1572C62.0893 28.5193 62.3277 28.6081 62.7171 28.4994C62.8218 28.4702 62.9304 28.4503 63.039 28.4463C63.7992 28.4105 64.5621 28.3415 65.3224 28.3588C66.721 28.3893 68.1223 28.4251 69.517 28.5551C70.0878 28.6108 70.6825 28.6519 70.9712 29.2448C71.1553 29.6241 71.2467 30.0485 71.3686 30.4557C71.501 30.9027 71.3739 31.3165 71.1898 31.725C70.7408 32.7171 70.011 33.4054 69.0401 33.8842C68.656 34.0752 68.2852 34.3405 67.9912 34.6495C67.2217 35.4626 66.3766 36.1748 65.4641 36.8194C65.1025 37.074 64.7952 37.4056 64.4562 37.6948C64.3237 37.8088 64.1913 37.9308 64.0602 38.0489C64.3966 38.0396 64.7356 38.0303 65.0654 38.0608C66.0429 38.1497 66.917 37.8128 67.8415 37.6948C68.0958 37.6629 68.3435 37.5343 68.6349 37.5409C68.9752 37.5489 69.317 37.5104 69.6534 37.5356C70.0163 37.5648 70.3646 37.5621 70.7156 37.5356C71.256 36.7478 72.1394 35.5819 72.5857 34.9479C73.1937 34.0872 74.6585 32.5858 75.0135 32.3908C75.0135 32.3908 74.9446 31.8749 75.3221 31.7038C75.3221 31.7038 75.4267 31.6467 75.3102 31.5645C75.1963 31.4849 74.8082 31.0393 74.8082 31.0035C74.8082 30.969 75.1049 30.339 75.1843 29.892C75.2638 29.4464 75.3804 28.437 75.391 27.933C75.4029 27.429 75.5843 26.0059 76.0545 24.2074C76.0545 24.2074 76.2029 23.5084 76.9936 22.5336C76.9936 22.5336 77.0969 20.5149 77.085 20.1714C77.073 19.8292 76.8439 19.4273 76.9578 18.8769C77.0744 18.3265 77.1472 17.8092 77.1472 17.8092C77.1472 17.8092 76.534 18.0201 76.4956 17.8716C76.4135 17.5466 77.0995 17.4418 77.1114 17.4074C77.1114 17.4074 76.877 15.7017 76.877 15.5532C76.877 15.4046 76.7512 15.1858 76.7062 14.8316C76.6611 14.4762 76.3393 12.939 76.3393 10.2572C76.3393 10.2572 76.3168 9.89109 76.179 9.70673C76.0426 9.5237 76.1671 9.58073 75.8943 9.43219C75.6188 9.28231 75.3791 9.00776 75.3791 9.00776C75.3791 9.00776 75.3433 9.30486 75.2175 9.20141C75.0916 9.09795 75.0347 9.01837 74.9552 8.90431C74.8757 8.79025 74.7936 8.55947 74.7936 8.55947C74.7936 8.55947 74.6334 8.4454 74.5089 8.34195C74.383 8.2385 74.085 7.70001 74.7142 7.88304C74.7142 7.88304 74.6347 7.57268 74.8069 7.52759C74.9777 7.48249 75.4254 7.37904 75.4254 7.37904C75.4254 7.37904 75.4704 7.06868 75.4598 6.85116C75.4479 6.63365 75.3102 6.14158 75.3102 5.7848C75.3102 5.42802 75.5512 5.34844 75.5857 5.62432C75.6201 5.89887 75.6545 6.20923 75.7565 6.35777C75.8598 6.50632 75.8598 7.04481 75.9751 7.25304C76.089 7.45862 77.1088 9.2465 77.1194 9.36189C77.1313 9.47595 77.473 10.8964 77.5896 11.5291C77.7035 12.1591 78.3896 14.0504 78.379 14.4855C78.367 14.9218 78.367 15.5969 78.4134 15.7919C78.4584 15.9882 78.5843 17.1447 78.5856 17.1474C78.5909 17.1845 78.828 17.1859 78.8531 17.1832C78.9842 17.1673 78.9273 17.04 78.9379 16.9259C78.9485 16.8025 79.024 16.7707 79.0584 16.7628C79.3961 16.6819 79.7736 16.6978 80.1352 16.6421C80.3365 16.6102 80.4703 16.6978 80.4822 16.8211C80.5114 17.1182 80.5418 17.2203 80.5259 17.5188C80.5246 17.5466 80.4796 17.7535 80.3061 17.7734C79.8902 17.8212 79.6001 17.849 79.1816 17.8543C79.1525 17.8543 79.0386 17.8636 78.979 17.7708C78.9604 17.7429 78.9286 17.6116 78.9074 17.605C78.8438 17.5838 78.6756 17.5917 78.6492 17.6408C78.5962 17.735 78.6876 18.1448 78.7591 18.2482C78.8624 18.3968 79.1829 19.0971 79.1829 19.0971C79.1829 19.0971 79.5021 19.4738 79.5021 19.5653C79.5021 19.6568 79.571 19.8305 79.5935 19.8982C79.616 19.9671 80.3736 20.0587 80.51 20.0467C80.6465 20.0348 80.6809 19.7616 80.3498 19.2801C80.0173 18.7987 79.9948 18.5228 80.1312 18.4538C80.2703 18.3848 80.3498 18.3504 80.3498 18.2031C80.3498 18.0559 80.3842 18.032 80.612 18.0095C80.8425 17.9843 81.0822 17.6421 81.1392 17.528C81.1961 17.4113 81.2531 16.9896 81.6319 17.1036C81.6319 17.1036 81.6093 16.5426 81.9073 16.5651C82.204 16.5877 82.4345 17.0015 82.7192 16.7588C82.7192 16.7588 82.8557 16.5532 83.5325 16.6102C83.5325 16.6102 84 16.6673 84.1735 16.7813C84.3444 16.8954 85.0874 16.7243 85.7311 18.2496L85.5125 17.9737L85.649 18.3066L85.4794 18.0824C85.5046 18.1687 85.9125 19.5547 85.9125 20.2218C85.9125 20.8889 86.0264 23.7631 86.1297 24.0509C86.2172 24.291 86.3522 25.7419 86.841 26.7088C86.6542 26.4078 86.4383 26.0231 86.3297 25.7221C86.4211 26.0019 86.9416 27.563 87.531 28.2832C87.4423 28.197 86.7244 27.4794 86.3046 26.6001C86.3258 26.7181 86.6834 28.628 87.1377 29.0936C87.1377 29.0936 86.5085 28.5657 86.4966 28.2102C86.4966 28.2102 86.5311 28.945 86.7496 29.1506C86.7496 29.1506 86.5311 29.1161 86.4172 28.4861C86.4172 28.4861 86.3377 28.888 86.3946 29.2872C86.3946 29.2872 86.2463 29.0936 86.2913 28.5206L86.1642 28.876V28.0153C86.1642 28.0153 86.0278 28.4967 86.0609 28.8508C86.0953 29.2063 86.0953 29.3893 86.0953 29.3893C86.0953 29.3893 85.9814 29.0922 85.935 28.7938C85.935 28.7938 85.7443 29.0989 85.8397 29.3363C85.8132 29.2978 85.6913 29.0962 85.747 28.8349L85.637 29.2514C85.637 29.2514 85.6145 28.4158 85.5456 28.311C85.5456 28.311 85.4331 28.9928 85.5099 29.3031C85.4834 29.2461 85.2344 28.6943 85.3271 28.067C85.3099 28.1718 85.1298 29.2209 85.2265 29.5273L85.0649 29.3204L84.9735 29.5047L84.8821 29.0578L84.7218 29.2288L84.7099 28.5763L84.5602 29.3548C84.5602 29.3548 84.4808 28.8615 84.5258 28.4967C84.5735 28.1293 84.4225 27.2115 84.4225 27.2115C84.4225 27.2115 84.2967 27.7394 84.343 28.0497L84.2331 27.4993C84.2596 27.6903 84.4384 28.9689 84.3324 29.1387C84.3324 29.1387 84.2411 27.9927 84.1272 27.5683C84.1272 27.5683 83.9391 28.5219 83.9881 28.8535C83.9444 28.6837 83.8186 28.0564 84.0914 27.4224C84.0556 27.4449 83.6927 27.7115 83.9086 28.9344C83.9086 28.9344 83.4861 28.2341 83.555 27.5577C83.555 27.5577 83.2676 28.3269 83.6 28.9569C83.6 28.9569 83.2106 28.888 83.359 28.1996C83.359 28.1996 83.1762 28.2792 83.1192 28.6015C83.1192 28.6015 83.0848 28.1081 83.404 27.6956C83.404 27.6956 83.0504 27.8694 83.0159 28.2805C83.0159 28.2805 82.9934 27.7115 83.355 27.2778C83.3152 27.3176 82.9934 27.6505 82.8093 28.3402C82.8093 28.3402 82.6742 27.9993 82.808 27.7938C82.7828 27.8283 82.5934 28.1094 82.5934 28.2699C82.5934 28.2699 82.4451 28.0524 82.7868 27.4688C83.1311 26.8839 82.9709 26.1624 82.9709 26.1624C82.9709 26.1624 82.9828 26.8494 82.7404 27.1929C82.5007 27.5378 82.3616 27.7779 82.3616 27.7779C82.3616 27.7779 82.3047 27.6174 82.6596 27.1359C83.0146 26.6545 82.8305 26.2208 82.8305 26.2208C82.8305 26.2208 82.8755 26.8057 82.5113 27.1598C82.5113 27.1598 82.7616 26.6438 82.7616 26.3242C82.7616 26.3242 82.0292 26.6332 82.0861 27.2526C82.0861 27.2526 81.9166 27.0696 82.1855 26.6836C82.1378 26.7367 81.7669 27.1704 81.6173 27.1823C81.6173 27.1823 82.1669 26.6094 82.408 26.1757L82.0292 26.5072L82.2954 26.0696C82.2504 26.1146 82.0385 26.3414 81.6054 26.8746C81.1127 27.4821 81.0451 27.6306 81.0107 27.7792C80.9762 27.9291 80.8743 27.9065 80.7577 28.0895C80.6438 28.2726 80.7127 28.2951 80.6782 28.502C80.6438 28.7076 80.6438 28.7527 80.7233 28.892C80.8054 29.0286 82.2464 31.1043 82.0186 31.6202C82.0186 31.6202 82.0756 32.1003 82.3497 32.4783C82.6252 32.8577 82.5908 32.9028 82.8305 33.1428C83.0715 33.3842 83.1629 33.6243 83.2662 33.9346C83.3696 34.2437 84.9602 36.8459 84.9602 36.8459C84.9602 36.8459 85.2251 36.96 85.3046 37.1563C85.3086 37.1642 85.3099 37.1709 85.3125 37.1775C85.3827 37.2266 85.4516 37.2836 85.5404 37.2862C85.9946 37.2942 86.4489 37.2862 86.9019 37.3035C87.2913 37.3167 87.58 37.5661 88.0118 37.5489C88.637 37.5237 89.2873 37.5449 89.4171 38.1948C89.4383 38.2982 89.5469 38.2836 89.6674 38.2041C89.8449 38.0873 90.0833 37.9932 90.2647 38.1483C90.6011 38.4401 91.119 38.2584 91.5097 38.4839C91.8647 38.6882 92.3706 38.6444 92.7759 38.4454C92.9812 38.3446 93.1905 38.2929 93.409 38.3393C93.6713 38.3924 93.9097 38.5184 94.1719 38.5675C94.4938 38.6258 94.858 38.5277 95.1467 38.7081C95.3878 38.8606 95.6884 38.8009 95.9454 38.8659C96.0593 38.8951 96.1189 39.0662 96.1851 39.1776C96.25 39.2877 96.3083 39.3036 96.4261 39.2558C96.8487 39.09 97.1943 39.4349 97.6367 39.3566C98.0115 39.2903 98.4314 39.3871 98.8195 39.3473C99.2592 39.3036 99.5453 39.5543 99.9241 39.5967C100.313 39.6405 100.797 39.5542 101.08 39.7015C101.626 39.9853 102.324 39.728 102.831 40.0914C103.062 40.2545 103.361 39.8063 103.727 40.053C103.989 40.2294 104.374 40.1352 104.708 40.1232C104.931 40.1179 105.076 39.8752 104.949 39.7373C104.884 39.667 104.801 39.6073 104.731 39.5397C104.316 39.1298 104.324 39.1365 104.923 38.7293C105.086 38.6192 105.264 38.4839 105.328 38.3327C105.446 38.0489 105.603 38.1855 105.805 38.2531C106.206 38.3844 106.57 38.3234 106.883 38.086C107.031 37.972 106.983 37.8751 106.878 37.7664C106.672 37.5608 106.956 37.5953 107.07 37.5382C107.157 37.4931 107.48 37.4892 107.186 37.3274C106.85 37.1403 106.794 37.0555 107.002 36.9547C107.141 36.8857 107.293 36.8353 107.428 36.7623C107.864 36.5342 108.464 36.4613 108.622 35.9679C108.67 35.818 108.916 35.7411 109.166 35.7146C109.358 35.6933 109.387 35.5607 109.181 35.4931C109.046 35.4506 108.854 35.4705 108.866 35.314C108.87 35.2782 109.043 35.2278 109.144 35.2225C109.368 35.2052 109.598 35.2225 109.822 35.2013C109.892 35.1933 110.018 35.0779 110.005 35.062C109.619 34.5686 110.219 34.6946 110.431 34.7198C110.969 34.7822 111.507 34.8869 112.02 35.0262C112.235 35.0845 112.379 35.1999 112.579 35.0209C112.762 34.8578 113.112 34.7225 113.137 34.5527C113.194 34.1641 113.512 34.1986 113.844 34.1694C113.941 34.1614 114.028 34.0911 114.122 34.0513C114.027 34.0076 113.938 33.9466 113.835 33.928C113.548 33.8749 113.439 33.684 113.555 33.5473C113.73 33.3378 113.793 33.2012 113.51 33.0314C113.381 32.9532 113.273 32.8404 113.202 32.7264C113.163 32.668 113.215 32.5685 113.244 32.4916C113.252 32.4704 113.348 32.4425 113.366 32.4531C113.657 32.6242 113.995 32.6004 114.334 32.6202C114.941 32.6561 115.538 32.6057 116.146 32.8338C116.561 32.9876 117.146 32.8855 117.656 32.8789C117.739 32.8789 117.896 32.7794 117.89 32.7356C117.876 32.6176 117.832 32.4558 117.724 32.4041L117.71 32.4173ZM31.5816 16.7017C31.5816 16.7017 31.5021 16.8622 31.3723 17.1222C31.5326 17.1301 31.6915 17.1341 31.8518 17.1315H31.9485C31.7749 16.8503 31.5816 16.7017 31.5816 16.7017ZM60.5821 33.5566C60.3583 33.8723 60.1834 34.1124 60.0139 34.3564C59.3411 35.3193 58.6616 36.2809 57.9981 37.2504C57.5716 37.8698 57.1478 38.4892 56.7266 39.1099C56.8868 39.0887 57.0789 39.1099 57.2458 39.1046C57.4166 39.0993 57.6047 39.1365 57.753 39.0914C57.8391 39.0648 57.9239 39.0357 58.0073 39.0052C58.002 38.8261 58.1133 38.6868 58.3226 38.594C58.7769 38.3871 59.2232 38.1616 59.6815 37.9613C60.104 37.7783 60.3848 37.4573 60.6245 37.0793C60.7847 36.826 60.9609 36.5806 61.1543 36.3525C61.3609 36.1071 61.6523 36.0276 61.9662 36.0422C62.2112 36.0554 62.4589 36.1085 62.6999 36.0899C62.8787 36.0766 63.1224 36.0276 63.2138 35.9029C63.586 35.3962 64.0787 34.9718 64.2694 34.3285C64.3793 33.9598 64.5926 33.6163 64.7793 33.2741C64.9158 33.0208 65.0853 32.7847 65.2826 32.473C63.6615 32.9797 62.1039 33.4253 60.5808 33.5566H60.5821Z" fill="url(#paint0_linear_1667_1103)"/>
<path d="M24.8613 39.403C24.4335 39.33 24.0653 38.9428 23.6084 39.1523C23.5912 39.1603 23.5726 39.1669 23.5554 39.1735C23.766 39.3062 23.962 39.3977 24.0918 39.4653C24.2309 39.5383 24.4494 39.6019 24.7024 39.659C24.7673 39.6271 24.8322 39.5966 24.8958 39.5714C25.0309 39.5197 25.0256 39.4322 24.8613 39.4043V39.403Z" fill="url(#paint1_linear_1667_1103)"/>
<path d="M87.1337 27.1953C87.0198 27.064 86.9205 26.9062 86.8357 26.7324C86.9721 26.9552 87.0926 27.1316 87.1337 27.1953Z" fill="url(#paint2_linear_1667_1103)"/>
</g>
<defs>
<linearGradient id="paint0_linear_1667_1103" x1="8.06434" y1="20.82" x2="117.879" y2="20.82" gradientUnits="userSpaceOnUse">
<stop stop-color="#65C1F8"/>
<stop offset="1" stop-color="#BD9BFF"/>
</linearGradient>
<linearGradient id="paint1_linear_1667_1103" x1="23.5554" y1="39.3738" x2="24.9911" y2="39.3738" gradientUnits="userSpaceOnUse">
<stop stop-color="#65C1F8"/>
<stop offset="1" stop-color="#BD9BFF"/>
</linearGradient>
<linearGradient id="paint2_linear_1667_1103" x1="86.8357" y1="26.9645" x2="87.1337" y2="26.9645" gradientUnits="userSpaceOnUse">
<stop stop-color="#65C1F8"/>
<stop offset="1" stop-color="#BD9BFF"/>
</linearGradient>
<clipPath id="clip0_1667_1103">
<rect width="126.561" height="74" fill="white"/>
</clipPath>
</defs>
</svg>
