<svg width="20" height="20" fill="none" xmlns="http://www.w3.org/2000/svg"><path fill-rule="evenodd" clip-rule="evenodd" d="M18.942 6.286c.04.687.058 1.926.058 3.714 0 1.79-.019 3.028-.058 3.715-.079 1.626-.563 2.883-1.453 3.774-.891.89-2.148 1.375-3.774 1.453-.687.038-1.925.059-3.715.059-1.788 0-3.027-.02-3.714-.059-1.626-.078-2.883-.562-3.774-1.453s-1.375-2.148-1.454-3.774C1.02 13.028 1 11.79 1 10c0-1.788.02-3.027.058-3.714.079-1.626.563-2.883 1.454-3.774S4.66 1.137 6.286 1.058C6.973 1.02 8.212 1 10 1c1.79 0 3.028.02 3.715.058 1.626.079 2.883.563 3.774 1.454.89.891 1.374 2.148 1.453 3.774zm-3.376-1.853c.21.212.317.465.317.762s-.106.551-.317.762c-.21.211-.465.317-.761.317a1.04 1.04 0 01-.762-.317 1.035 1.035 0 01-.316-.762c0-.297.105-.55.316-.762.211-.21.465-.316.762-.316.296 0 .55.105.761.316zM13.27 6.731c.898.898 1.347 1.988 1.347 3.269 0 1.281-.45 2.371-1.348 3.27-.898.899-1.988 1.348-3.27 1.348-1.28 0-2.37-.45-3.268-1.348-.898-.899-1.348-1.989-1.348-3.27 0-1.28.45-2.37 1.348-3.269.898-.898 1.988-1.348 3.269-1.348 1.281 0 2.371.45 3.27 1.348zm-1.149 5.39A2.89 2.89 0 0012.999 10a2.89 2.89 0 00-.878-2.12A2.891 2.891 0 0010 7c-.827 0-1.535.293-2.122.88A2.894 2.894 0 007 10c0 .828.293 1.535.878 2.121a2.89 2.89 0 002.122.88c.828 0 1.535-.293 2.121-.88z" fill="#15112B"/></svg>