<svg width="20" height="20" fill="none" xmlns="http://www.w3.org/2000/svg"><path fill-rule="evenodd" clip-rule="evenodd" d="M19.801 5.713l.1.102c.198.407-.398 1.426-1.593 2.954-.198.305-.398.509-.696.916-.299.306-.498.611-.597.713-.1.102-.2.306-.299.51-.1.203-.199.305-.1.407 0 .102.1.204.1.305.1.204.2.408.398.51.2.101.398.305.597.509h.1c.995.917 1.592 1.63 1.99 2.24 0 0 0 .103.1.103 0 .101 0 .101.099.305v.306c0 .101-.1.203-.299.305-.099.102-.398.102-.596.102h-2.687c-.2 0-.398 0-.597-.102-.2-.102-.398-.102-.498-.204l-.199-.101c-.199-.102-.497-.408-.696-.611-.299-.306-.498-.51-.697-.815l-.597-.611c-.199-.204-.398-.204-.597-.204h-.1s-.099.102-.198.102c-.1.102-.2.203-.2.305-.099.102-.099.306-.198.51-.1.203-.1.509-.1.814v.306c0 .102-.1.102-.1.204v.101c-.099.102-.298.204-.596.204H9.75c-.497 0-.995 0-1.492-.204a5.666 5.666 0 01-1.393-.509c-.398 0-.796-.204-1.095-.407a4.358 4.358 0 01-.696-.611l-.299-.204c0-.102-.1-.204-.298-.306-.1-.203-.299-.509-.697-1.018-.398-.407-.696-.917-1.094-1.528-.398-.51-.796-1.222-1.294-2.139C.896 8.056.498 7.14.1 6.222 0 6.12 0 6.02 0 5.917V5.61c.1-.102.299-.204.597-.204h2.886c.1 0 .199 0 .199.102.1 0 .1.102.199.102h.1c.099.102.198.204.198.408.1.305.299.712.498 1.018.199.407.298.713.398.815l.199.305c.199.408.398.713.597 1.019.199.305.398.51.497.713.1.204.299.407.398.407.2.102.299.204.398.204.1 0 .2 0 .299-.102l.1-.102s.099-.102.099-.203c.1-.102.1-.306.1-.51 0-.203.099-.509.099-.814V7.444c0-.305 0-.509-.1-.713 0-.203-.1-.407-.1-.509h-.099c-.199-.203-.497-.407-.895-.407-.1 0-.1-.102.1-.204 0-.204.198-.305.298-.407C7.463 5.102 8.259 5 9.552 5c.597 0 .995.102 1.393.102.1 0 .299.102.299.102.1.102.199.102.199.203 0 .102.1.204.1.306v3.972c0 .204.099.306.099.408.1.101.1.203.199.203h.199c.1 0 .199 0 .298-.102.1-.101.299-.203.398-.305.1-.102.299-.408.498-.713.199-.306.497-.713.696-1.12.398-.713.796-1.426 1.095-2.343 0-.102.1-.102.1-.204l.099-.102h4.08c.398.204.497.204.497.306z" fill="#15112B"/></svg>