<svg width="125" height="115" fill="none" xmlns="http://www.w3.org/2000/svg"><path d="M61.168 25.01C59.21 10.897 46.321 0 30.713 0 13.75 0 0 12.872 0 28.75c0 15.023 12.31 27.355 28.003 28.64l.003.22C12.312 58.893 0 71.226 0 86.25 0 102.128 13.75 115 30.713 115c15.974 0 29.1-11.415 30.575-26.007a36.669 36.669 0 002.273-.026C65.023 103.57 78.155 115 94.14 115c16.962 0 30.713-12.872 30.713-28.75 0-15.295-12.759-27.8-28.857-28.698l.002-.104c16.097-.899 28.854-13.404 28.854-28.698C124.852 12.872 111.102 0 94.14 0 78.52 0 65.625 10.913 63.68 25.038a36.673 36.673 0 00-2.51-.029z" fill="#ED70AE"/></svg>