<svg width="125" height="115" fill="none" xmlns="http://www.w3.org/2000/svg"><path d="M60.178 25.147l.122.882.89-.02a36.293 36.293 0 012.444.028l.912.042.124-.904C66.54 11.587 78.975 1 94.139 1c16.473 0 29.712 12.485 29.712 27.75 0 14.704-12.282 26.827-27.91 27.7l-.93.052-.014.932-.002.1-.017.962.961.054c15.63.872 27.913 12.995 27.913 27.7 0 15.265-13.24 27.75-29.713 27.75-15.52 0-28.176-11.087-29.583-25.133l-.094-.94-.943.04a35.747 35.747 0 01-2.212.026l-.921-.017-.093.916C58.873 102.927 46.223 114 30.713 114 14.24 114 1 101.515 1 86.25c0-14.445 11.852-26.398 27.087-27.643l.938-.077-.02-.94a25.241 25.241 0 01-.003-.213l-.011-.91-.907-.074C12.85 55.146 1 43.194 1 28.75 1 13.485 14.24 1 30.713 1c15.153 0 27.58 10.573 29.465 24.147z" fill="#ED70AE" stroke="#D25493" stroke-width="2"/></svg>