<svg width="307" height="53" fill="none" xmlns="http://www.w3.org/2000/svg"><g clip-path="url(#clip0_2037_2249)"><path d="M89.625 44.255s-.447-.073-.623-.189c-.172-.116-.723.337-1.011.438 0 0-1.31.923-2.667 2.01.082-.039.16-.08.237-.128.628.019 1.293-.16 1.854.21.053.038.117.08.18.085.697.06 1.392-.034 2.075.278.513.232 1.276-.012 1.787.382.034.027.139-.005.21-.001.266.005.445-.393.713-.155.338.298.574-.204.906-.005.076.045.172.079.277.104-1.026-1.012-2.694-2.529-3.936-3.027l-.002-.002zM25.905 22.71c-.32.006-.529.11-.564.375-.028.205.04.46-.254.576-.288.113-.68.305-.91.234-.59-.179-.997.276-1.567.15-.479-.105-.94.079-1.408.25-.48.18-1.135-.048-1.616.289-.088.062-.264.066-.402.07-.713.02-1.518-.12-2.118.085-.701.244-1.386.168-2.063.288-1.76.312-3.526.593-5.135 1.289-.85.367-1.077.938-1.27 1.567-.053.177.143.382.27.311.689-.37 1.53-.456 2.26-.748.03-.011.038-.06.048-.11.28.102.557.201.837.3.032.257-.238.422-.445.474-.664.169-1.08.605-1.675.84-.05.203.074.527-.236.562-.678.074-1.117.416-1.663.645-.335.14-.762.554-1.297.189-.032-.022-.253.066-.317.138-.202.217-.346.467-.557.679-.233.234-.33.489-.242.765.106.332.397.534.833.606.016-.245-.04-.537.386-.614.744-.134 1.042-.034 1.387.36.156.174.33.34.517.495.188.157.548.112.707-.087.144-.179.243-.378.393-.551.221-.255.573-.251.916-.244-.001.01-.006.021-.01.032h.044c-.005.099-.019.2.01.294.028.096.117.182.18.272.068-.09.161-.172.195-.268.032-.095.015-.2.012-.302h.031s-.006-.015-.011-.022c.636-.005 1.098.213 1.254.688.087.266.186.507.355.751.21.298.017.554-.457.517-.69-.05-1.203.384-1.832.324-.702-.066-1.18.36-1.827.377-.504.015-.504.315-.487.59.005.1.092.195.154.288a.52.52 0 00.17-.046c.284-.161.575-.473.846-.461.747.029 1.347-.324 2.041-.36a23.73 23.73 0 011.928 0c.224.004.375.132.415.311.05.217.109.505-.2.573-.48.1-.833.384-1.372.428-.458.037-.895.276-1.32.451-.075.032-.067.196-.067.3 0 .04.067.1.122.116.126.04.26.083.392.085 1.005.006 2.008-.007 3.01.017.39.01.652-.188.975-.246.166-.032.416.267.692.048.137-.11.24-.092.331.05.066.102-.072.417-.209.407-.74-.062-1.27.452-2.02.4-.71-.051-1.292.355-2.042.35-.668-.007-1.341.244-2.01.394-.264.057-.523.206-.783.204-1.447-.015-2.677.56-4.019.827-.713.143-1.296.487-1.662.955-.221.283-.382.534-.812.668-.19.057-.198.278-.05.416.185.176.425.412.26.578-.376.387-.458.943-1.096 1.175-.375.135-.772.243-1.154.366-.062.022-.109.07-.16.106.087.06.165.16.26.172.344.045.73-.015.977.244.099.106.37.16.176.38a3.065 3.065 0 00-.457.709c-.215.438-.48.761-1.211.71-.275-.018-.397.397-.144.488.404.138.707.29.834.648.089.25.254.53.507.688.337.212.636-.085.945-.19.385-.132.678.425 1.138.067.231-.182.601-.283.933-.356.254-.057.64-.106.805-.005.437.266.906.283 1.412.283.303 0 .562.068.569.357.007.273.045.56-.447.624-.067.01-.13.04-.193.062-.175.066-.15.216.034.2.712-.05.454.634 1.01.717.403.062.798.217 1.147.389.209.1.326.31.485.471-.197.05-.392.1-.591.14-.067.016-.159-.015-.211.01-.089.04-.159.11-.236.167.057.034.112.09.172.095.211.015.427.011.642.015.644.007 1.29.032 1.935.007.457-.017.812.089 1.186.282.32.166.5.032.408-.326-.031-.123-.093-.206.118-.224.353-.03.711-.022 1.066-.044.628-.039 1.238-.017 1.872-.228.553-.182 1.26-.092 1.9-.118.679-.032 1.352.038 2.005-.242-.834-.522-1.849-1.533-1.01-3.558 0 0 1.779-2.698 3.788-4.44 0 0 1.733-1.766 2.309-2.067 0 0-.392-.278-.484-.489-.094-.207-1.065-.696-1.18-1.698 0 0-.438-.046-.739.187-.3.233-.785 1-1.524.65-.74-.348-.926-.695-.763-1.02.164-.328.74-1.652.74-1.652s-.37-.207-.07-.488c0 0 .16-.162.37-.046l.346-.488s-.392-.278-.325-.278.21-.046.21-.046-.416-.418.07-.488c0 0-.576-.51.321-.605 0 0-.415-.349.024-.605.44-.255.67-.44 1.247-.489 0 0 .37-1.348.67-2.114.3-.767.948-1.86 1.34-1.744l2.855-5.571c-.628.006-1.255.011-1.88.018l.008.004zm2.351 28.61s.14-.14-1.131-.256a329.524 329.524 0 01-3.698-.349c-.288-.034-1.505-.157-2.39-.357-.233.113-.47.237-.697.232-1.115-.022-2.274.3-3.35-.194-.11-.05-.367-.079-.393-.045-.363.465-1.103.182-1.538.467-.148.096-.243.239-.364.362.133.034.261.096.394.1 1.577.014 3.153.018 4.73.026.142 0 .293-.028.429-.005.607.111 1.028-.45 1.627-.278.524.15 1.005.401 1.539.53.393.094.84.089 1.266.089 1.28 0 2.555 0 3.834-.002a4.887 4.887 0 01-.258-.319v-.001zm2.28-28.898c-.2.022-.398.066-.595.155-.248.113-.606.096-.933.1-.711 1.459-1.71 3.54-1.858 4.048.055-.087.956-1.482 1.29-2.133 0 0 .161-.094.416 0 0 0 1.132-.023 1.269-.21.139-.187.233-.465.856-.44l.37-.14s-.504-.787-.817-1.378l.001-.002zm.1 23.434c-.576-2.183-1.547-3.464-1.547-3.464s-1.779 1.42-2.29 1.93c-.507.51-2.076 1.603-2.33 1.672-.255.071-.993.79-.993.79s.993.093 1.524.278c.53.186 2.054.812 2.931 1.023.88.207 1.387.556 2.149.581.762.026 1.617.071 2.195.024 0 0-1.062-.65-1.64-2.837v.003zm1.917-23.48c.142.205.308.43.507.678l.337-.699c-.282.005-.563.012-.844.018v.002zM138.62 41.161c-.226-.11-.534-.122-.603-.373-.172-.077-.341-.162-.52-.227-.258-.093-.364-.561-.784-.238-.343.261-.541-.36-.844-.038-.112.12-.209.106-.336.026-.493-.311-.623-1.01-1.563-.862-.055.01-.202-.15-.227-.243-.046-.157-.041-.323-.041-.487-.005-.434.039-.46.735-.581a2.02 2.02 0 00.546-.168c.134-.073-.043-.443-.281-.55-.238-.11-.524-.165-.733-.294-.354-.221.072-.233.185-.272.203-.07.416-.133.399-.316-.015-.145-.112-.299-.219-.427-.096-.113-.092-.205.11-.217.385-.024.854-.16 1.011.285.116.043.275.074.314.145.132.237.144.517.633.532.271.007.55.09.798.182.278.104.575.19.727-.054.109-.174.104-.435.023-.623-.154-.356-.743-.496-.81-.937-.037-.23-.27-.1-.445-.029a1.98 1.98 0 01-1.603-.018c-.331-.155-.658-.172-1.01-.206-.083-.007-.15-.113-.226-.173.128-.04.255-.085.386-.117.067-.015.144-.001.214-.015.487-.087.487-.278.623-.507.176-.305-.99-.576.043-.854.432-.116.735-.148 1.117.01.087.034.258-.045.385-.083a.213.213 0 00-.04-.117c-.087-.085-.189-.16-.281-.245-.138-.126-.303-.239-.399-.382-.316-.472-.308-.487-1.031-.462-.404.015-.663-.145-.923-.344-.142-.11-.161-.183-.005-.245.241-.1.508-.169.717-.299.109-.067.435-.2.11-.357-.706-.34-1.43-.667-2.148-.994-.177-.082-.501-.121-.534-.224-.293-.866-1.165-.834-2.038-.807-.584.017-.964-.51-1.602-.345-.029.006-.131-.127-.171-.2-.01-.016.095-.097.154-.1.355-.015.713-.005 1.07-.032.084-.005.159-.122.221-.194a.307.307 0 00-.149-.101c-.183-.037-.407-.032-.435-.216 0-.034.231-.113.353-.116.497-.015.986-.027 1.423.238.261.155.543.023.75-.144.183-.151.402-.121.58-.044.237.105.396.228.726.085.159-.071.484.094.739.133.241.039.445-.116.385-.281-.034-.095-.099-.245-.176-.255-.832-.106-1.577-.49-2.458-.423-.651.05-1.132-.423-1.833-.328-.556.077-1.147.049-1.713.001-.689-.055-1.293-.348-2.033-.34-.747.005-1.45-.312-2.225-.39-.653-.065-1.263-.437-1.876-.698-.743-.315-1.497-.607-2.374-.512-.497.053-.745-.294-1.164-.344-.415-.05-.855.057-1.249-.14a1.687 1.687 0 00-.581-.162c-.777-.07-1.622.132-2.319-.162-.685-.284-1.497 0-2.049-.293-.697-.37-1.579-.032-2.214-.488-.161-.117-.548-.044-.829-.068-.899-.082-1.837.127-2.699-.298-.255-.126-.7-.034-1.058-.034-1.003-.005-2.011-.07-3.004.007-.965.074-1.765-.323-2.668-.384-.06-.005-.125-.06-.16-.104-.012-.012.055-.085.104-.102.381-.128.751-.311 1.152-.36a7.747 7.747 0 011.711-.029c.629.066.998-.413 1.607-.355.349.037.712-.01 1.067-.029.06-.002.115-.06.172-.093-.078-.057-.155-.161-.241-.165-.33-.011-.497-.19-.691-.345-.049-.039-.128-.11-.111-.133.05-.074.137-.184.215-.189.644-.027 1.287-.027 1.932-.054.065-.005.132-.118.172-.19.007-.015-.1-.096-.155-.1-.717-.005-1.43-.001-2.147 0-.466.002-.596.208-.569.53.021.239-.092.42-.463.426-.932.01-1.861.023-2.792.032-.355.005-.349-.005-1.253-.607-.15-.1-.398-.11-.552-.21-.08-.05-.1-.204-.072-.3.043-.145.177-.177.296-.09.274.204.606.235.96.2.132-.435.636-.269.999-.344.313-.066.177-.23.049-.339-.151-.126-.148-.222.07-.22.834.004 1.694-.211 2.49.168.109.05.309.089.393.049.441-.213.861-.405 1.33-.051.398-.243.745-.015 1.12.056.271.049.629.094.844.001.763-.337 1.452.167 2.177.058.954.345 1.99.539 3.007.604.993.063 1.87.433 2.888.427.651-.005 1.343.25 1.949.49.744.29 1.546.468 2.314.67.688.18 1.507.068 2.271.073-.049-.09-.089-.212-.159-.224-.344-.05-.7-.057-1.049-.09-.415-.033-.574-.222-.331-.562.176-.244.094-.337-.092-.524-.253-.256-.863-.148-.928-.56-.214-.116-.432-.229-.639-.355-.225-.135-.421-.278-.741-.283-.706-.01-1.423 0-2.049-.317-1.365.138-2.612-.413-3.973-.399-.751.01-1.502-.24-2.236-.387-.551-.11-1.088-.262-1.644-.218-.688.056-1.204-.261-1.807-.379-.06-.012-.105-.072-.159-.11.106-.055.206-.156.315-.161.857-.024 1.716-.024 2.574-.046.13-.001.254-.072.381-.11-.167-.055-.335-.15-.502-.152a88.47 88.47 0 00-3.004-.01c-.696.011-1.296.377-2.046.311-.707-.057-1.428-.007-2.143.007-.206.002-.441.007-.618.077-1.105.432-2.16.273-3.245-.074a9.014 9.014 0 00-.986-.26c-.94-.193-1.856-.486-2.877-.425-.695.04-1.38.016-2.055-.282-.385-.167-.977-.049-1.478-.07-.057-.002-.115-.061-.17-.095.066-.062.13-.177.202-.179.768-.028 1.555.044 2.247-.326.062-.034.244.062.37.1.117.034.291.127.341.095.25-.15.104-.556.635-.55.347.004.695-.045 1.042-.078.045-.005.082-.066.125-.101-.055-.034-.105-.093-.166-.102-.206-.027-.418-.033-.624-.053a.57.57 0 01-.19-.051c-.061-.027-.11-.07-.163-.106.048-.039.087-.093.147-.111 1.154-.371 2.295-.732 3.6-.722 3.432.028 6.867.007 10.301.006.353 0 .723.037.986-.216.089-.084.178-.168.265-.255-.092-.055-.181-.15-.28-.156-.283-.027-.573-.017-.857-.019-.359-.005-.717.012-1.072-.01-.49-.032-1.028.106-1.458-.135-.36-.203-1.042-.138-1.038-.689 0-.05-.36-.14-.553-.145-1.433-.021-2.87-.096-4.29-.006-.909.057-1.617-.366-2.468-.362-.072 0-.147-.117-.22-.18.056-.033.111-.095.166-.095.858-.017 1.717-.027 2.572-.034.2-.002.394-.012.442-.188 0-.02-.232-.093-.363-.11-.343-.046-.69-.072-1.036-.113-.039-.005-.104-.082-.093-.096.034-.045.094-.1.156-.11.272-.043.556-.053.817-.117.093-.022.183-.167.183-.256.005-.19-.1-.284-.372-.16-.49.222-.837-.235-1.346-.166-.47.066-.988-.032-1.479-.082-.067-.007-.112-.135-.165-.224.125-.005.25-.005.371-.019.178-.018.486.019.298-.24-.1-.139-.3-.233-.428-.365-.099-.1-.377-.278-.022-.338 1.02-.174 2.065-.583 3.09-.315 1.734.45 3.482.207 5.225.256-.01-.167-.154-.251-.358-.285-.608-.104-1.231.034-1.865-.212-.526-.204-1.226-.143-1.846-.216-.17-.018-.172-.128-.01-.229.156-.096.394-.293.479-.261 1.087.416 2.235.148 3.351.207.211.01.428.01.639-.01.133-.012.347-.046.37-.106.337-.873 1.28-.4 1.944-.528.089-.016.149-.12.221-.183-.055-.034-.115-.101-.165-.096-.729.057-1.365-.165-2.003-.378-.079-.027-.112-.128-.167-.195.127-.039.252-.088.385-.11.137-.021.293.01.423-.027.092-.023.154-.117.228-.181-.055-.038-.104-.097-.164-.102-.209-.023-.427-.015-.635-.045-.202-.032-.331-.135-.371-.295-.471-.049-.933-.027-1.404-.22-.783-.322-1.639-.552-2.488-.767-.326-.084-.658-.132-.978-.26-.673-.27-1.356-.583-2.084-.704-.745-.123-1.55-.04-2.331-.049-.353-.005-.708.007-1.06-.017-.214-.016-.385-.112-.397-.305-.01-.161-.037-.326-.017-.488.056-.413-.3-.607-.761-.354-.466.256-.926.263-1.357.007-.386-.23-.735-.416-1.257-.516-.67-.131-1.301-.345-2.014-.3-.203.016-.407-.001-.612-.005-.038-.168-.182-.276-.393-.284-.641-.024-1.286-.024-1.93-.037-.284-.006-.65.067-.84-.04-.9-.511-1.728-.095-2.605.008-.392.045-.67.4-1.12.21-.452-.19-.769.14-1.082.25-.392.134-.584.067-.906-.051-.252-.093-.525.022-.597.276-.14.01-.282.017-.42.027-.056.093-.11.223-.172.224-.845.034-1.694.046-2.543.063-.646-.462-1.567-.123-2.203-.393-.762-.323-1.512-.222-2.274-.261-.498-.027-.85-.362-1.398-.307-.486.05-.99-.022-1.489-.038-.316-.452-.926.176-1.264-.2-.85-.028-1.696-.084-2.545-.073-.762.006-1.546-.152-2.274.234-.245.131-.69.05-1.043.055-.926.01-1.854.01-2.778.017-.358.002-.717 0-1.07.019-.419.023-.906-.122-1.232.128-.349.263-.623-.223-.913.005-.281.22-.509-.116-.707-.056-.252.08-.407.206-.711.034-.198-.111-.531-.1-.806-.105-.927-.021-1.855-.011-2.78-.04-.486-.015-1.01.113-1.45-.133-.448-.254-.83.322-1.337.005-.398-.25-.862.148-1.358.135-1.71-.044-3.422.001-5.134.015-.214 0-.432-.019-.64.01-.192.029-.446.074-.535.182-.096.113-.057.295-.067.452-.352.033-.683.01-.954-.2-.116-.089-.282-.055-.294.088-.028.358-.288.433-.7.438-.982.01-1.98-.062-2.898.327-.166.071-.423.024-.635.007-.13-.01-.252-.067-.38-.104.06-.068.1-.177.181-.194.526-.118.951-.474 1.564-.393.049.005.11-.062.166-.096-.084-.06-.166-.168-.258-.173-.283-.019-.623-.073-.849.018-.994.41-2.06.282-3.108.312-.49.015-.97-.022-1.441.194-.276.126-.688.099-1.037.1-.778.006-1.512.112-2.275.272-.724.152-1.492.23-2.24.372-.923.177-1.395.701-1.955 1.178.096.06.188.165.293.173.21.019.493.051.628-.032.858-.539 1.943-.584 2.936-.823.728-.177 1.483-.283 2.22-.422.81-.151 1.704-.045 2.562-.045.055 0 .115.057.166.094.095.071.061.162-.121.216-1.109.315-2.177.748-3.416.689-.442-.019-.822.34-1.34.094-.132-.062-.524.122-.74.25-.314.187-.584.266-.895.022-.27.178-.536.357-.806.534-.457-.339-.845.06-1.27.067-.573.007-1.194-.094-1.7.05-.462.132-.934.2-1.381.319-1.288.345-2.706.598-3.29 1.756-.166.326-.587-.174-.634-.032-.18.566-.812.465-1.286.626-.751.261-1.59.373-2.191.91-.51.455-1.253.672-2.085.634-.283-.016-.573.028-.856.015-1.004-.05-1.939.079-2.814.495-.339.162-.782.194-1.16.315-.063.022-.105.256-.051.288.266.152.59.255.85.411.138.083.297.272.258.368a.638.638 0 01-.44.323 10.25 10.25 0 01-1.684.084c-.606-.028-1.109.118-1.611.334-.283.121-.49.367-.397.473.204.233.343-.001.514-.017 1.11-.095 2.137-.554 3.294-.46.448.04.815-.106 1.202-.259.112-.045.485.074.514.16.1.31.06.634.365.915.062.06-.194.318-.327.5-.457.012-.915.012-1.37.046-.187.012-.299.126-.319.276.248.005.496.012.743.007.314-.007.45.131.521.327.705-.002 1.408-.005 2.113-.005 1.479-.576 3.064-.223 4.6-.312.127-.007.266.04.393.078.05.015.082.067.123.1-.056.038-.11.1-.166.102-1.258.04-2.423.539-3.726.389a4.032 4.032 0 00-2.394.456c-.382.208-.832.107-1.19.285-.04.019-.094.083-.084.095.04.043.1.099.16.1.352.024.707.024 1.059.058.1.01.276.126.264.16a.52.52 0 01-.241.256c-.17.088-.368.179-.563.19-.495.032-1.006-.027-1.491.04-1.089.152-2.192.289-3.212.646-.11.039-.198.118-.296.179.117.05.23.138.351.145.283.016.623.07.846-.024 1.138-.468 2.357-.232 3.543-.3.385-.024.653.182.966.243.892.172 1.838.172 2.7-.063.414-.113.798-.187 1.218-.183 1.34.001 2.678.011 4.017.018-.045.09-.084.218-.15.228-.679.094-1.342.165-2.008.365-.558.167-1.274.118-1.897.05-.757-.085-1.301.382-2.033.333-.625-.04-1.237-.017-1.85.229-.402.162-.966.084-1.459.116-.23.015-.37.105-.428.285-.066.215.117.288.316.332.132.028.286 0 .424.018.469.071.564.179.524.544-.039.35-.134.422-.678.44l-.618.019c-.055.087-.099.207-.181.224-.611.128-1.24.138-1.839-.019-.252-.067-.512-.293-.755-.16-.385.216-.73.49-1.02.784a.25.25 0 01-.07.057c.029-.012.096-.019.186.06.176.162.392.417.675.306 1.135-.444 2.34-.218 3.511-.267.193-.006.327.133.36.299.343.005.658.043.971.207.205.11.637.187.79.1.662-.383 1.117-.255 1.642.166.274.222.716.34 1.11.445.25.067.636.11.812.01.586-.332 1.227-.207 1.853-.244.695-.04 1.419.106 2.06-.273.387-.228.855.428 1.296 0 .351.161.84.263 1.016.5.203.271.355.423.767.421 1.644-.015 3.289-.037 4.93-.01.465.007.788-.263 1.197-.256.33.005.76.288.966.2a3.48 3.48 0 011.13-.254l.834-1.627s-.695-.605-.094-1.185c0 0-.07-1.022.094-1.255.16-.232.347-.14.347-.14s0-.372.53-.372c0 0 .07-.302.623-.162l1.226-2.349s-.164-.161.067-.277c0 0-.437-.302.485-.35l1.409-1.672s-.138-.162.139-.162l.415-.488s-.092-.211.139-.14l.462-.489-.139-.093.116-.161.115.092.44-.51-.139-.095.116-.116.164.095.437-.444-.206-.161.116-.165.16.187.948-1.116.462.674-.276.44.276.024s-.045.464-.206.58c0 0-.44-.139-.16.233l-.37.282s-.347.045-.347.3c0 .254.253.699-.325.488l-.206.21s.092.722-.37.44l-.139.211s.231.696-.37.324l-.206.256s.486.604-.21.465l-.436.443s-.231-.302-.37-.046c0 0-.67.418-1.154 1.326-.469.873-.896 1.623-.922 1.671.028-.015.244-.1.137.816-.116.977-.07 1.811-.07 2.51 0 .448.018.868.351 1.512.226-.002.452-.006.678-.002a3.086 3.086 0 01-.452-.602c-.24-.465.37.334.54.551-.173-.244-.88-1.279-.84-1.831 0 0 .531 1.627 1.412 1.65 0 0-.918-1.229-1.028-1.763 0 0 .519.996 1.028 1.137 0 0-.394-.605-.415-.906 0 0 .182.187.738.094 0 0-1.87-.443-1.87-1.442 0 0 .23.581.762.767l-.462-.629s1.177.977 1.778.512c0 0-.856-.372-.3-1.72 0 0-.115 1.555.507 1.533 0 0-.6-1.022-.185-1.51 0 0-.206.673.093.976 0 0 .277-.999.322-1.371v.999l.556-1.068-.116.696.647-1.161-.046.79.186-.256s.253.187.253.65c0 0 .37-.327.762-.327 0 0-.022-.278-.462-.232l.37-.093-.44-.07.463-.093-.624-.095s.877-.58 1.71-.045l-.438-.443.647.187-.161-.324.53.187-.232-.327.415.117-.116-.256.602.21-.277-.488.392.256-.137-.373.415.162.022-.418.164.327.067-.699.3.654.07-.538.44 1.117.022-.534.164.418.045-.465.37.394-.07-.581.186.534.045-.56.161.697.21-.278s.483.443.185 1.21c0 0 .298.51.045 1.276l-.023.443.462-1.022s.07.977-.553 1.627c0 0 .046.767-.855 1.232 0 0 .325.045.23.745-.091.695.256.766.463 1.231.21.465.116.56.049 1.185-.057.512-.128 1.192-.154 1.427.015-.221.038-.84-.148-1.404l-.115 1.21-.231-.907s-.278 1.116-.07 1.951c0 0-.37-.323-.3-1.139 0 0-.462.767-.416 1.326 0 0-.325-.418.092-1.231 0 0-.321.323-.6 1.137-.277.815-.647 1-.647 1s.462-.744.53-1.65c0 0-.947 1.905-1.407 2.092l.507-.788-.578.534.32-.693c-.055.083-.497.743-.757.83 0 0 .322-.697.322-1.534l-.276.883-.024-.883s0 .65-.045.721c-.045.07-.14-.349-.14-.349l-.066.534-.117-.58-.116.348-.092-.837-.3.72s0-.512.116-.837c0 0-.276-.023-.347.696-.07.721-.093 2.046-.485 2.581-.392.534-1.038.86-1.547.162 0 0-1.71 2.138-1.733 2.487-.022.35-.161.65-.068.79s.392.394.598.932c.21.534.67 1.533.74 1.927.07.396.046.906.116 1.3.07.397.21.79.21 1.001 0 .211.415.046.182.51-.231.466.3.233-.092.675-.392.44-.508.674-.508.674l.462 3.694s.37.022.231.465c-.139.44 0 .35.046.65 0 0 .16.302.07.535 0 0 .255-.095.347.349 0 0 .209-.582.485-.373.276.21.045.187.601-.067.553-.256 1.363-.84 5.196-.885 3.834-.045 3.141-.301 3.235.211.092.51.322-.024.598-.256.28-.233.695-.278.926.023.23.302.485-.256.922-.023 0 0 .094-.187.486-.443 0 0 .346-.627.832-.582.486.046.9.56 2.148 1.094 1.248.534 3.026 1.835 3.533 3.858 0 0 .07.65-.485.767-.553.116-.692.07-.692.07s-.437-.323-.947-.323c-.511 0-1.203-.256-1.203-.256s-.206.187-.576-.093c-.37-.281-.186-.301-.9-.443-.716-.141-1.154-.327-1.154-.327s-.255.21-.785.071c0 0-.44.281-1.132.045 0 0-1.087.7-2.842.467-1.755-.232-5.59 1-7.39 1.185a69.7 69.7 0 00-2.425.278s.115.559-.21 1.162c-.15.283-.283.844-.38 1.382.48-.002.961-.002 1.44-.01.501-.006.998-.016 1.497-.022.3-.457.812.027 1.253-.177.612-.285 1.39-.096 2.096-.093.105 0 .288.111.3.184.073.406.278.41.666.19.22-.126.49-.227.755-.263.22-.028.611.132.67.066.338-.355.667.184 1.082-.045.315-.174.85.328 1.32.138.38-.157.708-.334 1.18-.305.497.032 1.014-.054 1.5.015.42.055.645-.404 1.139-.15.257.133.65-.07 1.07.08.448.156.956-.41 1.567-.279.398-.273.867-.306 1.386-.312.893-.01 1.81.112 2.66-.224.508.378.856.118 1.265-.145.425-.273.896-.493 1.425-.58.12-.228.233-.46.343-.693.65-1.378.757-2.907.995-4.394.037-.228.037-.46.05-.693.028-.444.037-.89.089-1.332.159-1.367.867-2.46 1.773-3.437.283-.31.343-.523.072-.832a4.444 4.444 0 00-.81-.74c-.474-.327-.736-.743-.752-1.323-.005-.123-.1-.242-.15-.362-.07-.172-.16-.339-.202-.516-.033-.151-.005-.316-.005-.466-.241-.019-.445-.027-.65-.05-.663-.08-1.18-.34-1.363-1.062-.033-.138-.227-.233-.348-.349-.022-.022-.055-.049-.055-.07.018-.32-.228-.294-.424-.334-.386-.084-.666-.276-.785-.688a3.734 3.734 0 00-.661-1.315c-.267-.334-.377-.79-.556-1.198-.012-.029.001-.071-.005-.105-.082-.434-.161-.876-.253-1.31a.416.416 0 00-.134-.196 2.917 2.917 0 01-.874-1.506.411.411 0 00-.084-.143c-.524-.684-.387-1.384.194-1.801.126-.093.238-.2.44-.368-.296-.193-.538-.348-.781-.507-.292-.19-.69-.322-.85-.593-.198-.34-.453-.598-.72-.86-.116-.112-.239-.223-.326-.36-.06-.092-.06-.224-.088-.338.122-.007.26-.058.36-.015.172.079.326.212.483.328.123.094.237.195.354.295-.027-.123-.099-.194-.16-.276-.199-.268-.41-.53-.58-.816-.049-.082.021-.234.038-.354.315.113.707-.062.966.256.072.09.134.188.193.263l.109-.476c.139.096.298.173.41.294.095.101.142.255.231.428.065-.256.149-.46.166-.665.04-.487-.01-.984.087-1.456.139-.696.363-1.371.986-1.831.31-.224.53-.58.961-.61.045-.002.092-.067.127-.111.203-.245.458-.238.675-.071.203.157.37.143.57.039.445-.235.855-.128 1.213.173.2.169.36.388.526.593.11.133.173.315.3.421.382.316.563.678.375 1.171-.01.029-.017.083 0 .101.293.302.106.688.16 1.028.06.38.11.799-.266 1.09-.04.032-.065.096-.078.15-.12.443-.25.88-.353 1.326-.062.271-.046.51.266.667.336.172.636.413.956.619.043.028.117.062.156.045.326-.15.602.029.892.131.236.083.452.054.578-.166.248-.433.644-.551 1.097-.617a.833.833 0 00.458-.263c.267-.298.585-.477.976-.537.524-.083.933-.36 1.288-.75.17-.184.368-.35.576-.487 1.005-.654 2.02-1.295 3.036-1.932.326-.204.559-.452.656-.85.04-.171.226-.306.33-.468.144-.227.316-.45.403-.7.176-.521.016-.996-.257-1.451-.168-.283-.365-.577-.13-.934.03-.048-.023-.183-.071-.254-.127-.174-.238-.329-.082-.554.11-.157.172-.35.266-.518.015-.023.084-.032.127-.028.392.023.47.544.878.566.06.002.133.118.167.199.029.067 0 .16.012.239.05.329.05.679.17.982.168.421.349.822.337 1.292-.007.263.037.53.045.794.01.285.072.527.275.756.159.177.276.432.313.666.05.317-.22.495-.486.334-.232-.14-.386-.03-.512.096a10.02 10.02 0 00-.762.898c-.447.588-.86 1.2-1.32 1.779-.626.786-1.332 1.506-1.739 2.453-.139.327-.415.537-.772.65-.125.04-.21.204-.325.3-.155.135-.325.377-.484.374-.453-.007-.624.25-.783.6-.216.473-.397.56-.883.515l-.36.752c.399.601.796 1.223 1.214 1.828.317.454.69.867.986 1.332.551.868 1.067 1.756 1.586 2.64.211.358.407.723.591 1.094.104.205.156.434.261.64.238.46.54.573 1.032.435.132-.037.27-.063.407-.068.96-.045 1.925-.133 2.886-.11 1.769.038 3.54.083 5.303.248.722.071 1.474.123 1.839.877.233.481.348 1.02.502 1.538.168.567.007 1.093-.226 1.612-.568 1.26-1.49 2.135-2.718 2.743-.485.242-.954.58-1.326.972a21.239 21.239 0 01-3.194 2.756c-.457.324-.846.745-1.275 1.112-.167.145-.335.3-.5.45.425-.012.854-.023 1.27.015 1.236.113 2.341-.315 3.51-.465.322-.04.635-.204 1.003-.195.43.01.862-.039 1.288-.007a8.48 8.48 0 001.343 0c.683-1 1.8-2.482 2.364-3.287.769-1.093 2.62-3 3.07-3.248 0 0-.088-.656.39-.873 0 0 .132-.072-.016-.177-.144-.1-.634-.667-.634-.712 0-.044.375-.844.475-1.412.1-.566.248-1.849.261-2.489.015-.64.245-2.448.84-4.732 0 0 .187-.888 1.186-2.127 0 0 .131-2.564.116-3-.015-.435-.305-.945-.16-1.644.147-.7.239-1.357.239-1.357s-.776.268-.824.08c-.104-.413.763-.546.778-.59 0 0-.296-2.167-.296-2.355 0-.19-.159-.467-.216-.917-.057-.451-.464-2.404-.464-5.81 0 0-.028-.466-.202-.7-.173-.232-.016-.16-.36-.349-.349-.19-.652-.539-.652-.539s-.045.377-.204.246a1.596 1.596 0 01-.332-.377c-.1-.145-.204-.438-.204-.438s-.202-.145-.36-.277c-.159-.131-.536-.815.26-.583 0 0-.1-.394.117-.451.216-.057.782-.189.782-.189s.057-.394.043-.67c-.015-.277-.189-.902-.189-1.355 0-.453.305-.554.349-.204.043.349.087.743.216.932.13.189.13.873.276 1.137.144.261 1.433 2.532 1.447 2.679.014.145.446 1.95.594 2.753.144.8 1.011 3.203.998 3.755-.015.555-.015 1.412.043 1.66.057.25.216 1.718.218 1.722.007.047.306.049.338.045.166-.02.094-.182.107-.327.014-.156.11-.197.153-.207.427-.103.904-.082 1.361-.153.255-.04.424.07.439.227.037.377.075.507.055.886-.002.036-.059.299-.278.324-.526.06-.892.096-1.421.103-.037 0-.181.011-.257-.107-.023-.035-.063-.202-.09-.21-.08-.027-.293-.017-.327.045-.067.12.049.64.14.772.13.189.535 1.078.535 1.078s.404.479.404.595c0 .116.087.337.115.423.029.087.986.204 1.159.189.172-.016.216-.363-.203-.974-.42-.612-.448-.962-.276-1.05.176-.087.276-.131.276-.318s.044-.218.332-.246c.291-.032.594-.467.666-.612.072-.148.144-.684.623-.539 0 0-.028-.713.348-.684.376.029.667.554 1.027.246 0 0 .172-.261 1.028-.189 0 0 .591.073.81.218.216.145 1.156-.073 1.97 1.865l-.277-.35.173.422-.215-.285c.032.11.548 1.87.548 2.718 0 .847.144 4.498.274 4.864.111.305.282 2.148.9 3.376-.236-.382-.51-.87-.647-1.253.116.355.774 2.338 1.519 3.253-.112-.11-1.02-1.02-1.55-2.138.026.15.478 2.576 1.053 3.168 0 0-.796-.671-.81-1.123 0 0 .043.934.32 1.195 0 0-.277-.044-.421-.844 0 0-.1.51-.029 1.017 0 0-.187-.245-.13-.973l-.161.451V35.57s-.172.611-.13 1.061c.043.452.043.684.043.684s-.144-.377-.203-.756c0 0-.24.387-.12.689a.863.863 0 01-.117-.637l-.14.529s-.028-1.061-.115-1.194c0 0-.142.865-.045 1.26-.034-.073-.348-.774-.231-1.57-.022.133-.25 1.465-.127 1.854l-.205-.262-.115.234-.116-.568-.202.217-.016-.829-.189.99s-.1-.627-.043-1.09c.06-.467-.13-1.633-.13-1.633s-.16.67-.101 1.065l-.14-.7c.034.243.26 1.867.126 2.083 0 0-.115-1.456-.26-1.995 0 0-.237 1.211-.175 1.633-.055-.216-.214-1.013.13-1.818-.045.028-.503.367-.23 1.92 0 0-.535-.89-.448-1.748 0 0-.363.977.057 1.777 0 0-.492-.088-.304-.962 0 0-.231.101-.303.51 0 0-.044-.626.36-1.15 0 0-.448.22-.491.743 0 0-.028-.723.429-1.274-.05.05-.457.473-.69 1.35 0 0-.171-.433-.002-.695-.032.044-.271.401-.271.605 0 0-.188-.276.244-1.017.436-.743.233-1.66.233-1.66s.015.873-.291 1.31c-.303.437-.48.742-.48.742s-.071-.204.377-.815c.45-.612.216-1.163.216-1.163s.057.743-.403 1.193c0 0 .316-.655.316-1.061 0 0-.925.392-.853 1.179 0 0-.215-.233.125-.723-.06.068-.529.618-.718.634 0 0 .695-.728 1-1.28l-.48.422.337-.556c-.057.057-.325.346-.872 1.023-.623.771-.709.96-.752 1.149-.044.19-.173.162-.32.394-.144.233-.057.261-.1.524-.044.261-.044.319.056.495.104.174 1.926 2.81 1.638 3.466 0 0 .072.61.419 1.09.348.482.304.54.608.844.304.307.42.612.55 1.006.131.392 2.142 3.698 2.142 3.698s.335.145.435.394c.005.01.007.019.01.027.09.063.176.135.288.138.575.01 1.149 0 1.722.022.492.017.857.334 1.403.312.79-.032 1.612-.005 1.776.82.027.132.164.113.317.012.224-.148.526-.268.755-.07.425.37 1.08.14 1.574.426.449.26 1.088.204 1.601-.05.259-.127.524-.193.8-.134.332.068.633.228.964.29.407.074.868-.05 1.233.179.305.193.685.117 1.01.2.144.037.219.254.303.396.082.14.155.16.304.1.534-.211.972.227 1.531.127.474-.084 1.004.04 1.495-.011.556-.056.918.262 1.396.316.493.056 1.104-.054 1.462.133.69.36 1.572.034 2.214.496.291.207.67-.362 1.132-.05.331.225.818.105 1.24.09.282-.007.466-.315.305-.49-.082-.09-.187-.165-.276-.251-.524-.52-.514-.512.243-1.03.206-.14.432-.311.512-.503.149-.36.348-.187.603-.101.507.166.968.089 1.363-.213.187-.145.127-.268-.007-.406-.259-.26.099-.217.243-.29.11-.057.519-.062.147-.267-.425-.238-.495-.346-.232-.474.175-.087.368-.151.539-.244.551-.29 1.309-.383 1.508-1.01.061-.19.372-.287.688-.321.243-.027.28-.196.019-.281-.171-.054-.414-.03-.399-.228.005-.045.225-.11.352-.116.283-.022.574 0 .857-.027.089-.01.248-.157.231-.177-.487-.627.272-.467.54-.435.679.08 1.359.213 2.009.39.271.074.454.22.706-.007.232-.207.674-.38.705-.595.072-.494.474-.45.895-.487.122-.01.232-.1.351-.15-.12-.055-.233-.133-.363-.157-.364-.067-.501-.31-.354-.483.222-.266.3-.44-.056-.655-.165-.1-.3-.243-.391-.388-.048-.074.017-.2.054-.298.01-.027.131-.062.154-.049.368.217.795.187 1.224.212.767.046 1.522-.018 2.291.272.524.195 1.264.065 1.908.057.106 0 .304-.127.297-.182-.019-.15-.074-.356-.211-.421l-.017.017zM29.735 21.199l-.265.534c.203.01.404.015.606.011h.123c-.22-.357-.464-.546-.464-.546zm36.663 21.41c-.283.4-.504.706-.719 1.016-.85 1.223-1.71 2.444-2.548 3.676-.54.787-1.075 1.573-1.607 2.362.202-.027.445 0 .656-.007.216-.006.454.04.641-.017.11-.033.216-.07.322-.11-.007-.227.134-.404.398-.521.575-.263 1.139-.55 1.718-.804.534-.233.89-.64 1.192-1.12.203-.322.426-.634.67-.924.261-.311.63-.412 1.026-.394.31.017.623.084.928.06.226-.016.534-.078.65-.237.47-.643 1.093-1.183 1.334-2 .14-.468.409-.904.645-1.34.172-.32.387-.62.636-1.017-2.05.644-4.018 1.21-5.944 1.377h.002z" fill="url(#paint0_linear_2037_2249)"/><path d="M21.239 50.035c-.54-.092-1.006-.584-1.584-.318-.022.01-.045.018-.067.027.266.168.514.285.678.37.176.093.452.174.772.246.082-.04.164-.079.244-.11.171-.066.165-.178-.043-.213v-.002z" fill="url(#paint1_linear_2037_2249)"/><path d="M99.965 34.528a2.716 2.716 0 01-.377-.588c.172.284.325.508.377.588z" fill="url(#paint2_linear_2037_2249)"/><path d="M158.259 21.112h-3.349V12.18h-2.357v8.932h-3.347V12.18h-2.358v10.183c0 .722.402 1.122 1.13 1.122h11.508c.739 0 1.147-.398 1.147-1.122V12.18h-2.372v8.932h-.002zm11.11-3.394c.599-.383 1.053-.945 1.488-1.821l1.864-3.715h-2.557l-1.708 3.37c-.542 1.064-.74 1.216-2.547 1.216h-.798v-4.586h-2.358v11.305h2.358v-4.522h.798c2.031 0 2.264.163 2.787 1.184l1.708 3.338h2.638l-1.915-3.75c-.517-1.015-.968-1.654-1.758-2.017v-.002z" fill="#15112B"/><path d="M179.429 12.18h-1.467c-3.336 0-5.1 1.963-5.1 5.676s1.763 5.629 5.1 5.629h1.467c3.335 0 5.1-1.946 5.1-5.63 0-3.682-1.763-5.675-5.1-5.675zm2.727 5.66c0 2.326-.79 3.274-2.727 3.274h-1.467c-1.974 0-2.743-.913-2.743-3.257 0-2.343.795-3.305 2.743-3.305h1.467c1.937 0 2.727.954 2.727 3.289zm9.913-5.852c-1.547 0-2.011.792-2.592 2.098l-2.359 5.243c-.777 1.708-.973 1.784-1.538 1.784h-.621v2.372h.588c2.108 0 2.651-1.032 3.677-3.366l2.436-5.543c.122-.26.235-.28.359-.28.149 0 .319.04.319.34v8.85h2.373V14.54c0-1.595-.99-2.549-2.646-2.549l.004-.002zm10.041 0c-1.317 0-2.108.494-2.484 1.547l-3.907 9.95h2.584l.876-2.229h5.699l.846 2.23h2.597l-3.754-9.941c-.364-1.061-1.144-1.557-2.457-1.557zm1.919 6.994h-3.96l1.702-4.349c.072-.165.159-.225.324-.225.166 0 .245.057.303.214l1.633 4.358-.002.002zm22.183-6.994c-1.591 0-2.532.76-2.879 2.319l-1.513 6.62c-.094.377-.298.427-.488.427-.189 0-.391-.05-.485-.423l-1.514-6.623c-.338-1.518-1.354-2.32-2.942-2.32-1.766 0-2.819.996-2.819 2.662v8.837h2.34v-8.739c0-.298.178-.45.528-.45.293 0 .457.125.517.393l1.531 6.623c.363 1.592 1.289 2.367 2.829 2.367 1.541 0 2.403-.752 2.782-2.366l1.547-6.624c.062-.275.217-.391.517-.391.35 0 .528.151.528.45v8.739h2.34v-8.837c0-1.666-1.055-2.662-2.819-2.662v-.002zm15.127.192h-1.467c-2.966 0-4.705 1.568-5.045 4.538h-1.316V12.18h-2.358v11.305h2.358v-4.571h1.314c.308 2.992 2.048 4.57 5.047 4.57h1.467c3.335 0 5.1-1.945 5.1-5.628s-1.763-5.676-5.1-5.676zm-1.467 2.37h1.467c1.937 0 2.725.954 2.725 3.289s-.765 3.273-2.725 3.273h-1.467c-1.974 0-2.743-.918-2.743-3.273s.795-3.289 2.743-3.289zm16.163 3.257c.825-.509 1.244-1.343 1.244-2.485 0-1.997-1.4-3.142-3.841-3.142h-5.61v2.37h5.61c.934 0 1.388.362 1.388 1.109 0 .524-.168 1.06-1.404 1.06h-3.506v2.195h3.553c1.26 0 1.404.605 1.404 1.06 0 .766-.454 1.14-1.389 1.14h-5.672v2.372h5.672c2.395 0 3.825-1.174 3.825-3.142 0-1.18-.419-2.015-1.276-2.535l.002-.002zm12.179-5.819c-1.811 0-2.451 1.094-2.829 2.145l-3.137 6.904c-.108.22-.254.317-.472.317-.182 0-.4-.064-.4-.37V12.18h-2.357v8.884c0 1.661.987 2.613 2.709 2.613 1.823 0 2.475-1.155 2.83-2.144l3.139-6.911c.107-.23.253-.327.486-.327.251 0 .383.133.383.386v8.804h2.373v-8.9c0-1.626-1.018-2.597-2.725-2.597zm11.445 5.73c.599-.383 1.053-.945 1.489-1.821l1.863-3.715h-2.557l-1.707 3.37c-.545 1.064-.741 1.216-2.547 1.216h-.799v-4.586h-2.358v11.305h2.358v-4.522h.799c2.031 0 2.264.163 2.784 1.184l1.708 3.338h2.639l-1.915-3.75c-.518-1.015-.968-1.654-1.759-2.017l.002-.002zm10.935-5.73c-1.547 0-2.011.792-2.592 2.098l-2.359 5.243c-.777 1.708-.973 1.784-1.537 1.784h-.621v2.372h.588c2.108 0 2.65-1.032 3.677-3.366l2.436-5.543c.122-.26.234-.28.358-.28.149 0 .32.04.32.34v8.85h2.373V14.54c0-1.595-.99-2.549-2.646-2.549l.003-.002zm12.498 1.557c-.363-1.061-1.143-1.557-2.456-1.557s-2.11.494-2.485 1.547l-3.906 9.95h2.583l.878-2.229h5.699l.846 2.23h2.597l-3.754-9.941h-.002zm-.537 5.435h-3.962l1.701-4.348c.072-.165.159-.226.325-.226s.245.057.303.214l1.633 4.359v.001z" fill="#15112B"/><path d="M150.788 32.945h3.334v-1.098h-3.334c-2.614 0-3.94 1.489-3.94 4.424 0 2.935 1.326 4.407 3.94 4.407h3.334v-1.1h-3.334c-1.942 0-2.847-1.051-2.847-3.307 0-2.256.905-3.326 2.847-3.326zm5.083-1.096v1.098h2.72v7.733h1.105v-7.733h2.719V31.85h-6.544zm13.429.865c-.246-.723-.748-1.031-1.679-1.031s-1.452.308-1.708 1.03l-3.128 7.968h1.217l.761-1.929h5.58l.066.173.664 1.756h1.235l-3.009-7.967h.001zm-4.142 5.022l.144-.37 1.587-4.054c.139-.322.387-.49.718-.49.332 0 .585.171.705.495l1.656 4.419h-4.81zm12.243-4.791h3.334v-1.098h-3.334c-2.612 0-3.937 1.489-3.937 4.424 0 2.935 1.325 4.407 3.937 4.407h3.334v-1.1h-3.334c-1.942 0-2.848-1.051-2.848-3.307 0-2.256.906-3.326 2.848-3.326zm11.587-.231c-.246-.723-.748-1.031-1.679-1.031s-1.45.308-1.708 1.03l-3.128 7.968h1.221l.753-1.929h5.586l.065.173.665 1.756h1.234l-3.009-7.967zm-4.142 5.022l.144-.37 1.587-4.054c.142-.324.39-.49.718-.49a.72.72 0 01.709.495l1.651 4.419h-4.809zm18.927-5.888v4.901h-3.067c-1.258 0-1.951-.668-1.951-1.88v-3.02h-1.122v3.143c0 1.93.946 2.866 2.893 2.866h3.247v2.82h1.107v-8.831h-1.107v.001zm10.7.001l-3.244 5.482-.231-.396-2.861-5.086h-1.214l3.725 6.483-.236.384c-.418.672-.758.864-1.525.864h-1.319v1.1h1.044c1.573 0 2.15-.338 2.939-1.725l4.152-7.106h-1.23zm9.662 0v3.819h-5.294v-3.82h-1.095v8.832h1.095v-3.915h5.294v3.915h1.106v-8.83h-1.106zm11.363-.169c-1.043 0-1.607.437-2.011 1.56l-2.726 6.004c-.179.357-.469.544-.837.544-.489 0-.817-.32-.817-.795v-7.144h-1.095v7.211c0 1.17.648 1.786 1.873 1.786 1.04 0 1.603-.436 2.01-1.557l2.726-6.004c.17-.364.463-.558.849-.558.482 0 .807.325.807.812v7.142h1.105v-7.228c0-1.16-.652-1.77-1.884-1.77v-.002zm9.415 4.507l.147-.177 3.602-4.161h-1.303l-3.122 3.603-.201-.244-2.776-3.36h-1.281l3.554 4.218-.152.173-3.787 4.44h1.309l3.297-3.87.202.244 3.011 3.626h1.283l-3.788-4.492h.005zm13.211-4.507c-1.043 0-1.605.437-2.009 1.56l-2.726 6.004c-.179.357-.469.544-.837.544-.491 0-.821-.32-.821-.795v-7.144h-1.091v7.211c0 1.17.646 1.786 1.868 1.786 1.043 0 1.608-.436 2.011-1.557l2.728-6.004c.171-.364.464-.558.85-.558.483 0 .808.325.808.812v7.142h1.105v-7.228c0-1.16-.652-1.77-1.886-1.77v-.002zm11.043.169v3.819h-5.296v-3.82h-1.092v8.832h1.092v-3.915h5.296v3.915h1.105v-8.83h-1.105zm9.662.865c-.248-.723-.751-1.031-1.682-1.031-.93 0-1.446.308-1.706 1.03l-3.128 7.968h1.219l.757-1.929h5.583l.065.173.663 1.756h1.236l-3.009-7.967h.002zm-4.143 5.022l.144-.37 1.587-4.054c.139-.322.387-.49.719-.49.331 0 .586.171.705.496l1.654 4.418h-4.809z" fill="#262433"/></g><defs><linearGradient id="paint0_linear_2037_2249" x1=".004" y1="26.43" x2="138.833" y2="26.43" gradientUnits="userSpaceOnUse"><stop stop-color="#65C1F8"/><stop offset="1" stop-color="#BD9BFF"/></linearGradient><linearGradient id="paint1_linear_2037_2249" x1="19.588" y1="49.998" x2="21.403" y2="49.998" gradientUnits="userSpaceOnUse"><stop stop-color="#65C1F8"/><stop offset="1" stop-color="#BD9BFF"/></linearGradient><linearGradient id="paint2_linear_2037_2249" x1="99.588" y1="34.235" x2="99.965" y2="34.235" gradientUnits="userSpaceOnUse"><stop stop-color="#65C1F8"/><stop offset="1" stop-color="#BD9BFF"/></linearGradient><clipPath id="clip0_2037_2249"><path fill="#fff" d="M0 0h306.848v52.834H0z"/></clipPath></defs></svg>