<?xml version="1.0" encoding="UTF-8"?>
<svg id="_Слой_1" data-name=" Слой 1" xmlns="http://www.w3.org/2000/svg" xmlns:xlink="http://www.w3.org/1999/xlink" viewBox="0 0 829.24 301.72">
  <defs>
    <style>
      .cls-1 {
        fill: url(#_Безымянный_градиент);
      }

      .cls-2 {
        fill: url(#_Безымянный_градиент_2);
      }

      .cls-3 {
        fill: url(#_Безымянный_градиент_3);
      }
    </style>
    <linearGradient id="_Безымянный_градиент" data-name="Безымянный градиент" x1="0" y1="403.19" x2="829.24" y2="403.19" gradientTransform="translate(0 554.06) scale(1 -1)" gradientUnits="userSpaceOnUse">
      <stop offset="0" stop-color="#65c1f8"/>
      <stop offset="1" stop-color="#bd9bff"/>
    </linearGradient>
    <linearGradient id="_Безымянный_градиент_2" data-name="Безымянный градиент 2" x1="116.98" y1="263.22" x2="127.83" y2="263.22" gradientTransform="translate(0 554.06) scale(1 -1)" gradientUnits="userSpaceOnUse">
      <stop offset="0" stop-color="#65c1f8"/>
      <stop offset="1" stop-color="#bd9bff"/>
    </linearGradient>
    <linearGradient id="_Безымянный_градиент_3" data-name="Безымянный градиент 3" x1="594.76" y1="356.79" x2="597.01" y2="356.79" gradientTransform="translate(0 554.06) scale(1 -1)" gradientUnits="userSpaceOnUse">
      <stop offset="0" stop-color="#65c1f8"/>
      <stop offset="1" stop-color="#bd9bff"/>
    </linearGradient>
  </defs>
  <path class="cls-1" d="m535.26,256.74s-2.67-.43-3.72-1.12c-1.03-.69-4.32,2-6.04,2.6,0,0-7.82,5.48-15.93,11.93.49-.23.96-.47,1.42-.76,3.75.11,7.72-.95,11.07,1.25.32.22.7.47,1.08.5,4.16.36,8.31-.2,12.39,1.65,3.06,1.38,7.62-.07,10.67,2.27.2.16.83-.03,1.25-.01,1.59.03,2.66-2.33,4.26-.92,2.02,1.77,3.43-1.21,5.41-.03.46.27,1.03.47,1.66.62-6.13-6.01-16.09-15.01-23.51-17.97h-.01Zm-380.55-127.88c-1.91.03-3.16.65-3.37,2.22-.17,1.22.24,2.73-1.52,3.42-1.72.67-4.06,1.81-5.43,1.39-3.53-1.06-5.96,1.64-9.36.89-2.86-.62-5.61.47-8.41,1.49-2.87,1.06-6.78-.29-9.65,1.71-.53.37-1.58.39-2.4.42-4.26.11-9.07-.72-12.65.5-4.19,1.45-8.28,1-12.32,1.71-10.51,1.85-21.06,3.52-30.67,7.65-5.08,2.18-6.43,5.57-7.58,9.3-.32,1.05.85,2.27,1.61,1.85,4.11-2.2,9.13-2.71,13.49-4.44.19-.07.23-.36.29-.65,1.67.6,3.33,1.19,5,1.78.19,1.52-1.42,2.5-2.66,2.81-3.96,1-6.45,3.59-10,4.98-.3,1.21.44,3.13-1.41,3.34-4.05.44-6.67,2.47-9.93,3.83-2,.83-4.55,3.29-7.75,1.12-.19-.13-1.51.39-1.89.82-1.21,1.29-2.07,2.77-3.33,4.03-1.39,1.39-1.97,2.9-1.44,4.54.63,1.97,2.37,3.17,4.97,3.6.1-1.46-.24-3.19,2.31-3.65,4.44-.79,6.22-.2,8.28,2.14.93,1.03,1.97,2.02,3.09,2.94,1.12.93,3.27.66,4.22-.52.86-1.06,1.45-2.24,2.35-3.27,1.32-1.51,3.42-1.49,5.47-1.45-.01.06-.04.13-.06.19h.26c-.03.59-.11,1.19.06,1.75.17.57.7,1.08,1.08,1.61.4-.53.96-1.02,1.16-1.59.19-.56.09-1.19.07-1.79h.19s-.04-.09-.07-.13c3.8-.03,6.56,1.26,7.49,4.08.52,1.58,1.11,3.01,2.12,4.46,1.25,1.77.1,3.29-2.73,3.07-4.12-.3-7.18,2.28-10.94,1.92-4.19-.39-7.05,2.14-10.91,2.24-3.01.09-3.01,1.87-2.91,3.5.03.59.55,1.16.92,1.71.03.03.72-.11,1.02-.27,1.69-.96,3.43-2.81,5.05-2.74,4.46.17,8.04-1.92,12.19-2.14,3.82-.2,7.68-.11,11.51,0,1.34.03,2.24.79,2.48,1.85.3,1.29.65,3-1.19,3.4-2.87.6-4.98,2.28-8.2,2.54-2.73.22-5.34,1.64-7.88,2.68-.45.19-.4,1.16-.4,1.78,0,.24.4.59.73.69.75.24,1.55.49,2.34.5,6,.04,11.99-.04,17.97.1,2.34.06,3.9-1.11,5.83-1.46.99-.19,2.48,1.59,4.13.29.82-.66,1.44-.55,1.98.3.39.6-.43,2.47-1.25,2.41-4.42-.37-7.59,2.68-12.06,2.37-4.25-.3-7.72,2.11-12.2,2.08-3.99-.04-8.01,1.45-12,2.34-1.58.34-3.13,1.22-4.68,1.21-8.64-.09-15.99,3.32-24,4.91-4.26.85-7.74,2.89-9.93,5.67-1.32,1.68-2.28,3.17-4.85,3.96-1.13.34-1.18,1.65-.3,2.47,1.11,1.05,2.54,2.45,1.56,3.43-2.25,2.3-2.74,5.6-6.55,6.98-2.24.8-4.61,1.44-6.89,2.17-.37.13-.65.42-.96.63.52.36.99.95,1.56,1.02,2.05.27,4.36-.09,5.83,1.45.59.63,2.21.95,1.05,2.25-1.15,1.28-2.01,2.74-2.73,4.21-1.28,2.6-2.86,4.52-7.23,4.22-1.64-.11-2.37,2.35-.86,2.89,2.41.82,4.22,1.72,4.98,3.85.53,1.48,1.52,3.14,3.03,4.08,2.01,1.26,3.8-.5,5.64-1.13,2.3-.78,4.05,2.53,6.8.4,1.38-1.08,3.59-1.68,5.57-2.11,1.52-.34,3.82-.63,4.81-.03,2.61,1.58,5.41,1.68,8.43,1.68,1.81,0,3.36.4,3.4,2.12.04,1.62.27,3.32-2.67,3.7-.4.06-.78.24-1.15.37-1.05.39-.9,1.28.2,1.19,4.25-.3,2.71,3.76,6.03,4.25,2.41.37,4.77,1.29,6.85,2.31,1.25.59,1.95,1.84,2.9,2.8-1.18.29-2.34.59-3.53.83-.4.09-.95-.09-1.26.06-.53.24-.95.65-1.41.99.34.2.67.53,1.03.56,1.26.09,2.55.07,3.83.09,3.85.04,7.71.19,11.56.04,2.73-.1,4.85.53,7.08,1.68,1.91.98,2.99.19,2.44-1.94-.19-.73-.56-1.22.7-1.33,2.11-.17,4.25-.13,6.37-.26,3.75-.23,7.39-.1,11.18-1.35,3.3-1.08,7.52-.55,11.35-.7,4.05-.19,8.07.22,11.97-1.44-4.98-3.1-11.04-9.1-6.03-21.12,0,0,10.62-16.01,22.62-26.35,0,0,10.35-10.48,13.79-12.27,0,0-2.34-1.65-2.89-2.9-.56-1.23-6.36-4.13-7.05-10.08,0,0-2.61-.27-4.41,1.11-1.79,1.38-4.69,5.94-9.1,3.86-4.42-2.07-5.53-4.13-4.56-6.06.98-1.94,4.42-9.8,4.42-9.8,0,0-2.21-1.23-.42-2.9,0,0,.96-.96,2.21-.27l2.07-2.9s-2.34-1.65-1.94-1.65,1.25-.27,1.25-.27c0,0-2.48-2.48.42-2.9,0,0-3.44-3.03,1.92-3.59,0,0-2.48-2.07.14-3.59,2.63-1.51,4-2.61,7.45-2.9,0,0,2.21-8,4-12.55s5.66-11.04,8-10.35l17.05-33.07c-3.75.04-7.49.07-11.23.11l.05.02Zm14.04,169.81s.83-.83-6.76-1.52-19.72-1.79-22.08-2.07c-1.72-.2-8.99-.93-14.28-2.12-1.39.67-2.8,1.41-4.16,1.38-6.66-.13-13.58,1.78-20-1.15-.66-.3-2.2-.47-2.35-.27-2.17,2.76-6.59,1.08-9.19,2.77-.88.57-1.45,1.42-2.17,2.15.79.2,1.56.57,2.35.59,9.42.09,18.83.11,28.25.16.85,0,1.75-.17,2.56-.03,3.63.66,6.14-2.67,9.72-1.65,3.13.89,6,2.38,9.19,3.14,2.35.56,5.02.53,7.56.53,7.64,0,15.26,0,22.9-.01-.44-.49-.95-1.11-1.54-1.89h0Zm13.61-171.53c-1.19.13-2.37.39-3.55.92-1.48.67-3.62.57-5.57.59-4.25,8.66-10.21,21.01-11.1,24.03.33-.52,5.71-8.8,7.71-12.66,0,0,.96-.56,2.48,0,0,0,6.76-.14,7.58-1.25.83-1.11,1.39-2.76,5.11-2.61l2.21-.83s-3.01-4.67-4.88-8.18h.01Zm.6,139.08c-3.44-12.96-9.24-20.56-9.24-20.56,0,0-10.62,8.43-13.67,11.45-3.03,3.03-12.4,9.52-13.92,9.93-1.52.42-5.93,4.69-5.93,4.69,0,0,5.93.55,9.1,1.65s12.27,4.82,17.51,6.07c5.25,1.23,8.28,3.3,12.83,3.45s9.66.42,13.11.14c0,0-6.34-3.86-9.79-16.84v.02Zm11.45-139.37c.85,1.22,1.84,2.56,3.03,4.03l2.01-4.15c-1.68.03-3.36.07-5.04.11h0Zm633.46,111.51c-1.35-.65-3.19-.72-3.6-2.21-1.03-.46-2.04-.96-3.11-1.35-1.54-.55-2.17-3.33-4.68-1.41-2.05,1.55-3.23-2.14-5.04-.23-.67.72-1.25.63-2.01.16-2.94-1.85-3.72-6-9.33-5.12-.33.06-1.21-.89-1.36-1.44-.27-.93-.24-1.92-.24-2.89-.03-2.58.23-2.73,4.39-3.45,1.13-.2,2.31-.52,3.26-1,.8-.43-.26-2.63-1.68-3.26-1.42-.65-3.13-.98-4.38-1.75-2.11-1.31.43-1.38,1.11-1.61,1.21-.42,2.48-.79,2.38-1.88-.09-.86-.67-1.77-1.31-2.53-.57-.67-.55-1.22.66-1.29,2.3-.14,5.1-.95,6.04,1.69.69.26,1.64.44,1.87.86.79,1.41.86,3.07,3.78,3.16,1.62.04,3.29.53,4.77,1.08,1.66.62,3.43,1.13,4.34-.32.65-1.03.62-2.58.14-3.7-.92-2.11-4.44-2.94-4.84-5.56-.22-1.36-1.61-.59-2.66-.17-3.19,1.31-6.59,1.26-9.57-.11-1.98-.92-3.93-1.02-6.03-1.22-.5-.04-.9-.67-1.35-1.03.76-.23,1.52-.5,2.3-.69.4-.09.86,0,1.28-.09,2.91-.52,2.91-1.65,3.72-3.01,1.05-1.81-5.91-3.42.26-5.07,2.58-.69,4.39-.88,6.67.06.52.2,1.54-.27,2.3-.49.03,0-.06-.52-.24-.7-.52-.5-1.13-.95-1.68-1.45-.82-.75-1.81-1.42-2.38-2.27-1.89-2.8-1.84-2.89-6.16-2.74-2.41.09-3.96-.86-5.51-2.04-.85-.66-.96-1.09-.03-1.46,1.44-.59,3.03-1,4.28-1.77.65-.4,2.6-1.19.66-2.12-4.22-2.02-8.54-3.96-12.83-5.9-1.06-.49-2.99-.72-3.19-1.33-1.75-5.14-6.96-4.95-12.17-4.79-3.49.1-5.76-3.03-9.57-2.05-.17.04-.78-.75-1.02-1.19-.06-.09.57-.57.92-.59,2.12-.09,4.26-.03,6.39-.19.5-.03.95-.72,1.32-1.15,0-.07-.55-.55-.89-.6-1.09-.22-2.43-.19-2.6-1.28,0-.2,1.38-.67,2.11-.69,2.97-.09,5.89-.16,8.5,1.41,1.56.92,3.24.14,4.48-.85,1.09-.9,2.4-.72,3.46-.26,1.42.62,2.37,1.35,4.34.5.95-.42,2.89.56,4.41.79,1.44.23,2.66-.69,2.3-1.67-.2-.56-.59-1.45-1.05-1.51-4.97-.63-9.42-2.91-14.68-2.51-3.89.3-6.76-2.51-10.95-1.95-3.32.46-6.85.29-10.23,0-4.11-.33-7.72-2.07-12.14-2.02-4.46.03-8.66-1.85-13.29-2.31-3.9-.39-7.54-2.6-11.2-4.15-4.44-1.87-8.94-3.6-14.18-3.04-2.97.32-4.45-1.74-6.95-2.04-2.48-.3-5.11.34-7.46-.83-1.02-.5-2.28-.86-3.47-.96-4.64-.42-9.69.78-13.85-.96-4.09-1.69-8.94,0-12.24-1.74-4.16-2.2-9.43-.19-13.22-2.9-.96-.69-3.27-.26-4.95-.4-5.37-.49-10.97.75-16.12-1.77-1.52-.75-4.18-.2-6.32-.2-5.99-.03-12.01-.42-17.94.04-5.76.44-10.54-1.92-15.93-2.28-.36-.03-.75-.36-.96-.62-.07-.07.33-.5.62-.6,2.28-.76,4.49-1.85,6.88-2.14,3.34-.4,6.88-.52,10.22-.17,3.76.39,5.96-2.45,9.6-2.11,2.08.22,4.25-.06,6.37-.17.36-.01.69-.36,1.03-.55-.47-.34-.93-.96-1.44-.98-1.97-.07-2.97-1.13-4.13-2.05-.29-.23-.76-.65-.66-.79.3-.44.82-1.09,1.28-1.12,3.85-.16,7.69-.16,11.54-.32.39-.03.79-.7,1.03-1.13.04-.09-.6-.57-.93-.59-4.28-.03-8.54-.01-12.82,0-2.78.01-3.56,1.23-3.4,3.14.13,1.42-.55,2.5-2.76,2.53-5.57.06-11.12.14-16.68.19-2.12.03-2.08-.03-7.48-3.6-.9-.59-2.38-.66-3.3-1.25-.47-.3-.59-1.21-.43-1.78.26-.86,1.06-1.05,1.77-.53,1.64,1.21,3.62,1.39,5.73,1.18.79-2.58,3.8-1.59,5.97-2.04,1.87-.39,1.06-1.36.29-2.01-.9-.75-.88-1.32.42-1.31,4.98.03,10.12-1.25,14.87,1,.65.3,1.85.53,2.35.29,2.63-1.26,5.14-2.4,7.94-.3,2.38-1.44,4.45-.09,6.69.33,1.62.29,3.76.56,5.04.01,4.56-2,8.67.99,13,.34,5.7,2.05,11.89,3.2,17.96,3.59,5.93.37,11.17,2.57,17.25,2.53,3.89-.03,8.02,1.49,11.64,2.91,4.44,1.72,9.23,2.78,13.82,3.98,4.11,1.06,9,.4,13.56.43-.29-.53-.53-1.26-.95-1.33-2.05-.3-4.18-.34-6.26-.53-2.48-.2-3.43-1.32-1.98-3.34,1.05-1.45.56-2-.55-3.11-1.51-1.52-5.15-.88-5.54-3.32-1.28-.69-2.58-1.36-3.82-2.11-1.34-.8-2.51-1.65-4.42-1.68-4.22-.06-8.5,0-12.24-1.88-8.15.82-15.6-2.45-23.73-2.37-4.48.06-8.97-1.42-13.35-2.3-3.29-.65-6.5-1.55-9.82-1.29-4.11.33-7.19-1.55-10.79-2.25-.36-.07-.63-.43-.95-.65.63-.33,1.23-.93,1.88-.96,5.12-.14,10.25-.14,15.37-.27.78-.01,1.52-.43,2.28-.66-1-.32-2-.89-3-.9-5.97-.1-11.96-.16-17.94-.06-4.16.07-7.74,2.24-12.22,1.85-4.22-.34-8.53-.04-12.8.04-1.23.01-2.63.04-3.69.46-6.6,2.56-12.9,1.62-19.38-.44-1.87-.6-3.92-1.15-5.89-1.54-5.61-1.15-11.08-2.89-17.18-2.53-4.15.24-8.24.1-12.27-1.67-2.3-.99-5.84-.29-8.83-.42-.34-.01-.69-.36-1.02-.56.4-.37.78-1.05,1.21-1.06,4.59-.17,9.29.26,13.42-1.94.37-.2,1.46.37,2.21.6.7.2,1.74.75,2.04.56,1.49-.89.62-3.3,3.79-3.27,2.07.03,4.15-.26,6.22-.46.27-.03.49-.39.75-.6-.33-.2-.63-.55-.99-.6-1.23-.16-2.5-.2-3.73-.32-.4-.04-.8-.14-1.13-.3-.37-.16-.66-.42-.98-.63.29-.23.52-.55.88-.66,6.89-2.2,13.71-4.34,21.5-4.28,20.5.16,41.01.04,61.52.03,2.11,0,4.32.22,5.89-1.28.53-.5,1.06-1,1.58-1.51-.55-.33-1.08-.89-1.67-.93-1.69-.16-3.42-.1-5.12-.11-2.14-.03-4.28.07-6.4-.06-2.93-.19-6.14.63-8.71-.8-2.15-1.21-6.22-.82-6.2-4.09,0-.3-2.15-.83-3.3-.86-8.56-.13-17.14-.57-25.62-.04-5.43.34-9.66-2.17-14.74-2.15-.43,0-.88-.69-1.31-1.06.33-.2.66-.57.99-.57,5.12-.1,10.25-.16,15.36-.2,1.19,0,2.35-.07,2.64-1.12,0-.11-1.39-.55-2.17-.65-2.05-.27-4.12-.43-6.19-.67-.23-.03-.62-.49-.55-.57.2-.27.56-.59.93-.65,1.62-.26,3.32-.32,4.88-.7.55-.13,1.09-.99,1.09-1.52.03-1.12-.6-1.68-2.22-.95-2.93,1.32-5-1.39-8.04-.98-2.81.39-5.9-.19-8.83-.49-.4-.04-.67-.8-.99-1.33.75-.03,1.49-.03,2.22-.11,1.06-.11,2.9.11,1.78-1.42-.6-.83-1.79-1.39-2.56-2.17-.59-.6-2.25-1.65-.13-2.01,6.09-1.03,12.33-3.46,18.45-1.87,10.36,2.67,20.8,1.23,31.21,1.52-.06-.99-.92-1.49-2.14-1.69-3.63-.62-7.35.2-11.14-1.26-3.14-1.21-7.32-.85-11.02-1.28-1.02-.11-1.03-.76-.06-1.36.93-.57,2.35-1.74,2.86-1.55,6.49,2.47,13.35.88,20.01,1.23,1.26.06,2.56.06,3.82-.06.79-.07,2.07-.27,2.21-.63,2.01-5.18,7.64-2.37,11.61-3.13.53-.1.89-.72,1.32-1.09-.33-.2-.69-.6-.99-.57-4.35.34-8.15-.98-11.96-2.24-.47-.16-.67-.76-1-1.16.76-.23,1.51-.52,2.3-.65.82-.13,1.75.06,2.53-.16.55-.14.92-.7,1.36-1.08-.33-.22-.62-.57-.98-.6-1.25-.14-2.55-.09-3.79-.27-1.21-.19-1.98-.8-2.22-1.75-2.81-.29-5.57-.16-8.38-1.31-4.68-1.91-9.79-3.27-14.86-4.55-1.95-.5-3.93-.78-5.84-1.54-4.02-1.61-8.1-3.46-12.45-4.18-4.45-.73-9.26-.24-13.92-.29-2.11-.03-4.23.04-6.33-.1-1.28-.1-2.3-.67-2.37-1.81-.06-.96-.22-1.94-.1-2.9.33-2.45-1.79-3.6-4.55-2.1-2.78,1.52-5.53,1.56-8.1.04-2.31-1.36-4.39-2.47-7.51-3.06-4-.78-7.77-2.05-12.03-1.78-1.21.09-2.43,0-3.65-.03-.23-1-1.09-1.64-2.35-1.69-3.83-.14-7.68-.14-11.53-.22-1.69-.03-3.88.4-5.01-.23-5.38-3.04-10.32-.57-15.56.04-2.34.27-4,2.38-6.69,1.25-2.7-1.13-4.59.83-6.46,1.48-2.34.8-3.49.4-5.41-.3-1.51-.55-3.14.13-3.57,1.64-.83.06-1.68.1-2.51.16-.33.55-.65,1.32-1.02,1.33-5.05.2-10.12.27-15.19.37-3.86-2.74-9.36-.73-13.16-2.33-4.55-1.92-9.03-1.32-13.58-1.55-2.97-.16-5.07-2.15-8.35-1.82-2.9.3-5.91-.13-8.89-.23-1.89-2.68-5.53,1.05-7.55-1.18-5.07-.17-10.13-.5-15.2-.44-4.55.04-9.23-.9-13.58,1.39-1.46.78-4.12.3-6.23.33-5.53.06-11.07.06-16.59.1-2.14,0-4.28,0-6.39.11-2.5.14-5.41-.72-7.36.76-2.08,1.56-3.72-1.32-5.45.03-1.68,1.31-3.04-.69-4.22-.33-1.51.47-2.43,1.22-4.25.2-1.18-.66-3.17-.59-4.81-.62-5.54-.13-11.08-.07-16.61-.24-2.9-.09-6.03.67-8.66-.79-2.67-1.51-4.95,1.91-7.98.03-2.38-1.48-5.15.88-8.11.8-10.21-.26-20.44,0-30.66.09-1.28,0-2.58-.11-3.82.06-1.15.17-2.67.44-3.2,1.08-.57.67-.34,1.75-.4,2.68-2.1.2-4.08.06-5.7-1.18-.69-.53-1.68-.33-1.75.52-.17,2.12-1.72,2.57-4.18,2.6-5.87.06-11.83-.37-17.31,1.94-.99.42-2.53.14-3.79.04-.78-.06-1.51-.4-2.27-.62.36-.4.6-1.05,1.08-1.15,3.14-.7,5.68-2.81,9.34-2.33.29.03.66-.37.99-.57-.5-.36-.99-1-1.54-1.03-1.69-.11-3.72-.43-5.07.11-5.94,2.43-12.3,1.67-18.56,1.85-2.93.09-5.8-.13-8.61,1.15-1.65.75-4.11.59-6.19.6-4.65.03-9.03.66-13.59,1.61-4.32.9-8.91,1.36-13.38,2.21-5.51,1.05-8.33,4.16-11.67,6.99.57.36,1.12.98,1.75,1.03,1.25.11,2.94.3,3.75-.19,5.12-3.2,11.6-3.47,17.53-4.89,4.35-1.05,8.86-1.68,13.26-2.5,4.84-.9,10.18-.27,15.3-.27.33,0,.69.34.99.56.57.42.37.96-.72,1.28-6.62,1.87-13,4.44-20.4,4.09-2.64-.11-4.91,2.02-8,.56-.79-.37-3.13.72-4.42,1.48-1.88,1.11-3.49,1.58-5.35.13-1.61,1.06-3.2,2.12-4.81,3.17-2.73-2.01-5.05.36-7.59.4-3.42.04-7.13-.56-10.15.3-2.76.78-5.58,1.18-8.25,1.89-7.69,2.05-16.16,3.55-19.65,10.42-.99,1.94-3.5-1.03-3.78-.19-1.08,3.36-4.85,2.76-7.68,3.72-4.49,1.55-9.5,2.21-13.09,5.4-3.04,2.7-7.48,3.99-12.45,3.76-1.69-.09-3.42.17-5.11.09-6-.29-11.58.47-16.81,2.94-2.02.96-4.67,1.15-6.93,1.87-.37.13-.62,1.52-.3,1.71,1.59.9,3.52,1.51,5.08,2.44.82.49,1.77,1.61,1.54,2.18-.32.79-1.59,1.81-2.63,1.92-3.32.39-6.73.66-10.06.5-3.62-.17-6.62.7-9.62,1.98-1.69.72-2.93,2.18-2.37,2.81,1.22,1.38,2.05-.01,3.07-.1,6.63-.57,12.76-3.29,19.67-2.73,2.68.23,4.87-.63,7.18-1.54.67-.27,2.9.44,3.07.95.6,1.84.36,3.76,2.18,5.43.37.36-1.16,1.89-1.95,2.97-2.73.07-5.47.07-8.18.27-1.12.07-1.79.75-1.91,1.64,1.48.03,2.96.07,4.44.04,1.87-.04,2.68.78,3.11,1.94,4.21-.01,8.41-.03,12.62-.03,8.83-3.42,18.3-1.32,27.47-1.85.76-.04,1.59.24,2.35.46.3.09.49.4.73.6-.33.22-.65.59-.99.6-7.51.24-14.47,3.2-22.25,2.31-5.12-.59-10.12.44-14.3,2.71-2.28,1.23-4.97.63-7.11,1.69-.24.11-.56.49-.5.56.24.26.6.59.96.6,2.1.14,4.22.14,6.32.34.6.06,1.65.75,1.58.95-.22.57-.78,1.19-1.44,1.52-1.02.52-2.2,1.06-3.36,1.13-2.96.19-6.01-.16-8.91.24-6.5.9-13.09,1.71-19.18,3.83-.66.23-1.18.7-1.77,1.06.7.3,1.38.82,2.1.86,1.69.1,3.72.42,5.05-.14,6.8-2.78,14.08-1.38,21.16-1.78,2.3-.14,3.9,1.08,5.77,1.44,5.33,1.02,10.98,1.02,16.12-.37,2.48-.67,4.77-1.11,7.28-1.09,8,.01,15.99.07,23.99.11-.27.53-.5,1.29-.9,1.35-4.05.56-8.01.98-11.99,2.17-3.33.99-7.61.7-11.33.29-4.52-.5-7.77,2.27-12.14,1.98-3.73-.24-7.39-.1-11.05,1.36-2.4.96-5.77.5-8.71.69-1.38.09-2.21.62-2.56,1.69-.39,1.28.7,1.71,1.89,1.97.79.17,1.71,0,2.53.11,2.8.42,3.37,1.06,3.13,3.23-.23,2.07-.8,2.5-4.05,2.61-1.23.04-2.45.07-3.69.11-.33.52-.59,1.23-1.08,1.33-3.65.76-7.41.82-10.98-.11-1.51-.4-3.06-1.74-4.51-.95-2.3,1.28-4.36,2.91-6.09,4.65-.22.23-.34.3-.42.34.17-.07.57-.11,1.11.36,1.05.96,2.34,2.47,4.03,1.81,6.78-2.63,13.97-1.29,20.97-1.58,1.15-.04,1.95.79,2.15,1.77,2.05.03,3.93.26,5.8,1.23,1.22.65,3.8,1.11,4.72.59,3.95-2.27,6.67-1.51,9.8.99,1.64,1.32,4.28,2.02,6.63,2.64,1.49.4,3.8.65,4.85.06,3.5-1.97,7.33-1.23,11.07-1.45,4.15-.24,8.47.63,12.3-1.62,2.31-1.35,5.11,2.54,7.74,0,2.1.96,5.02,1.56,6.07,2.97,1.21,1.61,2.12,2.51,4.58,2.5,9.82-.09,19.64-.22,29.44-.06,2.78.04,4.71-1.56,7.15-1.52,1.97.03,4.54,1.71,5.77,1.19,2.21-.93,4.46-1.35,6.75-1.51l4.98-9.66s-4.15-3.59-.56-7.03c0,0-.42-6.07.56-7.45.96-1.38,2.07-.83,2.07-.83,0,0,0-2.21,3.17-2.21,0,0,.42-1.79,3.72-.96l7.32-13.94s-.98-.96.4-1.65c0,0-2.61-1.79,2.9-2.07l8.41-9.93s-.82-.96.83-.96l2.48-2.9s-.55-1.25.83-.83l2.76-2.9-.83-.55.69-.96.69.55,2.63-3.03-.83-.56.69-.69.98.56,2.61-2.63-1.23-.96.69-.98.96,1.11,5.66-6.62,2.76,4-1.65,2.61,1.65.14s-.27,2.76-1.23,3.45c0,0-2.63-.83-.96,1.38l-2.21,1.67s-2.07.27-2.07,1.78,1.51,4.15-1.94,2.9l-1.23,1.25s.55,4.28-2.21,2.61l-.83,1.25s1.38,4.13-2.21,1.92l-1.23,1.52s2.9,3.59-1.25,2.76l-2.61,2.63s-1.38-1.79-2.21-.27c0,0-4,2.48-6.89,7.87-2.8,5.18-5.35,9.63-5.51,9.92.17-.09,1.46-.6.82,4.84-.69,5.8-.42,10.75-.42,14.9,0,2.66.11,5.15,2.1,8.97,1.35-.01,2.7-.03,4.05-.01-1.05-1.12-2.07-2.4-2.7-3.57-1.44-2.76,2.21,1.98,3.22,3.27-1.03-1.45-5.25-7.59-5.01-10.87,0,0,3.17,9.66,8.43,9.79,0,0-5.48-7.29-6.14-10.46,0,0,3.1,5.91,6.14,6.75,0,0-2.35-3.59-2.48-5.38,0,0,1.09,1.11,4.41.56,0,0-11.17-2.63-11.17-8.56,0,0,1.38,3.45,4.55,4.55l-2.76-3.73s7.03,5.8,10.62,3.04c0,0-5.11-2.21-1.79-10.21,0,0-.69,9.23,3.03,9.1,0,0-3.59-6.07-1.11-8.97,0,0-1.23,4,.56,5.8,0,0,1.65-5.93,1.92-8.14v5.93l3.32-6.34-.69,4.13,3.86-6.89-.27,4.69,1.11-1.52s1.51,1.11,1.51,3.86c0,0,2.21-1.94,4.55-1.94,0,0-.13-1.65-2.76-1.38l2.21-.55-2.63-.42,2.77-.55-3.73-.56s5.24-3.44,10.21-.27l-2.61-2.63,3.86,1.11-.96-1.92,3.17,1.11-1.39-1.94,2.48.69-.69-1.52,3.59,1.25-1.65-2.9,2.34,1.52-.82-2.21,2.48.96.13-2.48.98,1.94.4-4.15,1.79,3.88.42-3.19,2.63,6.63.13-3.17.98,2.48.27-2.76,2.21,2.34-.42-3.45,1.11,3.17.27-3.32.96,4.13,1.25-1.65s2.89,2.63,1.11,7.18c0,0,1.78,3.03.27,7.58l-.14,2.63,2.76-6.07s.42,5.8-3.3,9.66c0,0,.27,4.55-5.11,7.31,0,0,1.94.27,1.38,4.42-.55,4.13,1.52,4.55,2.76,7.31,1.25,2.76.69,3.32.29,7.03-.34,3.04-.76,7.08-.92,8.47.09-1.31.23-4.98-.88-8.33l-.69,7.18-1.38-5.38s-1.66,6.62-.42,11.58c0,0-2.21-1.92-1.79-6.76,0,0-2.76,4.55-2.48,7.87,0,0-1.94-2.48.55-7.31,0,0-1.92,1.92-3.59,6.75-1.65,4.84-3.86,5.94-3.86,5.94,0,0,2.76-4.42,3.17-9.8,0,0-5.66,11.31-8.41,12.42l3.03-4.68-3.45,3.17,1.91-4.11c-.33.49-2.97,4.41-4.52,4.92,0,0,1.92-4.13,1.92-9.1l-1.65,5.24-.14-5.24s0,3.86-.27,4.28-.83-2.07-.83-2.07l-.4,3.17-.7-3.45-.69,2.07-.55-4.97-1.79,4.28s0-3.04.69-4.97c0,0-1.65-.14-2.07,4.13-.42,4.28-.56,12.14-2.9,15.32-2.34,3.17-6.2,5.1-9.24.96,0,0-10.21,12.69-10.35,14.76-.13,2.08-.96,3.86-.4,4.69.55.83,2.34,2.34,3.57,5.53,1.25,3.17,4,9.1,4.42,11.44.42,2.35.27,5.38.69,7.72.42,2.35,1.25,4.69,1.25,5.94s2.48.27,1.09,3.03c-1.38,2.76,1.79,1.38-.55,4-2.34,2.61-3.03,4-3.03,4l2.76,21.93s2.21.13,1.38,2.76c-.83,2.61,0,2.07.27,3.86,0,0,.96,1.79.42,3.17,0,0,1.52-.56,2.07,2.07,0,0,1.25-3.45,2.9-2.21,1.65,1.25.27,1.11,3.59-.4,3.3-1.52,8.14-4.98,31.03-5.25,22.9-.27,18.76-1.79,19.32,1.25.55,3.03,1.92-.14,3.57-1.52,1.67-1.38,4.15-1.65,5.53.14s2.9-1.52,5.51-.14c0,0,.56-1.11,2.9-2.63,0,0,2.07-3.72,4.97-3.45s5.38,3.32,12.83,6.49c7.45,3.17,18.07,10.89,21.1,22.9,0,0,.42,3.86-2.9,4.55-3.3.69-4.13.42-4.13.42,0,0-2.61-1.92-5.66-1.92s-7.18-1.52-7.18-1.52c0,0-1.23,1.11-3.44-.55-2.21-1.67-1.11-1.79-5.38-2.63s-6.89-1.94-6.89-1.94c0,0-1.52,1.25-4.69.42,0,0-2.63,1.67-6.76.27,0,0-6.49,4.15-16.97,2.77s-33.39,5.93-44.14,7.03c-10.77,1.11-14.48,1.65-14.48,1.65,0,0,.69,3.32-1.25,6.9-.9,1.68-1.69,5.01-2.27,8.2,2.87-.01,5.74-.01,8.6-.06,2.99-.03,5.96-.09,8.94-.13,1.79-2.71,4.85.16,7.48-1.05,3.66-1.69,8.3-.57,12.52-.55.63,0,1.72.66,1.79,1.09.44,2.41,1.66,2.44,3.98,1.13,1.31-.75,2.93-1.35,4.51-1.56,1.31-.17,3.65.78,4,.39,2.02-2.11,3.98,1.09,6.46-.27,1.88-1.03,5.08,1.95,7.88.82,2.27-.93,4.23-1.98,7.05-1.81,2.97.19,6.06-.32,8.96.09,2.51.33,3.85-2.4,6.8-.89,1.54.79,3.88-.42,6.39.47,2.68.93,5.71-2.43,9.36-1.65,2.38-1.62,5.18-1.82,8.28-1.85,5.33-.06,10.81.66,15.88-1.33,3.04,2.24,5.12.7,7.56-.86,2.54-1.62,5.35-2.93,8.51-3.44.72-1.36,1.39-2.74,2.05-4.12,3.88-8.18,4.52-17.25,5.94-26.08.22-1.35.22-2.73.3-4.11.17-2.64.22-5.28.53-7.91.95-8.11,5.18-14.6,10.59-20.4,1.69-1.84,2.05-3.1.43-4.94-1.44-1.64-3.06-3.17-4.84-4.39-2.83-1.94-4.39-4.41-4.49-7.85-.03-.73-.59-1.44-.89-2.15-.42-1.02-.96-2.01-1.21-3.06-.2-.9-.03-1.88-.03-2.77-1.44-.11-2.66-.16-3.88-.3-3.96-.47-7.05-2.01-8.14-6.3-.2-.82-1.36-1.38-2.08-2.07-.13-.13-.33-.29-.33-.42.11-1.89-1.36-1.74-2.53-1.98-2.31-.5-3.98-1.64-4.69-4.08-.82-2.83-2.04-5.41-3.95-7.81-1.59-1.98-2.25-4.69-3.32-7.11-.07-.17.01-.42-.03-.62-.49-2.58-.96-5.2-1.51-7.78-.09-.43-.46-.85-.8-1.16-2.67-2.45-4.38-5.43-5.22-8.94-.07-.3-.3-.59-.5-.85-3.13-4.06-2.31-8.21,1.16-10.69.75-.55,1.42-1.18,2.63-2.18-1.77-1.15-3.22-2.07-4.67-3.01-1.74-1.13-4.12-1.91-5.07-3.52-1.19-2.02-2.71-3.55-4.31-5.1-.69-.67-1.42-1.33-1.94-2.14-.36-.55-.36-1.33-.53-2.01.73-.04,1.56-.34,2.15-.09,1.03.47,1.95,1.26,2.89,1.95.73.56,1.41,1.16,2.11,1.75-.16-.73-.59-1.15-.95-1.64-1.19-1.59-2.45-3.14-3.47-4.84-.29-.49.13-1.39.23-2.1,1.88.67,4.22-.37,5.77,1.52.43.53.8,1.11,1.15,1.56.26-1.13.46-1.98.65-2.83.83.57,1.78,1.03,2.45,1.75.57.6.85,1.51,1.38,2.54.39-1.52.89-2.73.99-3.95.24-2.89-.06-5.84.52-8.64.83-4.13,2.17-8.14,5.89-10.87,1.85-1.33,3.16-3.44,5.74-3.62.27-.01.55-.4.76-.66,1.21-1.45,2.73-1.41,4.03-.42,1.21.93,2.21.85,3.4.23,2.66-1.39,5.11-.76,7.25,1.03,1.19,1,2.15,2.3,3.14,3.52.66.79,1.03,1.87,1.79,2.5,2.28,1.87,3.36,4.02,2.24,6.95-.06.17-.1.49,0,.6,1.75,1.79.63,4.08.95,6.1.36,2.25.66,4.74-1.58,6.47-.24.19-.39.57-.47.89-.72,2.63-1.49,5.22-2.11,7.87-.37,1.61-.27,3.03,1.59,3.96,2.01,1.02,3.8,2.45,5.71,3.67.26.17.7.37.93.27,1.95-.89,3.6.17,5.33.78,1.41.49,2.7.32,3.45-.99,1.48-2.57,3.85-3.27,6.55-3.66.98-.14,2.05-.8,2.74-1.56,1.59-1.77,3.49-2.83,5.83-3.19,3.13-.49,5.57-2.14,7.69-4.45,1.02-1.09,2.2-2.08,3.44-2.89,6-3.88,12.06-7.69,18.13-11.47,1.95-1.21,3.34-2.68,3.92-5.04.24-1.02,1.35-1.82,1.97-2.78.86-1.35,1.89-2.67,2.41-4.16,1.05-3.09.09-5.91-1.54-8.61-1-1.68-2.18-3.42-.78-5.54.19-.29-.13-1.09-.42-1.51-.76-1.03-1.42-1.95-.49-3.29.66-.93,1.03-2.07,1.59-3.07.09-.14.5-.19.76-.17,2.34.14,2.81,3.23,5.24,3.36.36.01.8.7,1,1.18.17.4,0,.95.07,1.42.3,1.95.3,4.03,1.02,5.83,1,2.5,2.08,4.88,2.01,7.67-.04,1.56.22,3.14.27,4.71.06,1.69.43,3.13,1.64,4.49.95,1.05,1.65,2.56,1.87,3.95.3,1.88-1.31,2.94-2.9,1.98-1.39-.83-2.31-.17-3.06.57-1.62,1.67-3.13,3.47-4.55,5.33-2.67,3.49-5.14,7.13-7.89,10.56-3.73,4.67-7.95,8.94-10.38,14.56-.83,1.94-2.48,3.19-4.61,3.86-.75.24-1.26,1.21-1.94,1.78-.93.8-1.94,2.24-2.89,2.22-2.71-.04-3.73,1.48-4.68,3.56-1.29,2.81-2.37,3.33-5.27,3.06-.73,1.51-1.45,2.99-2.15,4.46,2.38,3.57,4.75,7.26,7.25,10.85,1.89,2.7,4.12,5.15,5.89,7.91,3.29,5.15,6.37,10.42,9.47,15.67,1.26,2.12,2.43,4.29,3.53,6.49.62,1.22.93,2.58,1.56,3.8,1.42,2.73,3.22,3.4,6.16,2.58.79-.22,1.61-.37,2.43-.4,5.74-.27,11.5-.79,17.24-.66,10.56.23,21.14.5,31.67,1.48,4.31.42,8.8.73,10.98,5.2,1.39,2.86,2.08,6.06,3,9.13,1,3.37.04,6.49-1.35,9.57-3.39,7.48-8.9,12.67-16.23,16.28-2.9,1.44-5.7,3.44-7.92,5.77-5.81,6.13-12.19,11.5-19.08,16.36-2.73,1.92-5.05,4.42-7.61,6.6-1,.86-2,1.78-2.99,2.67,2.54-.07,5.1-.14,7.59.09,7.38.67,13.98-1.87,20.96-2.76,1.92-.24,3.79-1.21,5.99-1.16,2.57.06,5.15-.23,7.69-.04,2.74.22,5.37.2,8.02,0,4.08-5.94,10.75-14.73,14.12-19.51,4.59-6.49,15.65-17.81,18.33-19.28,0,0-.52-3.89,2.33-5.18,0,0,.79-.43-.09-1.05-.86-.6-3.79-3.96-3.79-4.23s2.24-5.01,2.84-8.38c.6-3.36,1.48-10.97,1.56-14.77.09-3.8,1.46-14.53,5.01-28.09,0,0,1.12-5.27,7.09-12.62,0,0,.78-15.22.69-17.81-.09-2.58-1.82-5.61-.96-9.76.88-4.15,1.43-8.05,1.43-8.05,0,0-4.63,1.59-4.92.47-.62-2.45,4.56-3.24,4.65-3.5,0,0-1.77-12.86-1.77-13.98s-.95-2.77-1.29-5.44c-.34-2.68-2.77-14.27-2.77-34.49,0,0-.17-2.76-1.21-4.15-1.03-1.38-.09-.95-2.15-2.07-2.08-1.13-3.89-3.2-3.89-3.2,0,0-.27,2.24-1.22,1.46-.95-.78-1.38-1.38-1.98-2.24s-1.22-2.6-1.22-2.6c0,0-1.21-.86-2.15-1.64-.95-.78-3.2-4.84,1.55-3.46,0,0-.6-2.34.7-2.68,1.29-.34,4.67-1.12,4.67-1.12,0,0,.34-2.34.26-3.98-.09-1.64-1.13-5.35-1.13-8.04s1.82-3.29,2.08-1.21c.26,2.07.52,4.41,1.29,5.53.78,1.12.78,5.18,1.65,6.75.86,1.55,8.56,15.03,8.64,15.9.09.86,2.67,11.57,3.55,16.34.86,4.75,6.04,19.01,5.96,22.29-.09,3.29-.09,8.38.26,9.85.34,1.48,1.29,10.2,1.3,10.22.04.28,1.83.29,2.02.27.99-.12.56-1.08.64-1.94.08-.93.65-1.17.91-1.23,2.55-.61,5.4-.49,8.13-.91,1.52-.24,2.53.42,2.62,1.35.22,2.24.45,3.01.33,5.26-.01.21-.35,1.77-1.66,1.92-3.14.36-5.33.57-8.49.61-.22,0-1.08.07-1.53-.63-.14-.21-.38-1.2-.54-1.25-.48-.16-1.75-.1-1.95.27-.4.71.29,3.8.83,4.58.78,1.12,3.2,6.4,3.2,6.4,0,0,2.41,2.84,2.41,3.53s.52,2,.69,2.51c.17.52,5.89,1.21,6.92,1.12s1.29-2.15-1.21-5.78c-2.51-3.63-2.68-5.71-1.65-6.23,1.05-.52,1.65-.78,1.65-1.89s.26-1.29,1.98-1.46c1.74-.19,3.55-2.77,3.98-3.63.43-.88.86-4.06,3.72-3.2,0,0-.17-4.23,2.08-4.06,2.24.17,3.98,3.29,6.13,1.46,0,0,1.03-1.55,6.14-1.12,0,0,3.53.43,4.84,1.29,1.29.86,6.9-.43,11.76,11.07l-1.65-2.08,1.03,2.51-1.28-1.69c.19.65,3.27,11.1,3.27,16.13s.86,26.7,1.64,28.87c.66,1.81,1.68,12.75,5.37,20.04-1.41-2.27-3.04-5.17-3.86-7.44.69,2.11,4.62,13.88,9.07,19.31-.67-.65-6.09-6.06-9.26-12.69.16.89,2.86,15.29,6.29,18.8,0,0-4.75-3.98-4.84-6.66,0,0,.26,5.54,1.91,7.09,0,0-1.65-.26-2.51-5.01,0,0-.6,3.03-.17,6.04,0,0-1.12-1.46-.78-5.78l-.96,2.68v-6.49s-1.03,3.63-.78,6.3c.26,2.68.26,4.06.26,4.06,0,0-.86-2.24-1.21-4.49,0,0-1.44,2.3-.72,4.09-.2-.29-1.12-1.81-.7-3.78l-.83,3.14s-.17-6.3-.69-7.09c0,0-.85,5.14-.27,7.48-.2-.43-2.08-4.59-1.38-9.32-.13.79-1.49,8.7-.76,11.01l-1.22-1.56-.69,1.39-.69-3.37-1.21,1.29-.09-4.92-1.13,5.87s-.6-3.72-.26-6.47c.36-2.77-.78-9.69-.78-9.69,0,0-.95,3.98-.6,6.32l-.83-4.15c.2,1.44,1.55,11.08.75,12.36,0,0-.69-8.64-1.55-11.84,0,0-1.42,7.19-1.05,9.69-.33-1.28-1.28-6.01.78-10.79-.27.17-3.01,2.18-1.38,11.4,0,0-3.19-5.28-2.67-10.38,0,0-2.17,5.8.34,10.55,0,0-2.94-.52-1.82-5.71,0,0-1.38.6-1.81,3.03,0,0-.26-3.72,2.15-6.83,0,0-2.67,1.31-2.93,4.41,0,0-.17-4.29,2.56-7.56-.3.3-2.73,2.81-4.12,8.01,0,0-1.02-2.57-.01-4.12-.19.26-1.62,2.38-1.62,3.59,0,0-1.12-1.64,1.46-6.04,2.6-4.41,1.39-9.85,1.39-9.85,0,0,.09,5.18-1.74,7.77-1.81,2.6-2.86,4.41-2.86,4.41,0,0-.43-1.21,2.25-4.84,2.68-3.63,1.29-6.9,1.29-6.9,0,0,.34,4.41-2.41,7.08,0,0,1.89-3.89,1.89-6.3,0,0-5.53,2.33-5.1,7,0,0-1.28-1.38.75-4.29-.36.4-3.16,3.67-4.29,3.76,0,0,4.15-4.32,5.97-7.59l-2.86,2.5,2.01-3.3c-.34.34-1.94,2.05-5.21,6.07-3.72,4.58-4.23,5.7-4.49,6.82-.26,1.13-1.03.96-1.91,2.34-.86,1.38-.34,1.55-.6,3.11-.26,1.55-.26,1.89.34,2.94.62,1.03,11.5,16.68,9.78,20.57,0,0,.43,3.62,2.5,6.47,2.08,2.86,1.82,3.2,3.63,5.01s2.51,3.63,3.29,5.97c.78,2.33,12.79,21.95,12.79,21.95,0,0,2,.86,2.6,2.34.03.06.04.11.06.16.53.37,1.05.8,1.72.82,3.43.06,6.86,0,10.28.13,2.94.1,5.12,1.98,8.38,1.85,4.72-.19,9.63-.03,10.61,4.87.16.78.98.67,1.89.07,1.34-.88,3.14-1.59,4.51-.42,2.54,2.2,6.45.83,9.4,2.53,2.68,1.54,6.5,1.21,9.56-.29,1.55-.76,3.13-1.15,4.78-.8,1.98.4,3.78,1.35,5.76,1.72,2.43.44,5.18-.3,7.36,1.06,1.82,1.15,4.09.7,6.03,1.19.86.22,1.31,1.51,1.81,2.35.49.83.93.95,1.82.59,3.19-1.25,5.8,1.35,9.14.76,2.83-.5,6,.23,8.93-.07,3.32-.33,5.48,1.56,8.34,1.88,2.94.33,6.59-.32,8.73.79,4.12,2.14,9.39.2,13.22,2.94,1.74,1.23,4-2.15,6.76-.29,1.98,1.33,4.89.62,7.41.53,1.68-.04,2.78-1.87,1.82-2.91-.49-.53-1.12-.98-1.65-1.49-3.13-3.09-3.07-3.04,1.45-6.11,1.23-.83,2.58-1.85,3.06-2.99.89-2.14,2.08-1.11,3.6-.6,3.03.99,5.78.53,8.14-1.26,1.12-.86.76-1.59-.04-2.41-1.55-1.55.59-1.29,1.45-1.72.66-.34,3.1-.37.88-1.59-2.54-1.41-2.96-2.05-1.39-2.81,1.05-.52,2.2-.9,3.22-1.45,3.29-1.72,7.82-2.27,9.01-5.99.36-1.13,2.22-1.71,4.11-1.91,1.45-.16,1.67-1.16.11-1.67-1.02-.32-2.47-.17-2.38-1.35.03-.27,1.34-.65,2.1-.69,1.69-.13,3.43,0,5.12-.16.53-.06,1.48-.93,1.38-1.05-2.91-3.72,1.62-2.77,3.22-2.58,4.06.47,8.12,1.26,12,2.31,1.62.44,2.71,1.31,4.22-.04,1.38-1.23,4.02-2.25,4.21-3.53.43-2.93,2.83-2.67,5.34-2.89.73-.06,1.39-.59,2.1-.89-.72-.33-1.39-.79-2.17-.93-2.17-.4-2.99-1.84-2.11-2.87,1.32-1.58,1.79-2.61-.34-3.89-.98-.59-1.79-1.44-2.33-2.3-.29-.44.1-1.19.32-1.77.06-.16.78-.37.92-.29,2.2,1.29,4.75,1.11,7.31,1.26,4.58.27,9.09-.11,13.68,1.61,3.13,1.16,7.55.39,11.4.34.63,0,1.81-.75,1.77-1.08-.11-.89-.44-2.11-1.26-2.5l-.1.1ZM177.58,119.89s-.6,1.21-1.58,3.17c1.21.06,2.41.09,3.62.07h.73c-1.31-2.12-2.77-3.24-2.77-3.24h0Zm218.96,127.08c-1.69,2.38-3.01,4.19-4.29,6.03-5.08,7.26-10.21,14.51-15.22,21.82-3.22,4.67-6.42,9.34-9.6,14.02,1.21-.16,2.66,0,3.92-.04,1.29-.04,2.71.24,3.83-.1.65-.2,1.29-.42,1.92-.65-.04-1.35.8-2.4,2.38-3.1,3.43-1.56,6.8-3.26,10.26-4.77,3.19-1.38,5.31-3.8,7.12-6.65,1.21-1.91,2.54-3.76,4-5.48,1.56-1.85,3.76-2.45,6.13-2.34,1.85.1,3.72.5,5.54.36,1.35-.1,3.19-.47,3.88-1.41,2.81-3.82,6.53-7.02,7.97-11.87.83-2.78,2.44-5.37,3.85-7.95,1.03-1.91,2.31-3.69,3.8-6.04-12.24,3.82-24,7.18-35.5,8.17h0Z"/>
  <path class="cls-2" d="m126.84,291.05c-3.23-.55-6.01-3.47-9.46-1.89-.13.06-.27.11-.4.16,1.59,1,3.07,1.69,4.05,2.2,1.05.55,2.7,1.03,4.61,1.46.49-.24.98-.47,1.46-.66,1.02-.39.98-1.05-.26-1.26h0Z"/>
  <path class="cls-3" d="m597.01,199.01c-.86-.99-1.61-2.18-2.25-3.49,1.03,1.68,1.94,3.01,2.25,3.49Z"/>
</svg>